<?xml version="1.0" encoding="UTF-8"?>
<svg id="_182.React" data-name="182.React" xmlns="http://www.w3.org/2000/svg" viewBox="0 0 520 520">
  <defs>
    <style>
      .cls-1 {
        fill: #fff;
      }
    </style>
  </defs>
  <path class="cls-1" d="M371.23,344.41s-5.79,5.86,6.56,7.06c4.41,.43,1.84-2.96,1.84-2.96l-6.71-.56-1.69-3.54Z"/>
  <path class="cls-1" d="M377.8,351.47s-3.32,4.45,6.21,5.93l2.12-2.54-8.33-3.39Z"/>
  <path class="cls-1" d="M150.43,301.96c0,.28-.25,1.94-.25,1.94,0,0,4.86,2.51,7.83,.53,2.96-1.98,1.76-4.13,1.76-4.13l-2-.85s1.23,2.8-.85,3.5c-2.08,.7-6.49-.99-6.49-.99Z"/>
  <path class="cls-1" d="M158.87,302.77s3.71,4.13,7.06,2.93c2.98-1.07,2.82-3.38,2.82-3.38h-1.73s-2.61,.84-2.75,.84-4.26-1.76-4.26-1.76l-1.14,1.38Z"/>
  <path class="cls-1" d="M166.95,302.87s3.01,4.42,5.55,4.86c1.68,.29,2.21-1.05,2.21-1.05l-6.89-6.34-.87,2.53Z"/>
  <path class="cls-1" d="M284.47,405.14c-4.08-6.97-8.57-13.73-13.34-20.29-1.75-2.39-3.58-4.71-5.38-7.05-6.35-8.28-13.09-16.27-20.09-24.03-3.11-3.44-6.34-6.81-9.58-10.08-2.07-2.12-4.23-4.14-6.28-6.29l-3.1-3.19c-1.05-1.05-1.98-2.22-2.97-3.32-1.21-1.41-1.02-1.25,.29-.36,.66,.44,1.6,1.06,2.77,1.79,1.13,.76,2.36,1.76,3.65,2.89,2.3,1.98,4.48,4.1,6.62,6.24,2.16,2.13,4.28,4.3,6.39,6.49,4.2,4.39,8.32,8.89,12.23,13.59,4.68,5.63,9.67,11.39,14.22,17.34,5.02,6.53,9.75,13.29,14.15,20.26,2.7,4.3,5.27,8.68,7.65,13.16,3.61,6.79,6.79,13.86,9.29,21.1,1.91,5.63,3.6,11.28,4.13,17.29,.11,1.32,.19,2.63,.13,3.99-.13,2.53-.58,4.25-1.23,5.38-.66,1.12-1.45,1.61-2.15,1.68-.32,.04-.69,.06-.87-.04-.29-.17,0-.47,.21-1.1,.21-.67,.53-1.73,.78-3.31,.35-2.34,.24-4.89-.05-7.42-.29-2.54-.79-5.12-1.42-7.68-1.26-5.13-3.03-10.26-5.11-15.28-3.09-7.46-6.83-14.72-10.99-21.73l.05-.04Z"/>
  <path class="cls-1" d="M252.87,272.65c-3.03-.64-5.92-1.83-8.55-3.42-.96-.58-1.93-1.17-2.79-1.87-3.06-2.52-5.36-5.82-7.05-9.24-.74-1.53-1.46-3.06-2.09-4.6-.76-1.99-1.69-3.92-1.84-6.11,0-.7-.01-.6,.45-.18,.52,.4,1.45,1.15,2,2.24,1.83,3.9,3.43,7.72,5.75,11.14,1.38,2.06,3.4,3.7,5.41,5.22,2.24,1.6,4.76,2.91,7.46,3.69,1.65,.53,3.38,.79,5.1,.97,2.62,.2,5.32,.07,7.88-.56,1.99-.51,3.86-1.28,5.65-2.21,.4-.2,.77-.42,1.18-.61,.75-.35,1.28-.53,1.71-.54,.42-.04,.72,.04,1.01,.18,.13,.07,.29,.12,.39,.19,.32,.23-.1,.89-1.08,1.82-.73,.66-1.61,1.1-2.49,1.58-.86,.5-1.82,.83-2.76,1.23-.95,.36-1.95,.64-2.94,.92-1.02,.21-2.03,.48-3.07,.57-3.08,.42-6.26,.29-9.32-.32v-.07Z"/>
  <path class="cls-1" d="M245.32,179.29c1.72,.73,3.67,1.09,5.65,1.26,.73,.08,1.43,.05,2.15,.05,2.52,.01,5.06-.41,7.45-1.31,1.06-.4,2.07-.94,2.99-1.58,.6-.4,1.2-.8,1.78-1.24,.6-.4,1.24-.8,1.83-1.25,.38-.27,.38-.2,.23,.2-.15,.39-.39,1.19-.9,1.98-.52,.61-1.1,1.19-1.73,1.7-.67,.46-1.36,.87-2.08,1.23-1.44,.72-2.98,1.25-4.57,1.53-1.89,.32-3.85,.68-5.81,.62-2.13-.08-4.24-.32-6.32-.94-1.28-.36-2.5-.95-3.64-1.68-1.71-1.15-2.99-2.89-3.76-4.73-.57-1.45-1.01-2.91-1.2-4.42-.03-.33-.07-.66-.08-.99,0-1.24,.21-1.64,.5-1.9,.07-.06,.14-.14,.21-.17,.22-.12,.45,.38,.68,1.23,.67,2.52,1.17,5.09,2.49,7.09,.94,1.51,2.42,2.58,4.16,3.28l-.02,.05Z"/>
  <path class="cls-1" d="M291.14,186.81c1.86,.95,3.95,1.49,6.06,1.64,.77,.05,1.52-.01,2.29-.09,2.68-.3,5.33-1.4,7.58-3.06,1-.74,1.94-1.58,2.74-2.51,.55-.57,1.05-1.19,1.54-1.82,.45-.65,1.1-1.18,1.59-1.83,.34-.39,.3-.33,.2,.1-.13,.41-.15,1.34-.57,2.24-.45,.73-.94,1.45-1.47,2.13-.55,.67-1.19,1.26-1.83,1.84-1.31,1.14-2.78,2.11-4.37,2.84-1.9,.85-3.98,1.6-6.15,1.76-2.38,.1-4.71-.26-6.91-1.08-1.36-.48-2.64-1.16-3.82-1.98-1.8-1.23-3.31-2.87-4.49-4.66-.5-.68-.86-1.42-1.3-2.13-.34-.75-.75-1.49-.97-2.28-.11-.35-.24-.68-.34-1.04-.31-1.33-.23-1.79,.12-2.14,.08-.08,.16-.18,.24-.23,.28-.17,.68,.3,1,1.18,1.01,2.59,2.2,5.14,3.99,7.29,1.32,1.59,3,2.88,4.89,3.79l-.02,.04Z"/>
  <path class="cls-1" d="M275.79,233.47c-.61-1.08-3.68,12.49-10.52,14.25-6.84,1.75-9.7-6.52-12.79-15.31l-1.67-7.93s-48.61,4.85-74.62,13.63c0,0-10-2.77-12.58-19.43-2.58-16.65,6.8-26.64,11.69-32.13,4.89-5.49,21.87-20.87,25.64-38.59s6.81-43.81,20.12-61.96c13.2-18,54.9-33.43,79.16-12.35,0,0,20.14-13.36,34.6-4.83,13.7,8.09,20.98,16.59,20.72,36.64-.26,20.05-15.23,45.29-15.23,45.29h-9.86s-12.63-9.39-18.07-20.82c-5.44-11.43-8.62-22.69-8.62-22.69,0,0-5.98,6.25-17.97,11.84-11.99,5.58-27.79,13.26-42.04,12.3l-11.11-1.44-.57,11.95s-4.51-7.71-11.8-5.83-7.42,8.31-6.66,14.7c.77,6.38,5.1,15.29,12.58,18.67,7.48,3.39,8.06,2.18,8.06,2.18,0,0-1,17.98,8.9,32.53s14.11,17.79,25.14,19.56c11.03,1.77,22.87-4.16,29.66-12.63s17.84-28.52,17.84-28.52l20.98-5.8s-1.65,3.54-.96,7.05c.7,3.51,11.42,26.71,14.31,37.17s4.91,25.04,3.09,37.57c-1.82,12.53-3.88,12.1-3.88,12.1,0,0-26.84-20.53-48.69-29.63-21.86-9.1-22.88-9.44-22.88-9.44l-1.98,1.9Z"/>
  <path class="cls-1" d="M288.64,219.51c-4.79,3.06-10.48,4.96-16.25,5.2-2.87,0-5.77-.19-8.51-.92-.69-.18-1.38-.28-2.07-.53l-2.06-.72c-.68-.24-1.31-.6-1.97-.9-.65-.32-1.31-.6-1.9-1.01-.87-.57-1.79-1.08-2.63-1.69l-2.44-1.93c-.79-.66-1.48-1.43-2.23-2.14l-1.09-1.1-.95-1.2c-4.54-5.62-7.55-12.15-9.77-18.78l-1.52-5.03-1.15-5.1c-.19-.85-.39-1.7-.56-2.55l-.4-2.58-.8-5.15c-.32-3.06-.65-6.12-.97-9.18-.19-3.07-.38-6.13-.57-9.17-.26-7.81-.54-15.71,1.01-23.43,.31-1.2,.5-1.71,.62-1.67,.12,.04,.22,.64,.54,1.69,.66,2.09,1.76,5.89,1.64,10.32,.03,1.97,.12,3.93,.17,5.89,.07,1.96,.01,3.93,.05,5.89l.28,5.87c.1,1.96,.13,3.92,.36,5.86l.54,5.85c.06,.98,.22,1.94,.37,2.91l.43,2.9,.42,2.91c.14,.97,.39,1.91,.57,2.87l.6,2.87c.2,.96,.37,1.93,.66,2.86,1.23,4.5,2.74,9.07,5.02,13.25,1.01,2.17,2.41,4.09,3.67,6.09l2.21,2.75c.35,.48,.77,.88,1.18,1.29l1.23,1.24,.67,.68,.74,.6,1.48,1.2c.47,.43,1.04,.71,1.57,1.07,.54,.33,1.06,.69,1.61,1,2.25,1.17,4.56,2.04,7.11,2.53,.62,.17,1.25,.24,1.89,.32l1.9,.24,1.91,.04,.95,.02,.95-.08c.63-.06,1.27-.09,1.9-.17l1.87-.36c.63-.09,1.24-.29,1.85-.48,.61-.2,1.23-.33,1.82-.58,2.97-1.07,5.72-2.74,8.29-4.64,2.57-1.91,4.94-4.13,7.11-6.54,6.63-7.29,11.86-15.93,16.42-24.71,3.54-6.85,6.45-13.85,9.6-20.82,.69-1.54,1.34-3.06,2.06-4.6,.67-1.43,1.25-2.6,1.76-3.58,.53-.97,1.03-1.71,1.45-2.32,.83-1.22,1.54-1.81,2.24-2.22,.31-.19,.66-.47,.88-.55,.71-.31,.25,2.33-1.38,6.63-5.11,12.64-10.76,26.02-18.28,38.72-2.79,4.71-5.88,9.31-9.46,13.6-3.59,4.27-7.67,8.28-12.57,11.35l-.07-.07Z"/>
  <path class="cls-1" d="M282.99,123.04c-4.38,1.99-8.88,3.72-13.46,5.18-1.66,.55-3.33,1.1-5.02,1.57-6,1.5-12.14,2.49-18.31,2.73l-2.05,.1-2.06,.04c-1.37,.07-2.74-.02-4.1-.04-3.48-.16-7.06-.33-10.32-1.79-1.02-.41-.79-.72,.21-1.09,.5-.19,1.19-.41,2-.64,.8-.16,1.72-.3,2.68-.27,1.7,.06,3.39,.2,5.08,.26,1.7,.02,3.39,.05,5.09,.04,3.4,0,6.83-.14,10.28-.49,4.14-.38,8.33-1.54,12.41-2.73,4.49-1.31,8.92-2.9,13.24-4.77,2.65-1.17,5.27-2.4,7.83-3.77,3.87-2.06,7.68-4.33,11.2-6.89,2.73-2,5.18-4.26,7.52-6.59,.5-.53,.97-1.06,1.51-1.55,.98-.93,1.61-1.54,2.18-1.86,.61-.29,1.05-.39,1.54-.37,.22,0,.47-.03,.65,0,.3,.06,.36,.38,.24,.96-.06,.29-.16,.65-.31,1.05-.14,.41-.43,.79-.72,1.24-1.8,2.63-4.18,4.82-6.63,6.92-2.47,2.09-5.13,4-7.87,5.78-4.08,2.63-8.37,4.96-12.75,7.06l-.04-.08Z"/>
  <path class="cls-1" d="M315.68,138.51c-1.65-2.34-3.2-4.74-4.55-7.24-.5-.91-1.09-1.76-1.51-2.71-1.58-3.29-2.88-6.69-3.85-10.17-.24-.76-.47-1.53-.69-2.3-.23-.76-.47-1.52-.7-2.28-.27-.98-.49-1.98-.7-2.97-.12-1.02-.13-2.06-.17-3.08,0-.64,.14-.58,.54-.13,.38,.46,1.18,1.27,1.77,2.3,.42,.94,.82,1.87,1.17,2.81,.29,.96,.65,1.9,.94,2.85,.63,1.9,1.31,3.78,1.92,5.71,.71,2.33,2.01,4.5,3.17,6.67,1.35,2.35,2.72,4.7,4.35,6.89,.95,1.39,2.05,2.66,3.09,3.97,1.67,1.92,3.39,3.83,5.33,5.47,.77,.62,1.5,1.26,2.3,1.82l2.39,1.67c.34,.25,.73,.44,1.06,.72,.32,.24,.57,.46,.78,.65,.2,.21,.32,.42,.42,.6,.19,.37,.24,.68,.21,1.04-.02,.16,0,.33-.04,.47-.1,.43-.89,.41-2.12,.05-3.36-1.46-6.57-3.67-9.37-6.35-.52-.5-1.06-.98-1.55-1.5l-1.48-1.58c-1.02-1.03-1.87-2.21-2.78-3.33l.07-.06Z"/>
  <path class="cls-1" d="M198.51,147.23c3.88-13.01,4.89-27.05,8.57-40.77,1.33-4.99,2.93-10.02,5.29-14.7,2.07-4.12,4.51-8.04,7.28-11.72,2.78-3.67,5.97-7.02,9.42-10.06,.89-.73,1.72-1.52,2.65-2.21l2.77-2.06c1.93-1.25,3.85-2.53,5.91-3.57,4.08-2.13,8.39-3.89,12.9-4.87,7.98-1.84,16.39-1.81,24.28,.07,5.08,1.17,9.99,3.23,14.4,6.09,4.38,2.85,8.39,6.57,10.67,11.3,.69,1.47,.95,2.11,.84,2.13-.11,.02-.63-.58-1.64-1.49-.25-.23-.53-.47-.83-.74-.32-.25-.69-.51-1.07-.78-.2-.13-.37-.29-.61-.4-.18-.16-.38-.31-.57-.48-.38-.34-.84-.63-1.29-.96-.45-.33-.92-.66-1.4-1.01-.46-.37-1.04-.64-1.53-1.02-.52-.35-1.01-.77-1.56-1.13-.56-.36-1.11-.73-1.67-1.13-4.01-2.78-8.63-4.54-13.3-5.91-2.35-.68-4.77-1.09-7.19-1.43-2.44-.24-4.89-.42-7.34-.3-2.46,.03-4.89,.35-7.3,.79-1.22,.15-2.4,.51-3.59,.8-.59,.16-1.2,.27-1.78,.48l-1.75,.6c-4.67,1.61-9.12,3.93-13.25,6.81-4.93,3.45-9.36,7.86-13.09,12.84-3.74,4.98-6.72,10.55-8.99,16.32-1.28,3.16-2.23,6.48-3.13,9.8-.83,3.36-1.58,6.74-2.21,10.17-1.3,6.85-2.33,13.8-3.81,20.73-.91,4.26-1.97,8.52-3.44,12.66-1.47,4.14-3.18,8.23-5.51,12-6.94,11.58-17.83,19.68-24.77,30.36-2.68,4.15-4.55,8.64-5.42,13.36-.42,2.36-.59,4.75-.54,7.12,.06,2.37,.44,4.72,1.03,6.99,.5,2.02,1.35,3.86,2.27,5.71,1.83,3.38,3.56,5.25,4.67,6.67,1.14,1.4,1.72,2.37,2.17,3.22,.2,.4,.52,.86,.62,1.14,.16,.47-.49,.32-1.96-.29-.77-.26-1.58-.86-2.62-1.52-.51-.34-.99-.8-1.51-1.27-.54-.46-1.03-1.04-1.56-1.64-.82-.87-1.47-1.88-2.18-2.86-.62-1.03-1.28-2.05-1.78-3.16-.57-1.08-.97-2.23-1.42-3.37-.34-1.17-.75-2.33-.97-3.54-.55-2.4-.78-4.87-.77-7.34-.03-2.48,.29-4.94,.75-7.38l.4-1.82c.15-.61,.35-1.2,.53-1.8,.19-.6,.36-1.21,.57-1.8l.72-1.74c.95-2.32,2.19-4.49,3.5-6.6,2.66-4.18,5.85-7.86,9.04-11.41,4.76-5.25,9.62-10.19,13.55-15.67,3.82-5.48,6.65-11.63,8.49-18.22h.1Z"/>
  <path class="cls-1" d="M352.93,102.48c-.13-3.33-.56-6.63-1.31-9.86-.78-3.22-1.98-6.33-3.48-9.28-1.15-2.13-2.53-4.12-4.03-6.02-2.6-3.38-5.72-6.41-9.28-8.9-.43-.33-.87-.66-1.3-.9-.45-.25-.85-.57-1.33-.78l-1.41-.68c-.49-.2-.99-.37-1.48-.56-2-.7-4.11-1.21-6.25-1.45-3.8-.47-7.72-.21-11.37,.77-2.32,.7-4.56,1.64-6.62,2.87-.54,.26-.99,.67-1.5,.98-.49,.34-1.01,.65-1.45,1.06-.45,.4-.93,.76-1.42,1.12-.48,.37-.84,.86-1.36,1.22-.66,.44-1.03,.59-1.14,.48-.12-.12-.02-.51,.13-1.27,.16-.74,.46-1.8,1.14-2.88,.33-.55,.74-1.11,1.22-1.65,.52-.5,1.09-1.01,1.73-1.5,2.31-1.61,4.87-2.92,7.57-3.64,2.68-.77,5.44-1.25,8.21-1.3,2.76-.08,5.53,.12,8.24,.72,2.71,.59,5.37,1.48,7.86,2.88l1.1,.68c.38,.22,.73,.45,1.05,.7,.66,.48,1.32,.97,1.98,1.45l1,.72,.95,.8,1.91,1.6c2.43,2.26,4.8,4.67,6.65,7.45,1.1,1.47,1.94,3.1,2.86,4.68,.77,1.66,1.59,3.29,2.17,5.02,1.26,3.42,2.13,6.97,2.55,10.56,.57,4.41,.57,8.86,.17,13.25-.3,3.32-.83,6.63-1.6,9.86-.75,3.24-1.65,6.43-2.74,9.55-.83,2.42-1.69,4.81-2.68,7.16-.95,2.36-2.06,4.66-3.3,6.91-.28,.5-.55,.99-.83,1.48-.3,.48-.6,.97-.92,1.45-1.21,1.79-2.27,2.81-3.13,3.41-.45,.29-.84,.47-1.2,.57-.38,.09-.75,.07-1.09,0-.32-.06-.67-.08-.89-.2-.37-.2-.32-.7-.03-1.37,.29-.69,.87-1.59,1.64-2.76,1.13-1.75,2.23-3.61,3.25-5.54,1-1.95,1.96-3.95,2.84-6.01,1.79-4.11,3.27-8.43,4.43-12.83,1.74-6.53,2.66-13.32,2.4-20.03h.1Z"/>
  <path class="cls-1" d="M213.66,156.06c-.59-1.74-1.03-3.46-1.35-5.34-.26-1.87-.33-3.71-.22-5.58,.1-1.36,.23-2.74,.66-4.11,.38-1.2,.97-2.38,1.79-3.44,.81-1.07,2-1.95,3.28-2.42,1.29-.51,2.75-.58,3.97-.36,1.25,.21,2.44,.57,3.53,1.1,1.94,.9,3.74,2.09,5.21,3.62,.95,.96,1.83,2.03,2.46,3.25,.26,.64,.55,1.26,.69,1.94,.19,.66,.17,1.37,.15,2.04-.04,.85-.2,.73-.74,.17-.29-.27-.63-.66-1.17-1.02-.25-.19-.44-.41-.65-.64-.23-.22-.46-.45-.65-.7-.15-.23-.37-.43-.54-.64-.17-.22-.3-.46-.49-.67-.37-.42-.71-.85-1.13-1.23-.79-.79-1.69-1.46-2.6-2.09-.91-.64-1.91-1.16-2.92-1.53-1.01-.38-2.06-.61-3-.57-.27,.04-.55,.02-.82,.14-.28,.08-.57,.15-.81,.32l-.39,.21-.34,.29c-.25,.17-.44,.43-.64,.66-.8,.98-1.3,2.34-1.62,3.74-.35,1.55-.48,3.21-.43,4.86,.06,1.66,.4,3.25,.85,4.9,.54,2.01,1.3,3.97,2.23,5.83,1.39,2.83,3.21,5.5,5.55,7.54,1.81,1.59,3.96,2.64,6.16,3.2,.49,.12,.96,.24,1.46,.29,.46,.06,.83,.15,1.14,.26,.31,.09,.57,.15,.78,.25,.42,.19,.67,.46,.88,.86,.09,.18,.22,.36,.28,.54,.21,.58-.65,1.06-2.33,1.2-2.47,.03-4.99-.8-7.21-2.07-2.23-1.28-4.17-3.05-5.77-5.01-2.38-2.93-4.1-6.29-5.32-9.77l.07-.03Z"/>
  <path class="cls-1" d="M336.76,172.14c.59-.41,1.04-.95,1.58-1.42,.51-.49,.93-1.06,1.41-1.59,.4-.59,.84-1.15,1.2-1.76l.52-.94c.19-.3,.35-.63,.49-.96,.2-.48,.43-.96,.57-1.47,.14-.51,.29-1.02,.46-1.52,1.02-3.23,.23-7.43-2.68-9.44-1.32-.9-2.9-1.32-4.47-1.19-1.02,.07-2,.42-3,.77-.51,.17-1.02,.35-1.53,.57-.5,.23-1.09,.35-1.62,.6-.69,.26-.63,.21-.34-.41,.19-.42,.4-.89,.62-1.36,.3-.54,.76-1.1,1.36-1.56,.27-.2,.54-.41,.84-.57,.3-.16,.62-.28,.94-.41,.64-.25,1.33-.43,2.03-.57,1.41-.23,2.94-.21,4.35,.26,1.4,.46,2.66,1.18,3.76,2.2,1.08,1.01,1.87,2.26,2.38,3.56,.62,1.56,.96,3.19,1.07,4.85,.04,.83,.02,1.67-.08,2.5-.11,.86-.33,1.59-.54,2.35-.47,1.66-1.18,3.25-2.04,4.74-.48,.71-.93,1.45-1.46,2.13-.56,.65-1.05,1.36-1.69,1.94-1.43,1.55-3.16,2.76-4.88,3.89-2.68,1.64-5.62,2.74-8.55,3.58-2.28,.64-4.53,1.34-6.86,1.72-.51,.09-1.02,.18-1.54,.23-1.94,.1-2.56-.21-2.97-1.21-.09-.21-.21-.4-.27-.57-.09-.3,.06-.58,.39-.95,.33-.39,.84-.63,1.5-.79,1.94-.5,3.88-.92,5.82-1.35,.96-.24,1.92-.49,2.88-.75,.93-.32,1.9-.55,2.81-.93,2.73-1.02,5.32-2.38,7.48-4.23l.07,.07Z"/>
  <path class="cls-1" d="M350.98,233.77c-.76-4.77-1.92-9.52-3.45-14.19-.56-1.7-1.25-3.36-1.87-5.05-2.15-5.97-4.71-11.84-7.08-17.86-1.03-2.68-2.1-5.38-2.92-8.17-.31-.88-.44-1.83-.66-2.74-.11-.95-.32-1.88-.29-2.86,0-.49-.04-.96,.01-1.45l.3-1.44c.31-.93,.6-1.86,1.13-2.66,.62-1.02,.59-.8,.53,.19,0,.26-.02,.55-.03,.87,.04,.34,.1,.72,.17,1.12,.03,.79,.58,1.69,.59,2.6,.15,1.65,.76,3.31,1.26,4.95,.53,1.67,1.12,3.35,1.8,5.03,.65,1.68,1.38,3.36,2.07,5.08,.67,1.73,1.35,3.46,2.03,5.2,1.59,4.19,3.67,8.4,5.29,12.73,1.79,4.76,3.3,9.67,4.31,14.68,.67,3.08,1.05,6.22,1.37,9.35,.41,4.76,.24,9.58-.29,14.28l-.13,1.37-.2,1.36c-.12,.91-.25,1.81-.37,2.72l-.51,2.69-.26,1.35-.35,1.33c-.21,.78-.38,1.56-.61,2.34-.98,2.86-1.81,3.57-2.87,3.81-.25,.05-.5,.15-.72,.15-.36,0-.56-.34-.64-.94-.08-.6-.07-1.48,.17-2.51,.35-1.52,.71-3.05,1.07-4.59,.36-1.54,.61-3.11,.94-4.67,.47-3.16,.96-6.35,1.04-9.59,.2-4.8-.09-9.66-.92-14.46l.09-.02Z"/>
  <path class="cls-1" d="M202.72,233.25c-6.36,1.36-12.68,2.93-18.97,4.61-6.27,1.74-12.53,3.55-18.72,5.58-4.52,1.47-8.99,3.11-13.46,4.71-7.88,2.85-15.68,5.91-23.37,9.24-7.68,3.33-15.26,6.92-22.61,10.93-6.49,3.57-12.93,7.45-18.55,12.08-1.83,1.46-3.5,3.08-5.04,4.77-1.42,1.71-2.68,3.67-3.47,5.67-.35,1.01-.61,2.04-.67,3.08-.04,1.05,.08,2.11,.32,3.19,.27,1.07,.61,2.17,.97,3.28,.36,1.12,.81,2.22,1.11,3.39,.35,1.47,.39,2.14,.23,2.15-.17,.02-.59-.61-1.39-1.63-.79-1.04-1.83-2.48-2.95-4.48-.55-.99-1.02-2.2-1.34-3.6-.33-1.39-.38-3.03-.04-4.63,.11-.72,.37-1.38,.57-2.06,.28-.63,.49-1.32,.84-1.89,.32-.59,.64-1.2,1.02-1.74,.36-.56,.72-1.11,1.16-1.62,1.63-2.18,3.55-3.82,5.45-5.5,3.87-3.22,8-5.93,12.21-8.5,8.42-5.11,17.22-9.51,26.23-13.46,10.77-4.75,22.06-9.46,33.4-13.47,12.48-4.37,25.15-8.19,38-11.31,7.91-1.93,15.88-3.59,23.9-4.97,6.08-1,12.2-1.89,18.34-2.5,1.53-.19,3.07-.29,4.61-.42,1.54-.11,3.07-.28,4.6-.35,1.65-.09,3.31-.18,4.96-.27,.28-.03,.49,.05,.74,.07l.36,.05,.18,.02s.08-.03,.07,.05c.03,0,.06,.03,.08,.05,.32,.33,.47,.82,.6,1.34l.17,.8,.13,.69,.21,1.12c.86,4.61,1.95,9.17,3.93,13.19,1,1.97,2.27,3.83,3.9,4.91,.8,.53,1.71,.85,2.58,.88,.85,.05,1.67-.23,2.46-.73,1.39-.92,2.53-2.44,3.55-4.09,1.87-3.12,2.78-5.47,3.65-7.01,.44-.77,.81-1.38,1.18-1.86,.38-.48,.76-.83,1.11-1.14,.32-.28,.68-.67,.92-.8,.4-.22,.37,.41,.2,1.83-.16,1.43-.72,3.59-1.85,6.27-.84,1.99-1.8,3.98-3.11,5.9-.66,.96-1.41,1.89-2.34,2.76-.93,.86-2.08,1.65-3.5,2.08-1.41,.45-3.05,.39-4.38-.03-1.38-.41-2.6-1.18-3.59-2.06-1.98-1.79-3.2-3.94-4.19-6.07-1.93-4.3-2.92-8.76-3.74-13.16l-.3-1.63c-.02-.11-.01-.04-.02-.06,0,0,0,0-.01,0h0s0,0,0,0c0,0,.02,0-.08,0l-.82,.04-3.28,.17c-1.09,.06-2.19,.17-3.28,.26-6.5,.49-12.99,1.32-19.47,2.31-6.48,.97-12.92,2.25-19.33,3.63l-.03-.08Z"/>
  <path class="cls-1" d="M348.83,266.44l6.51,4.68,3.25,2.35,3.18,2.43,6.36,4.87,6.23,5.03,2.28,1.82,2.24,1.87c1.5,1.25,2.99,2.5,4.47,3.77,10.31,9.08,20.11,18.77,28.91,29.36,2,2.29,3.91,4.75,5.69,7.26,1.76,2.54,3.37,5.17,4.81,7.87,1.85,3.48,3.37,7.13,4.59,10.88,.59,1.88,1.13,3.77,1.55,5.68,.1,.48,.24,.95,.3,1.44l.17,1.46c.11,.98,.17,1.96,.24,2.93,.1,2.45,0,2.12-.89,.23-.45-.95-1.18-2.27-2.04-3.83-.42-.79-.74-1.67-1.11-2.59-.38-.92-.72-1.91-1.09-2.93-1.25-3.64-2.77-7.15-4.54-10.52-1.72-3.4-3.7-6.67-5.94-9.77-2.19-3.11-4.82-6.03-7.33-9.04-1.23-1.52-2.57-2.96-3.9-4.41l-3.97-4.38c-1.61-1.73-3.32-3.39-5.02-5.09-.86-.84-1.72-1.69-2.58-2.53-.87-.84-1.79-1.63-2.69-2.45-1.81-1.62-3.62-3.25-5.43-4.87-1.86-1.57-3.71-3.15-5.56-4.71l-3.04-2.59-3.11-2.51-6.23-5.01c-4.26-3.21-8.44-6.52-12.82-9.58-5.3-3.87-10.76-7.54-16.25-11.14-4.2-2.67-8.37-5.39-12.68-7.88-4.24-2.6-8.62-4.95-12.96-7.3-3.4-1.78-6.84-3.38-10.25-5.02l-5.2-2.24c-1.74-.74-3.45-1.53-5.23-2.18-1.55-.59-3.07-1.18-4.64-1.77-2.88-1.18-4.78-1.88-6.06-2.61-1.24-.8-1.94-1.35-2.48-1.87-.24-.24-.59-.49-.72-.65-.23-.28,.28-.28,1.45-.18,.59,.06,1.34,.14,2.23,.24,.91,.08,1.89,.38,3.02,.65,1.7,.37,3.3,1.02,4.94,1.6,1.63,.6,3.28,1.2,4.93,1.81,3.25,1.33,6.51,2.74,9.78,4.19,3.21,1.56,6.47,3.1,9.68,4.75,3.18,1.71,6.39,3.39,9.55,5.17,9.37,5.31,18.49,11.14,27.4,17.22l-.04,.09Z"/>
  <path class="cls-1" d="M263.71,271.99c-2.54,.34-5.09,.3-7.57-.02-.62-.06-1.24-.17-1.85-.29-.61-.12-1.22-.2-1.84-.41l-1.85-.53c-.62-.17-1.18-.48-1.77-.72l-1.28-.54-1.21-.67-1.21-.68c-.4-.24-.75-.53-1.12-.8-1.33-.92-2.48-2.05-3.65-3.14-1.06-1.18-2.16-2.34-3.07-3.63-1.9-2.52-3.49-5.24-4.77-8.09-.62-1.24-1.09-2.55-1.63-3.82-.26-.64-.46-1.3-.7-1.95-.23-.65-.47-1.3-.64-1.96-1.02-3.35-1.94-6.93-1.21-10.5,.34-1.1,.48-.93,1.14-.04,.63,.9,1.69,2.43,2.03,4.27,1.2,6.56,3.39,13.05,7.02,18.83,.51,.88,1.17,1.67,1.78,2.51,.65,.8,1.39,1.53,2.09,2.3,.79,.67,1.53,1.4,2.36,2.02l1.26,.9,.63,.45,.66,.38,1.46,.85c.5,.24,1.02,.44,1.53,.67,1.01,.51,2.11,.7,3.18,1.04,2.23,.49,4.53,.76,6.81,.72,1.41,0,2.8-.18,4.18-.42,1.36-.31,2.73-.65,4.01-1.21,3.94-1.59,7.38-4.43,9.9-7.89,1.97-2.69,3.31-5.73,4.31-8.83,.22-.69,.39-1.37,.59-2.07,.42-1.27,.66-2.11,.98-2.68,.32-.56,.66-.86,1.08-1.09,.19-.1,.39-.26,.57-.31,.3-.09,.51,.16,.68,.72,.16,.56,.27,1.43,.11,2.5-.19,1.59-.59,3.16-1.12,4.71-.52,1.55-1.16,3.08-1.93,4.56-1.55,2.96-3.56,5.79-6.1,8.17-3.71,3.59-8.68,6.03-13.81,6.76l-.02-.08Z"/>
  <path class="cls-1" d="M177.01,305.22c.18,.02,.2-.13,.2-.32,0-.02,0-.01-.01-.07l-.05-.2-.1-.41-.22-.81-.47-1.63c-.24-.79-.58-1.55-.83-2.34-.45-1.39-.92-2.78-1.45-4.11-.26-.65-.56-1.34-.86-1.82-.3-.48-.74-.93-1.27-1.28-.94-.64-2.15-.99-3.35-1.15-1.57-.22-3.12,.03-4.74-.19-.5-.06-.54-.12-.22-.63,.29-.53,1.08-1.45,2.16-1.65,1.89-.22,3.81-.15,5.74,.49,.95,.33,1.9,.82,2.73,1.56,.22,.17,.4,.38,.59,.59,.19,.2,.37,.42,.53,.67,.18,.25,.3,.48,.4,.69,.11,.22,.23,.44,.31,.65,.86,2.03,1.83,3.95,2.62,5.96,.42,1.1,.82,2.21,1.18,3.34l.59,1.91c.28,.89,.37,1.75,.3,2.48-.03,.45-.38,.89-.73,1.22-.37,.34-.83,.55-1.31,.67-.96,.22-2.03,.07-3.02-.33l-.49-.21-.41-.21c-.27-.14-.52-.29-.78-.45-.5-.32-.97-.66-1.43-1.02-.91-.72-1.73-1.51-2.52-2.33-1.22-1.27-2.42-2.56-3.36-4.12-.21-.34-.42-.68-.59-1.05-.15-.35-.25-.65-.31-.91-.04-.27,0-.51,.05-.7,.09-.39,.35-.65,.7-.88,.16-.1,.3-.22,.45-.29,.46-.21,1.17,.2,1.77,.9,1.39,2.21,3.16,4.34,5.26,6.08,.77,.63,1.6,1.2,2.39,1.59,.1,.04,.2,.1,.29,.14,.07,.03,.05,.02,.05,.02,0,0,0,0,0,0,0,.01,.01,.02,.03,.03,.02,.02,.06,.04,.1,.04l.07,.09Z"/>
  <path class="cls-1" d="M165.74,298.96c-.5-2.21-1.53-4.51-2.7-6.7-.43-.8-.96-1.55-1.43-2.33-.82-1.38-1.7-2.75-2.63-4.05-.47-.64-.96-1.29-1.43-1.83l-.16-.17c-.05-.05-.04-.05-.1-.1-.14-.09-.28-.18-.44-.26-.3-.17-.64-.3-.97-.41-1.22-.37-2.58-.3-3.82,.13-1.63,.53-2.97,1.61-4.85,2.21-.63,.16-.49,.21-.3-.33,.14-.57,.37-1.8,1.27-2.62,.8-.68,1.75-1.25,2.8-1.62,1.04-.39,2.18-.62,3.35-.62,1.17,0,2.34,.25,3.43,.74,.27,.13,.54,.26,.8,.43,.1,.05,.34,.22,.51,.36l.35,.33c.4,.42,.71,.82,1.02,1.23,1.39,1.97,2.91,3.86,4.17,5.92,1.37,2.26,2.61,4.62,3.53,7.18,.53,1.59,1.01,3.25,.82,5.18-.07,.72-.34,1.51-.87,2.16-.27,.38-.63,.63-1,.85-.4,.18-.83,.31-1.25,.32-.83,.05-1.53-.16-2.17-.4-.64-.24-1.22-.55-1.77-.88-1.7-1.04-3.26-2.17-4.67-3.55-.31-.31-.63-.6-.91-.94-1.04-1.29-1.08-2.01-.35-2.72,.13-.15,.23-.3,.32-.38,.17-.15,.39-.11,.85-.06,.27,0,.44,.08,.62,.19,.2,.1,.35,.25,.53,.42,1.05,1.04,2.22,2.08,3.43,3.03,.6,.47,1.22,.92,1.84,1.29,.61,.36,1.22,.69,1.68,.82,.17,.06,.29,.06,.37,.08,.06,0,.03,0,.04,.01,0,.01,.03,0,0,.02,.03-.01,.06-.05,.07-.09,.02-.04,.06-.07,.07-.14,.11-.22,.16-.64,.13-1.12,0-.47-.11-1.01-.24-1.55l.07-.02Z"/>
  <path class="cls-1" d="M140.2,283.05c.51-.1,1-.24,1.51-.31l1.58-.14c.53-.02,1.09,.05,1.63,.09,.59-.05,1.64,.41,2.1,.79,.89,.65,1.55,1.29,2.26,1.94,.69,.65,1.34,1.31,1.98,1.98,.93,.98,1.9,1.93,2.75,2.99,1.5,1.86,2.91,3.82,3.97,6.07,.5,1.13,1.08,2.31,1.08,3.76,.02,.71-.1,1.53-.52,2.24-.39,.75-1.1,1.28-1.79,1.47-1.25,.45-2.52,.23-3.58-.14-1.09-.37-2-.97-2.87-1.59-1.11-.81-2.13-1.72-3.04-2.72-.9-1-1.75-2.11-2.07-3.5-.19-.86-.16-.71,.42-.25,.28,.23,.8,.47,1.3,.8,.25,.17,.54,.33,.81,.53,.25,.22,.5,.45,.75,.7,.88,.9,1.84,1.73,2.84,2.44,1,.7,2.07,1.28,3.04,1.56l.36,.1,.34,.03c.24,.06,.41-.01,.61,0,.36-.09,.69-.22,.78-.38,.08-.17,.04-.49-.07-.94-.08-.23-.13-.45-.25-.71-.05-.26-.15-.53-.24-.8-.46-1.33-1.34-2.66-2.25-3.94-.92-1.29-1.95-2.54-3-3.75-1.15-1.34-2.35-2.64-3.62-3.84-.31-.3-.64-.59-.97-.85-.16-.13-.33-.27-.49-.38-.14-.11-.36-.25-.41-.29-.08-.05-.16-.1-.26-.12l-.51-.02c-.39-.02-.78-.06-1.18,.01-1.97,.17-3.99,.91-5.89,1.89-2.86,1.53-5.59,3.49-8.06,5.67-1.92,1.71-3.56,3.64-5.2,5.58-.36,.43-.69,.87-1.06,1.29-1.4,1.55-2.08,1.82-3.02,1.63-.21-.05-.45-.06-.62-.14-.59-.23-.49-1.28,.32-2.69,1.25-2.03,2.83-3.88,4.52-5.68,1.71-1.79,3.56-3.5,5.58-5.07,1.53-1.13,3.12-2.2,4.85-3.11,1.7-.94,3.55-1.73,5.55-2.26l.03,.08Z"/>
  <path class="cls-1" d="M148.08,303.09c.08,.02,.17,.04,.21,.02,.05,0,.14,.02,.17,0,.11-.02,.2-.04,.23-.03,.06,.06,.19-.27,.04-.78-.09-.36-.32-.72-.51-1.11-.71-1.39-1.71-2.83-2.84-4.13-.5-.58-1.09-1.08-1.63-1.61l-1.1-.97c-.38-.31-.67-.73-1.02-1.09-.2-.24-.09-.35,.26-.4,.34-.04,1.01-.12,1.57,.12,.93,.51,1.89,1.01,2.67,1.73,.78,.71,1.51,1.49,2.15,2.36,.76,1.04,1.67,2.03,2.32,3.3,.34,.7,.66,1.49,.63,2.52-.02,.51-.21,1.1-.56,1.55-.17,.24-.38,.4-.59,.56-.22,.13-.44,.25-.66,.36-1.18,.45-2.27,.18-3.16-.11-1.37-.5-2.47-1.3-3.57-2.04-.85-.58-1.74-1.07-2.58-1.68-.18-.13-.36-.27-.52-.43-.28-.31-.45-.54-.47-.79,0-.28,.09-.51,.24-.77,.07-.12,.12-.24,.19-.33,.12-.16,.29-.23,.54-.28,.25-.04,.6-.07,.85,.08,.4,.2,.84,.33,1.19,.57,.37,.22,.72,.46,1.07,.7,.71,.47,1.4,.97,2.1,1.39,.51,.32,1.03,.6,1.51,.83,.48,.25,.94,.38,1.25,.41v.07Z"/>
  <path class="cls-1" d="M164.89,312.83c-1.98,.8-3.96,1.65-5.98,2.51-.74,.31-1.43,.71-2.19,1-.67,.25-1.33,.52-2.01,.74l-2.06,.66c-1.41,.35-2.81,.72-4.26,.9-.64,.1-1.27,.23-1.92,.25-.65,.05-1.29,.14-1.94,.18-.83-.08-1.66-.12-2.49-.22-.81-.22-1.59-.6-2.29-1.07-.44-.29-.37-.26,.1-.43,.23-.09,.57-.25,.97-.48,.39-.19,.81-.34,1.23-.41,1.51-.19,2.92-.35,4.39-.43,1.46-.17,2.94-.42,4.47-.74,.92-.15,1.82-.52,2.72-.85,.89-.39,1.79-.78,2.69-1.16l6-2.62c1.23-.55,2.52-1.03,3.78-1.55,.98-.35,1.96-.71,2.94-1.03,1.01-.27,1.99-.62,3-.86,.79-.18,1.56-.43,2.33-.65l2.39-.5c.35-.09,.71-.12,1.07-.14,1.36-.07,1.79,.2,2.02,1.02,.05,.18,.12,.37,.15,.55,.08,.58-.47,1.17-1.34,1.36-1.3,.2-2.59,.57-3.9,.79-1.3,.37-2.62,.63-3.94,1.09-1.96,.59-3.94,1.36-5.91,2.18l-.03-.07Z"/>
  <path class="cls-1" d="M389.28,331.12c2.49,.47,4.93,1.16,7.34,1.96,2.41,.8,4.78,1.83,7.05,3.18,.84,.46,1.64,1.06,2.45,1.64,.73,.62,1.41,1.26,2.1,1.91,2.29,2.41,4.2,5.07,5.85,7.85,1.62,2.8,2.96,5.72,4.12,8.7,1.01,2.65,1.96,5.32,2.78,8.01l.74,2.6c.21,.88,.44,1.76,.6,2.65,.38,1.77,.53,3.62,.17,5.49-.26,1.16-.32,.95-.74,.03-.17-.45-.65-1.08-1.01-1.8-.21-.37-.47-.75-.64-1.18-.14-.42-.31-.88-.42-1.36-1.72-6.82-4.23-13.49-7.39-19.82-1.88-3.8-4.67-7.3-7.83-10.08-1.66-1.49-3.72-2.56-5.9-3.49-2.17-.93-4.48-1.64-6.81-2.21-2.87-.71-5.81-1.21-8.76-1.47-2.23-.18-4.48-.23-6.66,0-.53,.08-1.11,.1-1.6,.24l-.76,.17-.37,.09-.23,.09c-.3,.11-.62,.22-.88,.42-.27,.17-.43,.54-.27,.84,.24,.45,.71,.72,1.13,.93l.45,.22c.18,.08,.37,.16,.56,.23,.37,.15,.74,.24,1.13,.34,1.54,.36,3.19,.4,4.86,.33,.74-.02,1.47-.12,2.22-.16,2.81-.14,3.79,.23,4.44,1.05,.15,.17,.34,.33,.43,.46,.15,.24-.07,.46-.57,.83-.5,.39-1.3,.64-2.35,.89-.78,.21-1.58,.27-2.4,.34-.82,.07-1.65,.11-2.51,.11-1.71,0-3.51-.15-5.37-.73-.46-.14-.94-.32-1.37-.52l-.66-.3-.35-.16-.52-.3c-1.47-.77-2.55-1.95-2.88-3.22-.14-.64-.11-1.39,.18-2.01,.09-.33,.33-.58,.5-.87,.22-.26,.51-.49,.76-.74,.66-.38,1.42-.69,2.12-1.04,.17-.08,.38-.19,.52-.24l.37-.09,.73-.19c.75-.22,1.41-.3,2.08-.39,.68-.11,1.34-.15,2-.19,.67-.05,1.32-.07,1.97-.06,.65,0,1.31-.01,1.95,.04,2.59,.08,5.13,.45,7.65,.9v.09Z"/>
  <path class="cls-1" d="M372.72,349.24c-.84-.27-1.41-.75-1.88-1.28-.09-.12-.16-.28-.24-.41-.02-.16-.14-.3-.17-.47-.05-.34-.08-.66,0-.97,.13-.62,.48-1.22,.98-1.78,.26-.27,.55-.54,.83-.78l.43-.34,.22-.17,.15-.1c.4-.27,.79-.52,1.19-.75,.74-.43,1.46-.88,2.22-1.23,2.73-1.15,5.55-1.92,8.39-2.47,1.26-.22,2.52-.53,3.79-.63,1.62-.15,3.3-.32,4.9,.35,.49,.21,.43,.12,0,.29-.21,.08-.52,.29-.87,.47-.2,.1-.38,.2-.57,.3-.1,.06-.2,.09-.31,.16l-.32,.07c-.78,.13-1.55,.3-2.31,.48-.76,.21-1.52,.37-2.29,.5-1.53,.31-3.06,.67-4.61,1.06-1.85,.46-3.62,1.41-5.32,2.3-.47,.24-.93,.5-1.37,.76-.22,.14-.44,.27-.65,.41l-.48,.33c-.2,.14-.38,.27-.54,.46-.08,.09-.15,.2-.18,.32-.03,.13,.05,.24,.13,.32h0c.22,.19,.52,.29,.84,.36,.09,.02,.46,.09,.77,.13,.32,.04,.64,.07,.97,.09,1.99,.12,4.05,.04,6.06-.2,1.56-.2,3.07-.61,4.58-.98,.33-.08,.65-.19,.99-.27,.62-.14,1.03-.2,1.34-.13,.32,.11,.53,.29,.74,.56,.09,.13,.21,.24,.29,.36,.13,.21,.09,.44-.11,.71-.19,.26-.52,.58-.99,.73-2.74,1.03-5.72,1.45-8.77,1.79-1.14,.11-2.28,.18-3.46,.18-.59,.02-1.19,0-1.8-.02l-.47-.03c-.17-.01-.27-.03-.6-.06-.28-.03-.54-.07-.79-.15-.25-.07-.53-.11-.75-.21l.04-.06Z"/>
  <path class="cls-1" d="M384.98,355.51c-1.38-.01-2.74-.04-4.34-.37-.1-.02-.2-.05-.32-.09l-.46-.15c-.29-.09-.52-.28-.77-.41-.26-.13-.43-.37-.66-.55-.17-.22-.35-.45-.46-.7-.46-1.04-.25-2.28,.4-3.21,.1-.17,.26-.34,.4-.5,.11-.13,.22-.25,.34-.34,.23-.21,.45-.41,.68-.57,.46-.35,.92-.63,1.4-.87,1.67-.83,3.37-1.3,5.07-1.69,1.7-.39,3.4-.67,5.1-.9,1.51-.2,3.04-.34,4.55-.45,.97-.05,1.95-.14,2.93-.05,.98,.15,1.98,.28,2.89,.75,.56,.3,.46,.27-.07,.38-.54,.14-1.47,.52-2.51,.76l-.7,.15-.7,.07c-.46,.05-.93,.11-1.39,.18-.93,.13-1.86,.29-2.79,.46-.93,.19-1.86,.3-2.8,.45-.93,.16-1.87,.31-2.81,.47-1.12,.2-2.24,.53-3.3,.95-1.07,.41-2.1,.89-2.98,1.43-.45,.27-.94,.72-.99,.81-.15,.18-.21,.48-.06,.69,.06,.11,.17,.19,.29,.25,.06,.04,.12,.06,.16,.07,.09,.04,.24,.08,.37,.11,.54,.14,1.16,.22,1.78,.24,1.55,.07,3.17-.02,4.77-.12,2.47-.17,4.95-.34,7.39-.5,1.92-.11,3.82-.36,5.82-.23,.44,.04,.87,.08,1.31,.17,.41,.08,.75,.2,1.03,.3,.27,.13,.47,.31,.63,.44,.31,.29,.43,.6,.48,.91,.02,.15,.06,.3,.05,.42-.05,.41-.75,.47-1.81,.57-.76-.05-1.55-.02-2.34,.01-.8,0-1.61,0-2.44,.03-1.66,.05-3.38,.15-5.13,.27-2.6,.17-5.24,.39-7.99,.45v-.07Z"/>
  <path class="cls-1" d="M384.47,358.55c-.36-.43-.57-.82-.59-1.45,0-.67,.29-1.11,.68-1.51,.76-.82,2.38-1.35,3.91-1.67,.78-.16,1.35-.33,2.04-.41,2.35-.29,4.68-.36,7.01-.36,1.03,0,2.07-.06,3.1-.09,.66,.03,1.33,.05,2,.14l.5,.08c.16,.06,.33,.11,.49,.18,.33,.13,.65,.28,.97,.47,.39,.25,.25,.37-.14,.57-.19,.1-.46,.26-.76,.44-.17,.1-.33,.19-.48,.28-.08,.05-.17,.08-.26,.15-.08,.01-.17,.03-.26,.04-.62,.07-1.25,.15-1.88,.25-.63,.06-1.27,.03-1.91,.05-1.28,.02-2.58,.03-3.89,0-1.57-.03-3.18,.29-4.72,.56l-1.14,.2c-.16,.02-.34,.05-.52,.09-.18,.04-.38,.09-.58,.18-.17,.07-.45,.23-.37,.44,.22,.39,.74,.54,1.27,.7l.36,.09,.59,.13c.4,.08,.8,.15,1.21,.21,.81,.12,1.63,.21,2.45,.27,1.27,.09,2.54-.03,3.81-.04,.28,.02,.55,.02,.83,.05,.52,.05,.86,.15,1.1,.31,.24,.14,.37,.3,.48,.5,.05,.09,.11,.18,.14,.26,.09,.26-.35,.53-1.13,.81-.57,.12-1.16,.26-1.75,.37-.59,.04-1.19,.06-1.79,.07-1.21,0-2.43-.06-3.68-.18-.92-.1-1.85-.24-2.8-.42-1.68-.31-3.67-.82-4.38-1.72l.08-.03Z"/>
  <path class="cls-1" d="M365.17,350.42c-1.13-1.56-2.24-3.18-3.04-5.18-.28-.74-.6-1.52-.62-2.47l.03-.63c.03-.22,.08-.44,.12-.65,.13-.43,.31-.86,.51-1.17,.2-.34,.46-.68,.78-1,.36-.32,.77-.61,1.24-.76,.45-.15,.97-.2,1.42-.14,.45,.04,.82,.18,1.16,.32,.68,.3,1.23,.67,1.74,1.04,.87,.66,1.74,1.32,2.6,1.97,1.03,.88,1.99,1.77,2.99,2.58,.31,.24,.2,.45-.27,.59-.46,.13-1.33,.19-2.11-.14-.68-.29-1.34-.61-1.97-.92-.61-.34-1.13-.77-1.67-1.14-.53-.37-1.05-.73-1.54-1.02-.47-.3-.96-.47-1.17-.58-.23-.11-.46-.07-.76,.48l-.1,.2-.05,.16c-.05,.1-.04,.23-.07,.34-.01,.25,0,.53,.06,.85,.27,1.42,1.23,3.04,2.24,4.5,.64,.92,1.32,1.82,2.04,2.7,1.09,1.34,2.2,2.69,3.38,3.97,.9,1.01,1.95,1.87,2.83,2.97,.19,.24,.39,.47,.56,.75,.33,.5,.41,.93,.41,1.24,0,.31-.14,.56-.36,.78-.1,.1-.2,.21-.31,.28-.38,.22-.86-.02-1.45-.47-1.7-1.4-3.31-3.21-5.01-5.06-1.25-1.38-2.47-2.84-3.67-4.36l.05-.05Z"/>
  <path class="cls-1" d="M298.06,419.89c2.35,4.85,4.54,9.81,6.24,15.01,.88,2.58,1.57,5.25,2.13,7.97,.55,2.72,.86,5.52,.79,8.4-.1,2.86-.58,5.89-2.11,8.62-.44,.68-.72,1.3-1.36,2.03-.6,.67-1.33,1.27-2.13,1.68-1.59,.86-3.27,1.06-4.8,1.09-3.08-.02-5.82-.81-8.44-1.72-2.62-.94-5.1-2.08-7.52-3.32-7.02-3.68-13.58-8.02-19.78-12.79-5.47-4.2-10.68-8.67-15.81-13.21-5.15-4.53-10.14-9.26-14.96-14.15-9.6-9.81-18.55-20.27-26.55-31.42-7.13-9.87-13.51-20.42-18.41-31.52-3.13-7.13-5.68-14.56-7.42-22.18-1.74-7.62-2.69-15.44-2.55-23.23,.18-4.86,.57-4.17,1.35-.13,.22,1.01,.37,2.23,.63,3.62,.28,1.39,.58,2.95,.88,4.66,.64,3.41,1.32,7.38,2.22,11.67,3.09,15.22,9.35,29.68,17.5,42.99,4.07,6.67,8.59,13.09,13.39,19.33,4.81,6.23,9.88,12.27,15.25,18.08,6.42,6.95,13.4,13.63,20.78,19.96,7.37,6.36,14.95,12.54,22.93,17.92,4.39,2.94,8.92,5.71,13.63,8,2.36,1.13,4.77,2.15,7.21,2.88,2.42,.71,4.99,1.22,7.17,.82,1.09-.19,1.98-.65,2.65-1.34,.31-.33,.61-.87,.92-1.36,.32-.49,.5-1.07,.76-1.6,.85-2.24,1.07-4.78,.97-7.31-.1-2.54-.58-5.11-1.2-7.64-.61-2.53-1.42-5.04-2.34-7.51-1.12-3.04-2.4-6.04-3.79-8.98-1.38-2.95-2.88-5.86-4.44-8.73-3.11-5.75-6.54-11.34-10.13-16.83-10.92-16.58-23.34-32.34-36.7-46.86-5.21-5.64-10.56-11.02-16.11-16.16-5.55-5.13-11.27-10.04-17.27-14.56-2.64-2-5.31-3.82-8.08-5.61-5.15-3.32-8.71-5.06-11.2-6.17-2.49-1.09-3.9-1.73-5.14-2.4-.57-.37-1.37-.53-1.77-.82-.33-.22-.28-.46,.19-.71,.24-.12,.58-.25,1.02-.37,.44-.09,.98-.14,1.62-.19,2.54-.12,6.37,.77,10.68,2.83,6.38,3.08,12.18,7.11,17.76,11.45,5.58,4.35,10.91,9.07,16.09,14.01,10.35,9.88,20.08,20.64,29.28,31.85,6.82,8.34,13.32,16.98,19.41,25.92,6.07,8.96,11.8,18.18,16.64,27.94l-.08,.07Z"/>
  <path class="cls-1" d="M185.99,421.79c5.07-8.2,11.07-15.64,17.36-22.76,6.31-7.11,12.99-13.86,19.92-20.33,5.07-4.7,10.2-9.36,15.56-13.72,9.45-7.7,19.32-14.92,29.89-21.12,5.28-3.09,10.75-5.92,16.52-8.14,2.89-1.1,5.86-2.05,8.95-2.66,3.08-.59,6.3-.95,9.57-.35,.72,.15,1.44,.27,2.15,.54,.35,.12,.71,.22,1.05,.38l1.02,.5c.35,.15,.66,.36,.98,.58,.31,.22,.63,.42,.94,.65l.89,.84c.29,.29,.5,.63,.75,.95,.9,1.34,1.4,2.85,1.61,4.33,.18,1.47,.22,2.94,.06,4.35-.27,2.84-.97,5.54-1.84,8.14-.87,2.61-1.92,5.12-3.07,7.58-2.97,6.29-6.58,12.25-10.61,17.89-4.04,5.63-8.52,10.96-13.6,15.66-3.22,2.89-3.16,2.06-1.09-.96,2.05-3.05,5.82-8.48,10.38-14.76,4.02-5.59,7.67-11.46,10.67-17.58,1.49-3.06,2.83-6.19,3.83-9.37,1-3.16,1.71-6.45,1.53-9.39-.09-1.46-.45-2.77-1.1-3.67-.17-.22-.31-.46-.54-.62l-.29-.28c-.12-.09-.28-.18-.41-.27-.53-.41-1.17-.68-1.8-.97-1.3-.51-2.78-.76-4.31-.86-1.55-.07-3.15,.05-4.77,.29-3.24,.48-6.5,1.48-9.69,2.66-3.2,1.19-6.36,2.61-9.46,4.15-7.43,3.72-14.64,8.36-21.61,13.38-6.97,5.03-13.74,10.45-20.23,16.07-7.15,6.16-14.05,12.63-20.64,19.4-6.58,6.77-12.86,13.85-18.54,21.36-3.48,4.62-6.76,9.42-9.47,14.48-1.34,2.53-2.55,5.14-3.43,7.81-.23,.67-.43,1.34-.59,2.02-.19,.67-.31,1.35-.42,2.03-.14,.68-.14,1.36-.21,2.03,.03,.66-.02,1.35,.11,1.99,.26,1.96,1.08,3.81,2.63,4.84,.76,.53,1.68,.9,2.65,1.14,.98,.22,2.01,.31,3.06,.33,4.22,0,8.5-1.12,12.64-2.48,8.29-2.8,16.19-6.76,23.8-11.04,11.81-6.73,22.76-14.43,33.22-22.83,2.3-1.86,4.49-3.73,6.74-5.68,4.2-3.56,6.86-6.03,8.82-7.66,2-1.6,3.21-2.47,4.3-3.08,.49-.28,1.08-.72,1.4-.86,.53-.24,.14,.56-1.02,2.26-1.17,1.69-3.13,4.26-6.1,7.11-4.32,4.31-9,8.34-13.88,12.21-4.88,3.88-9.96,7.59-15.2,11.15-5.25,3.55-10.66,6.95-16.24,10.12-5.59,3.17-11.33,6.14-17.32,8.69-4.45,1.88-9.03,3.57-13.91,4.65-2.44,.53-4.96,.9-7.63,.84-1.33-.02-2.71-.2-4.1-.58-1.39-.39-2.82-1.05-4.04-2.1-.31-.26-.6-.53-.85-.85-.27-.3-.52-.61-.73-.95l-.33-.5-.25-.51-.48-1.03c-.49-1.41-.79-2.86-.81-4.25-.09-2.79,.46-5.38,1.19-7.81,.74-2.44,1.71-4.75,2.81-6.95,1.09-2.22,2.29-4.36,3.56-6.43l.09,.03Z"/>
  <path class="cls-1" d="M188.28,368.7c9.23-1.19,18.46-1.55,27.68-1.52,9.21,.05,18.41,.52,27.57,1.34,6.68,.59,13.36,1.27,20,2.27,11.69,1.77,23.32,4.13,34.69,7.62,5.67,1.78,11.29,3.82,16.65,6.55,2.68,1.37,5.3,2.91,7.73,4.8,2.41,1.89,4.72,4.13,6.16,7.12,.36,.63,.54,1.37,.8,2.06,.23,.79,.29,1.71,.13,2.56-.32,1.74-1.37,3.08-2.44,4.06-2.2,1.98-4.7,3.12-7.19,4.14-5.01,1.97-10.17,3.15-15.3,4.13-6.6,1.23-13.27,2.04-19.97,2.49-6.69,.45-13.41,.53-20.09-.03-4.16-.41-3.54-.92-.02-1.45,1.76-.28,4.25-.6,7.23-.97,2.98-.34,6.47-.64,10.25-.91,6.7-.47,13.38-1.25,19.96-2.42,3.29-.6,6.55-1.29,9.73-2.16,3.17-.88,6.31-1.9,9.1-3.29,1.38-.69,2.69-1.5,3.63-2.38,.47-.44,.82-.9,1.02-1.29,.21-.4,.23-.7,.2-1.05,0-.08-.04-.19-.05-.28l-.15-.45c-.11-.31-.18-.62-.35-.92-.16-.3-.28-.62-.46-.91l-.57-.89c-.86-1.16-1.88-2.28-3.07-3.3-2.36-2.05-5.18-3.76-8.09-5.29-2.93-1.53-6-2.86-9.14-4.08-7.52-2.89-15.56-5.01-23.72-6.73-8.16-1.72-16.48-3.01-24.75-4.04-9.09-1.13-18.24-1.93-27.4-2.33-9.16-.4-18.34-.44-27.47,.09-5.62,.35-11.23,.9-16.74,1.87-2.75,.5-5.48,1.1-8.15,1.87-2.66,.78-5.26,1.74-7.6,3.07-1.74,1.01-3.38,2.26-4.36,3.84-.48,.82-.79,1.59-.76,2.42,.02,.83,.35,1.68,.84,2.49,.49,.81,1.16,1.56,1.88,2.27,.72,.71,1.52,1.36,2.36,1.98,1.67,1.23,3.47,2.33,5.33,3.34,3.72,2.01,7.64,3.7,11.61,5.22,3.97,1.52,8.01,2.86,12.07,4.09,12.64,3.76,25.38,6.3,38.27,8.06,2.84,.38,5.63,.67,8.5,.96,5.32,.59,8.82,.83,11.28,1.14,2.46,.36,3.88,.66,5.04,1.03,.53,.16,1.22,.3,1.53,.44,.52,.23-.31,.48-2.28,.79-1.97,.3-5.09,.62-9.08,.44-5.92-.17-11.88-.78-17.87-1.63-5.99-.84-12-1.93-18-3.23-6.01-1.31-12.02-2.83-17.99-4.62-5.97-1.79-11.91-3.83-17.72-6.32-4.31-1.89-8.58-3.94-12.58-6.84-1-.73-1.98-1.52-2.9-2.43-.93-.91-1.82-1.93-2.55-3.21-.72-1.26-1.26-2.89-1.14-4.63,.03-.43,.12-.85,.21-1.27,.13-.39,.25-.83,.42-1.16,.34-.67,.68-1.35,1.13-1.91,1.73-2.35,3.98-3.81,6.19-4.97,2.23-1.17,4.52-2,6.82-2.73,2.3-.73,4.61-1.29,6.94-1.75,2.32-.48,4.65-.84,6.98-1.18l.04,.09Z"/>
  <path class="cls-1" d="M256,181.48c1.26-.13,2.48-.58,3.67-1.09,.57-.32,1.18-.56,1.72-.96l.83-.54,.78-.63c2.09-1.69,3.83-3.89,5.18-6.33,1.01-1.77,1.67-3.73,2.32-5.68,.24-.88,.54-1.74,.71-2.64l.3-1.34c.08-.43,.11-.8,.16-1.21,.08-1.59-.37-3.13-1.31-4.49-.96-1.34-2.35-2.46-3.89-3.36-1.55-.9-3.25-1.6-5.02-2.14-3.13-.96-6.47-1.38-9.75-1.42-4.21-.05-8.42,.52-12.34,1.71-1.16,.46-1.29,.1-.5-.92,.41-.49,1.07-1.11,1.97-1.72,.45-.27,.95-.62,1.51-.84,.56-.23,1.18-.42,1.82-.55,2.29-.48,4.6-.7,6.91-.72,2.31,.01,4.61,.21,6.89,.61,2.28,.4,4.54,.99,6.74,1.86,2.18,.89,4.33,2.07,6.17,3.76,1.09,1.02,2.07,2.25,2.76,3.68,.7,1.43,1.04,3.05,1.01,4.64-.06,.78-.13,1.59-.28,2.25-.14,.7-.23,1.4-.42,2.09-.18,.69-.35,1.38-.54,2.07l-.68,2.02c-1.1,2.93-2.64,5.72-4.67,8.16-2.03,2.42-4.51,4.57-7.49,5.85-1.8,.83-3.8,1.28-5.79,1.36-1.98,.06-3.87-.14-5.78-.51-2.87-.62-5.68-1.88-7.94-3.84-2.28-1.94-3.92-4.53-4.94-7.26-1.53-4.28-1.9-8.77-1.54-13.16,.04-.48,.05-.97,.1-1.45,.07-.47,.14-.95,.21-1.43,.63-3.58,1.53-4.52,2.47-5.03,.23-.11,.46-.28,.66-.33,.33-.08,.52,.27,.64,.95,.11,.68,.17,1.7-.03,2.93-.11,1.85-.41,3.68-.46,5.53l-.08,1.38,.03,1.37v1.37s.15,1.35,.15,1.35l.13,1.35,.27,1.31c.13,.9,.44,1.71,.7,2.55,.11,.43,.3,.82,.49,1.2l.55,1.17,.7,1.06,.34,.54,.42,.47c1.6,1.92,3.78,3.32,6.27,4.12,1.24,.43,2.57,.65,3.91,.81,.68,.04,1.37,.1,2.03,.12,.63-.05,1.26-.01,1.89-.16l.02,.08Z"/>
  <path class="cls-1" d="M282.12,168.96c-.2,2.64,0,5.32,.63,7.91,.35,1.29,.72,2.58,1.27,3.71,.54,1.16,1.27,2.23,2.05,3.25,1.17,1.48,2.68,2.67,4.32,3.58,1.47,.8,3.03,1.31,4.78,1.52,.43,.08,.86,.12,1.3,.14,.43,.02,.87,.08,1.3,.05,.87-.03,1.72-.15,2.57-.3,3.39-.66,6.42-2.62,8.78-5.26,2.1-2.35,3.65-5.23,4.85-8.18,.76-1.91,1.37-3.88,1.93-5.88l.41-1.5,.48-1.49c.32-1,.59-2,1.13-2.96,.39-.59,.6-.83,.69-.78,.1,.05,.11,.38,.29,1,.37,1.22,.74,3.41,.16,5.84-1.14,4.24-2.7,8.48-5.14,12.35-1.23,1.92-2.71,3.74-4.48,5.29-1.75,1.57-3.9,2.75-6.15,3.46-1.34,.46-2.75,.67-4.16,.84-1.41,.07-2.82,.17-4.23,.03-2.83-.12-5.76-1.1-8.15-2.72-2.65-1.78-4.78-4.29-6.07-7.19-1.24-2.91-1.92-5.88-2.15-8.95-.27-3.76,.25-7.54,1.4-11.09,.45-1.35,.95-2.65,1.7-3.97,.42-.7,1.05-1.41,1.71-1.84,.66-.47,1.36-.8,2.07-1.06,2.82-.99,5.64-1.12,8.41-1.13,4.3,.05,8.49,.44,12.66,1.51,.91,.25,1.82,.47,2.73,.82,3.32,1.42,4.09,2.69,4.23,3.67,.03,.24,.1,.49,.07,.66-.05,.28-.4,.26-.98,.08-.6-.16-1.48-.4-2.57-.77-1.66-.49-3.37-.95-5.14-1.32-1.77-.36-3.58-.64-5.41-.84-3.63-.37-7.45-.48-10.81,.19-1.21,.26-2.39,.64-3.09,1.14l-.25,.18c-.06,.06-.11,.12-.18,.17-.08,.05-.08,.11-.13,.16-.02,.03-.04,.04-.07,.08l-.09,.16c-.26,.48-.56,1.08-.79,1.68-.99,2.43-1.6,5.09-1.78,7.74h-.09Z"/>
  <path class="cls-1" d="M276.87,161.82c.5,.1,1,.2,1.5,.3,.18,.03,.36-.02,.55,.03,.65,.15,1.29,.48,1.9,.77,.27,.11,.55,.19,.82,.29,.35,.12,.72,.22,.95,.62,.07,.12-.11,.47-.36,.84-.25,.36-.56,.79-.72,.85-.31,.08-.59,.2-.86,.19-.26-.04-.51-.13-.79-.3-.33-.19-.71-.09-1.08-.12-.41-.04-.83-.1-1.27-.13-.27-.02-.54-.05-.81-.04-.41,.01-.84-.06-1.24,.04-.31,.09-.6,.32-.91,.43-.07,.03-.13,.09-.21,.05-.29-.09-.41-.31-.55-.93l-.1-.41c-.09-.45-.04-.88,.1-1.21,.2-.55,.47-.74,.73-1,.27-.19,.58-.25,.89-.33,.46-.12,.95-.06,1.45-.04v.08Z"/>
  <path class="cls-1" d="M266.66,178.95c-1.37,1.76-2.68,3.57-3.57,5.44-.29,.68-.49,1.39-.6,2.01-.09,.29-.06,.53-.11,.8,.04,.22,0,.49,.09,.68,.09,.43,.33,.79,.7,1.18,.77,.73,2.19,1.3,3.49,1.65,1.19,.32,2.45,.4,3.71,.35,1.6-.13,3.3-.24,5.02-.14,.53,.04,.46,.09,.04,.28-.43,.17-1.16,.66-2.08,1.05-3.2,1.21-7.34,1.68-10.88-.33-.28-.13-.55-.35-.82-.54-.14-.1-.27-.19-.41-.3l-.38-.38-.38-.39c-.11-.15-.2-.31-.3-.47-.09-.16-.2-.32-.28-.48l-.19-.52c-.48-1.42-.31-2.81,.02-3.96,.79-2.54,2.18-4.51,3.55-6.45,.86-1.18,1.76-2.31,2.65-3.44,1.36-1.7,2.76-3.36,4.06-5.04,.99-1.32,1.83-2.72,2.66-4.04,.18-.29,.33-.59,.49-.88,.56-1.08,.94-1.24,1.38-1.48,.11-.05,.22-.13,.32-.17,.17-.07,.3,.03,.43,.35,.07,.16,.12,.37,.14,.6,.02,.23,.05,.53-.01,.81-.39,1.66-1.04,3.15-1.81,4.54-.82,1.36-1.7,2.67-2.64,3.91-1.42,1.83-2.9,3.59-4.23,5.41l-.06-.04Z"/>
  <path class="cls-1" d="M267.56,139.15c.39,.48,.85,.9,.74,1.51-.32,1.68-1.16,4.48-3.51,3.92-2.96-.71-17.06-5.26-19.48-9.32s18.64-.56,22.25,3.89Z"/>
  <path class="cls-1" d="M292.6,144.65c0,2.3,3.13,2.61,7.07,2.75,3.94,.14,15.24-2.36,14.82-3.95-.86-3.32-17.25-4.34-21.33-.88-.6,.51-.57,1.39-.56,2.08Z"/>
  <path class="cls-1" d="M254.34,394.17c.02,1.75-.56,3.56-1.87,5.12-4.71,5.64-14.15,2.2-14.15-5.12,0-5,4.42-8.3,9.24-7.65,4.1,.55,6.74,3.99,6.77,7.65Z"/>
  <path class="cls-1" d="M264.12,204.44c1.91,2.06,4.67,3.06,7.46,2.74s5.25-1.55,7.34-3.35c.66-.57,.59-1.71,0-2.3-.66-.66-1.63-.57-2.3,0-.46,.4-.53,.45-1.07,.8-.45,.29-.92,.56-1.41,.8-.46,.22-.68,.31-1.27,.49-.24,.07-.49,.14-.73,.2-.14,.03-.27,.06-.41,.08-.05,0-.41,.07-.15,.03-.49,.07-.99,.08-1.49,.05-.14,0-.27-.02-.41-.03-.17-.02,.15,.04-.14-.03-.24-.06-.48-.11-.72-.18-.9-.27-1.67-.8-2.41-1.6-.6-.64-1.69-.6-2.3,0-.64,.64-.6,1.65,0,2.3h0Z"/>
  <path class="cls-1" d="M261.66,162.28c-2.53,1.24-3.31,4.26-3.49,6.84-.08,1.18,.15,2.48,.99,3.37,1.07,1.12,2.91,1.21,4.15,.32,2.27-1.63,2.84-4.99,2.17-7.55-.35-1.34-1.1-2.93-2.55-3.34-1.58-.44-2.87,.72-3.54,2.03-.71,1.41-1.43,3.09-.92,4.69,.23,.7,.63,1.37,1.21,1.83,.83,.66,1.68,.86,2.72,.71,.84-.12,1.38-1.24,1.13-2-.3-.93-1.09-1.26-2-1.13l.21-.04c-.15,0-.15,0,0,.01h.11c-.17-.04-.14-.02,.08,.07-.03,.02-.17-.11-.19-.11,.09-.03,.22,.22,.06,.05-.02-.02-.28-.29-.1-.09s-.05-.1-.07-.12c-.13-.18,.07-.05,.01,.07,0,0-.1-.33-.1-.33,.1,.07,0,.33,.01,.06,0-.12,0-.24,0-.36,0-.25-.1,.34,.01-.07,.03-.09,.04-.19,.07-.28,.05-.19,.12-.37,.19-.56-.11,.28,0-.02,.04-.09,.06-.14,.13-.27,.19-.4,.08-.17,.17-.34,.26-.51,.04-.07,.09-.14,.12-.2,.18-.33-.16,.15,0,0,.03-.03,.16-.21,.2-.21,.02,0-.35,.2-.06,.06-.32,.16-.21,.08-.09,.06-.23,.06-.41,.04-.62-.06,.32,.15-.18-.17-.02-.01s-.19-.34,0-.01c.08,.14,.16,.28,.23,.42,.21,.37-.06-.2,.03,.04,.04,.11,.08,.21,.12,.32,.07,.21,.13,.43,.18,.65,.02,.09,.03,.18,.05,.27,.09,.42,0-.23,0,.04,0,.2,.03,.4,.03,.61s0,.41-.03,.61c0,.11,.02,.38,0,.04,0,.12-.05,.28-.08,.4-.04,.18-.09,.35-.14,.52-.03,.09-.06,.17-.09,.26-.13,.4,.1-.18-.02,.05-.09,.18-.18,.36-.28,.53-.05,.08-.1,.15-.15,.22,.19-.3-.02,.02-.08,.08-.01,.01-.33,.25-.14,.13s-.15,.07-.16,.07c.02,0,.36-.11,.04-.03-.29,.07,.01,0,.07,0-.37,.03,.21,.1,0,.02-.1-.04-.36-.14,0,.02-.21-.09,.11-.06,.09,.08-.04-.03-.07-.07-.1-.1-.08-.09-.05-.04,.11,.14,0,.02-.08-.17-.1-.17,.11,.01,.11,.37,.03,.06-.01-.04-.07-.44-.11-.46,.09,.05,.03,.35,.02,.11,0-.09,0-.18-.01-.27,0-.2,0-.4,.02-.59,.02-.22,.04-.44,.07-.66-.04,.3,0,.04,0-.02,.03-.15,.05-.3,.08-.45,.05-.25,.1-.49,.17-.73,.03-.12,.07-.24,.11-.36,.02-.05,.19-.47,.1-.29-.1,.21,.08-.16,.08-.16,.06-.11,.12-.22,.19-.33,.04-.07,.09-.14,.14-.21,.22-.34-.22,.23,.06-.07,.12-.13,.28-.37,.45-.44-.3,.13-.08,.06,.02,0,.12-.08,.25-.15,.38-.21,.76-.38,1.03-1.52,.58-2.22-.51-.78-1.41-.98-2.22-.58h0Z"/>
  <path class="cls-1" d="M288.53,166.28c-2.53,1.24-3.31,4.26-3.49,6.84-.08,1.18,.15,2.48,.99,3.37,1.07,1.12,2.91,1.21,4.15,.32,2.27-1.63,2.84-4.99,2.17-7.55-.35-1.34-1.1-2.93-2.55-3.34-1.58-.44-2.87,.72-3.54,2.03-.71,1.41-1.43,3.09-.92,4.69,.23,.7,.63,1.37,1.21,1.83,.83,.66,1.68,.86,2.72,.71,.84-.12,1.38-1.24,1.13-2-.3-.93-1.09-1.26-2-1.13l.21-.04c-.15,0-.15,0,0,.01h.11c-.17-.04-.14-.02,.08,.07-.03,.02-.17-.11-.19-.11,.09-.03,.22,.22,.06,.05-.02-.02-.28-.29-.1-.09s-.05-.1-.07-.12c-.13-.18,.07-.05,.01,.07,0,0-.1-.33-.1-.33,.1,.07,0,.33,.01,.06,0-.12,0-.24,0-.36,0-.25-.1,.34,.01-.07,.03-.09,.04-.19,.07-.28,.05-.19,.12-.37,.19-.56-.11,.28,0-.02,.04-.09,.06-.14,.13-.27,.19-.4,.08-.17,.17-.34,.26-.51,.04-.07,.09-.14,.12-.2,.18-.33-.16,.15,0,0,.03-.03,.16-.21,.2-.21,.02,0-.35,.2-.06,.06-.32,.16-.21,.08-.09,.06-.23,.06-.41,.04-.62-.06,.32,.15-.18-.17-.02-.01s-.19-.34,0-.01c.08,.14,.16,.28,.23,.42,.21,.37-.06-.2,.03,.04,.04,.11,.08,.21,.12,.32,.07,.21,.13,.43,.18,.65,.02,.09,.03,.18,.05,.27,.09,.42,0-.23,0,.04,0,.2,.03,.4,.03,.61s0,.41-.03,.61c0,.11,.02,.38,0,.04,0,.12-.05,.28-.08,.4-.04,.18-.09,.35-.14,.52-.03,.09-.06,.17-.09,.26-.13,.4,.1-.18-.02,.05-.09,.18-.18,.36-.28,.53-.05,.08-.1,.15-.15,.22,.19-.3-.02,.02-.08,.08-.01,.01-.33,.25-.14,.13s-.15,.07-.16,.07c.02,0,.36-.11,.04-.03-.29,.07,.01,0,.07,0-.37,.03,.21,.1,0,.02-.1-.04-.36-.14,0,.02-.21-.09,.11-.06,.09,.08-.04-.03-.07-.07-.1-.1-.08-.09-.05-.04,.11,.14,0,.02-.08-.17-.1-.17,.11,.01,.11,.37,.03,.06-.01-.04-.07-.44-.11-.46,.09,.05,.03,.35,.02,.11,0-.09,0-.18-.01-.27,0-.2,0-.4,.02-.59,.02-.22,.04-.44,.07-.66-.04,.3,0,.04,0-.02,.03-.15,.05-.3,.08-.45,.05-.25,.1-.49,.17-.73,.03-.12,.07-.24,.11-.36,.02-.05,.19-.47,.1-.29-.1,.21,.08-.16,.08-.16,.06-.11,.12-.22,.19-.33,.04-.07,.09-.14,.14-.21,.22-.34-.22,.23,.06-.07,.12-.13,.28-.37,.45-.44-.3,.13-.08,.06,.02,0,.12-.08,.25-.15,.38-.21,.76-.38,1.03-1.52,.58-2.22-.51-.78-1.41-.98-2.22-.58h0Z"/>
  <path class="cls-1" d="M424.88,269.45c.17-.38,.29-.75,.34-1.09,.01-.15,.04-.32,.02-.55,0-.22-.01-.43-.04-.65-.1-.86-.41-1.74-.9-2.55-.97-1.63-2.57-3.04-4.39-3.86-.48-.22-.85-.35-1.39-.49-.52-.14-1.06-.25-1.61-.36-1.1-.19-2.23-.35-3.37-.42-2.28-.17-4.6-.13-6.9,.09-3.37,.32-6.69,1.1-9.94,2.09-2.87,.88-5.67,1.99-8.4,3.28-2.7,1.35-5.38,2.78-7.89,4.49-5.09,3.31-9.8,7.26-14.1,11.61-3.83,3.86-7.33,8.09-10.55,12.43-1.01,1.42-2.08,2.79-3.02,4.25-.97,1.44-2.01,2.85-2.97,4.3-1.93,2.91-3.86,5.83-5.78,8.74-1.23,1.8-1.22,1.48-.61-.29,.34-.93,.78-2.19,1.31-3.66,.56-1.52,1.43-3.18,2.4-4.97,.85-1.59,1.8-3.13,2.74-4.67,.92-1.56,1.97-3.03,3.02-4.5l1.57-2.22,1.66-2.16,1.67-2.15,1.76-2.08c4.75-5.5,10.05-10.61,16.05-14.86,7.1-5.12,15.28-9.66,24.14-11.78,4.85-1.17,9.88-1.67,14.91-1.25,1.26,.12,2.51,.28,3.77,.54,1.22,.23,2.63,.67,3.8,1.31,2.38,1.26,4.42,3.19,5.67,5.68,.74,1.56,1.15,3.25,.97,5.09-.25,1.88-1.17,3.39-2.19,4.66-1.04,1.28-2.27,2.34-3.59,3.24-1.33,.9-2.77,1.63-4.34,2.12-1.19,.35-2.47,.59-3.83,.45-.67-.07-1.37-.22-2.03-.54-.65-.31-1.27-.8-1.71-1.3-.96-.98-1.55-2.48-1.52-3.87,.01-1.4,.45-2.64,1-3.74,1.11-2.2,2.64-3.99,4.21-5.68,1.58-1.68,3.26-3.23,4.94-4.73,5.13-4.8,11.04-8.89,17.8-11.24,1.49-.5,2.98-.97,4.56-1.23,2.93-.51,4.93-.45,6.29-.22,.68,.14,1.21,.27,1.64,.46,.42,.22,.75,.46,1.03,.67,.26,.2,.6,.39,.74,.52,.47,.4-1.92,.73-5.8,1.09-5.79,.79-11.46,3.16-16.59,6.51-1.27,.85-2.53,1.75-3.73,2.71-1.23,.97-2.31,1.95-3.56,3.08-2.37,2.15-4.7,4.29-6.5,6.69-.66,.88-1.26,1.78-1.7,2.66-.42,.87-.69,1.75-.67,2.36,0,.31,.05,.55,.16,.77,.11,.22,.24,.44,.5,.67,.13,.14,.22,.19,.3,.25,.1,.05,.2,.11,.32,.16,.24,.1,.55,.17,.92,.19,1.55,.08,3.64-.72,5.34-1.84,1.72-1.12,3.3-2.68,4-4.24l.09,.03Z"/>
  <path class="cls-1" d="M98.95,205.23c1.4,2.03,2.4,4.6,2.31,7.25-.08,1.31-.33,2.6-.81,3.76-.26,.58-.41,1.11-.93,1.82-.22,.35-.47,.61-.72,.85-.25,.25-.5,.51-.77,.69-2.1,1.58-4.26,2.28-6.42,2.85-2.17,.55-4.35,.86-6.56,.96-3.21,.06-6.59,.11-9.89-1.75-.36-.19-.73-.52-1.08-.81-.35-.36-.69-.73-.95-1.25-.56-1-.57-2.34-.2-3.29,.76-1.9,2.02-2.91,3.22-3.78,1.18-.87,2.61-1.54,4-2.05,1.43-.42,2.88-.76,4.34-.82,2.91-.21,5.75,.2,8.46,.93,2.71,.73,5.3,1.77,7.77,3.01,4.37,2.22,8.47,5,12.04,8.32,2.3,2.12,4.37,4.53,6.06,7.23,.44,.66,.79,1.38,1.17,2.08,.31,.74,.64,1.47,.88,2.23l.36,1.15c.1,.39,.18,.79,.26,1.18,.11,.39,.11,.8,.12,1.2,0,.41,.05,.8,.03,1.2-.17,2.01-.3,1.66-.92,.14-.15-.38-.43-.81-.7-1.3-.33-.47-.61-1.01-.94-1.58-.38-.55-.71-1.16-1.16-1.77-.42-.62-.87-1.25-1.28-1.96-1.51-2.46-3.49-4.67-5.6-6.72-2.09-2.08-4.43-3.94-6.9-5.6-2.47-1.65-5.09-3.11-7.84-4.24-2.74-1.12-5.59-2.01-8.48-2.3-1.72-.18-3.48-.17-5.15,.21-1.69,.36-3.19,1.06-4.6,2.08-.67,.52-1.31,1.06-1.72,1.62-.19,.27-.34,.54-.38,.74-.07,.21-.03,.33,0,.48,.09,.31,.62,.8,1.31,1.15,.69,.37,1.54,.62,2.38,.85,1.82,.45,3.86,.46,5.86,.29,2-.18,4.01-.54,5.91-1.13,.94-.31,1.89-.63,2.73-1.07,.86-.41,1.66-.93,2.2-1.5,.14-.14,.29-.28,.36-.43,.09-.16,.2-.24,.28-.49,.15-.43,.39-.84,.47-1.28,.09-.44,.25-.87,.25-1.31l.06-.66c0-.22-.03-.44-.05-.66,0-.55-.19-1.07-.3-1.61-.23-.51-.38-1.05-.7-1.52-.52-1.01-1.33-1.88-2.15-2.73-1.73-1.64-3.88-2.89-6.11-3.96-3.41-1.58-7.14-2.61-10.93-3.19-3.79-.59-7.66-.77-11.48-.57-5.95,.31-11.7,1.59-17.27,3.41-.61,.2-1.22,.4-1.83,.59-.6,.22-1.21,.43-1.83,.63-2.29,.75-3.79,1.29-4.92,1.48-1.16,.14-1.89,.08-2.55-.09-.3-.08-.67-.13-.87-.23-.34-.17-.1-.57,.6-1.22,.71-.63,1.82-1.69,3.52-2.42,.62-.3,1.24-.6,1.87-.91,.64-.28,1.28-.55,1.92-.83,1.28-.58,2.61-1.04,3.95-1.49,1.35-.44,2.72-.82,4.11-1.2,1.4-.32,2.79-.69,4.22-.93,2.84-.57,5.76-.89,8.7-1.08,2.94-.16,5.92-.07,8.89,.18,4.41,.43,8.83,1.28,13.08,2.93,2.12,.82,4.24,1.75,6.17,3.13,1.94,1.34,3.78,2.94,5.24,5.01l-.07,.07Z"/>
  <path class="cls-1" d="M85.81,377.42c1.87-.38,3.92-2.54,5.06-4.81,1.16-2.33,1.7-5.08,1.35-7.67-.13-.94-.4-1.86-.82-2.68-.38-.85-.94-1.57-1.55-2.25-1.08-1.19-2.6-2-3.93-1.93-1.33,.05-2.49,1.06-3.1,2.66-.61,1.57-.81,3.43-.63,5.24,.11,1.87,.57,3.7,1.17,5.48,.52,1.59,1.34,3.06,2.21,4.49,.94,1.38,2,2.68,3.22,3.81,3.15,2.89,7.05,4.82,11.24,6,1.3,.43,1.12,.59-.11,.79-1.24,.3-3.61,.35-6.18-.62-1.13-.43-2.23-.96-3.28-1.58l-1.51-1.02c-.49-.37-.95-.76-1.43-1.14-1.85-1.6-3.45-3.48-4.73-5.57-1.29-2.08-2.23-4.38-2.81-6.75l-.35-1.8c-.1-.6-.14-1.21-.21-1.82-.13-1.23-.09-2.53,.11-3.78,.25-1.5,.68-3.05,1.64-4.49,.48-.71,1.09-1.39,1.88-1.89,.78-.49,1.66-.83,2.59-.94,1.87-.2,3.57,.43,4.96,1.31,1.37,.93,2.56,2.09,3.39,3.49,1.85,3.07,2.21,6.7,1.62,10.02-.64,3.32-2.28,6.48-4.82,8.79-.79,.72-1.7,1.35-2.74,1.81-1.03,.46-2.21,.69-3.34,.66-2.26-.07-4.24-.95-5.97-2.01-2.64-1.64-4.72-4.02-6.24-6.62-1.53-2.61-2.51-5.47-3.09-8.38-.45-2.26-.66-4.54-.62-6.82,.04-2.28,.31-4.6,1.06-6.85,.17-.49,.32-.99,.54-1.47,.2-.48,.41-.97,.69-1.43,.99-1.74,2.02-2.68,2.82-3.17,.8-.51,1.41-.58,1.98-.45,.26,.06,.56,.08,.74,.19,.31,.18,.23,.6-.1,1.15-.09,.14-.19,.28-.31,.43-.1,.17-.22,.35-.35,.54-.28,.35-.56,.8-.88,1.27-1.9,2.85-2.57,6.54-2.56,10.25,.06,3.74,.67,7.52,2.23,10.88,1.13,2.49,2.73,4.74,4.76,6.37,1,.8,2.15,1.5,3.28,1.92,1.13,.42,2.22,.55,3.1,.32l.03,.09Z"/>
  <path class="cls-1" d="M43.25,277.06c.66-.15,1.37-.65,1.76-1.29,.4-.65,.5-1.29,.22-2.18-.21-.63-.66-1.25-1.13-1.92-1.63-2.37-3.91-4.36-6.74-4.58-1.23-.1-2.49,.26-3.4,.99-.6,.47-1.03,1.12-1.38,1.79-.35,.68-.54,1.43-.54,2.23,.02,.48-.27,.56-.73,.15-.44-.39-1-1.49-.7-2.77,.46-2.22,2.51-4.01,4.68-4.53,2.18-.56,4.47-.17,6.29,.91,2.16,1.29,3.99,2.95,5.39,4.95,.76,1.13,1.46,2.59,1.32,4.27-.14,1.65-1.03,3.06-2.22,4-.74,.58-1.61,1-2.56,1.18-.95,.16-1.91,.09-2.78-.19-2.65-.84-4.62-3.29-4.58-6.2,.05-1.19,.66-2.32,1.55-3.07,.87-.76,2.19-1.21,3.47-.93,.55,.11,1.08,.29,1.51,.64,.81,.64,1.1,1.29,1.18,1.76,.04,.24,0,.44-.06,.61-.09,.18-.21,.33-.36,.45-.13,.11-.25,.23-.37,.29-.2,.1-.41,0-.73-.1-.34-.1-.55-.27-.87-.41-.45-.22-.93-.22-1.19-.18-.25,.06-.48,.23-.69,.46-.2,.25-.25,.48-.23,.65,0,.23,.13,.72,.38,1.12,.36,.59,.9,1.15,1.53,1.52,.64,.36,1.33,.46,1.93,.29l.03,.07Z"/>
  <path class="cls-1" d="M408.87,140.26c1.17,.57,2.56,.77,3.81,.5,.63-.14,1.2-.37,1.75-.75,.56-.38,1.1-.88,1.55-1.43,.66-.8,1.1-1.76,1.21-2.59,.06-.37,.04-.7-.05-1-.08-.31-.24-.62-.46-.86-.43-.48-1.19-.8-2.04-.86-.85-.07-1.78,.11-2.58,.47-.8,.36-1.45,.95-1.71,1.59-.57,1.07,.52,2.98,1.79,3.51,.41,.18,.81,.21,1.16,.12,.37-.1,.72-.35,.9-.63,.09-.14,.14-.29,.15-.42,.03-.11-.04-.22-.07-.41-.12-.34-.51-.71-.91-.73-.25-.02-.41,.02-.47-.06-.05-.07-.02-.3,.32-.56,.33-.26,1.02-.45,1.83-.19,.4,.14,.87,.38,1.2,.88,.33,.5,.44,1.27,.3,1.88-.26,1.14-1.03,1.96-1.91,2.45-.45,.25-.95,.41-1.5,.47-.56,.04-1.03-.02-1.52-.15-1.91-.56-3.08-1.93-3.81-3.45-.36-.81-.58-1.83-.41-2.85,.15-1.03,.7-1.92,1.33-2.56,1.29-1.28,2.83-1.82,4.36-1.99,.92-.09,1.86-.06,2.82,.16,.94,.23,1.92,.69,2.67,1.46,.75,.77,1.23,1.78,1.35,2.84,.13,1.06-.11,2.04-.45,2.89-.8,1.87-2.06,3.31-3.67,4.43-1.69,1.13-3.78,1.5-5.68,1.2-2.35-.33-4.54-1.62-5.95-3.58-.95-1.46-1.67-3.14-1.73-4.96-.08-1.82,.59-3.59,1.55-5.03,.17-.3,.38-.56,.6-.81,.22-.25,.42-.53,.65-.77,.48-.45,.93-.96,1.48-1.34,1.03-.85,2.23-1.47,3.5-1.97,.58-.15,1.12-.43,1.75-.48,2.31-.3,3.11,.34,3.33,1.21,.05,.21,.13,.42,.13,.61,0,.33-.24,.57-.6,.75-.18,.09-.39,.16-.62,.2-.24,.06-.51,.15-.8,.19-1.75,.27-3.48,1.13-4.9,2.26-1.45,1.13-2.44,2.64-2.8,4.14-.24,1.13-.03,2.32,.57,3.52,.3,.64,.61,1.12,1.06,1.56,.44,.43,.98,.8,1.57,1.07l-.03,.07Z"/>
  <path class="cls-1" d="M468.78,298.41c-.17,1.44,.23,2.88,1.08,4.24,.82,1.32,2.05,2.34,3.54,2.91,1.09,.42,2.29,.53,3.47,.47,2.06-.05,4.24-1.07,4.68-2.66,.23-.78,.03-1.77-.53-2.69-.27-.46-.63-.92-.98-1.33-.32-.35-.73-.65-1.18-.86-.81-.38-1.77-.46-2.61-.24-.85,.22-1.57,.83-1.93,1.55-.48,.96-.24,2.25,.38,3.13,.67,.86,1.48,1.22,2.57,.79,.65-.28,.99,.04,.58,.95-.09,.24-.28,.47-.54,.71-.25,.28-.64,.45-1.11,.62-.97,.26-2.3-.13-3.12-1.01-.75-.76-1.21-1.68-1.43-2.66-.22-.97-.23-2.02,.1-3.04,.3-1,.92-1.98,1.74-2.61,.78-.69,1.78-1.12,2.78-1.3,2.02-.36,4.05,.33,5.54,1.69,.4,.38,.62,.69,.89,1.02,.28,.31,.5,.72,.74,1.08,.43,.79,.83,1.64,.95,2.64,.18,1.17,0,2.48-.6,3.56-.59,1.07-1.45,1.88-2.38,2.47-1.86,1.18-4,1.63-6.07,1.53-2.28-.11-4.55-.97-6.32-2.46-.88-.74-1.66-1.61-2.24-2.58-.59-.95-1.09-1.99-1.35-3.12-.7-2.77-.08-5.74,1.44-8.03,1.14-1.74,2.78-3.13,4.62-4,1.81-.89,3.82-1.39,5.89-1.35,1.6,.03,3.19,.39,4.62,1.04,1.44,.64,2.73,1.5,3.9,2.49,.51,.44,1.02,.85,1.47,1.35,1.58,1.91,1.72,2.75,1.31,3.66-.1,.21-.17,.44-.28,.6-.4,.54-1.42,.1-2.66-.94-.94-.77-1.85-1.5-2.77-2.17-.93-.65-1.89-1.18-2.84-1.56-1.9-.74-3.75-.89-5.76-.21-1.51,.51-2.78,1.29-3.78,2.4-.96,1.11-1.62,2.49-1.7,3.93h-.09Z"/>
  <path class="cls-1" d="M176.76,358.53c.32,.14,.39,.53,.39,.96,0,.14-.2,.4-.31,.4-.25,0-.49-.02-.67-.02-.07,0-.56-.16-1.13-.3-.29-.07-.59-.13-.87-.2-.26-.08-.49-.15-.64-.2-.61-.18-1.17-.42-1.71-.68l-.84-.39-.8-.45-1.61-.88c-.24-.13-.46-.29-.66-.49-.69-.66-1.5-1.12-2.36-1.5-.14-.06-.27-.15-.46-.12-.31,.05-2.49-1.23-2.73-1.47-.3-.31-.6-.59-.92-.87-.32-.26-.63-.55-.92-.87-.09-.09-.21-.12-.24-.3-.07-.41-.31-.5-.51-.65-.28-.23-.59-.39-.81-.74-.11-.16-.19-.4-.29-.59-.09-.17,.11-.39,.18-.4,.19-.02,.14-.22,.18-.34,.02-.04,.04-.1,.06-.13,.01-.02,.16-.03,.4-.05,.23-.02,.56-.09,.85-.05,.59,.03,1.22,.05,1.33,.09,.02,.03,.8,.18,1.55,.49,.75,.29,1.54,.6,1.71,.65,.18,.05,.3,.2,.43,.33,.06,.06,2.35,.91,2.42,.99,.41,.29,.9,.45,1.17,.98,.05,.1,.15,.14,.24,.19,.75,.41,1.42,.98,2.1,1.51,.35,.27,.74,.48,1.1,.72,.07,.04,.11,.12,.16,.18,.07,.08,.13,.17,.22,.22,.87,.56,1.59,1.36,2.47,1.9,.1,.07,.33,.33,.57,.61,.21,.31,.44,.61,.54,.69,.11,.11,.3,.72,.43,.77Z"/>
  <path class="cls-1" d="M170.88,418.68c.25-.21,.58-.14,.93,.03,.11,.06,.24,.33,.18,.41-.11,.17-.22,.34-.34,.49-.08,.08-1.43,1.23-1.84,1.69-.41,.42-.85,.8-1.3,1.15-.92,.7-1.9,1.3-2.83,1.98-.21,.15-.44,.26-.68,.36-.82,.33-1.56,.8-2.26,1.33-.12,.09-.25,.16-.31,.32-.1,.27-2.04,1.62-2.34,1.73-.79,.29-1.48,.55-2.22,.82-.11,.04-.18,.14-.34,.09-.36-.11-.53,.06-.74,.17-.31,.13-.59,.31-.96,.36-.18,.03-.41,0-.61-.01-.18,0-.3-.29-.28-.36,.06-.17-.13-.23-.22-.33-.03-.03-.07-.08-.09-.11,0-.02,.05-.15,.13-.35,.09-.2,.19-.48,.34-.71,.27-.49,.59-.97,.67-1.04,.02-.02,.55-.51,1.11-1.03,.54-.54,1.19-.99,1.3-1.11,.12-.12,.31-.15,.47-.2,.07-.03,1.85-1.45,1.94-1.48,.42-.22,.76-.56,1.3-.58,.11,0,.18-.06,.26-.11,.68-.43,1.44-.73,2.17-1.07,.38-.17,.72-.39,1.09-.58,.07-.03,.15-.04,.22-.06,.09-.03,.19-.04,.27-.09,.83-.5,1.82-.72,2.68-1.18,.2-.1,1.29-.31,1.52-.44,.13-.06,.68-.02,.78-.11Z"/>
  <path class="cls-1" d="M170.55,408.99c.17-.05,.25,.17,.29,.53,.01,.11-.07,.43-.12,.47-.1,.08-.2,.16-.3,.21-.06,.02-.89,.15-1.17,.26-.27,.08-.53,.12-.79,.14-.52,.05-1.04,.14-1.55,.23-.11,0-.22-.02-.34-.07-.38-.16-.78-.15-1.16-.06-.06,.02-.13,0-.19,.11-.1,.15-1.12,.32-1.26,.27-.36-.14-.71-.22-1.08-.31-.05-.01-.1,.03-.16-.08-.16-.25-.26-.2-.37-.22-.16-.02-.32-.04-.49-.1-.08-.03-.19-.15-.29-.23-.09-.08-.14-.4-.12-.45,.04-.12-.05-.26-.09-.39-.01-.04-.03-.1-.04-.14-.02-.06,.74-1.02,.84-1.08,.01-.04,1.38-.53,1.55-.56,.08-.03,.18,.02,.26,.05,.04,0,1.17-.27,1.22-.25,.24,.02,.48-.07,.72,.16,.05,.04,.1,.03,.14,.03,.41-.02,.81,.05,1.21,.19,.2,.06,.41,.08,.61,.12,.04,0,.07,.05,.11,.07,.04,.03,.09,.06,.13,.07,.48,.09,.94,.29,1.41,.35,.11,.01,.58,.35,.71,.37,.07,0,.24,.32,.31,.3Z"/>
  <path class="cls-1" d="M318.51,372.24c-.22,.28-.62,.23-1.08,.04-.15-.06-.37-.39-.33-.5,.09-.22,.17-.44,.27-.64,.07-.11,1.37-1.64,1.84-2.14,.43-.51,.93-.94,1.43-1.35,1.01-.85,2.11-1.59,3.19-2.35,.24-.17,.5-.3,.78-.4,.96-.35,1.82-.86,2.64-1.44,.14-.1,.3-.17,.37-.36,.12-.33,2.53-1.63,2.89-1.7,.89-.18,1.74-.43,2.61-.63,.12-.03,.22-.13,.4-.03,.4,.23,.62,.08,.89,.01,.36-.1,.74-.18,1.13-.21,.2,0,.44,.1,.67,.16,.2,.06,.3,.51,.27,.58-.09,.2,.12,.35,.21,.52,.03,.06,.07,.13,.08,.18,.02,.1-1.47,1.89-1.65,2.03-.01,.04-.69,.41-1.39,.82-.69,.42-1.41,.85-1.55,.96-.14,.11-.34,.12-.53,.15-.1,0-2.1,1.38-2.2,1.4-.47,.18-.86,.52-1.45,.49-.12,0-.2,.05-.29,.1-.74,.44-1.56,.74-2.35,1.1-.41,.18-.77,.44-1.16,.65-.07,.04-.16,.04-.24,.07-.1,.03-.2,.05-.29,.1-.89,.54-1.91,.91-2.76,1.53-.2,.13-1.35,.5-1.58,.66-.13,.08-.77,.07-.85,.2Z"/>
  <path class="cls-1" d="M397.91,181.21c-.11,.13-.29,0-.51-.27-.07-.09-.18-.39-.16-.45,.05-.12,.09-.23,.15-.33,.03-.06,.76-.57,1.01-.76,.24-.19,.5-.31,.76-.42,.54-.22,1.08-.46,1.64-.65,.12-.04,.25-.07,.39-.06,.46,.02,.89-.09,1.31-.24,.07-.02,.15-.02,.21-.12,.09-.17,1.3-.36,1.47-.31,.41,.13,.8,.22,1.19,.33,.06,.02,.11-.02,.17,.09,.13,.25,.24,.22,.36,.24,.16,.03,.33,.09,.49,.17,.08,.04,.16,.17,.24,.27,.07,.09,.03,.4,0,.44-.07,.1-.01,.25,0,.38,0,.04,0,.1,0,.14-.01,.06-.88,.76-.96,.8-.01,.02-.33,.08-.66,.16-.33,.09-.67,.17-.74,.2-.07,.03-.15-.02-.23-.05-.04-.02-1.01,.28-1.04,.28-.21,0-.4,.08-.64-.1-.05-.04-.09-.02-.13-.02-.35,.06-.72,.02-1.09,.03-.19,0-.37,.05-.55,.08-.03,0-.07-.02-.11-.02-.05,0-.09-.02-.13-.01-.43,.09-.89,.09-1.3,.26-.1,.03-.62-.02-.73,.04-.06,.02-.35-.14-.39-.08Z"/>
  <path class="cls-1" d="M391.02,117.45c-.03,.14-.2,.05-.47-.16-.08-.07-.28-.32-.28-.38,0-.11-.02-.21,0-.29,0-.05,.36-.53,.47-.71,.11-.17,.25-.3,.39-.42l.88-.75c.07-.06,.14-.1,.23-.13,.3-.1,.52-.29,.74-.48,.04-.03,.08-.05,.09-.12,0-.12,.66-.57,.77-.6,.27-.07,.51-.18,.78-.24,.04-.01,.06-.05,.12-.02,.15,.06,.2,0,.27-.04,.1-.05,.21-.09,.32-.12,.06-.01,.14,0,.22,.02,.07,0,.15,.15,.15,.18,0,.07,.07,.11,.12,.16,.02,.02,.04,.04,.05,.06,.01,.03-.25,.71-.29,.77,0,.03-.61,.74-.68,.82-.03,.05-.09,.06-.15,.08-.03,0-.51,.59-.53,.61-.12,.09-.21,.23-.41,.21-.04,0-.06,.02-.08,.04-.2,.18-.44,.29-.66,.43-.12,.07-.21,.16-.32,.24-.02,.01-.05,.01-.08,.02-.03,0-.07,.01-.09,.03-.24,.2-.54,.34-.75,.58-.05,.05-.42,.15-.47,.21-.03,.04-.29-.04-.3,.01Z"/>
  <path class="cls-1" d="M156.36,117.52c.18,.08,.08,.32-.2,.64-.09,.1-.42,.31-.5,.3-.14,0-.28-.02-.39-.04-.06-.02-.73-.52-1-.62-.24-.12-.45-.27-.64-.43-.4-.32-.83-.59-1.28-.83-.1-.05-.18-.13-.25-.22-.25-.32-.6-.51-.98-.61-.06-.02-.12-.06-.21,0-.17,.11-1.09-.28-1.2-.39-.25-.27-.55-.47-.85-.69-.04-.03-.1,0-.12-.13-.05-.27-.17-.26-.27-.31-.14-.06-.28-.17-.42-.3-.07-.07-.13-.2-.2-.31-.06-.1,0-.35,.03-.38,.08-.08,.04-.22,.04-.33,0-.04,0-.09,0-.12,0-.03,.27-.19,.58-.4,.3-.17,.63-.28,.69-.29,.03-.05,1.61,.16,1.79,.2,.1,0,.17,.09,.24,.16,.02,.01,.34,.08,.67,.17,.32,.1,.62,.24,.64,.25,.22,.15,.48,.23,.59,.55,.02,.06,.07,.08,.12,.11,.38,.23,.7,.57,1,.89,.16,.16,.34,.3,.5,.45,.03,.03,.04,.08,.06,.11,.03,.05,.04,.1,.08,.14,.39,.36,.67,.82,1.05,1.18,.1,.08,.27,.68,.37,.77,.06,.05-.03,.43,.04,.46Z"/>
  <path class="cls-1" d="M240.88,247.3c-.06,.05-1.03,.7-1.02,.74,0,.02-.07-.01-.17-.07-.16-.08-.33-.2-.44-.29-.07-.06-.13-.12-.13-.14,0-.08,0-.16,.02-.23,.03-.09,.07-.16,.12-.24,.03-.06,.11-.1,.1-.2-.02-.15,.12-.19,.1-.34-.02-.15,.06-.22,.08-.34,.03-.16,.1-.28,.14-.43,.01-.05,0-.12,.01-.16,.03-.05,.1-.07,.13-.13,.04-.07,.04-.16,.07-.24,.05-.11,.11-.21,.16-.32,.02-.03,0-.1,.02-.12,.03-.04,.09-.04,.12-.07,.04-.05,.07-.11,.1-.17,0,0-.02-.03-.02-.05-.07-.16-.04-.22,0-.27,.08-.1,.15-.18,.22-.27,.04-.1,1.43-.88,1.46-.9,0,0,0,0,.01-.02,.01-.02,.1,.05-.02-.14-.04-.07,0-.03,.02-.03,.02,0,.06,.05-.02-.07-.04-.05-.01-.04,.02-.02,.15,.13,.3,.25,.19,.05-.03-.06,.03,0,.03-.02,0-.11,.13-.03,.05-.23-.03-.08,.08,.03,.13,.05,.02,0,.05,.03,.03,0-.04-.12,0-.13,.06-.1,.09,.05,.08-.06,.12-.1,.03-.03,.06-.07,.1-.09,.05-.03,.13-.03,.16-.09,.01-.02,0-.07,.01-.08,.04-.03,.06-.11,.1-.14,.02-.02,.08,.02,.1,0,.14-.04,.26-.07,.38-.11,.05-.02,.06-.08,.13-.07,.1,.02,.19,.01,.23-.08,.03-.06,.15,.02,.22,.03,.08,.01,.16,.01,.23,.01,.06,0,.29,.41,.5,.82,.1,.21,.21,.41,.28,.56,.07,.15,.12,.26,.11,.26-.09,0-.51,.82-.57,.88-.09,.06-.19,.1-.28,.17-.06,.05-.09,.14-.15,.18-.06,.04-.16,.05-.21,.1-.04,.05-.04,.15-.06,.22,0,.01-.02,0-.03,0-.01,0-.03,0-.04,0,0,.02-.01,.04-.01,.06,0,0,0,.01,0,.03,0,0,.03,.06,.02,.05-.13-.1-.15-.06-.16-.02,0,.01-.03,0-.03,0,0,.13,.04,.32-.13,.25-.03-.01-.06-.02,0,.08,.03,.05,.03,.07,0,.05-.15-.1-.04,.1-.1,.1-.06,0-.04,.1-.12,.08-.08-.01-.04,.11-.09,.12-.05,.02-.19,.22-.24,.26-.04,.03-.09,.05-.12,.08-.08,.08-.17,.15-.24,.24-.1,.1-.2,.19-.32,.28-.04,.03-.4,.12-.73,.26-.33,.13-.65,.29-.66,.33Z"/>
  <path class="cls-1" d="M259.18,262.92c0,.06-.41,.89-.39,.91,0,.01-.09,.02-.25,.03-.24,.02-.53,.02-.72,0-.13,0-.24-.02-.26-.04-.07-.05-.11-.1-.13-.16-.03-.07-.02-.14-.03-.2,0-.06,.05-.11-.02-.17-.11-.09,0-.17-.11-.26-.11-.09-.08-.17-.13-.25-.07-.11-.08-.22-.13-.33-.01-.04-.08-.07-.09-.11,0-.05,.05-.09,.04-.13,0-.06-.06-.12-.07-.18-.02-.09-.02-.18-.04-.27,0-.03-.06-.06-.06-.08,0-.03,.06-.06,.06-.09,0-.05,0-.1-.02-.15,0,0-.03-.01-.05-.02-.16-.07-.16-.12-.15-.17,.01-.09,0-.18-.01-.27-.03-.08,.6-1.17,.59-1.2,0,0,0,0,0-.02,0-.02,.1-.02-.1-.07-.07-.02-.02-.02,0-.03,.01,0,.08,0-.06-.04-.06-.02-.03-.02,0-.02,.19,0,.37,.02,.17-.06-.06-.02,.03-.02,0-.03-.07-.06,.08-.08-.1-.16-.06-.03,.08-.02,.12-.03,.02,0,.05,0,.03-.02-.1-.05-.08-.07-.01-.09,.1-.02,.03-.07,.04-.11,0-.03,0-.07,.01-.1,.02-.04,.06-.08,.05-.13,0-.02-.05-.04-.04-.06,0-.04-.03-.09-.03-.13,0-.02,.06-.03,.07-.04,.05-.08,.13-.16,.22-.23,.03-.03,.02-.07,.08-.09,.09-.04,.16-.08,.16-.14,0-.05,.13-.05,.18-.08,.07-.03,.13-.06,.18-.1,.05-.03,.36,.07,.67,.18,.31,.11,.62,.24,.62,.24-.01,.02,.05,.22,.15,.43,.05,.1,.11,.21,.15,.29,.02,.08,.04,.13,.03,.15-.03,.08-.06,.16-.08,.25,0,.06,.02,.13,.02,.19,0,.06-.06,.11-.05,.17,0,.05,.07,.11,.11,.17,0,0,0,.01-.02,.02,0,0-.02,.01-.02,.02,0,.01,.02,.03,.03,.05,0,0,0,.01,.02,.02,0,0,.06,.02,.04,.02-.15,0-.14,.03-.11,.07,0,0-.02,0-.01,.02,.08,.09,.24,.18,.08,.22-.03,0-.05,.02,.05,.05,.06,.02,.07,.03,.03,.03-.17,0,.04,.08,0,.11-.03,.03,.04,.08-.02,.11-.06,.03,.05,.09,.02,.12-.03,.04,.02,.23,.02,.28,0,.04-.03,.07-.03,.11-.01,.09-.04,.17-.05,.26-.01,.11,0,.22-.03,.33-.03,.07-.7,.93-.66,1Z"/>
  <path class="cls-1" d="M275.12,254.84c.04,.06-.01,1.04,.02,1.05,.01,0-.07,.06-.23,.15-.23,.13-.52,.29-.71,.37-.13,.05-.25,.1-.27,.1-.09-.01-.16-.04-.2-.07-.06-.05-.09-.11-.13-.16-.03-.05,0-.12-.11-.14-.16-.02-.08-.15-.24-.17-.16-.01-.16-.1-.26-.15-.13-.06-.19-.15-.3-.22-.03-.02-.12-.02-.15-.05-.03-.04,0-.1-.03-.14-.04-.05-.12-.07-.17-.11-.07-.06-.12-.14-.18-.2-.02-.02-.09-.01-.1-.04-.01-.03,.03-.08,.01-.12-.02-.05-.06-.08-.1-.12,0,0-.04,0-.06,.01-.2,.03-.23,0-.24-.05-.04-.08-.1-.15-.16-.22-.01-.03-.12-.32-.12-.65-.01-.32-.02-.64-.04-.66,0,0,0,0,0-.01-.02-.01,.1-.07-.15,0-.09,.03-.03,0-.02-.02,.01-.01,.08-.05-.08,0-.08,.02-.05,0,0-.02,.21-.11,.42-.22,.15-.15-.08,.02,.02-.03,0-.03-.12,0,.03-.11-.21-.07-.09,.02,.07-.06,.12-.1,.02-.01,.05-.03,.02-.03-.15,.02-.14,0-.07-.06,.09-.07-.02-.07-.05-.1-.02-.03-.06-.05-.07-.08-.02-.04,.03-.11-.02-.14-.01-.01-.08,0-.08-.02-.01-.04-.08-.06-.1-.09,0-.02,.06-.06,.06-.08,.03-.11,.06-.22,.07-.32,0-.04-.05-.06-.01-.11,.07-.08,.1-.16,.03-.2-.05-.03,.09-.12,.13-.18,.05-.07,.08-.13,.11-.19,.03-.05,.53-.2,1.03-.34,.5-.14,1-.26,1-.26-.04,.07,.75,.49,.79,.54,.03,.08,.05,.17,.09,.25,.04,.05,.09,.1,.11,.15,.02,.06-.01,.14,.03,.19,.03,.04,.14,.05,.21,.08,.01,0,0,.02,0,.03,0,.01-.02,.03-.01,.03,.01,0,.04,.01,.06,.02,0,0,.01,0,.03,0,.01,0,.08-.02,.06,0-.17,.1-.14,.12-.09,.13,.01,0-.02,.02,0,.02,.14,.02,.37,.01,.21,.14-.03,.03-.04,.04,.09,0,.07-.02,.09-.02,.05,0-.18,.11,.08,.05,.06,.1-.02,.05,.08,.05,.03,.11-.06,.07,.1,.05,.09,.1,0,.04,.12,.2,.13,.26,.01,.04,0,.09,0,.13,.02,.09,.05,.18,.08,.27,.04,.11,.1,.2,.13,.31,0,.08-.27,1.24-.19,1.29Z"/>
  <path class="cls-1" d="M249.12,278.44c-2.76-.72-5.4-1.86-7.85-3.29-.89-.52-1.8-1.02-2.63-1.65-2.93-2.17-5.4-4.96-7.14-8.13-.78-1.4-1.45-2.86-2-4.35-.67-1.9-1.28-3.96-.73-6.02,.14-.63,.17-.54,.48-.04,.16,.25,.41,.59,.73,.99,.28,.4,.52,.86,.68,1.37,.06,.23,.17,.45,.24,.67l.19,.68c.11,.46,.3,.89,.44,1.33,.32,.88,.69,1.74,1.12,2.57,.84,1.68,1.88,3.25,3.03,4.79,1.37,1.86,3.31,3.36,5.29,4.64,2.18,1.42,4.56,2.59,7.07,3.38,1.54,.5,3.14,.84,4.75,1.07,2.44,.32,4.95,.37,7.37,0,1.89-.28,3.66-.91,5.4-1.58,.39-.13,.75-.32,1.14-.46,1.42-.57,2.02-.44,2.54-.14,.12,.07,.27,.13,.35,.21,.29,.24-.13,.86-1.08,1.7-3.04,2.07-6.94,3.03-10.82,3.23-2.89,.12-5.8-.24-8.6-.92v-.07Z"/>
</svg>