<?xml version="1.0" encoding="UTF-8"?><svg id="_171.Accounting" xmlns="http://www.w3.org/2000/svg" width="520" height="520" viewBox="0 0 520 520"><defs><style>.cls-1{fill:#fff;}</style></defs><path class="cls-1" d="m136.85,343.08s5.74-5.42,8.89-4.12c3.15,1.3-.44-8.05-.44-8.05l-8.45,12.16Z"/><path class="cls-1" d="m213.01,309.37c-.9-.34-1.78-.7-2.65-1.09-.32-.15-.64-.26-.95-.43-1.09-.58-2.14-1.2-3.19-1.82-.46-.28-.93-.56-1.39-.82-.59-.34-1.19-.69-1.72-1.14-.17-.14-.08-.23.16-.28.23-.04.62-.06.99.07,1.31.47,2.61.89,3.79,1.61.72.41,1.55.64,2.34.93.87.31,1.71.71,2.59,1.02.54.2,1.07.39,1.62.56.83.26,1.66.51,2.5.7.66.13,1.32.16,1.98.21.15.01.28.04.43.07.53.14.68.31.75.65.02.08.04.15.05.22.02.23-.24.43-.66.53-.64.17-1.28.17-1.92.12-.64-.05-1.28-.14-1.92-.26-.94-.21-1.86-.52-2.78-.82v-.04Z"/><path class="cls-1" d="m207.22,318.61c-.57-.29-1.13-.59-1.7-.88-.21-.1-.43-.17-.63-.29-.7-.42-1.36-.93-2.04-1.37-.3-.19-.61-.37-.92-.54-.4-.22-.8-.43-1.14-.74-.11-.1-.02-.22.17-.3.18-.08.47-.16.71-.08.87.3,1.72.58,2.52,1.03.47.28,1.05.37,1.55.61.56.24,1.12.49,1.68.73.35.14.7.29,1.05.41.54.18,1.07.42,1.62.55.43.09.88.09,1.3.21.09.02.19.03.28.06.34.13.41.32.42.62,0,.07.01.14,0,.21-.01.22-.2.39-.5.5-.44.13-.88.18-1.33.21-.42-.05-.85-.14-1.26-.25-.62-.15-1.21-.42-1.8-.68v-.04Z"/><path class="cls-1" d="m152.14,344.6c.5.97.94,1.99,1.41,2.97.51.97.96,1.98,1.53,2.92.4.69.83,1.37,1.25,2.05.74,1.21,1.48,2.41,2.3,3.56.39.59.8,1.17,1.23,1.73.43.56.83,1.15,1.3,1.68.41.48.83.95,1.25,1.41.44.44.92.85,1.35,1.3,1.15,1.11,2.38,2.14,3.62,3.16.38.33.25.43-.22.37-.46-.08-1.32-.25-2.16-.73-3.02-1.69-5.37-4.29-7.36-7.05-.55-.86-1.17-1.69-1.77-2.55-.57-.87-1.2-1.71-1.73-2.61-1.17-1.96-2.26-3.97-3.21-6.04-.6-1.27-1.09-2.58-1.63-3.87l-1.1-2.98c-.33-1.01-.66-2.01-.99-3-.23-.78-.49-1.55-.74-2.31-.23-.77-.45-1.55-.65-2.33-.09-.35-.18-.68-.23-1.04-.21-1.32-.19-1.75.04-2.08.05-.07.1-.17.16-.22.19-.16.48.34.78,1.25.22.68.44,1.36.71,2.04.23.69.46,1.38.69,2.07.5,1.38.99,2.78,1.55,4.16.8,2.06,1.71,4.09,2.67,6.08l-.04.02Z"/><path class="cls-1" d="m162.71,365.85s11.67,11.19,14.71,9.05c3.92-2.76-9.22-25.79-9.22-25.79l-5.49,16.74Z"/><path class="cls-1" d="m272.7,349.35c1.75,5.93,3.42,11.89,4.83,17.91l.84,3.28c.26,1.1.52,2.19.75,3.29,1.63,7.77,3.04,15.59,3.93,23.47.44,3.49.89,6.99,1.33,10.45.25,2.23.5,4.46.76,6.69.15,2.24.16,4.49.04,6.75-.07,1.4-.2,1.22-.65.08-.26-.64-.59-1.44-.96-2.36-.36-.98-.7-2.14-.94-3.4-.34-2.25-.64-4.5-.95-6.74-.29-2.25-.68-4.49-.99-6.74-.66-4.49-1.41-8.98-2.02-13.52-.71-5.43-2.09-10.97-3.33-16.43-.7-3-1.44-5.99-2.21-8.97-.82-2.97-1.57-5.96-2.48-8.9-.55-1.81-1.06-3.64-1.65-5.45l-1.77-5.41c-.93-2.72-1.91-5.43-2.89-8.13-1.05-2.68-2.05-5.37-3.18-7.99-.89-2.03-1.8-4.03-2.74-6.01-.98-1.96-1.96-3.91-2.94-5.87-.43-.87-.84-1.71-1.26-2.59-1.51-3.28-1.75-4.43-1.33-5.5.07-.23.09-.5.15-.65.11-.25.39-.07.98.37.62.43,1.22,1.29,1.93,2.42.52.85,1.04,1.7,1.57,2.56.54.85,1.03,1.73,1.48,2.64.92,1.81,1.83,3.64,2.71,5.51,1.7,3.76,3.37,7.6,4.87,11.51,1.18,2.88,2.18,5.84,3.25,8.78,1.02,2.95,1.98,5.93,2.94,8.9l-.08.03Z"/><path class="cls-1" d="m299.9,294.3c-.45,2.28-.81,4.58-1.1,6.91-.1.85-.1,1.7-.21,2.55l-.47,4.51c-.19,1.51-.33,3.02-.45,4.53-.1,1.34-.1,2.7-.16,4.03-.04,1.72-.1,3.44-.33,5.17-.07.54-.29.47-.58.02-.28-.45-.71-1.28-.88-2.27-.15-.88-.26-1.76-.36-2.64-.11-.88-.21-1.77-.2-2.65-.04-1.77.02-3.55.18-5.33.2-2.13.2-4.35.36-6.54.19-2.4.49-4.79.85-7.18.22-1.47.48-2.93.76-4.39.22-1.1.45-2.21.73-3.3l.39-1.64.43-1.63c.2-.85.4-1.69.6-2.54.17-.85.41-1.69.66-2.53.11-.37.19-.75.33-1.11.28-.67.51-1.09.81-1.32.31-.22.66-.26,1.08-.22.19.02.38.01.54.05.27.06.44.27.59.62.16.35.21.8.08,1.28-.67,2.87-1.49,5.78-2.19,8.8-.25,1.12-.52,2.25-.73,3.39-.25,1.13-.46,2.28-.66,3.43h-.08Z"/><path class="cls-1" d="m246.97,283.08c1.29,1.14,2.55,2.31,3.81,3.48.46.42.95.81,1.41,1.25,1.59,1.54,3.11,3.14,4.61,4.76.67.71,1.37,1.4,2.06,2.08.94.82,1.66,1.87,2.36,2.91.21.33.07.39-.32.31-.38-.09-1.05-.28-1.66-.68l-.8-.53c-.27-.18-.47-.42-.7-.62l-1.36-1.29c-.9-.87-1.79-1.76-2.66-2.67-1.03-1.11-2.28-2.07-3.46-3.08-1.28-1.12-2.57-2.23-3.89-3.31-.81-.66-1.62-1.33-2.45-1.97-1.26-.97-2.52-1.95-3.84-2.81-1.03-.66-2.14-1.17-3.23-1.71-.24-.12-.49-.22-.72-.35-.85-.51-.92-.99-.78-1.63.04-.15.06-.3.1-.43.08-.22.26-.36.53-.44.27-.08.63-.11,1.01-.02,2.16.71,4.07,2.07,5.95,3.45,1.39,1.04,2.73,2.16,4.06,3.27l-.04.05Z"/><path class="cls-1" d="m289.77,307.95s6.35-6.17,6.62-3.84c.27,2.32.56-9.24.56-9.24l-7.17,13.08Z"/><path class="cls-1" d="m275.02,295.8c-.23-2.04-.57-4.09-1.04-6.11-.17-.74-.44-1.45-.63-2.19-.33-1.3-.69-2.6-1.08-3.89l-.3-.97-.17-.51-.25-.71c-.15-.47-.46-1.01-.58-1.48-.21-.52-.13-.89-.13-1.24v-.46c.03-.14-.05-.35.18-.43.3-.17.54-.28.9-.34.68-.15,1.65-.02,2.56.06.7.06.93.08,1.32.09.36,0,.71,0,1.04,0,.7-.03,1.22-.07,1.95.14.46.09.62.18.52.9-.06.34-.2.95-.58,1.38-.18.22-.39.47-.63.61-.25.13-.52.22-.79.25-.49.06-.96.08-1.41.08h-.67s-.33-.03-.33-.03h-.16s0-.01,0-.01c0-.01-.02-.04-.09-.09-.1-.07-.15-.05-.2,0-.02.04-.05.05-.05.17,0,.07,0,.1.02.23l.16.59c.48,1.88,1.28,3.73,1.81,5.65.59,2.1,1.05,4.24,1.4,6.4.21,1.33.39,2.66.51,4.01.19,2.03.25,4.08.22,6.11-.06,1.57.07,3.15-.21,4.7-.05.34-.1.68-.18,1.02-.15.63-.31,1.04-.52,1.29-.24.25-.46.37-.74.44-.13.03-.25.08-.35.09-.18.02-.31-.12-.44-.38-.12-.26-.28-.65-.26-1.1-.2-2.72-.34-5.39-.41-8.13-.05-2.03-.18-4.08-.47-6.13l.07-.02Z"/><path class="cls-1" d="m209.57,140.33s10.19,23.48,10.75,31.55c.56,8.07-.7,18.62-2.12,18.94-1.41.32-7.93-8.68-11.97-9.74-4.04-1.06-10.7-.3-12.81,5.52s-1.09,5.29-1.09,5.29c0,0-11.13-5.97-15.06-16.01-2.45-6.25-2.54-11.72-2.62-16.48-.44-26.15,28.67-31.04,33.57-26.85,2.36,2.02,8.6-12.28,19.69-22.2,14.28-12.77,51.69-27.85,79.36-15.42,0,0,10.16,3.89,12.05,17.42,1.7,12.22-7.04,18.93-9.26,22.37-2.22,3.44-9.37,7.83-16.18,9.37-6.81,1.53-17.59,3.23-21.48,1.29-3.9-1.94-12.93-5.33-12.93-5.33,0,0-9.82,5.41-15.62,6.07-16.19,1.84-29.13-7.82-29.13-7.82,0,0-3.9-.63-5.15,2.04Z"/><path class="cls-1" d="m157.92,356.49c2.31,3.46,4.9,6.75,7.82,9.71,1.06,1.09,2.24,2.03,3.37,3.02,1.01.84,2.03,1.68,3.1,2.38,1.06.7,2.18,1.35,3.25,1.7.51.14,1.05.27,1.36.2.15.02.38-.07.56-.14.17-.08.32-.18.46-.3.55-.47.82-1.67.83-2.91.02-2.25-.53-4.66-1.03-7.03-.32-1.53-.61-3.1-.76-4.72-.04-.4-.05-.82-.07-1.23.02-.42.04-.83.09-1.25.04-.42.12-.84.22-1.26.1-.42.32-.82.51-1.21.61-.94.66-.67.91.21.34.94,1.15,2.25,1.51,3.85.24,1.45.63,2.93.98,4.46.31,1.54.63,3.13.86,4.79.21,1.68.43,3.41.04,5.47-.2,1.01-.64,2.21-1.6,3.18-.24.23-.51.44-.78.63-.28.16-.57.34-.86.44-.3.1-.56.22-.89.27-.33.05-.66.09-.98.12-1.45-.03-2.52-.47-3.56-.88-1-.46-1.95-.96-2.84-1.52-1.79-1.11-3.43-2.36-4.95-3.7-3.31-2.99-6.22-6.33-8.83-9.87-1.61-2.18-3.09-4.45-4.46-6.78-2.06-3.55-3.81-7.28-5.24-11.1-1.13-2.96-2.12-5.94-2.64-9.09-.1-.69-.24-1.37-.3-2.08-.09-1.31-.01-2.19.17-2.79.18-.61.42-.95.79-1.21.17-.12.33-.28.49-.34.54-.21.96.83,1.33,2.58.5,2.61,1.13,5.22,2.03,7.79.84,2.58,1.81,5.18,2.98,7.7,1.72,3.76,3.82,7.41,6.21,10.84l-.07.06Z"/><path class="cls-1" d="m199.69,324.89c-2.25-.22-4.45-.62-6.62-1.06-.79-.17-1.6-.25-2.38-.45-2.76-.7-5.46-1.53-8.13-2.43-1.19-.39-2.39-.72-3.59-1.04-.77-.19-1.53-.42-2.28-.69l-.56-.21-.51-.36c-.34-.24-.67-.53-1-.78-.4-.37-.36-.29.12-.42.24-.07.59-.2,1.02-.4.22-.1.44-.18.69-.27.12-.05.24-.07.37-.14.11.01.23.01.34.03l1.2.2.6.1.58.16,2.31.68c1.53.48,3.06.95,4.57,1.54,1.81.69,3.79.99,5.71,1.41,2.11.44,4.22.83,6.35,1.09,1.31.15,2.63.26,3.94.28h1.49s1.49-.07,1.49-.07c.99-.06,1.94-.19,2.74-.53,1.28-.52,1.8-1.63,1.93-2.9.03-.28.02-.57.03-.86,0-.14.01-.26.02-.38.03-.12.06-.22.09-.32.07-.2.11-.36.23-.5.25-.28.48-.46.75-.61.13-.07.25-.16.36-.21.2-.08.39,0,.62.23.22.23.63.6.73,1.13.24.79.17,1.63.05,2.53-.16.89-.52,1.85-1.18,2.7-.65.86-1.6,1.5-2.5,1.86-.91.38-1.79.55-2.61.66-2.36.27-4.65.24-6.94.08v-.07Z"/><path class="cls-1" d="m214.64,317.67c-.42.1-.83.16-1.24.2-.22.02-.35.05-.66.06h-.4s-.31,0-.31,0c-.82-.06-1.53-.17-2.25-.29-.53-.09-1.06-.1-1.57-.22-1.82-.42-3.59-1.01-5.32-1.73-.38-.16-.77-.3-1.16-.47-.39-.14-.77-.34-1.14-.54-.49-.23-.96-.54-1.41-.88-.21-.2-.44-.38-.6-.63-.15-.25-.25-.57-.35-.84-.11-.36.16-.44.64-.48.29-.03.59-.06.84-.09.13,0,.33-.06.46-.06.13.01.24.04.34.09.72.38,1.56.63,2.41.98.87.36,1.75.72,2.65,1.09,1.1.46,2.36.51,3.56.66.66.09,1.32.17,1.98.22.33.02.65.05.94.05.17,0,.23,0,.36,0l.46-.07c.75-.12,1.48-.31,2.07-.66.92-.49,1.62-1.3,1.92-2.38.24-.83.11-1.76.01-2.68-.02-.2-.08-.4-.09-.61-.02-.19,0-.35.08-.48.06-.13.13-.24.23-.33.19-.18.5-.28.94-.37.2-.04.38-.09.56-.11.56-.08,1.25.26,1.56.89.39.95.44,1.96.37,3.07-.1,1.1-.41,2.33-1.15,3.48-.53.84-1.3,1.62-2.14,2.13-.84.53-1.72.88-2.56,1.08l-.03-.08Z"/><path class="cls-1" d="m290.43,336.53c-.02.62-.15,1.03-.38,1.22-.14.12-.25.37-.38.56-.1.15-.19.35-.31.41-.09.05-.17.11-.25.19-.04.04-.09.06-.12.14-.05.01-.09.05-.13.08-.17.13-.33.29-.5.48-.15.18-.49.35-.92.52-.43.15-.95.38-1.47.38-1.04.08-2.01-.02-2.18-.02-.55,0-2.13-.15-2.41.14-.29.31-1.59.02-1.96.27-.15.11-.29.08-.43.03-.6-.19-1.29.91-1.9.75-.37-.09-.75-.08-1.13-.12-.09-.01-.19.05-.27,0-.91-.53-1.93-.1-2.85-.41-.18-.07-.37-.14-.56-.21-.12-.04-.23-.15-.36-.09-.74.3-1.33-.19-1.92-.58-.08-.05-.14-.2-.24-.12-.59.47-.96-.19-1.47-.14-.21,0-.5-.15-.73-.25-.16-.07-.29-.23-.47-.22-.78.07-1.26-.35-1.81-.44-.03,0-.06-.04-.1-.02-.37.17-.6.08-.78-.13-.09-.11-.15-.23-.22-.37-.06-.17-.09-.33-.14-.49-.11-.39-.22-.67-.37-.2.09-.47.19-.79.26-1.19.14-1.08.26-1.69.2-2.36.02-.21-.03-.47-.1-.65,0-.05-.02-.1-.05-.16-.03-.05-.09-.11-.06-.08h0s0,0,0,0h0s.04.03-.04-.02c-.11-.07-.22-.16-.34-.25-.22-.18-.44-.4-.64-.64-.4-.47-.67-1.07-.82-1.55-.16-.47-.18-.84-.12-.91.2-.27.44-.59.76-.75.34-.19.64-.37.96-.63.18-.13.28-.26.37-.42.1-.16.2-.35.3-.57.19-.47.68-.62.84-.57.21.03.41.15.62.21.19.07.31.12.47.17.33.1.55.16.81.21.48.11.92.1,1.22.4.25.22.59.19.84.3l1.43.6c-.07,0,.36.11.66.19l.95.23c.22.05.43.18.61.45.17.25.37.37.58.41.36.08.74.05,1.1.11.51.09,1.01.22,1.52.32.85.2,1.69.36,2.53.58.03,0,.06.05.09.01.58-.67,2.09-.07,2.2-.08.45.02.91,0,1.35.09.44.08.89-.03,1.32.13.38.14.77.06,1.13.04.05,0,.11-.05.16-.02.32.1,1.11.39,1.88.58.2.05.37.08.55.11.09.01.17.03.25.04.1.07.18.11.26.16.34.2.57.29.66.33.08.03.18.17.31.39.12.2.22.3.34.49.11.18.24.45.34.59.11.14.2.15.31.23.1.09.23.33.3.6.09.3.36,1.23.44,1.5Z"/><path class="cls-1" d="m293.18,365.17c-.04.52-.17.81-.38.92-.12.06-.23.24-.35.36-.09.1-.18.23-.28.25-.29.08-.55.34-.81.68-.13.16-.39.35-.71.53-.32.18-.75.23-1.13.3-.78.11-1.52.12-1.64.11-.2,0-.61.06-.99.01-.37-.03-.72-.02-.83.11-.24.29-1.2-.04-1.48.2-.11.09-.22.07-.33.02-.44-.19-1,.83-1.44.67-.27-.1-.57-.06-.85-.09-.07,0-.14.06-.2.02-.67-.44-1.46.03-2.15-.21-.13-.06-.28-.13-.41-.19-.09-.04-.17-.14-.27-.08-.55.29-.99-.16-1.44-.5-.06-.05-.11-.18-.18-.1-.44.44-.72-.15-1.1-.08-.12.02-.22-.08-.33-.13-.09-.04-.16-.17-.26-.13-.44.18-.8-.1-1.21-.11-.03,0-.05-.03-.08-.01-.51.34-.81-.34-1.14-.87-.2-.34-.42-.53-.73-.28-.06.05-.12.08-.15-.01-.16-.49-.4-.6-.61-.85-.01-.01,0-.07-.02-.1-.02-.08.25-1.59.32-1.9.06-.29,1.06-4.13,1.13-4.28.06-.11.12-.25.16-.28.14-.12.3-.37.52-1.08.12-.37.21-.49.27-.45.44.23.98.04,1.43.23.19.1.43-.04.63-.03,1.02.13,2.02.35,3.03.49.18.03.34.12.49.35.13.21.29.3.46.33.28.05.58-.01.87.01.4.04.79.19,1.19.29.66.18,1.32.37,1.97.53.02,0,.04.05.07.01.48-.63,1.64-.11,1.73-.1.35.01.71-.02,1.05.08.18.06.35.02.52.05.17.04.34.09.51.22.3.22.59.19.88.27.04.01.09-.02.13.02.48.27,2.47,1.43,2.71,1.47.06.02.12.12.2.31.08.17.15.25.23.41.08.15.16.39.24.51.08.12.15.13.22.21.08.08.17.31.22.56.06.27.26,1.13.32,1.37Z"/><path class="cls-1" d="m293.73,388.34c.08.54.02.8-.13.87-.09.04-.14.19-.22.29-.06.08-.11.19-.19.21-.23.06-.4.25-.58.53-.32.59-2.55,1.04-2.75.88-.33,0-1.27-.12-1.44.11-.17.25-.93.02-1.13.23-.09.09-.17.07-.24.03-.32-.16-.77.78-1.07.66-.19-.09-.4,0-.59-.05-.04,0-.09.05-.13.01-.43-.41-.94-.01-1.33-.2-.08-.04-.17-.09-.25-.13-.05-.02-.09-.1-.15-.04-.3.32-.56-.03-.79-.26-.03-.03-.06-.14-.1-.06-.2.46-.37-.02-.54.11-.05.04-.11-.02-.16-.06-.04-.03-.09-.14-.13-.1-.19.17-.34-.03-.52.01-.01,0-.02-.02-.03,0-.14.38-.33-.09-.59-.45-.07-.09-.17-.27-.24-.32-.07-.06-.12-.04-.14.09,0,.05-.02.08-.06.01-.21-.35-.35-.4-.52-.55,0,0-.03-.05-.04-.07-.04-.06-.46-1.21-.54-1.45-.09-.21-.98-3.26-.97-3.41,0-.1,0-.23,0-.28.06-.15.08-.41-.02-1.03-.05-.32-.01-.46.05-.47.26-.02.48-.21.69-.4.22-.19.48-.22.74-.22.22.02.42-.17.62-.21.52-.12,1.05-.23,1.54-.29.52,0,.99.03,1.46.07.16.01.34.09.47.29.13.19.27.26.41.28.24.04.5-.03.73,0,.32.04.66.11.95.18l.75.18c.23.07.46.17.69.26.02,0,.03.04.05.01.35-.56,1.1-.03,1.14-.03.22.03.45.03.64.11.2.08.41,0,.6.15.17.11.33.1.51.18.03.01.04-.02.07.01.26.36,1.51.87,1.67.81.04,0,.1.1.19.27.09.16.15.23.24.39.08.15.2.4.28.52.08.12.13.13.2.21.07.08.2.33.3.6.11.29.47,1.22.57,1.49Z"/><path class="cls-1" d="m294.55,405.34c.02.5-.06.74-.2.79-.09.03-.15.17-.23.26-.06.07-.12.17-.19.18-.21.02-.39.2-.57.45-.17.24-.75.47-1.33.6-.56.17-1.1,0-1.19,0-.29-.03-1.15-.18-1.3.02-.17.22-.85-.02-1.05.16-.08.08-.16.05-.23.02-.3-.15-.73.66-1.03.53-.19-.07-.38-.09-.57-.12-.04,0-.1.03-.14,0-.43-.4-.97-.1-1.41-.32-.08-.05-.18-.1-.27-.15-.06-.03-.1-.1-.17-.06-.37.22-.64-.12-.91-.37-.04-.03-.06-.13-.11-.07-.3.35-.46-.1-.69-.04-.08.02-.14-.05-.2-.09-.05-.03-.09-.12-.16-.09-.29.17-.49-.08-.72-.12-.02,0-.03-.02-.05,0-.31.27-.47-.23-.67-.61-.12-.24-.26-.41-.43-.13-.03.03-.06.04-.08-.04-.1-.41-.23-.54-.36-.77,0-.01,0-.06-.01-.08-.02-.07.05-1.13.07-1.34.01-.19.38-2.92.43-3.05.03-.09.07-.2.1-.24.1-.12.2-.34.32-.9.06-.29.13-.41.18-.41.21-.05.39.05.58.03.19,0,.39-.05.57.03.15.06.32-.05.48-.05l.59-.02.55.1,1.08.21c.13.02.24.1.33.28.09.17.19.24.31.26.2.04.41,0,.6.03.27.04.54.11.8.18.44.13.88.18,1.29.36.01,0,.03.04.04.01.33-.5,1.06-.03,1.11-.04.22.02.44.01.65.09.21.07.42-.01.63.13.18.14.35.01.53.11.03.01.05,0,.08.02.27.37,1.51.96,1.65.94.03,0,.08.1.15.27.06.16.12.23.18.38.06.14.15.38.21.5.06.12.11.13.17.21.06.08.15.32.22.58.07.28.31,1.16.38,1.41Z"/><path class="cls-1" d="m298.21,335.29c.04,8.04.24,16.09.62,24.13.15,2.94.4,5.86.57,8.79.57,10.34,1.33,20.68,2.37,30.99.47,4.57,1.06,9.16,1.74,13.67.83,5.81,2.12,11.54,2.35,17.44.04,1.85-.25,1.66-1.11.24-.91-1.4-2.41-4.05-3.09-7.39-2.09-11.87-3.56-23.82-4.31-35.93-.46-7.24-1.28-14.74-1.75-22.14-.51-8.14-.85-16.29-1.04-24.44-.13-5.02-.14-10.04-.15-15.06.02-7.6.29-15.24.7-22.79.3-5.87.64-11.64,1.55-17.44.1-.64.19-1.27.28-1.91.11-.63.28-1.26.43-1.89,1.16-4.72,2.32-6.02,3.14-6.81.2-.18.42-.43.58-.51.26-.15.32.27.28,1.15-.02.44-.07,1-.15,1.65-.08.65-.09,1.44-.21,2.29-.21,1.25-.3,2.54-.43,3.81-.14,1.28-.28,2.56-.42,3.85-.26,2.59-.46,5.21-.62,7.86-.38,5.29-.74,10.68-.94,16.11-.3,8.05-.41,16.18-.3,24.29h-.09Z"/><path class="cls-1" d="m265.13,299.5l4.61,5.38c.77.89,1.56,1.76,2.35,2.62l1.2,1.27.6.62.18.2c.14.16.3.3.47.41.08.04.19.14.27.05l.05-.28v-.12c.03-.16.07-.35.06-.54v-.43c0-.18-.01-.36-.02-.54l-.05-1.08c-.08-1.45-.18-2.9-.33-4.35-.28-2.91-.67-5.82-1.17-8.71-.46-2.64-1.07-5.27-1.73-7.84-.43-1.65-.94-3.28-1.47-4.88-.62-1.57-.91-3.27-1.48-4.86-.31-1.02-.18-.97.56-.34.72.63,2.34,1.83,3.15,3.73,1.37,3.37,2.44,6.79,3.23,10.28.75,3.5,1.3,7.03,1.64,10.61.16,1.73.35,3.48.54,5.24.07.89.17,1.78.23,2.68l.05.93c.02.38.03.74.03,1.1.02.73-.05,1.41-.08,2.12-.08.25-.11.57-.22.76l-.33.56c-.12.18-.18.39-.38.52-.23.15-.5.18-.71.18-.61-.01-1.26-.24-1.99-.72-.72-.49-1.46-1.17-2.16-1.86l-.83-.84-.63-.66-1.23-1.33c-1.61-1.79-3.2-3.58-4.77-5.38l-5.8-6.64c-2.94-3.33-5.87-6.7-8.94-9.85-2.39-2.45-4.89-4.69-7.42-6.9-.56-.47-1.12-.94-1.69-1.42-2.09-1.77-2.52-2.58-2.48-3.59.01-.23-.01-.49.04-.69.16-.65,1.44-.4,3.23.74,5.07,3.64,9.61,8.26,13.96,13.02,3.24,3.54,6.36,7.18,9.5,10.78l-.06.06Z"/><path class="cls-1" d="m294.1,301.56c-.77,1.93-1.59,3.85-2.61,5.74l-.9,1.68-.74,1.15c-.28.32-.57.61-.85.91-.3.21-.59.47-.89.58-.3.12-.61.23-.93.29-.16.05-.34,0-.51,0-.16-.08-.35-.1-.48-.17-.28-.13-.5-.34-.71-.59-.62-.75-1.01-2.03-1.37-3.26l-.32-1.25c-.09-.37-.17-.74-.25-1.11-.54-2.6-.88-5.19-1.28-7.78l-.58-3.87-.54-3.87c-.34-2.28-.8-4.56-1.33-6.78-.65-2.85-1.27-5.71-2.14-8.45-.34-.81-.24-.8.42-.27.32.27.75.7,1.24,1.25.24.28.51.58.74.92.22.35.42.73.6,1.13.63,1.43,1.21,2.87,1.69,4.34.42,1.48.79,2.96,1.13,4.45.65,2.98,1.28,5.96,1.59,8.99.42,3.62,1.22,7.33,1.91,10.9l.15.71c.04.18.09.36.16.54.04.08.08.2.17.22.09,0,.18-.03.26-.08.15-.1.28-.23.4-.39.12-.15.23-.31.34-.5.24-.37.48-.83.69-1.27.43-.89.83-1.8,1.2-2.74.93-2.29,1.73-4.66,2.45-7.04,1.09-3.62,2.08-7.3,2.74-10.99.53-2.87.68-5.74.88-8.59.03-.63.05-1.24.08-1.87.02-2.33.72-3.03,1.38-3.55.16-.11.3-.27.42-.34.21-.11.4.07.69.52.29.45.65,1.16.75,2.07.43,5.4-.56,10.97-1.86,16.4-.99,4.04-2.21,8.04-3.71,11.96l-.07-.02Z"/><path class="cls-1" d="m244.24,247.45s5.53,20.07,24.64,21.55c20.71,1.6,15.25-16.92,15.25-16.92,0,0-5.01,4.22-11.43,4.53-6.42.31-24.62-6.24-24.62-6.24l-3.84-2.93Z"/><path class="cls-1" d="m282.1,276.03c-3.35,1.87-7.12,2.52-10.69,2.38-1.3-.1-2.61-.08-3.88-.36-4.49-.82-8.63-2.7-12.35-5.09-1.66-1.06-3.25-2.23-4.76-3.47-.5-.37-.94-.83-1.41-1.25-.45-.44-.96-.83-1.32-1.35-.38-.51-.78-1-1.12-1.53-.29-.57-.57-1.15-.84-1.71-.32-.72-.02-.77.7-.49.36.14.85.34,1.38.6.27.14.55.27.84.42.28.16.55.34.8.56.89.76,1.72,1.57,2.6,2.33.93.71,1.81,1.47,2.8,2.12.94.71,1.97,1.27,2.95,1.94,1.03.56,2.03,1.23,3.12,1.73,2.55,1.31,5.51,1.97,8.37,2.28,3.15.34,6.37.08,9.25-1.09,1.8-.68,3.4-1.76,4.58-3.16.49-.51.79-1.14,1.16-1.73.25-.66.57-1.29.7-2,.21-.68.25-1.42.35-2.14,0-.74.06-1.47-.02-2.22-.17-2.31-.84-4.55-1.47-6.84-.14-.5-.25-1.01-.34-1.54-.16-.98-.18-1.66-.02-2.16.12-.5.39-.81.73-1.08.15-.12.28-.27.39-.34.33-.23,1.19.44,1.84,1.75.21.5.42,1,.64,1.5.22.5.43,1.02.57,1.56.31,1.07.61,2.17.83,3.33.45,2.3.64,4.8.27,7.42-.3,1.93-.94,3.95-2.14,5.67-1.2,1.7-2.76,3.12-4.46,4.06l-.05-.07Z"/><path class="cls-1" d="m206.46,122.41c.14-1.29.43-2.57.76-3.82.12-.46.21-.93.38-1.38.67-1.56,1.5-3.06,2.65-4.32.49-.56,1.01-1.11,1.58-1.58.38-.28.73-.62,1.14-.85.45-.18.91-.32,1.37-.42.29-.06.36.21.31.62-.06.41-.17,1.03-.45,1.39-.51.65-1.07,1.14-1.49,1.78-.28.25-.52.55-.76.86l-.39.44-.36.49c-.15.19-.28.4-.41.62-.11.22-.19.47-.27.7-.08.24-.17.48-.24.72-.06.25-.12.5-.19.74-.35,1.07-.56,2.21-.73,3.36-.06.71-.17,1.43-.16,2.15-.03,1.09-.02,2.21.17,3.29.14.84.52,1.62.8,2.4.06.17.15.33.2.51.11.32.11.55-.03.75-.12.2-.32.35-.64.52-.14.08-.28.17-.42.23-.46.21-.99.06-1.43-.39-1.01-1.43-1.35-3.17-1.5-4.9-.09-1.29-.08-2.6.04-3.91h.07Z"/><path class="cls-1" d="m204.99,129.36c-.58-.48-1.16-.97-1.81-1.37-.23-.16-.5-.24-.74-.38-.85-.5-1.75-.96-2.72-1.25-.42-.16-.86-.23-1.3-.31-.57-.08-1.13-.11-1.7-.27-.18-.06-.16-.28,0-.52.16-.24.46-.52.82-.56,1.26-.12,2.59-.05,3.75.53.7.31,1.47.49,2.19.81.78.36,1.53.78,2.22,1.27.43.3.84.62,1.25.95.62.5,1.17,1.07,1.76,1.58.43.43.95.77,1.36,1.23.1.09.17.2.24.32.23.46.19.68-.07.99-.06.07-.12.15-.18.21-.21.2-.54.19-.9.05-.53-.22-1.02-.45-1.39-.77-.41-.29-.77-.63-1.12-.98-.53-.51-1.08-1.03-1.67-1.48l.03-.04Z"/><path class="cls-1" d="m171.3,161.55c-.69-5.24-.27-10.71,1.41-15.75.61-1.84,1.27-3.67,2.21-5.38.84-1.5,1.8-2.93,2.88-4.27,1.09-1.33,2.32-2.55,3.64-3.64,1.31-1.1,2.84-2.01,4.4-2.77,1.59-.67,3.23-1.26,4.92-1.53,2.98-.57,6.03-.57,8.96-.21,1.89.21,3.76.6,5.57,1.15,1.81.54,3.6,1.23,5.08,2.49.93.76.69.85-.41.96-.54.04-1.36.21-2.21.2-.43,0-.9.01-1.37-.03-.46-.06-.93-.19-1.41-.32-1.7-.5-3.44-.85-5.17-1.11-1.73-.29-3.46-.37-5.18-.34-1.72.03-3.41.28-5.04.73-1.63.44-3.21,1.09-4.65,2.02-1.76,1.08-3.35,2.61-4.7,4.31-1.34,1.72-2.43,3.65-3.34,5.65-2,4.4-2.92,9.3-2.7,14.2.08,3.02.62,6.04,1.45,8.96,1.24,4.44,3.27,8.71,5.82,12.56,1.99,3,4.39,5.6,6.86,8.13.55.55,1.09,1.09,1.66,1.63,2.04,2.08,2.68,2.76,2.56,3.84,0,.22.04.47,0,.63-.03.47-1.48.28-3.21-1.13-5.27-4.01-9.82-9.57-13.19-15.84-2.46-4.68-4.24-9.81-4.94-15.13l.08-.02Z"/><path class="cls-1" d="m250.38,248.64c5.9,3.77,12.88,5.88,19.88,5.4,2.56-.18,5.05-.75,7.42-1.58,4.19-1.45,7.92-4.11,10.81-7.6,2.91-3.48,5.02-7.67,6.56-12.06,1.37-3.9,2.22-8.02,2.76-12.12.35-2.63.59-5.29.78-7.95l.14-2,.23-2c.17-1.33.3-2.67.52-4.01.47-1.67.49-1.45,1.11-.02.33.71.64,1.73.99,2.98.16.62.3,1.3.43,2.02.05.36.11.73.16,1.11,0,.38.01.77,0,1.16-.11,2.8-.29,5.6-.66,8.4-.39,2.79-.92,5.58-1.63,8.33-1.42,5.49-3.54,10.96-6.96,15.72-2.04,2.83-4.45,5.54-7.39,7.67-2.89,2.18-6.3,3.71-9.78,4.55-7.66,1.81-15.83.73-22.81-2.55-2.16-.99-4.2-2.21-6.17-3.51-1.93-1.36-3.8-2.8-5.53-4.39-5.28-4.79-9.54-10.6-12.96-16.71-2.65-4.76-4.93-9.64-6.56-14.83-.35-1.14-.71-2.26-.99-3.44-.48-2.19-.64-3.67-.6-4.72.11-1.06.38-1.69.73-2.21.16-.23.3-.53.44-.67.25-.24.54.08.95.81.4.74.91,1.89,1.29,3.4,1.26,4.45,2.72,8.94,4.7,13.29,1.93,4.36,4.32,8.58,7.04,12.56,4.08,5.87,9.14,11.15,15.15,14.89l-.04.08Z"/><path class="cls-1" d="m241.74,147.01c-2.55.17-5.11.05-7.64-.19-.92-.13-1.85-.16-2.77-.32-3.23-.6-6.32-1.74-9.24-3.1-1.32-.57-2.55-1.31-3.8-1.96-.78-.47-1.51-1.02-2.24-1.56-.69-.58-1.37-1.16-2.08-1.75-.42-.37-.26-.46.26-.38.53.07,1.38.35,2.34.71.85.32,1.72.58,2.54.92l2.42,1.03c.82.3,1.62.65,2.41,1.02.81.34,1.63.64,2.44,1,.99.37,2.04.63,3.1.86,1.07.16,2.14.4,3.22.49l1.77.22,1.79.1c1.19.11,2.39.03,3.6.03.74-.01,1.48-.11,2.22-.16l1.11-.09,1.1-.17c1.11-.17,2.23-.33,3.33-.6l1.65-.38c.54-.16,1.08-.33,1.61-.5,1.67-.5,3.19-1.36,4.75-2.08.34-.18.65-.39,1.01-.53,1.3-.55,1.81-.52,2.43.12.14.15.3.28.42.44.39.52.06,1.24-.85,1.87-1.32.99-2.84,1.67-4.4,2.31-.77.34-1.59.58-2.4.85-.82.25-1.63.53-2.48.7-1.25.28-2.5.59-3.78.75l-1.91.28-1.93.17v-.08Z"/><path class="cls-1" d="m277.75,83.23c6.12-.47,12.36.1,18.31,1.77.75.2,1.47.48,2.2.72.73.26,1.48.46,2.18.79,1.41.62,2.86,1.17,4.21,1.93l2.05,1.08,1.95,1.23c.65.42,1.3.79,1.94,1.31.63.49,1.29.95,1.86,1.52,1.77,1.53,3.26,3.36,4.54,5.31,1.29,1.94,2.26,4.09,2.92,6.3,2.42,7.82,1.06,16.52-3.1,23.31-4.09,6.88-10.62,11.96-17.79,14.95-6.38,2.69-13.34,4-20.19,3.78-4.4-.16-8.82-.85-13-2.38-1.06-.33-2.05-.85-3.07-1.29-.98-.53-1.99-1-2.91-1.62-.47-.3-.95-.58-1.4-.9l-1.34-.99c-.46-.3-.83-.74-1.24-1.11l-.6-.58-.3-.29c-.04-.06-.12-.07-.12-.17l-.12-.17c-.82-1.13-1.13-1.63-1.04-1.67.1-.04.64.35,1.69.87,2.16.97,5.75,2.8,10.15,4.39,7.74,3.02,16.47,3.43,24.65,1.6,8.15-1.85,15.93-5.98,21.29-12.43,3.22-3.83,5.41-8.66,5.98-13.71.59-5.06-.42-10.3-2.82-14.72-1.31-2.44-3.09-4.6-5.21-6.36-.56-.41-1.08-.85-1.66-1.25l-1.82-1.15c-1.19-.82-2.51-1.4-3.76-2.09-5.16-2.54-10.84-3.95-16.6-4.4-3.56-.22-7.14-.08-10.69.35-3.55.5-7.06,1.29-10.51,2.32-10.43,3.25-20.21,8.72-28.77,15.45-3.34,2.61-6.46,5.43-9.38,8.42-2.93,2.98-5.7,6.09-8.28,9.38-1.17,1.42-2.18,2.91-3.3,4.38-4.03,5.55-5.26,7.35-6.83,8.14-.35.19-.74.47-1,.55-.44.13-.4-.47.01-1.71.2-.63.53-1.39.96-2.28.46-.88,1.02-1.88,1.68-3,8.12-13.05,19.89-24.85,33.81-33.51,5.18-3.2,10.67-5.96,16.44-8.08,5.78-2.09,11.84-3.53,18.03-4.07l.02.09Z"/><path class="cls-1" d="m306.41,160.04c2.28,3.82,3.36,8.06,3.58,12.27.08.77.05,1.53.07,2.3v1.15s-.11,1.14-.11,1.14c-.26,2.68-1,5.28-1.99,7.74-1,2.46-2.27,4.81-3.94,6.91-.39.45-.76.91-1.17,1.35l-1.31,1.25c-.5.36-.99.74-1.49,1.08-.5.3-1,.6-1.52.86-1.33.68-2.74,1.32-4.31,1.54-.78.11-1.58.15-2.38.03-.8-.1-1.56-.45-2.24-.84-.82-.57-.5-.73.33-.83.42-.07.97-.18,1.56-.38.58-.16,1.18-.34,1.85-.49,1.17-.28,2.37-.76,3.54-1.36.58-.31,1.16-.65,1.73-1.01l.71-.55.36-.27.33-.34c1.8-1.75,3.27-4.09,4.43-6.59.39-.73.61-1.55.9-2.34.25-.81.41-1.65.6-2.48.11-.85.24-1.69.33-2.54.04-.85.17-1.7.16-2.54.11-3.71-.51-7.46-2.06-10.83-.16-.4-.41-.76-.6-1.14l-.31-.57c-.11-.19-.21-.39-.29-.51-.07-.17-.22-.3-.37-.38-.18-.12-.48-.24-.78-.33-.61-.2-1.29-.34-1.99-.43-3.45-.44-7.16-.28-10.7.22-2.76.41-5.39,1.27-7.94,2.16-.55.21-1.09.42-1.65.63-.51.19-.94.33-1.3.45-.37.1-.68.14-.95.16-.27.02-.51-.01-.73-.07-.23-.08-.44-.2-.65-.32-.19-.12-.4-.19-.54-.29-.41-.24-.01-1.54,1.55-2.55,2.31-1.42,4.87-2.49,7.53-3.14,2.66-.69,5.4-1.13,8.19-1.34,2.04-.14,4.1-.15,6.22.04,1.07.1,2.14.24,3.3.53.58.14,1.19.34,1.86.64.3.15.79.4,1.15.7.4.27.65.68.99,1.01.02.11.09.18.13.27l-.08.06Z"/><path class="cls-1" d="m248.96,154.49c4.47-.78,9.46-.24,10.38,2.75.65,2.09-7.26,2.38-12.52,3.44-6.7,1.34-14.04,3.04-12.62-.18.79-1.79,8.39-4.9,14.76-6.01Z"/><path class="cls-1" d="m233.17,278.07l2.43-2.57c.29-.31.52-.69.83-.98.54-.53,1.12-1.04,1.7-1.54l1.8-1.43c.52-.43,1.01-.89,1.48-1.37.34-.27.65-.56,1-.82.36-.25.75-.45,1.18-.6.27-.08.55.32.72.88.16.55.27,1.3.01,1.69-.23.35-.46.7-.7,1.04-.25.32-.55.59-.84.87-.58.56-1.21,1.09-1.89,1.58-.83.59-1.41,1.46-2.09,2.22-.76.83-1.54,1.67-2.28,2.53-.46.53-.93,1.06-1.37,1.62-.66.84-1.38,1.65-1.98,2.53-.47.68-.71,1.51-1.21,2.17-.1.15-.18.31-.3.45-.45.52-.75.56-1.38.3-.14-.06-.29-.11-.42-.18-.44-.23-.64-.71-.56-1.26.06-.4.13-.81.21-1.21.07-.41.16-.8.34-1.14.32-.71.7-1.39,1.11-2.05.61-.99,1.42-1.86,2.14-2.79l.07.05Z"/><path class="cls-1" d="m342.14,319.83c2.54,3.96,5.18,7.86,7.55,11.93l3.64,6.04,3.45,6.15,2.55,4.46c.82,1.51,1.63,3.01,2.42,4.53,2.84,5.33,5.38,10.81,7.98,16.26l3.69,8.26c1.26,2.74,2.35,5.55,3.54,8.32l1.57,3.7,1.52,3.72c1.02,2.47,2.04,4.94,3.06,7.39,2.39,6.38,5.22,12.66,6.45,19.43.38,2.11.08,1.91-1.1.42-.58-.75-1.5-1.78-2.35-3.11-.43-.66-.91-1.37-1.33-2.17-.4-.8-.78-1.66-1.12-2.57-2.61-6.4-5.11-12.83-7.65-19.27-2.59-6.41-5.21-12.83-7.98-19.23-3.25-7.68-7.4-15.32-11.42-22.83-1.07-2.09-2.29-4.09-3.42-6.14-1.16-2.03-2.28-4.1-3.48-6.11l-3.65-6.01-1.83-3.01-1.92-2.94c-1.59-2.41-3.15-4.84-4.76-7.24l-5.01-7.06c-1.24-1.8-2.59-3.52-3.93-5.25l-4-5.2c-1.35-1.72-2.79-3.36-4.19-5.04-1.42-1.66-2.79-3.34-4.25-4.95-2.3-2.46-4.62-4.86-6.95-7.24-2.38-2.32-4.85-4.54-7.26-6.83-.54-.5-1.07-.99-1.6-1.49-.55-.47-1.1-.95-1.66-1.43-1.03-.9-1.86-1.67-2.55-2.33-.68-.67-1.18-1.26-1.58-1.76-.81-1-1.11-1.76-1.24-2.52-.06-.34-.19-.73-.19-.98-.02-.79,2.19.09,5.43,2.57,9.43,7.56,18.44,16.68,26.56,26.56.76.91,1.55,1.8,2.28,2.73l2.19,2.82,4.36,5.65c1.41,1.92,2.77,3.87,4.15,5.81,1.36,1.95,2.8,3.85,4.07,5.86l-.07.06Z"/><path class="cls-1" d="m271.87,352.87c1.89,6.68,3.71,13.37,5.3,20.12.6,2.46,1.28,4.89,1.79,7.37.97,4.35,1.76,8.74,2.57,13.13.7,4.4,1.44,8.8,2.01,13.22.59,3.91,1.04,7.86,1.6,11.74.26,2.51.53,5.02.79,7.53.11,1.26.16,2.52.22,3.78l.06,1.89c0,.63-.05,1.27-.07,1.9-.1,1.58-.55,1.39-1.28.11-.79-1.28-1.71-3.64-1.99-6.5-.63-5.05-1.26-10.1-1.89-15.16-.67-5.05-1.37-10.12-2.15-15.2-.4-3.05-1.1-6.12-1.73-9.21-.65-3.09-1.46-6.16-2.13-9.23-1.63-6.73-3.33-13.45-5.27-20.1-1.16-4.11-2.42-8.18-3.71-12.25-1.02-3.07-2.04-6.14-3.06-9.21-1.09-3.05-2.15-6.1-3.31-9.09-.91-2.32-1.86-4.61-2.82-6.87-.99-2.26-2.02-4.49-2.99-6.76-.43-1-.85-1.97-1.28-2.98-1.51-3.77-1.45-5.19-1.14-6.26.08-.25.12-.55.21-.71.15-.28.48-.07,1.01.51.53.58,1.29,1.52,2.04,2.82.61.95,1.09,1.96,1.6,2.96.51,1,1.01,2.02,1.49,3.05.93,2.07,1.84,4.18,2.73,6.31,1.73,4.29,3.42,8.66,4.98,13.1,2.36,6.57,4.46,13.27,6.5,19.96l-.08.04Z"/><path class="cls-1" d="m155.52,315.1c5.87-6.81,11.8-13.53,17.17-20.6,1.93-2.59,3.73-5.28,5.35-8.02,1.43-2.42,2.73-4.9,3.67-7.5l.62-1.97.45-1.99c.12-.67.18-1.34.27-2.01.08-.66.07-1.28.03-1.95-.18-2.66-.95-5.41-1.79-8.13-.8-2.76-1.94-5.38-2.59-8.44-.14-.69-.28-1.77-.06-2.68.2-.88.78-1.75,1.69-2,.42-.15.9-.2,1.36-.18l1.38.14c.72.14,1.39.29,2.07.53,2.71.9,5.03,2.72,6.72,4.87,2.2,2.77,3.53,6.05,4.27,9.38.74,3.33.94,6.82.06,10.18-.42,1.02-.76,1.4-.88,1.33-.15-.07-.15-.61-.38-1.5-.24-.89-.46-2.07-.85-3.46-.19-.69-.39-1.43-.6-2.21-.18-.78-.38-1.6-.58-2.45-.35-1.51-.8-2.98-1.4-4.37-.3-.69-.61-1.38-.98-2.02-.33-.66-.72-1.28-1.12-1.88-1.63-2.38-3.84-4.12-6.48-4.7l-.66-.15c-.05,0-.1.04-.11.1,0,0-.02.09.02.39.04.34.1.71.16,1.08.14.75.33,1.54.53,2.33.38,1.6.89,3.2,1.37,4.83.48,1.63.92,3.31,1.26,5.03.2,1.03.37,2.09.46,3.18.1,1.07.11,2.28-.05,3.35l-.21,1.62c-.1.53-.23,1.06-.34,1.59-.2,1.07-.58,2.08-.88,3.12-1.38,4.08-3.4,7.86-5.63,11.4-4.96,7.76-10.87,14.69-16.67,21.64-3.58,4.27-7.18,8.52-10.7,12.81-5.33,6.51-10.54,13.16-15.19,20.08-3.61,5.38-6.73,10.91-9.65,16.58-.62,1.26-1.24,2.49-1.86,3.75-1.14,2.36-1.99,3.86-2.7,4.87-.35.5-.67.88-.99,1.18-.33.29-.66.48-.97.65-.29.15-.59.39-.8.46-.61.29-.54-2.06.87-5.73,4.49-10.76,10.99-21.29,18.23-31.21,5.38-7.37,11.17-14.45,17.03-21.39l.08.05Z"/><path class="cls-1" d="m217.91,309.18c-.58.02-1.03-.05-1.48-.12-.47-.05-.86-.16-1.28-.24-.82-.19-1.62-.4-2.39-.63-.57-.16-1.15-.25-1.71-.44-1.96-.67-3.84-1.48-5.71-2.29-.83-.36-1.69-.66-2.54-.97-.55-.19-1.07-.47-1.59-.74l-.38-.24-.33-.33c-.22-.21-.42-.48-.62-.72-.24-.32-.09-.42.34-.57.29-.1.58-.2.84-.29.17-.06.35-.13.53-.19.09-.03.18-.04.28-.09.07.01.15.01.23.03.54.12,1.1.21,1.64.34l1.56.6c1.04.42,2.09.85,3.13,1.36,1.24.6,2.66.86,4,1.21,1.47.39,2.96.79,4.37.95.6.08,1.11.07,1.37.02.2-.12.49-.22.71-.36,1.07-.62,2.01-1.56,2.52-2.74.4-.92.43-1.95.37-2.91l-.07-.63c-.02-.39.02-.63.23-.82.09-.09.21-.17.36-.25.17-.08.37-.15.58-.22.2-.06.37-.14.54-.19.47-.16,1.4.14,1.67.94.67,2.34.1,5.11-1.58,7.3-1.01,1.3-2.36,2.33-3.92,2.96-.55.16-1.23.37-1.64.34v-.08Z"/><path class="cls-1" d="m165.63,350.45c.84-1.87,1.7-3.73,2.58-5.58.31-.68.56-1.38.9-2.05,1.19-2.35,2.47-4.65,3.73-6.95.55-1.03,1.07-2.07,1.55-3.12.32-.67.67-1.32,1.03-1.97l.29-.48.36-.44c.24-.29.5-.58.75-.86.33-.34.54-.16.71.37.08.27.16.62.22,1.03.03.2.05.42.05.64,0,.11,0,.21,0,.33-.03.1-.06.2-.09.3-.27.7-.51,1.41-.81,2.09l-1,2c-.68,1.33-1.39,2.64-2.16,3.95-.93,1.55-1.52,3.34-2.28,5.02-.83,1.85-1.65,3.7-2.43,5.58-.48,1.15-.96,2.31-1.41,3.47-.68,1.77-1.36,3.54-1.89,5.34-.41,1.4-.56,2.85-.86,4.26-.07.31-.11.62-.19.93-.3,1.14-.65,1.44-1.49,1.47-.19,0-.39.04-.57.02-.6-.04-1-.65-1-1.57-.05-2.74.81-5.39,1.7-8.02.68-1.95,1.47-3.87,2.25-5.79l.07.02Z"/><path class="cls-1" d="m171.04,393.23c-.71,1.7-1.39,3.42-1.93,5.2-.21.65-.31,1.32-.5,1.97-.7,2.3-1.34,4.64-1.83,7.01-.23,1.05-.33,2.13-.47,3.19-.09.68-.15,1.37-.25,2.05-.06.69-.35,1.35-.59,2.01-.17.41-.53.32-.95-.09-.21-.21-.45-.49-.66-.83-.11-.17-.21-.35-.29-.54-.04-.1-.08-.2-.12-.29-.01-.1-.02-.2-.02-.3-.09-2.86.41-5.68,1.2-8.47.48-1.66.66-3.45,1.06-5.17.46-1.89,1-3.76,1.63-5.61.37-1.14.82-2.25,1.25-3.37.33-.84.71-1.67,1.06-2.51.39-.82.75-1.65,1.11-2.48.29-.64.52-1.3.75-1.96.26-.65.48-1.32.77-1.96.13-.28.25-.56.42-.82.16-.24.3-.43.44-.58.15-.14.32-.23.47-.29.31-.12.62-.1,1.01,0,.18.05.36.08.52.14.51.2.73.88.67,1.77l-.43,1.81c-.2.57-.43,1.13-.67,1.68-.45,1.13-.98,2.23-1.46,3.36-.74,1.67-1.46,3.36-2.1,5.1l-.08-.02Z"/><path class="cls-1" d="m279.76,217.44c-.13.07-.27.13-.4.19.28-.13-.16.06-.25.09-.33.12-.67.23-1.01.33-.76.22-1.53.38-2.3.51-.18.03-.36.06-.53.09-.09.01-.18.03-.27.04.04,0,.19-.03,0,0-.42.06-.84.1-1.26.14-.75.07-1.51.12-2.27.16-1.24.06-2.47.08-3.71.08-.91,0-2.01-.16-2.63.68-.92,1.24.32,3.56.85,4.8.63,1.47,1.4,2.9,2.34,4.2,1.79,2.48,4.55,5.05,7.84,3.81s4.99-4.85,5.41-8.18c.11-.9-.85-1.68-1.68-1.68-1,0-1.56.77-1.68,1.68.07-.54-.04.18-.08.37-.07.3-.15.61-.24.9s-.2.61-.32.91c.1-.26-.04.09-.08.17-.09.19-.19.38-.29.57-.17.31-.36.61-.57.89-.11.15,0,0,.01-.02-.05.06-.1.12-.16.18-.15.16-.3.31-.46.46-.06.05-.12.11-.18.16.03-.02.17-.13.02-.02s-.32.21-.48.3c-.3.16-.37.18-.86.28.26-.05.02,0-.11,0-.18,0-.35-.03-.06.02-.15-.03-.29-.07-.44-.1-.06-.01-.13-.04-.19-.06.14.04.19.1.02,0-.28-.15-.54-.3-.8-.48-.15-.11.01.01.04.03-.08-.06-.16-.13-.24-.2-.14-.12-.28-.25-.41-.38-.59-.59-.94-1.02-1.34-1.61-.47-.68-.89-1.39-1.28-2.12-.42-.79-.75-1.52-1-2.16-.27-.7-.5-1.42-.67-2.15l-.17,1.29h0c-.33.25-.67.51-1,.77-.38.16-.54.04-.25.04.11,0,.23,0,.34,0,.41,0,.82,0,1.22,0,1.32,0,2.63-.04,3.95-.12,3.14-.2,6.45-.55,9.31-1.97.81-.4,1.04-1.55.6-2.29-.48-.82-1.48-1.01-2.29-.6h0Z"/><path class="cls-1" d="m276.83,163.66c-.27,3.67.22,7.61.9,11.49.26,1.41.63,2.84.95,4.22,1.05,4.91,2.59,9.76,5.14,14.08,1.12,1.92,2.54,3.65,4.09,5.17.49.5,1.04.92,1.56,1.39.56.4,1.1.85,1.68,1.23,1.12.83,2.3,1.54,3.5,2.36.73.55.57.75-.34.94-.92.25-2.66.37-4.35-.43-2.87-1.56-5.39-3.74-7.3-6.32-1.92-2.57-3.39-5.41-4.47-8.36-.66-1.76-1.28-3.55-1.9-5.35-.57-1.81-1.09-3.67-1.48-5.5-.84-4.02-1.52-8.11-1.64-12.32-.05-2.58.12-5.26,1.03-7.86.33-.99.85-1.93,1.47-2.81.18-.23.42-.46.64-.68.22-.24.45-.34.67-.52.45-.35.91-.54,1.36-.8,1.82-.91,3.67-1.49,5.53-2.02,2.88-.82,5.74-1.53,8.79-1.8.67-.07,1.34-.09,2.03-.1.65.04,1.19.1,1.64.18.46.13.83.24,1.1.42.55.38.79.88.88,1.37.04.23.11.46.1.66-.02.33-.32.53-.78.7-.44.13-1.09.38-1.82.3-2.29.02-4.76.36-7.23.84-2.47.49-4.98,1.18-7.26,2.08-.41.17-.81.36-1.2.54l-.53.29-.26.14-.2.14-.2.14c-.08.05-.14.09-.14.11-.05.08-.09.04-.19.18-.2.3-.41.59-.57.95-.71,1.35-1.02,3.13-1.13,4.95h-.09Z"/><path class="cls-1" d="m218.22,179.72c-1.14.12-2.29.27-3.44.46-.42.07-.81.23-1.23.3-1.49.22-2.99.45-4.47.76-.66.15-1.29.36-1.92.61-.4.14-.77.38-1.21.42-.42.09-.89.06-1.35.02-.3-.04-.38-.39-.31-.89.08-.48.25-1.27.66-1.63.19-.13.36-.32.57-.39l.63-.22c.42-.14.84-.27,1.28-.38.86-.23,1.74-.39,2.65-.48,1.09-.1,2.12-.55,3.19-.79,1.19-.25,2.38-.45,3.59-.62l2.22-.29c1.12-.15,2.26-.22,3.37-.38.87-.11,1.7-.44,2.57-.55.19-.02.38-.07.57-.07.36-.02.6.16.77.31.17.17.26.38.34.68.03.14.08.26.1.39.07.41-.22.82-.7,1.21-.18.15-.36.21-.54.29l-.54.24c-.36.16-.73.19-1.1.29-.74.14-1.5.24-2.25.34-1.13.15-2.27.26-3.41.45l-.02-.07Z"/><path class="cls-1" d="m272.03,182.69c-.11,1.69-.35,3.37-.67,5.05-.36,1.67-.82,3.33-1.45,4.94-1.28,3.2-3.24,6.28-6.03,8.51-2,1.63-4.34,2.85-6.79,3.51-2.16.57-4.34.87-6.55.83-2.2-.02-4.42-.36-6.52-1.05-4.23-1.35-7.86-4.12-10.54-7.47-2.41-2.97-4.23-6.35-5.57-9.84-.85-2.25-1.55-4.56-1.97-6.94-.37-2.38-.52-4.81-.21-7.2.22-1.49.65-1.23,1.17,0,.56,1.24,1.32,3.38,1.88,5.88.8,4.47,2.29,8.83,4.57,12.7,2.28,3.84,5.35,7.25,9.32,9.24,2.35,1.24,5.09,1.78,7.84,1.76,2.77-.06,5.57-.61,8.04-1.68,1.34-.63,2.64-1.37,3.73-2.37.59-.45,1.06-1.04,1.58-1.57.46-.59.94-1.16,1.32-1.81.43-.61.75-1.31,1.11-1.98.29-.71.62-1.39.85-2.13.52-1.44.87-2.96,1.12-4.5.63-3.78.59-7.72.11-11.57-.19-1.46-.43-2.91-.75-4.34-.33-1.41-.73-2.87-1.3-4.05-.14-.29-.21-.4-.38-.57-.17-.12-.35-.22-.67-.33-.59-.21-1.28-.36-1.98-.46-1.41-.2-2.87-.24-4.33-.22-4.55.11-9.02.98-13.33,2.12-.95.27-1.86.56-2.8.87-3.48,1.08-4.5,1.39-5.67.9-.25-.09-.56-.13-.74-.23-.59-.22.37-1.88,3.04-3.17,1.95-.98,4.03-1.65,6.13-2.25,2.11-.58,4.27-1.06,6.47-1.35,2.2-.3,4.44-.49,6.72-.52,1.14-.01,2.3.02,3.48.12,1.19.11,2.39.26,3.74.65.53.19.99.3,1.74.78.72.39,1.18,1.08,1.62,1.75.55,1.03.8,1.85,1.09,2.72.52,1.71.87,3.38,1.14,5.07.52,3.37.69,6.78.5,10.19h-.08Z"/><path class="cls-1" d="m222.19,187.33l-.17.66-.25.67-.25.67-.13.33-.07.17-.12.2-.97,1.62c-.48.55-1.01,1.08-1.67,1.33-1.33.6-2.85.11-3.97-.86l-.4-.37c-.14-.12-.28-.25-.34-.33-.16-.17-.33-.35-.47-.52-.3-.34-.57-.68-.83-1.01-1.04-1.33-1.98-2.6-2.99-3.76-1-1.16-2.08-2.2-3.26-2.97-1.72-1.15-3.63-1.56-5.59-1.28-1.68.21-3.14,1.05-4.23,2.4-1.11,1.34-1.77,3.15-2.1,5.01-.32,1.87-.31,3.84.09,5.67.2.89.6,1.79.95,2.69.46.85.89,1.72,1.48,2.5.45.74,1.08,1.35,1.63,2.02.65.58,1.25,1.22,1.98,1.7,1.38,1.07,2.95,1.85,4.57,2.43,2.09.74,4.3,1,6.49.96,2.21-.07,4.3-.61,6.59-1.12,1.44-.34,1.33-.25.46.8-.24.29-.51.63-.81,1-.08.1-.18.16-.26.29-.1.07-.2.17-.31.25-.22.18-.45.36-.68.55-.97.75-2.3,1.41-3.83,1.6-.68.14-1.36.18-2.04.21l-1.03.05c-.34-.01-.68-.06-1.02-.09-.68-.06-1.37-.14-2.03-.31-.67-.15-1.34-.27-1.98-.51-2.61-.81-5.04-2.15-7.13-3.89-2.09-1.75-3.84-3.94-5-6.42-.34-.59-.52-1.27-.77-1.9-.26-.62-.41-1.33-.59-2.02-.24-1.38-.36-2.75-.28-4.1.09-1.62.33-3.23.8-4.82.5-1.58,1.22-3.14,2.29-4.53.29-.33.54-.69.87-1l1.01-.89,1.14-.73c.38-.25.82-.37,1.23-.55,1.7-.61,3.46-.78,5.19-.54.95.14,1.88.43,2.75.79.86.38,1.66.86,2.41,1.38,1.47,1.07,2.71,2.33,3.82,3.63,1.11,1.29,2.11,2.65,3.1,3.86.25.3.5.59.75.85.21.22.29.3.45.42.14.11.32.19.5.19.18,0,.35-.1.48-.23.14-.12.3-.44.47-.73.17-.23.32-.76.48-1.16.18-.41.28-.88.4-1.34.11-.46.25-.91.3-1.4l.22-1.43c.06-.48.08-.97.12-1.46.1-.97.09-1.96.1-2.94-.04-5.98-1.09-12.04-2.77-17.8-1.34-4.48-3.2-8.69-5.17-12.86-.46-.91-.93-1.78-1.37-2.71-.79-1.72-1.4-2.82-1.62-3.69-.22-.88-.16-1.48.05-2.06.09-.26.14-.57.24-.75.18-.31.55-.17,1.15.31.61.47,1.35,1.34,2.08,2.57,1.11,1.81,2.07,3.74,3.07,5.68.9,1.99,1.86,3.97,2.62,6.07,1.64,4.14,2.93,8.49,3.84,12.96.39,1.65.59,3.34.87,5.02.18,1.7.39,3.39.44,5.12.14,3.44.03,6.92-.86,10.5h-.09Z"/><path class="cls-1" d="m225.21,293.45c.04-.31.03-.68-.03-.97-.02-.14-.11-.37-.25-.62-.31-.51-.89-1.08-1.53-1.59-1.29-1.04-2.87-1.93-4.48-2.74-1.18-.59-2.44-1.04-3.67-1.56-2.17-.93-4.4-1.77-6.65-2.52-.56-.18-1.13-.36-1.69-.53-.56-.14-1.05-.29-1.61-.35-1.09-.19-2.23-.16-3.36-.07-2.02.19-4.05.77-5.95,1.54-2.44,1.03-4.74,2.36-7.13,3.56-.85.23-.91,0-.64-.89.26-.88,1.1-2.14,2.49-3.04,1.22-.8,2.55-1.41,3.9-1.99,1.36-.56,2.75-1.05,4.2-1.39,1.45-.34,2.95-.56,4.49-.59.77.01,1.55.04,2.33.16.39.04.78.14,1.16.23.4.09.76.19,1.1.3,3.27,1.07,6.67,1.98,9.92,3.34,1.78.75,3.53,1.58,5.23,2.59.85.51,1.69,1.06,2.49,1.71.8.66,1.58,1.4,2.19,2.43.38.64.59,1.5.64,2.12.08.67.08,1.37-.04,2.08-.21,1.4-1.06,2.85-2.34,3.64-.97.65-2.08.86-3.07.9-1,.05-1.95-.04-2.87-.17-1.84-.28-3.58-.76-5.3-1.25-2.66-.77-5.27-1.5-7.84-2.34-.57-.19-1.13-.33-1.68-.57-2.04-.85-2.57-1.32-2.68-2.38-.03-.23-.09-.47-.08-.68,0-.67,1.13-1.01,2.75-.64,2.42.46,4.71,1.29,7.05,2.01,2.32.74,4.65,1.49,6.92,1.96.84.17,1.66.3,2.43.36.76.06,1.49.02,1.95-.1.42-.07.79-.24,1.05-.53.27-.29.48-.8.53-1.43h.08Z"/><path class="cls-1" d="m259.36,177.34c.17.74.3,1.48.4,2.23-.05-.38.03.27.04.37.03.23.05.47.07.7.05.52.08,1.05.1,1.57.04,1.06.02,2.13-.1,3.19-.06.54.03-.17-.02.15-.02.14-.04.28-.07.42-.04.22-.09.44-.14.65-.06.26-.14.52-.22.78-.04.13-.29.73-.17.48-.19.41-.41.81-.68,1.17.2-.26-.2.19-.27.26-.09.08-.18.17-.27.24.22-.18-.04.03-.13.08-.17.1-.34.2-.53.28.28-.12-.33.09-.43.12-.52.13-.98.18-1.61.14-.93-.05-1.96-.44-2.86-.98-.98-.59-1.76-1.3-2.59-2.2-1.41-1.53-2.64-3.42-3.55-5.45-.37-.82-1.57-1.02-2.29-.6-.85.5-.97,1.46-.6,2.29,1.97,4.38,5.83,9.41,10.88,10.17,2.79.42,5.58-.42,7.23-2.79,1.41-2.03,1.76-4.7,1.8-7.11s-.24-4.76-.76-7.05c-.47-2.1-3.71-1.21-3.23.89h0Z"/><path class="cls-1" d="m287.86,173.81c.38,1.65.56,3.25.39,5.01,0,.09-.02.18-.03.28,0-.04.03-.19,0,0-.04.21-.07.41-.12.62-.08.37-.19.73-.32,1.09-.01.03-.14.36-.07.2.06-.14-.05.11-.05.11-.08.15-.15.3-.23.45s-.17.29-.26.42c-.06.09-.12.18-.19.27.11-.14,0-.01-.05.05-.21.22-.56.57-.69.67.05-.04-.23.15-.3.2-.09.05-.49.24-.21.13-.16.06-.32.1-.48.15-.07.02-.14.03-.21.04.02,0,.29-.02.09-.02-.14,0-.29,0-.43,0-.05,0-.36-.02-.14,0,.21.02-.1-.02-.14-.03-.32-.07-.63-.16-.94-.28.25.1-.1-.05-.18-.09-.17-.08-.34-.17-.5-.27-.75-.43-1-.64-1.63-1.22-.56-.52-1.24-1.26-1.62-1.74s-.89-1.28-1.23-1.94c-.42-.8-1.54-1.04-2.29-.6-.81.48-1.02,1.49-.6,2.29.82,1.57,1.96,3.03,3.25,4.24s2.92,2.39,4.71,2.8c4.14.95,7.31-2.59,8.03-6.39.46-2.44.24-4.93-.31-7.34-.2-.88-1.22-1.4-2.06-1.17-.91.25-1.37,1.18-1.17,2.06h0Z"/><path class="cls-1" d="m307.63,289.47c-.04.15-.12.28-.22.38-.12.08-.25.14-.39.18-.1.02-.18.04-.27.04-.31-.03-.56-.18-.75-.37-.08-.08-.17-.16-.25-.26-.1-.12-.21-.29-.14-.46.02-.05.2-.03.37-.02.18.02.34.01.35.03.03.05.07.15.17.3.06.09.17.07.25.08.08,0,.15.02.19-.05.03-.04.05-.08.04-.14,0-.09-.03-.22-.11-.3-.06-.07-.16-.07-.22-.09-.01,0-.03,0-.04,0-.05-.02-.06-.05-.09-.19l-.02-.09c-.02-.1.01-.19.12-.23.34-.12.71.1.87.39.07.11.12.22.14.36.03.15.03.32,0,.47h-.02Z"/><path class="cls-1" d="m313.68,291.86c-.07.46-.25.86-.57,1.07-.11.08-.24.15-.38.16-.47.02-1-.46-1.18-.78-.09-.14-.19-.28-.27-.43-.1-.18-.21-.4-.13-.63.03-.07.23-.06.44-.03.21.03.42.06.45.11.04.1.1.19.15.29.03.05.05.1.08.15.03.05,0,.06,0,.11.02.11.11.12.18.12.09,0,.15-.08.19-.17.02-.04.05-.18.06-.32,0-.23.01-.32-.11-.44-.08-.08-.24-.07-.28-.03-.01,0-.01.02-.02.02,0,0-.02-.07-.17-.28l-.11-.14c-.12-.14-.15-.34.04-.48.28-.2.68-.18.93-.03.27.14.47.35.61.63.2.53.11.74.1,1.08h-.03Z"/><path class="cls-1" d="m307.49,296.25c-.04.33-.09.79-.56,1.2-.15.14-.37.26-.56.27-.35.03-.57-.05-.86-.23-.27-.19-.39-.47-.44-.68-.04-.19-.08-.32-.12-.5-.05-.19-.14-.38,0-.54.09-.11,1.32.02,1.36.18.02.14.04.26.03.33-.02.04,0,.05-.07.08-.14.08-.2.13-.22.16,0,.01,0,0,.01-.03.01-.02.03-.12.03-.09,0,0,.02-.01.01.01,0,.06.04.16.03.16.06.1-.04-.05-.09-.05.02,0,.06-.04.09-.11.03-.09.05-.19.04-.3,0-.17-.03-.36-.11-.51-.07-.12-.21-.18-.31-.23-.02,0-.05,0-.07-.02-.04-.06,0-.13.12-.4l.08-.18c.09-.2.24-.33.43-.32.54.07.83.47,1.02.84.13.3.18.61.18.97h-.03Z"/><path class="cls-1" d="m312.7,299.33c-.22.65-.59.92-.99,1.04-.15.05-.31.1-.48.08-.61-.03-.97-.64-1.08-1.16-.05-.24-.1-.47-.1-.71,0-.27.03-.58.29-.76.08-.05.29.13.5.31.21.19.44.34.46.37,0,.03.02.08.02.1,0,0-.01,0-.03.01-.03.02-.08.06-.11.19-.03.16.08.16.16.16.09.01.16-.06.2-.16.03-.06.04-.14.05-.23.03-.13,0-.31-.14-.38-.1-.06-.21,0-.26.08,0,0,0,.01-.02.03h0c-.03-.06-.06-.12-.09-.19v-.02c-.07-.04.14.06-.21-.07l-.18-.04c-.18-.04-.39-.17-.3-.52.04-.11.11-.26.21-.34.08-.08.12-.11.2-.17.14-.13.32-.11.5-.15.37-.06.79.15,1.1.45.49.43.54,1.39.33,2.06l-.03-.02Z"/><path class="cls-1" d="m238.5,285.68c-.19.35-.55.66-.96.78-.05.02-.1.03-.14.04l-.25.07-.21-.14c-.07-.04-.14-.08-.2-.14-.31-.29-.59-.78-.54-1.26.01-.2.04-.39.08-.56.05-.22.08-.45.28-.57.12-.07.89.57.85.7-.08.29-.12.34-.2.5-.03.12.12.2.25.3l.05.04-.4-.06c.09,0,.2-.02.3-.12.06-.07.14-.16.17-.27.06-.16.09-.36.03-.52-.05-.13-.19-.19-.26-.24-.02-.01-.04-.01-.06-.03-.06-.03,0-.19.03-.38l.03-.13c.03-.13.14-.25.36-.3.26.03.57.16.72.39.16.22.27.49.29.75.05.39-.02.77-.2,1.14h-.03Z"/><path class="cls-1" d="m243.57,286.16c.07.27.14.62.09.99-.03.13,0,.25-.07.38-.09.23-.29.51-.58.64-.3.13-.58.08-.78.01-.19-.07-.35-.14-.52-.25-.2-.13-.43-.39-.26-.63.02-.07.44-.15.6-.17.2-.03.45-.12.45-.13.01.03-.04-.1,0,.31,0,.04.04.04-.06-.03-.04-.01-.01-.03,0-.08.05-.11.06-.22.03-.4-.02-.11-.06-.23-.11-.35-.02-.05-.05-.11-.04-.1-.02,0,.12-.11.1-.11.02-.04,0,0,0,.05.02.09.02.08,0,.09-.05.03-.07.19-.08.28,0,.02,0,.04-.02.06-.04.05-.12.01-.4-.02h-.19c-.21-.01-.38-.14-.41-.33-.05-.27-.02-.52.14-.74.07-.11.17-.22.32-.33.14-.1.4-.23.75-.19.58.06.87.54.92.68l.14.37h-.03Z"/><path class="cls-1" d="m250.13,293.87c-.04.12-.06.18-.09.36-.02.09-.02.18-.09.39-.04.11-.12.27-.28.4-.16.14-.36.17-.46.17-.23,0-.34-.02-.51-.08-.25-.15-.45-.35-.59-.59-.13-.26-.17-.42-.22-.63-.03-.18-.07-.34-.1-.52-.03-.22-.04-.53.21-.72.08-.06.24.11.41.26.17.16.39.25.4.27.03.1.1.34.1.57-.03.09.04.13.09.15l.03.02.03.02s.03,0-.03.02h0s0,0,0,0l.09.39h0s.01.04.01.04c0,0,0,.01,0,0-.03-.02-.07-.04-.2-.08l-.19-.03s0,0,0-.01c0-.01,0-.04.01-.06l.02-.19c.02-.16.04-.32.05-.48.02-.23.07-.47.05-.7-.01-.18-.11-.36-.17-.54-.01-.04-.03-.08-.02-.12.01-.15.12-.19.46-.22l.23-.02c.26,0,.48.06.59.17.34.33.31.66.32,1,0,.25-.07.5-.11.75h-.03Z"/><path class="cls-1" d="m241.33,294.73c0,.1,0,.21-.03.37-.02.13-.1.33-.24.5-.13.16-.32.26-.5.32-.13.02-.26.03-.38.03h-.19s-.06-.04-.06-.04c-.11-.07-.23-.14-.33-.22-.11-.08-.23-.14-.32-.25-.32-.37-.47-.81-.51-1.22-.03-.19-.05-.34-.08-.52-.03-.22-.09-.46.08-.66.05-.06.31.01.57.11.25.1.51.2.52.26.04.26.06.46.04.74,0,.17.15.25.25.34.07.06.15.11.23.16l-.19-.02c-.01.06-.01.12,0,.18.02.07.04.12.04.13.04.07.02.02-.03.01-.09-.03-.12-.01-.24-.01-.04,0,0,0-.01-.02,0-.04,0-.08-.02-.14-.05-.16-.15-.36-.3-.47-.12-.1-.31-.07-.38-.1-.02,0-.04,0-.05,0-.02-.09,0-.19-.06-.45l-.04-.17c-.04-.18,0-.36.24-.5.16-.1.34-.11.49-.11.17,0,.3.02.43.09.23.12.43.29.59.48.23.31.42.55.52,1.17h-.04Z"/><path class="cls-1" d="m234.44,300.55c-.09.21-.27.47-.54.64-.13.07-.27.12-.41.16-.12.02-.24.02-.36.02h-.17s-.06-.04-.06-.04c-.14-.07-.27-.13-.39-.24-.16-.13-.32-.27-.42-.44-.31-.63-.14-1.21.08-1.67.1-.21.22-.41.37-.59.18-.24.54-.47.88-.36.11.03.07.28.03.54-.04.25-.02.51-.02.54-.02.07-.14.23-.28.5-.08.17.03.31.06.37.02.05.05.07.09.12l-.18-.03s.03,0,.04.04c.04.08.02.03,0,.02.02.02.08-.09.09-.23.02-.21,0-.48-.11-.7-.09-.18-.26-.3-.39-.42-.03-.03-.07-.04-.09-.07-.03-.14.02-.23.18-.47l.1-.16c.11-.17.3-.26.53-.22.64.17.9.7,1.04,1.23.09.41.17.83-.05,1.46h-.03Z"/><path class="cls-1" d="m242.26,306.82c-.25.32-.64.42-.98.41-.14-.02-.27-.02-.42-.08-.5-.15-1-.63-1.16-.92-.09-.14-.19-.27-.27-.41-.11-.17-.23-.37-.17-.6.02-.07.21-.08.41-.08.2,0,.4.02.44.07.07.1.13.19.21.31.07.1.16.22.13.28.02.11.1.11.17.15.08.05.22.13.35.09.08-.02.13-.08.14-.15.02-.1,0-.23-.1-.33-.07-.08-.22-.11-.3-.11-.02,0-.04,0-.06,0-.05,0-.02-.11.04-.37l.03-.18c.05-.21.12-.29.4-.42.72-.06,1.27.69,1.42,1.23.1.44-.04.8-.25,1.12l-.03-.02Z"/><path class="cls-1" d="m230.93,307.51c-.33.4-.83.63-1.32.55-.17-.01-.35-.04-.5-.12-.27-.13-.51-.42-.6-.63-.12-.22-.17-.45-.2-.68-.03-.2-.03-.41-.01-.62.02-.27.16-.62.47-.7.09-.03.2.19.31.41.1.22.26.41.27.42.02.05,0,.22,0,.49.04.18.09.17.17.23.08.06.21.08.32.01.07-.04.13-.09.17-.2.06-.15.09-.36,0-.52-.06-.13-.23-.16-.29-.15-.02,0-.04.01-.05.02-.02-.03,0-.17.01-.46v-.2c0-.21.11-.4.36-.49.36-.05.73.16.94.42.22.27.32.58.35.88.03.46-.04.91-.38,1.36l-.03-.02Z"/><path class="cls-1" d="m305.93,305.76c.07.17.12.38.12.64,0,.27-.18.65-.47.79-.12.06-.22.09-.34.12l-.07.02h-.08s-.09-.03-.13-.04c-.45-.14-.78-.44-1-.77-.1-.15-.2-.3-.28-.45-.1-.2-.21-.44-.12-.68.03-.07.22-.05.41,0,.19.05.39.09.41.15.08.22.21.44.37.68.1.15.29.17.44.19h-.12s0,0,0,0c.01,0,.03-.03.05.02,0,.02.02.04.05.06,0,0-.02-.02-.03-.01.01,0-.06-.01-.05-.01,0,0,0,0,.01-.02,0-.03,0-.06-.01-.1-.02-.1-.07-.23-.15-.34-.11-.17-.26-.34-.44-.44-.14-.08-.31-.02-.39-.04-.02,0-.03.01-.05,0-.07-.02-.1-.06-.23-.22l-.09-.1c-.1-.11-.1-.25.04-.4.21-.18.58-.32.83-.22.27.06.48.19.67.33.28.22.49.49.66.83h-.02Z"/><path class="cls-1" d="m319.49,303.35c-.34.54-.9.73-1.39.79-.19.02-.38.04-.57,0-.72-.18-1.12-.77-1.29-1.29-.08-.24-.14-.47-.18-.7-.05-.3-.08-.63.1-.9.06-.09.26,0,.46.12.2.12.4.25.41.36.02.39.12.72.26,1.04.1.21.29.22.47.25.21.03.48-.03.66-.16.12-.07.21-.17.25-.31.06-.16-.04-.41-.28-.54-.18-.1-.4-.09-.55-.04-.03.02-.06.03-.09.05-.1.05-.15.07-.3.05h-.1c-.1-.03-.17-.16-.05-.37.18-.32.56-.47.91-.49.35-.02.71.08,1.04.34.23.19.43.52.47.88.04.35-.04.67-.2.95h-.02Z"/><path class="cls-1" d="m329.69,315.24c-.17.5-.6.91-1.08,1.05-.17.06-.35.11-.52.11-.62-.04-1.08-.35-1.41-.72-.15-.16-.28-.35-.39-.55-.14-.25-.23-.6-.08-.88.04-.09.22-.01.4.08.17.1.36.18.38.23.07.23.27.48.53.72.17.15.41.13.57.1.18-.02.35-.13.45-.31.06-.11.12-.24.12-.4.01-.23-.03-.5-.18-.69-.11-.15-.31-.21-.44-.22-.03,0-.06,0-.09,0-.1,0-.11-.11-.14-.39l-.02-.19c-.03-.21.06-.39.3-.46.7-.08,1.33.48,1.55,1.06.19.44.23.95.09,1.46h-.03Z"/><path class="cls-1" d="m321.16,312.56c-.39.35-.91.42-1.43.33l-.2-.04-.13-.03-.25-.07c-.17-.05-.33-.12-.5-.19-.24-.1-.49-.2-.7-.35-.38-.28-.7-.64-.93-1.04-.06-.1-.11-.2-.16-.31-.05-.13-.11-.27-.13-.4-.06-.27-.05-.54,0-.78.11-.42.28-.8.55-1.13.18-.21.39-.41.69-.51.3-.12.69-.06.92.13.16.12-.03.31-.22.52-.21.19-.28.51-.25.54-.01.06-.14.25-.18.45-.02.22-.09.31-.11.49.08.38.43.61.77.81.37.23.93.36,1.1.4.17-.01.27-.19.3-.36.02-.11.05-.36.04-.62,0-.25-.04-.5-.07-.76-.07-.39-.22-.76-.34-1.14-.03-.08-.06-.17-.08-.25-.1-.31,0-.45.13-.58.03-.03.06-.07.1-.09.1-.08.28,0,.49.2.46.64.89,1.36,1.08,2.21.04.16.06.33.08.49.01.19.04.3.02.62-.01.55-.19,1.13-.56,1.48l-.03-.03Z"/><path class="cls-1" d="m235.83,319.89c-.32.47-.75.87-1.28,1.12-.09.05-.19.1-.28.14-.12.04-.26.13-.39.12-.51,0-.96-.22-1.22-.5-.28-.29-.44-.62-.54-.96-.08-.3-.12-.61-.1-.93.01-.4.2-.91.64-1.07.13-.05.24.19.34.45.09.26.25.48.25.53-.03.2,0,.61.12.99.04.11.13.19.21.22.06.02.13.03.19.01.27-.08.59-.28.81-.55.15-.17.27-.37.35-.58.12-.32.23-.68.19-1.04-.04-.28-.18-.5-.26-.75-.02-.05-.06-.1-.08-.15-.08-.21-.09-.29,0-.46l.05-.1c.05-.09.23-.12.44,0,.29.18.64.43.82.78.17.35.24.74.25,1.12.03.58-.2,1.13-.49,1.63l-.03-.02Z"/><path class="cls-1" d="m158.72,233.8c.29.15.23.56.03,1.06-.06.16-.41.47-.52.45-.23-.03-.46-.06-.67-.11-.06-.02-.49-.26-.98-.53-.48-.29-.97-.65-1.23-.82-.52-.33-.95-.73-1.36-1.15-.82-.87-1.73-1.69-2.43-2.67-.16-.21-.29-.45-.39-.7-.33-.88-.83-1.63-1.39-2.36-.09-.12-.16-.26-.35-.32-.33-.08-1.64-2.19-1.71-2.53-.19-.81-.33-1.63-.5-2.44-.02-.11-.11-.2-.02-.37.22-.38.09-.58.02-.82-.04-.17-.09-.33-.12-.5-.02-.17,0-.37.01-.56.02-.19.12-.42.17-.62.05-.18.38-.24.44-.22.17.09.27-.09.39-.16.04-.02.1-.06.14-.07.03,0,.52.29,1.08.57.46.33.96.65,1.01.73,0,0,.11.15.27.37.16.21.37.49.59.78.47.55.86,1.18.98,1.29.11.12.11.3.14.47,0,.09,1.33,1.77,1.37,1.84.19.4.54.7.51,1.24,0,.11.06.17.11.24.46.61.78,1.31,1.15,1.98.2.34.44.64.64.98.04.06.04.15.06.22.03.09.05.19.1.26.53.76.94,1.62,1.58,2.3.13.17.54,1.16.7,1.36.08.11.06.75.18.8Z"/><path class="cls-1" d="m156.32,249.82c.31-.17.57.2.77.87.06.21.03.85-.05.95-.17.18-.33.36-.49.5-.11.06-1.63.53-2.12.8-.48.22-.95.37-1.43.49-.97.22-1.94.47-2.87.8-.21.07-.43.09-.66.1-.79,0-1.52.26-2.18.64-.11.06-.24.1-.29.27-.11.26-1.88,1.24-2.15,1.29-.34.05-.68.13-1.01.22-.33.1-.65.22-1.01.27-.1.02-.16.12-.33.02-.4-.22-.54-.05-.74.04-.28.12-.55.25-.87.32-.17.02-.42-.06-.65-.1-.21-.04-.47-.48-.47-.55,0-.22-.24-.34-.39-.5-.05-.05-.12-.12-.15-.18-.03-.05.11-.61.34-1.14.22-.54.5-1.08.58-1.15.01,0,.14-.15.35-.34.2-.21.5-.43.8-.67.62-.45,1.26-.91,1.4-1.02.13-.11.33-.11.51-.13.06-.05,2.04-1.23,2.14-1.24.46-.14.87-.42,1.42-.26.11.03.19-.02.28-.05.76-.29,1.58-.39,2.38-.49.41-.06.81-.17,1.21-.25.07-.01.16.02.23.03.1,0,.2.04.29.02.95-.21,1.94-.1,2.89-.24.22-.04,1.3.31,1.55.28.14-.02.61.46.73.4Z"/><path class="cls-1" d="m167.68,230.98c.16.24-.06.49-.49.76-.14.09-.59.15-.66.08-.15-.13-.29-.26-.4-.4-.07-.08-.53-1.54-.68-2.05-.16-.49-.22-.99-.27-1.49-.08-1.02-.17-2.04-.17-3.07,0-.23.02-.46.08-.68.19-.77.24-1.54.26-2.32,0-.13.03-.26-.05-.4-.19-.23.24-2.32.37-2.58.32-.63.59-1.27.9-1.88.04-.09.04-.2.17-.25.29-.13.31-.34.39-.53.1-.27.23-.53.39-.78.08-.12.25-.21.4-.31.13-.09.45.09.47.14.07.15.26.11.41.15.05.01.11.03.15.05.07.05.23,1.72.21,1.88-.04.04-.31,2.28-.28,2.54,0,.14-.08.26-.13.38-.04.06-.05,1.87-.09,1.93-.09.36-.04.74-.31,1.08-.05.07-.05.14-.05.22-.03.64-.17,1.27-.26,1.91-.05.33-.02.66-.04.98,0,.06-.04.12-.05.18-.02.07-.05.15-.04.22.02.78-.08,1.57.05,2.34.02.18-.13,1.06-.08,1.26.02.11-.25.54-.18.63Z"/><g><path class="cls-1" d="m411.41,140.02s-1.13-5.21,1.37-6.47c2.49-1.27,3,3.07,2.82,4.11-.61,3.44-4.19,2.36-4.19,2.36Z"/><path class="cls-1" d="m417.51,136.93c-.14,1.03-.59,2.04-1.24,2.81-.57.76-1.52,1.43-2.54,1.74-.75.26-1.54.3-2.25.17-1.25-.29-2.22-.95-2.99-1.71-.77-.77-1.37-1.67-1.75-2.67-.18-.45-.28-.92-.35-1.41-.06-.53-.01-1.04.11-1.52.16-.62.43-1.21.89-1.69.44-.48,1.12-.82,1.79-.82.44.02.33.43.17.88-.18.47-.18,1.01-.29,1.27-.26.49-.29,1.17-.08,1.58.21.57.44,1.3.92,1.97.28.4.69.71,1.11.9.43.18.86.25,1.23.26.4.01.76-.08,1.12-.33.19-.1.35-.3.53-.48.15-.19.28-.38.38-.61.24-.55.32-1.22.18-1.83-.11-.45-.35-.84-.68-1.05-.32-.2-.8-.22-1.28,0-.8.33-1.27,1.06-1.67,1.85l-.25.55c-.41.66-.66.84-1.13.83-.11,0-.22,0-.31,0-.32-.05-.46-.47-.39-1.13.11-.97.52-1.98,1.29-2.94.4-.48.9-.89,1.46-1.24.61-.32,1.35-.64,2.27-.56.33,0,.66.11.99.2.31.12.63.28.89.46.53.39.95.87,1.23,1.37.57,1.01.8,2.09.71,3.16h-.08Z"/></g><path class="cls-1" d="m434.82,166.9c-.84,1.67-2.26,2.66-3.77,3.13-.56.15-1.13.35-1.74.31-1.07-.03-2.15-.46-2.91-1.17-.76-.71-1.25-1.59-1.44-2.49-.16-.8-.21-1.59-.08-2.37.07-.5.22-.99.46-1.45.27-.44.62-.85,1.08-1.08.29-.16.45.18.55.62.09.44.23.93.18,1.25-.14.56-.08,1.17.06,1.72.19.54.32,1.04.56,1.51.15.28.42.46.72.54.31.07.64.05.98,0,.76-.1,1.59-.56,2.07-1.22.3-.4.5-.85.49-1.33.03-.71-.39-1.54-1.11-2.01-.57-.35-1.29-.37-1.8-.22-.12.02-.22.09-.32.11-.37.06-.51-.1-.99-.85l-.34-.5c-.37-.54-.32-1.24.37-1.66,1-.63,2.3-.65,3.4-.32,1.12.34,2.14,1.01,2.9,1.99.57.72.99,1.62,1.14,2.61.15.99,0,2.02-.37,2.89l-.08-.03Z"/><g><path class="cls-1" d="m356.03,225.05s.7-5.05,3.46-5.31,2.41,3.32,1.09,4.55c-1.31,1.24-2.25,2.28-4.55.75Z"/><path class="cls-1" d="m362.53,224.87c-.41.8-1.06,1.47-1.79,1.9-.72.44-1.5.67-2.24.74-.54.07-1.08.13-1.6.04-.92-.17-1.79-.54-2.53-1.12-.74-.58-1.3-1.44-1.53-2.35-.13-.37-.18-.91-.14-1.31.05-.43.17-.82.34-1.19.22-.47.52-.92,1.02-1.26.24-.17.56-.29.89-.31.34-.02.68.06.93.24.33.24-.02.52-.32.87-.15.17-.27.4-.27.6,0,.05,0,.1,0,.1,0,.03.01.07.02.09,0,.02.09.23.09.2.03.09,0,.26,0,.43-.01.17.07.35.06.42,0,.04,0,.03,0,.07.04.07.02.16.06.23.06.15.11.34.24.53.26.55,1.06.66,1.7.71.74.05,1.46-.13,1.9-.59.28-.28.48-.66.51-1.11.04-.67-.21-1.52-.79-2.06-.45-.42-1.06-.58-1.53-.58-.1.01-.2.05-.3.04-.16.06-.27-.16-.39-.28-.11-.16-.22-.39-.36-.72l-.2-.44c-.2-.46-.05-1.02.62-1.42,1.02-.46,2.23-.22,3.2.24,1,.47,1.74,1.31,2.27,2.26.4.7.64,1.53.7,2.4.07.87-.1,1.83-.51,2.65l-.07-.03Z"/></g><g><path class="cls-1" d="m117.39,94.86s.28-4.2,2.96-4.56c2.68-.36,3.28,3.34,2.11,4.56-1.17,1.22-3.53,2.28-5.08,0Z"/><path class="cls-1" d="m124.54,93.2c-.05.41-.13.78-.25,1.2-.12.43-.28.83-.48,1.22-.1.2-.21.38-.33.58-.15.23-.31.46-.49.66-.36.42-.78.77-1.25,1.01-.67.36-1.45.56-2.21.39-.66-.15-1.26-.52-1.76-.98-.11-.1-.27-.26-.34-.33l-.21-.24-.42-.49c-.57-.65-1.07-1.43-1.47-2.28-.35-.74-.66-1.58-.74-2.45-.05-.55-.04-1.13.13-1.7.17-.56.52-1.11,1.04-1.45.34-.21.63.31.91.85.27.57.67,1.05.67,1.27-.05.44.05,1,.24,1.46.21.53.57,1.11,1.01,1.8.12.21.28.42.46.61.09.1.18.19.28.28l.18.17c.14.12.31.2.5.22.21.02.42-.09.59-.26.07-.05.2-.25.3-.45.1-.2.18-.42.24-.63.15-.61.21-1.25.14-1.86-.09-.77-.38-1.45-.93-1.81-.1-.04-.19-.1-.3-.11-.48-.1-1.04.33-1.29.65-.05.07-.05.15-.08.19,0,.07-.19.03-.32.1-.18.05-.36.14-.65.28-.13.06-.25.14-.37.21-.2.11-.41.12-.65-.02-.24-.14-.5-.48-.56-1.01-.09-.69.23-1.33.57-1.84.36-.51.82-.91,1.35-1.21.27-.15.56-.24.86-.33.29-.06.71-.14,1.04-.13.71,0,1.43.19,2.05.56.35.19.65.44.94.71.79.76,1.24,1.71,1.47,2.59.23.89.29,1.74.2,2.56h-.08Z"/></g><path class="cls-1" d="m90.31,166.77c-.07-.39-.21-.88-.36-1.26-.15-.39-.39-.78-.4-.84-.06-.1-.18-.09-.27-.16-.05-.05-.12-.07-.19-.1-.39-.14-.9.22-.99.86-.09.39.11.95.39,1.4.38.61.99,1.11,1.32,1.96.1.27-.39.68-1.02.97-.63.28-1.44.44-1.87.05-.73-.68-1.51-1.58-1.93-2.85-.1-.31-.18-.64-.22-1.03-.02-.19,0-.36-.05-.58.02-.21.02-.42.06-.63.14-.83.47-1.61.98-2.19.76-.86,1.7-1.52,2.82-1.7.65-.1,1.33-.02,1.94.24.45.18.86.46,1.23.78.19.16.35.34.52.52.15.18.26.32.37.48.44.62.75,1.27,1,1.91.3.79.55,1.64.58,2.65.03.75-.18,1.64-.69,2.34-.54.73-1.29,1.17-2.09,1.38-.62.16-1.31.21-2.02.03-.71-.18-1.37-.6-1.78-1.19-.18-.25-.38-.51-.48-.82-.15-.59-.05-1.02.14-1.28.19-.26.49-.38.91-.4.19-.01.38-.02.55,0,.59.09,1.07.41,1.46.46.3.05.49.02.63-.07,0-.02-.21.24-.19.25.05-.1.05-.33.03-.39-.02-.07,0,.05.12.18.03.04.09.08.12.11h.01s0,.01,0,.01h0s0,0,0,0l-.3-.19h0s0,0,0,0h0s.01.01-.01,0c-.02,0-.1-.04-.22-.06-.18-.03-.14-.02-.13-.04.05-.06.04-.39-.07-.76l.09-.03Z"/></svg>