<?xml version="1.0" encoding="UTF-8"?><svg id="Layer_1" xmlns="http://www.w3.org/2000/svg" width="520" height="520" viewBox="0 0 520 520"><defs><style>.cls-1{opacity:.25;}.cls-1,.cls-2,.cls-3{stroke-width:0px;}.cls-1,.cls-3{fill:#231f20;}.cls-2{fill:#242021;}</style></defs><path class="cls-2" d="M409.51,322.21l.02-.09c.31-1.62.66-3.24.94-4.86l1.7-9.65c.28-1.61.58-3.21.83-4.83.16-1.63.39-3.25.5-4.89h0c-.02-.2-.07-.38-.13-.42l-.64-.44c-.27-.23-.52-.46-.74-.69-.22-.22-.42-.44-.51-.64-.02-.04-.09-.02-.21.07-.31.23-.49.48-.77.71-.14.12-.32.37-.47.65-.35.85-.54,1.73-.82,2.6-.25.87-.52,1.74-.76,2.61l-1.19,5.29-1.19,5.29c-.38,1.77-.84,3.52-1.13,5.3-.05.26,0,.5.09.59l.49.46c.14.13.29.2.46.2l.53.02s.08.04.1.11l.19.61c.05.17.14.27.25.28.29.03.48.41.5.98v.24c0,.18.05.32.12.39.07.07.16.07.26,0,.08-.07.16-.02.18.12.04.28.2.37.39.19l.19-.18c.06-.06.12-.07.16-.02.04.05.06.14.04.25l-.09.63c-.02.17,0,.3.09.31.07.01.19-.09.25-.26l.16-.36c.08-.18.16-.37.2-.57"/><path class="cls-2" d="M295.88,387.29l.04-.08c.18-.35.21-.73.32-1.09.08-.37.2-.73.26-1.11l.39-2.23.9-4.38c.33-1.45.57-2.91.85-4.37.27-1.46.56-2.92.87-4.37.03-.18.08-.36.11-.55l.02-.57.04-1.15c.02-.77.09-1.52.04-2.31h0c0-.19-.04-.35-.09-.39-.16-.14-.31-.28-.45-.41-.38-.44-.65-.85-.81-1.23-.02-.04-.07-.02-.15.07-.2.21-.42.42-.66.62-.13.11-.31.32-.47.56-.51.72-.86,1.49-1.28,2.24l-.61,1.14c-.23.37-.28.79-.43,1.19-.5,1.6-.99,3.21-1.46,4.83-.5,1.61-.86,3.25-1.23,4.88l-1.07,4.89c-.05.24,0,.46.1.55l.55.44c.15.12.33.19.5.2l.57.03s.09.04.12.11l.22.58c.06.16.16.25.27.26.31.03.53.4.55.92v.22c0,.16.04.29.11.36.07.07.16.07.26,0,.09-.06.17-.01.18.11.03.26.19.34.39.18l.21-.16c.07-.05.13-.06.17-.01.04.04.05.13.02.23l-.14.57c-.03.15-.02.27.06.28.06,0,.19-.08.28-.23l.2-.32c.1-.16.19-.33.27-.51"/><path class="cls-2" d="M179.98,423.84v-.08s.41-2.11.41-2.11c.06-.35.14-.7.19-1.05l.11-1.06c.37-2.8.78-5.58,1.24-8.37.26-1.39.37-2.8.58-4.2l.29-2.1.15-1.05c.05-.35.12-.7.09-1.06h0c0-.17-.06-.33-.12-.37l-.78-.44c-.69-.46-1.29-.91-1.83-1.34-.06-.05-.14-.03-.24.05-.25.2-.51.39-.78.59-.14.1-.31.32-.43.56-.2.36-.29.75-.39,1.14l-.31,1.15-.61,2.31-.59,2.32c-.19.77-.32,1.56-.47,2.34-.3,1.56-.58,3.13-.85,4.7-.25,1.57-.57,3.14-.71,4.73-.01.23.06.45.18.53l.57.39c.16.11.33.16.5.16h.55s.09.03.12.09l.26.53c.07.15.17.23.28.23.3.01.53.34.59.84l.03.21c.02.15.07.27.15.33.08.06.17.05.26-.01.08-.06.16-.02.19.09.07.25.25.31.41.15l.17-.17c.05-.05.12-.06.16-.02.05.04.07.12.07.22v.55c-.01.15.04.26.12.26.08,0,.17-.09.22-.24l.11-.32c.06-.16.1-.33.14-.5"/><path class="cls-2" d="M55.1,470.89l.02-.08c.23-1.47.38-2.95.61-4.43.24-1.45.51-2.91.8-4.36l.89-4.36.7-4.43c.21-1.48.59-2.93.57-4.48h0c0-.18-.02-.34-.06-.38l-.49-.41c-.2-.22-.42-.44-.57-.65-.15-.21-.25-.4-.29-.58,0-.04-.06-.01-.16.07-.22.21-.58.38-.81.59-.12.11-.27.33-.4.59l-.57,1.14c-.2.38-.29.78-.44,1.18l-.81,2.37c-.52,1.59-1.09,3.17-1.52,4.79-.79,3.26-1.5,6.55-2.1,9.88-.04.24,0,.46.1.55l.49.41c.14.12.29.17.45.18h.52s.08.04.11.1l.21.56c.06.15.15.24.26.25.28.02.5.36.55.89l.02.22c.01.16.06.29.13.35.07.06.16.06.25-.01.08-.06.16-.02.18.1.06.26.22.32.39.16l.17-.17c.06-.06.12-.06.16-.02.04.04.06.13.05.23l-.05.58c-.01.16.03.27.11.27.07,0,.17-.09.23-.24l.13-.34c.07-.17.12-.34.17-.52"/><path class="cls-3" d="M176.02,95.91c.9,1.96,2.62,3.52,4.71,4.12,1.97.57,4.16.22,5.86-.93.59-.4.91-1.23.49-1.88-.38-.59-1.24-.93-1.88-.49-.18.12-.36.24-.55.34-.08.04-.16.08-.24.12-.27.14.03,0-.06.03-.37.11-.74.2-1.11.31-.17.05.27-.02,0,0-.1,0-.21.02-.31.02-.21,0-.41,0-.62,0-.09,0-.17-.02-.26-.02-.17,0,.27.05,0,0-.2-.04-.41-.08-.61-.14-.18-.05-.36-.13-.54-.19-.16-.05.22.11,0,0-.09-.05-.19-.09-.28-.14-.17-.09-.34-.2-.5-.31-.03-.02-.31-.23-.17-.12s-.09-.08-.12-.1c-.17-.15-.33-.3-.48-.47-.06-.07-.13-.14-.19-.22-.08-.09-.15-.2-.04-.04-.29-.4-.53-.82-.73-1.26-.3-.66-1.3-.87-1.88-.49-.68.44-.82,1.18-.49,1.88h0Z"/><path class="cls-3" d="M182.58,114.71c.64,1.81,2.13,3.27,3.84,4.1,1.82.87,3.97,1.2,5.8.17.68-.38.97-1.38.54-2.05s-1.32-.95-2.05-.54c-.08.04-.15.08-.23.12-.27.14.33-.1.04-.02-.16.04-.31.09-.46.12-.25.06,0-.03.09,0-.08-.01-.18.02-.27.02-.18,0-.36,0-.54,0-.06,0-.33-.05-.08,0,.27.05-.07-.01-.12-.03-.17-.03-.34-.07-.51-.12-.19-.05-.37-.12-.55-.19-.26-.09.21.11.04.02-.09-.05-.18-.08-.27-.13-.32-.16-.63-.34-.93-.55-.05-.03-.33-.19-.12-.08s-.03-.02-.08-.06c-.15-.12-.29-.25-.42-.39-.12-.12-.24-.25-.35-.38-.22-.25.08.13,0,.02-.04-.06-.09-.12-.13-.18-.1-.14-.19-.3-.27-.45-.04-.07-.06-.17-.11-.23.09.12.12.3.03.05-.26-.74-1.04-1.31-1.85-1.05-.73.24-1.33,1.05-1.05,1.85h0Z"/><path class="cls-3" d="M171.94,88.93c.03-.35-.06.36-.02.11.01-.06.02-.12.03-.18.03-.15.06-.3.11-.45.09-.32.21-.63.33-.95-.19.51.04-.07.1-.2.08-.16.17-.33.26-.49.18-.33.39-.63.61-.94.17-.24-.21.26-.04.05.07-.08.13-.17.2-.25.12-.14.25-.28.38-.41s.26-.25.4-.37c.09-.08.3-.19-.06.04.09-.05.16-.12.25-.18.15-.1.3-.19.45-.27.07-.03.13-.07.2-.1.23-.11-.38.14-.02.01.15-.05.3-.1.46-.13.15-.03.39,0-.08,0,.1,0,.2-.02.29-.02.78-.03,1.54-.67,1.5-1.5s-.66-1.53-1.5-1.5c-2.08.07-3.73,1.37-4.94,2.96-1.04,1.37-1.75,3.02-1.92,4.73-.08.78.75,1.53,1.5,1.5.88-.04,1.42-.66,1.5-1.5h0Z"/><path class="cls-3" d="M411.41,224.45c-.26-.93-.6-1.83-1.01-2.69-.16-.31-.38-.57-.52-.89-.56-1.07-1.3-2.06-2.27-2.83-.21-.18-.47-.28-.7-.42-.24-.13-.49-.27-.76-.33-.34-.09-.68-.22-1.03-.29-.35-.05-.71-.11-1.08-.18-.23-.05-.2-.12,0-.21.19-.09.57-.25,1.03-.31,1.59-.09,3.42.36,4.61,1.58.36.36.73.69,1.06,1.08l.52.56.45.61c.61.92,1.02,1.92,1.41,2.92.21.62.43,1.24.61,1.86.28.94.49,1.9.74,2.83.2.73.48,1.42.69,2.13.05.16.11.31.15.47.13.6.01.81-.51,1.03-.12.05-.24.11-.36.14-.41.12-.8-.06-1-.47-.59-1.21-1-2.47-1.29-3.76-.24-.95-.45-1.91-.77-2.82l.05-.02Z"/><path class="cls-3" d="M479.51,220.36c-.34.71-.62,1.46-.85,2.26-.09.29-.12.59-.21.88-.31,1.05-.62,2.1-.93,3.15-.14.47-.28.93-.42,1.4-.18.6-.38,1.2-.75,1.72-.11.16-.26.06-.38-.16-.11-.22-.21-.57-.13-.9.28-1.16.4-2.35.76-3.54.2-.72.22-1.5.35-2.27.14-.84.31-1.69.55-2.54.15-.52.32-1.03.52-1.54.28-.78.7-1.51,1.11-2.23.32-.56.6-1.17,1.01-1.73.09-.12.16-.26.28-.36.42-.39.68-.35,1.09.05.09.09.19.18.28.28.28.34.33.75.19,1.05-.41.91-.94,1.58-1.4,2.46-.33.64-.73,1.3-1.02,2.03h-.05Z"/><path class="cls-3" d="M440.64,257.81c.15-.21.32-.41.51-.6.07-.07.12-.15.2-.21.29-.2.6-.35.9-.47.13-.06.28-.08.41-.12.17-.05.36-.08.54,0,.06.02.06.12.04.25-.02.12-.05.31-.09.38-.09.13-.14.25-.2.36-.06.11-.18.1-.3.14-.16.04-.21.2-.3.32-.1.13-.23.25-.33.41-.07.09-.13.19-.18.3-.08.16-.17.33-.2.51-.02.15.05.31.08.46,0,.03.02.07.02.1,0,.12-.12.14-.5.08l-.26-.04c-.3-.05-.53-.16-.6-.27-.23-.33-.2-.64-.09-.94.08-.23.2-.45.33-.68h.03Z"/><path class="cls-3" d="M447.79,284.24c-.48-.18-.96-.35-1.45-.46-.18-.05-.36-.05-.54-.1-.63-.18-1.29-.28-1.96-.32-.3-.01-.59.04-.87.1-.18.05-.36.1-.54.15-.19.02-.39.03-.62-.01-.15-.03-.14-.05-.1-.2.04-.17.11-.5.29-.72.75-.48,1.63-.82,2.52-.74.53.06,1.07-.05,1.6-.01.59.03,1.15.19,1.7.33.34.1.67.2,1,.3.5.15.99.35,1.48.49.38.1.79.11,1.18.17.09.01.17.02.25.05.3.11.36.27.28.71-.02.1-.03.2-.05.3-.08.33-.29.56-.56.62-.79.19-1.49.02-2.18-.11-.5-.13-.98-.34-1.47-.47v-.05Z"/><path class="cls-1" d="M446.49,202.5c-.56,1.13.78,19.25,11.45,22.2s18.22-.13,18.22-.13c0,0-2.93,15.19-6.72,19.34s-15.95,10.79-17.04,14.89c-1.09,4.11-1.51,21.77-1.51,21.77l-1.18,2.88s5.14,5.65,4.7,7.85c-.7,3.52-23.15,2.22-23.15,2.22,0,0,2.26-4.48,6.49-7.59s4.52-9.32,4.52-9.32l-1.19-20.73s-13.29-3.98-18.38-11.56-9.8-19.48-8.78-27.57,2.93-9.88,2.93-9.88l26.72-5.18,2.9.79Z"/><path class="cls-3" d="M266.97,171.1c-1.3.71-2.79,1.29-4.33,1.53-.55.07-1.1.2-1.65.2-1.93.01-3.66-.38-5.33-.38-.73.02-1.47.12-2.15.33-.23.05-.43.15-.65.24-.21.08-.43.17-.63.28-.2.11-.42.18-.64.27-.22.1-.44.19-.67.27-.29.1-.44-.15-.42-.57.01-.21.07-.47.18-.75.11-.27.27-.58.56-.74.95-.62,2.07-1.11,3.21-1.27,1.14-.15,2.25-.08,3.28.07,1.24.18,2.46.11,3.59-.02,1.24-.14,2.41-.51,3.56-1.11.7-.38,1.39-.81,2.04-1.29.97-.74,1.93-1.56,2.66-2.53.58-.75.89-1.64,1.17-2.45.05-.18.09-.36.14-.54.18-.64.44-.75,1.17-.79.17,0,.34-.03.5-.03.54,0,.96.43.97,1.19-.1,2.24-1.47,4.01-2.9,5.44-1.09,1.06-2.33,1.93-3.63,2.7l-.04-.05Z"/><path class="cls-3" d="M166.26,252.34s-.58,16.98-3.26,32.48c-2.11,12.2-4.45,22.1-4.45,22.1,0,0,19.15,4.67,20.28,9.09,1.12,4.42-6.13,26.96-6.95,30.92s-3.12,16.88-.75,19.73,10.68,8.82,15.96,9.96c5.29,1.14,18.17,2.65,23.68,1.17s12.89-4.86,13.89-7.49,5.78-21.9,5.5-28.42,1.18-33.43.01-36.99c-1.17-3.56-.96-20.19-3.92-21.18-2.96-.99-22.27-11.95-24.39-13.07s-26.54-13.91-26.54-13.91l-9.07-4.39Z"/><path class="cls-3" d="M143.64,240.86s14.28,3.43,19.34.25c0,0-5.85,49.38-9.16,64.26-3.31,14.89-17.49,62.79-22.6,72.01-5.1,9.22-12.71,21.67-17.8,23.8s-23.36,2.64-27.37,2.32-23.59-6.9-27.36-10.57c-3.77-3.68-12.6-18.53-10.73-25.74,1.87-7.21,12.7-28.41,12.7-28.41l23.64-44.49,9.92-22.78,6.96-16.39s36.58-1.2,38.53-5c1.95-3.8,3.93-9.26,3.93-9.26Z"/><path class="cls-3" d="M163.99,237.63c-.28.65-.6,1.28-.98,1.89-.13.23-.25.46-.42.66-.61.7-1.31,1.31-2.05,1.82-.33.22-.67.44-1,.65-.22.12-.43.27-.68.34-.25.06-.52.08-.8.02-.17-.03-.15-.05-.08-.22.08-.16.15-.58.3-.79.64-.63,1.17-1.2,1.88-1.72.42-.32.65-.85.91-1.31.31-.5.64-1.01.9-1.57.16-.34.32-.7.44-1.06.19-.55.38-1.12.47-1.71.05-.46.05-.92.1-1.37.01-.1,0-.2.03-.3.11-.37.25-.47.63-.49.09,0,.17-.02.25-.02.27,0,.49.19.6.49.17.45.22.89.28,1.35.05.46-.06.9-.14,1.36-.13.67-.34,1.34-.58,2.01h-.05Z"/><path class="cls-3" d="M87.62,251.85c-.04-.46-.03-.94.09-1.36.03-.15.03-.31.08-.46.17-.52.4-.99.61-1.44.09-.2.14-.41.23-.6.09-.25.18-.51.37-.73.06-.07.19-.02.32.09.13.11.29.29.31.45.07.58,0,1.08-.2,1.55-.12.28-.06.6-.06.89,0,.32,0,.62,0,.93.01.19.03.38.09.57.08.28.17.56.37.77.16.15.39.21.57.26.04.01.09,0,.13.02.13.06.1.18-.07.65l-.12.32c-.14.35-.36.59-.61.6-.36,0-.72-.13-1.02-.33-.29-.21-.5-.5-.67-.79-.25-.44-.37-.92-.45-1.39h.04Z"/><path class="cls-3" d="M88.14,239.49c-.66.21-1.33.38-1.99.56-.68.13-1.34.31-2.02.4-.5.07-.98.22-1.48.25-1.75.19-3.53.2-5.26,0-.77-.08-1.54-.19-2.3-.3-.97-.17-1.93-.43-2.84-.8-.29-.11-.23-.16.05-.2.27-.04.77-.11,1.32-.08.99.01,1.95.05,2.92.09.97,0,1.92.01,2.9.1.58.04,1.18-.01,1.77-.05.59-.09,1.19-.16,1.78-.26,1.29-.22,2.58-.47,3.84-.88.78-.21,1.54-.52,2.29-.81,1.13-.49,2.26-1.01,3.28-1.67.39-.27.79-.53,1.14-.83.36-.3.7-.63,1.07-.9.16-.12.3-.28.46-.4.6-.48.86-.55,1.25-.35.09.04.18.08.26.13.25.18.17.57-.22,1.04-1.1,1.43-2.7,2.46-4.35,3.35-1.22.68-2.54,1.18-3.85,1.65v-.04Z"/><path class="cls-3" d="M59.5,233.14c.56.47,1.15.94,1.73,1.41.21.17.46.29.68.46.76.59,1.55,1.17,2.37,1.69.36.23.74.46,1.11.66.5.22.93.61,1.37.97.13.12.1.14-.07.17-.17.02-.51.11-.86.1-1.21-.09-2.25-.6-3.2-1.29-.56-.41-1.24-.68-1.85-1.05-.67-.4-1.32-.84-1.93-1.33-.38-.29-.76-.6-1.13-.9-.57-.46-1.1-.96-1.67-1.42-.43-.36-.93-.64-1.39-.99-.1-.08-.22-.13-.29-.24-.28-.38-.27-.59,0-.94.06-.08.11-.16.17-.23.2-.23.55-.29.88-.17.52.15.87.46,1.27.74.38.29.75.6,1.13.92.56.46,1.11.95,1.7,1.4l-.03.04Z"/><path class="cls-3" d="M164.35,203.53c3.22-9.18-2.75-19.92-2.75-19.92,0,0-4.21,7.65-6.58,10.22,0,0,5.74,5.84,1.21,14.75l8.12-5.05Z"/><path class="cls-3" d="M147.45,215.06c4.39-6.48-.7-15.38-.7-15.38,0,0-4.03,2.91-6.56,4.7,0,0,4.17,9.34,0,17.35l7.25-6.66Z"/><path class="cls-3" d="M162.38,168.63c.41.4.82.79,1.19,1.23.14.15.3.28.43.44.44.59.9,1.15,1.26,1.78.17.27.35.53.53.79.23.33.45.66.61,1.05.05.12-.03.16-.19.14-.15-.02-.4-.06-.59-.2-.33-.24-.66-.48-.97-.72-.32-.24-.61-.5-.81-.85-.26-.4-.68-.68-1.03-1-.39-.36-.78-.72-1.16-1.08-.24-.22-.49-.44-.75-.64-.39-.3-.79-.62-1.22-.85-.34-.18-.73-.25-1.1-.35-.08-.02-.16-.05-.23-.09-.27-.14-.29-.32-.17-.73.03-.09.05-.19.08-.27.1-.28.35-.49.63-.51.43-.04.8.07,1.15.21.35.15.69.34,1.01.56.48.32.93.69,1.37,1.06l-.02.03Z"/><path class="cls-3" d="M173.56,155.44c-.21,1.1-.57,2.18-.97,3.22-.15.38-.3.76-.47,1.13-.67,1.28-1.58,2.44-2.68,3.35-.23.21-.5.39-.74.59-.25.19-.48.4-.76.55-.36.18-.69.4-1.06.55-.38.13-.76.24-1.13.35-.24.06-.23-.03-.09-.22.14-.19.4-.51.74-.76,1.17-.98,2.19-1.91,3.1-3.07.26-.35.54-.71.72-1.12l.3-.61.25-.64c.4-.92.66-1.9.88-2.89.09-.62.23-1.24.25-1.87.09-.95.1-1.92-.03-2.87-.11-.73-.33-1.43-.57-2.11l-.16-.45c-.2-.55-.05-.78.37-1.06.1-.06.19-.14.29-.19.33-.17.71-.03,1.01.39.74,1.28,1.1,2.81,1.09,4.33,0,1.13-.09,2.27-.31,3.39h-.05Z"/><path class="cls-3" d="M164.56,144.11s4.5.69,8.47-3.26c2.19-2.19-4.09,5.45-4.09,5.45l-4.38-2.19Z"/><path class="cls-3" d="M159.92,47.72s14.88-1.61,20.42,6.86c5.83,8.91,4.42,16.19,0,24.43,0,0-12.94,4.94-16.56,6.92s-6.53,2.17-6.04,5.81c.49,3.64,3.49,10.37,3.96,12.94.47,2.57,1.31,5.29-.94,6.08-2.25.79-10.65-2.93-10.65-2.93,0,0-7.71-2.6-9.27-1.14-1.56,1.47-3.36,5.15-2.64,7.04.72,1.89,2.14,4.62,3.88,5.68,1.75,1.07-5.2,12.33-18.47,12.42,0,0-16.76-2.65-20.77-10.41-4.01-7.76-5.6-21.25-5.6-21.25,0,0,2.49-11.83,6.01-15.95,3.52-4.13,12.79-10.93,15.58-11.78,2.79-.85,16.6-.54,16.6-.54l5.03,2.34s-.25-13.59,3.16-16.42,11.4-8.54,11.4-8.54l4.89-1.57Z"/><path class="cls-3" d="M196.96,430.99c-5.04-.15-10.08-.36-15.15-.71-1.27-.08-2.54-.18-3.83-.31l-.98-.11c-.35-.06-.57-.06-1.23-.19-.28-.05-.56-.1-.82-.19-.27-.07-.54-.14-.76-.26-.25-.1-.45-.24-.64-.38-.1-.06-.17-.17-.26-.25l-.03-.03-.02-.02s.12-.09.06-.06h0s-.05-.08-.05-.08l-.1-.14c-.29-.35-.28-.92-.27-1.46,0-.27.04-.55.06-.83l.08-.73.27-1.91.61-3.76c.62-3.64,1.2-7.27,1.92-10.88l.91-4.39.49-2.2.13-.56.23-.92c.08-.3.18-.6.31-.87.15-.25.3-.46.48-.69.46-.17.84-.38,1.38-.42.26-.04.5-.09.76-.11l.67-.04,1.89-.07,3.75-.09,7.48-.09c4.99-.03,9.97-.05,14.95,0,5.74,0,11.51,0,17.21.01h5.5c1.83.02,3.67.06,5.5.12,3.67.13,7.34.25,10.97,1,2.26.54,1.96.38.01.77-.97.19-2.36.6-4.01.85-.83.14-1.73.31-2.69.41-.95.08-1.96.13-3.02.15l-5.59.1c-1.86.04-3.72,0-5.59,0-3.73,0-7.46-.02-11.19-.02-3.73-.01-7.47-.02-11.21-.03-3.74-.04-7.49-.08-11.25-.12-2.37-.03-4.76-.01-7.16.03-1.2.03-2.4.07-3.61.1l-1.79.09-.38.02c-.1.01-.2,0-.29.04-.07.16-.1.34-.15.5l-.35,1.55-.66,3.19c-.42,2.14-.84,4.28-1.25,6.41-.47,2.48-.93,4.96-1.36,7.44-.21,1.24-.42,2.48-.6,3.71l-.19,1.43c-.01.12-.03.24-.03.37-.03.15.16.16.25.2.12.04.24.06.36.09l.67.11c.6.09,1.21.17,1.83.24,1.24.14,2.49.25,3.74.35,2.51.17,5.03.29,7.55.39,6.21.24,12.44.37,18.66.39,9.42.01,18.91-.02,28.23-.59,1.71-.11,3.41-.24,5.07-.43.83-.09,1.66-.2,2.47-.34.38-.06.85-.16,1.11-.22.2-.06.42-.11.57-.25.05-.11.09-.22.13-.34l.15-.5.39-1.34c.25-.9.49-1.81.72-2.73.45-1.83.88-3.66,1.26-5.5.33-1.53.57-3.05.85-4.59,1.02-5.74,1.26-7.46,2.27-8.69.21-.28.42-.66.62-.84.34-.29.64.15.94,1.29.29,1.13.34,2.91.14,5.13-.31,3.32-.95,6.6-1.69,9.88-.38,1.64-.79,3.28-1.25,4.92-.23.82-.46,1.64-.72,2.47-.12.41-.26.83-.4,1.26l-.05.16c-.03.08-.06.17-.1.27l-.26.54c-.17.37-.35.72-.56,1.04-.32.22-.59.5-.97.64-.35.17-.75.27-1.14.38-.22.06-.37.08-.47.1l-.35.07-.68.11c-.89.14-1.75.23-2.6.32-1.71.17-3.41.29-5.11.39-3.4.19-6.79.31-10.19.39-10.16.23-20.35.12-30.53-.09v-.08Z"/><path class="cls-3" d="M73.34,474.78c-3.67-.11-7.35-.25-11.03-.45l-5.54-.35c-.93-.07-1.86-.15-2.81-.26l-.71-.09-.36-.05-.19-.03c-.1,0-.2-.03-.31-.05-.82-.14-1.62-.34-2.25-.71-.19-.17-.47-.27-.5-.58-.14-.21-.3-.4-.33-.68-.1-.54-.04-1.16,0-1.76l.16-1.3.15-1.03c.2-1.37.43-2.73.66-4.08.62-3.64,1.2-7.27,1.92-10.88l.91-4.39.49-2.2.13-.56.23-.92c.08-.3.18-.6.31-.87.15-.25.3-.46.48-.69.46-.17.84-.38,1.38-.42.26-.04.5-.09.76-.11l.67-.04,1.89-.07,3.75-.09,7.48-.09c4.99-.03,9.97-.05,14.95,0,5.74,0,11.51,0,17.21.01h5.5c1.83.02,3.67.06,5.5.12,3.67.13,7.34.25,10.97,1,2.26.54,1.96.38.01.77-.97.19-2.36.6-4.01.85-.83.14-1.73.31-2.69.41-.95.08-1.96.13-3.02.15l-5.59.1c-1.86.04-3.72,0-5.59,0-3.73,0-7.46-.02-11.19-.02-3.73-.01-7.47-.02-11.21-.03-3.74-.04-7.49-.08-11.25-.12-2.37-.03-4.76-.01-7.16.03-1.2.03-2.4.07-3.61.1l-1.79.09-.38.02c-.1.01-.2,0-.29.04-.07.16-.1.34-.15.5l-.35,1.55-.66,3.19c-.42,2.14-.84,4.28-1.25,6.41-.47,2.44-.92,4.89-1.34,7.34-.21,1.22-.41,2.45-.6,3.66l-.21,1.51c-.01.12-.03.24-.03.36,0,.06-.01.12.01.18.05.03.1.06.16.08.12.04.24.07.36.1l.57.1c.6.1,1.23.18,1.85.25,1.25.14,2.52.26,3.79.36,2.54.18,5.1.3,7.66.4,6.21.24,12.44.37,18.66.39,9.42.01,18.91-.02,28.23-.59,1.71-.11,3.41-.24,5.07-.43.83-.09,1.66-.2,2.47-.34.38-.06.85-.16,1.11-.22.2-.06.42-.11.57-.25.05-.11.09-.22.13-.34l.15-.5.39-1.34c.25-.9.49-1.81.72-2.73.45-1.83.88-3.66,1.26-5.5.33-1.53.57-3.05.85-4.59,1.02-5.74,1.26-7.46,2.27-8.69.21-.28.42-.66.62-.84.34-.29.64.15.94,1.29.29,1.13.34,2.91.14,5.13-.31,3.32-.95,6.6-1.69,9.88-.38,1.64-.79,3.28-1.25,4.92-.23.82-.46,1.64-.72,2.47-.12.41-.26.83-.4,1.26l-.05.16c-.03.08-.06.17-.1.27l-.26.54c-.17.37-.35.72-.56,1.04-.32.22-.59.5-.97.64-.35.17-.75.27-1.14.38-.22.06-.37.08-.47.1l-.35.07-.68.11c-.89.14-1.75.23-2.6.32-1.71.17-3.41.29-5.11.39-3.4.19-6.79.31-10.19.39-10.16.23-20.35.12-30.53-.09v-.08Z"/><path class="cls-3" d="M28.76,242.92c-.23-.03-.48-.08-.78-.17-.15-.05-.29-.09-.49-.2-.16-.07-.4-.24-.6-.43-.22-.24-.43-.57-.49-.96-.04-.2-.04-.37-.02-.51.02-.14.05-.34.08-.43.07-.2.18-.44.26-.55.12-.15.09-.22.48-.54.43-.31.39-.22.53-.3.11-.04.22-.09.31-.12l.55-.19,1.07-.34c.52-.16,1-.38,1.52-.53,1.82-.51,3.64-1,5.47-1.43.81-.2,1.61-.46,2.39-.71.5-.17,1.01-.35,1.53-.46.52-.12,1.05-.23,1.62-.14.38.11.35.19.18.59-.09.21-.22.45-.39.72-.17.25-.4.45-.68.59-.96.52-1.99.8-3.01,1.15-1.02.32-2.06.64-3.13.83-1.28.25-2.52.79-3.78,1.21l-2.05.7-.48.18-.2.08s-.06.03-.03,0c.03-.01.05-.03.08-.06l.02-.02s-.07-.1-.11-.14c-.09-.11-.18-.2-.29-.29l-.16-.13-.09-.06h-.01c-.64-.49.86.64.71.53h0s0,0,0,0h0s-.07.09-.07.09c0,0,.03,0-.13-.04-.14-.03-.13-.05-.22-.05-.26-.01-.1.09.14-.3.04-.05.14.07.31.09.16.04.35.07.55.09.4.04.83.03,1.25.01,1.3-.08,2.65-.25,3.94-.58,1-.26,1.93-.7,2.85-1.12.2-.09.39-.21.59-.3.75-.32,1.02-.28,1.46.26.1.12.21.24.3.37.29.43.14.98-.44,1.36-1.7,1.11-3.68,1.67-5.71,2.04-1.54.25-3.01.42-4.85.26v-.06Z"/><path class="cls-3" d="M190.37,94.96c.87.51,1.74,1.04,2.6,1.69.3.27.65.46.94.79.5.54,1,1.24,1.19,2.14.13.42.08.95-.03,1.33-.11.4-.28.75-.49,1.07-.37.56-.8,1.03-1.3,1.4-.62.49-1.4.75-2.16.71-.27-.15-.22-.12-.11-.42.12-.28.33-.65.58-.9.45-.44.84-.8,1.07-1.23.24-.41.36-.87.39-1.14.11-.37-.43-.86-1.01-1.29-.65-.49-1.41-1.01-2.22-1.46-.5-.28-1.01-.56-1.54-.81-.8-.38-1.61-.79-2.45-1.1-.66-.24-1.36-.33-2.06-.52-.15-.04-.32-.06-.46-.11-.55-.23-.62-.52-.4-1.2.05-.16.1-.32.16-.47.22-.5.64-.81,1.06-.8,1.25.06,2.4.49,3.6.98.89.37,1.76.81,2.67,1.26l-.03.06Z"/><path class="cls-3" d="M101.8,90.98c-2.41,5.69-3.43,12.1-2.34,18.22.06.56.21,1.11.35,1.66.14.55.27,1.1.43,1.64l.58,1.59.28.8.35.77c1.56,3.64,3.95,6.92,6.96,9.55.74.68,1.59,1.22,2.38,1.84.4.31.84.54,1.26.81.42.27.86.51,1.32.73.88.49,1.82.86,2.75,1.26.96.33,1.91.7,2.89.94,1.73.51,3.54.76,5.33.93,1.8.07,3.61.12,5.38-.14,1.15-.1,2.26-.39,3.38-.63l1.64-.5c.55-.16,1.06-.42,1.61-.6,2.16-.81,4.08-2,6.26-3.04,1.32-.72,1.11-.69.33.35-.4.5-.79,1.47-1.58,2.32-.75.91-1.85,1.7-3.11,2.48-4.63,2.42-10.02,3.31-15.17,2.73-5.15-.55-10.2-2.35-14.43-5.44-2.55-1.77-4.84-4.03-6.78-6.55-1-1.25-1.79-2.64-2.59-4.02l-1-2.16c-.34-.72-.55-1.49-.82-2.23-2.12-6.62-2.04-13.8-.05-20.32.59-2.02,1.38-3.97,2.29-5.86.45-.95,1.03-1.84,1.54-2.77.58-.88,1.21-1.72,1.82-2.58,1.99-2.48,4.33-4.66,6.87-6.54,2.55-1.88,5.38-3.33,8.31-4.48,4.57-1.71,9.48-2.51,14.41-1.82,1.07.2,2.12.43,3.2.69,3.89,1.34,4.83,2.43,5.14,3.5.07.26.18.54.17.75-.02.36-.44.46-1.15.32-.35-.07-.78-.19-1.26-.37-.48-.18-1.02-.44-1.66-.62-3.69-1.37-7.74-1.85-11.75-1.26-4.01.57-7.95,2.09-11.49,4.29-2.61,1.67-5.01,3.68-7.07,5.99-.49.6-1.04,1.16-1.48,1.79l-1.32,1.89-1.13,2c-.35.69-.64,1.42-.97,2.12l-.08-.02Z"/><path class="cls-3" d="M43.05,237.69c-1.52.98-2.97,2.43-4.24,3.98-.47.57-.85,1.21-1.28,1.8-.76,1.05-1.48,2.15-2.06,3.27-.15.28-.27.56-.39.83-.11.27-.21.5-.27.8-.14.57-.22,1.2-.23,1.84-.04,1.13.09,2.3.36,3.4.16.71.41,1.4.68,2.04.24.66.47,1.33.88,1.86.24.32.14.52-.4.51-.52,0-1.54-.39-2.18-1.23-.92-1.55-1.37-3.21-1.63-4.89-.12-.84-.14-1.7-.08-2.59.06-.85.23-1.85.63-2.71.94-1.9,1.87-3.65,3.03-5.3,1.29-1.78,2.73-3.46,4.47-4.91,1.05-.9,2.36-1.65,3.63-2.13,1.94-.74,3.91-1.14,5.7-1.81,1.39-.52,2.63-1.28,3.63-2.17.22-.2.4-.43.61-.62.72-.79,1.08-.92,1.78-.75.16.04.33.06.48.11.48.16.57.87.05,1.81-.86,1.32-2.16,2.37-3.54,3.11-1.38.75-2.82,1.23-4.2,1.66-2.02.64-3.99,1.14-5.39,2.12l-.04-.05Z"/><path class="cls-3" d="M40.45,249.66c-.46.89-.89,1.92-1.12,2.82-.07.26-.03.59-.04.93-.07,1.25.21,2.63.53,3.97.17.59.42,1.15.73,1.65.2.32.37.65.57.94.1.16.2.27.28.45.1.1.19.29.32.39.17.17.21.22-.06.39-.07.04-.16.09-.29.15-.12.05-.23.05-.39.07-.15.01-.33.01-.47-.01-.08,0-.15-.04-.24-.04-.08-.04-.15-.07-.22-.11-.45-.29-.87-.61-1.21-.97-.29-.38-.56-.78-.78-1.19-.44-.82-.8-1.68-.89-2.61-.13-1.1-.51-2.17-.51-3.4,0-.33.03-.69.09-1.06.06-.34.13-.61.21-.91.16-.59.35-1.16.57-1.73.27-.69.57-1.37.92-2.03.51-1,1.16-1.93,1.81-2.85.51-.71.95-1.5,1.57-2.19.13-.15.26-.32.43-.44.61-.46.97-.37,1.47.21.12.13.24.26.34.41.33.48.36,1.05.13,1.44-.64,1.19-1.45,2.03-2.17,3.15-.54.8-1.06,1.67-1.49,2.6l-.07-.02Z"/><path class="cls-3" d="M55.27,250.96c-.14-.6-.3-1.16-.52-1.63-.12-.22-.24-.46-.39-.64l-.22-.28c-.13-.11-.07-.07-.08-.08-.05-.07-.15-.07-.23-.04,0-.01-.25.12-.4.22-.17.11-.35.24-.53.39-.36.28-.72.6-1.09.95-.33.33-.65.66-.94,1.02-.7.87-1.16,1.86-1.46,2.88-.27.91-.37,1.87-.41,2.91v1.65c-.02.24-.03.78-.1,1.21-.09.44-.24.85-.5,1.19-.52.72-1.46.91-2.31.83-.43-.07-.86-.19-1.25-.41-.4-.22-.66-.42-.91-.67-1.02-.98-1.48-2.21-1.76-3.4-.46-2.14-.31-4.23.09-6.26.27-1.32.91-2.63,1.7-3.69.19-.27.39-.52.59-.77l.67-.67c.43-.45.91-.87,1.33-1.33.55-.57.52-.48.39.22-.16.66-.27,2.18-.96,3.42-.66,1.05-1.06,1.99-1.29,3.05-.26,1.04-.39,2.28-.39,3.38,0,1.12.16,2.23.55,3.13.18.46.45.84.72,1.14.07.08.14.14.21.19l.11.1c.05.05.12.09.21.11.1.02.22.03.31-.03.09-.07.12-.18.14-.3.02-.02.01-.47,0-.85l-.04-1.22c-.07-1.68.25-3.55,1.05-5.15.71-1.44,1.78-2.67,2.89-3.65.55-.5,1.12-1,1.82-1.45.3-.19.87-.51,1.41-.6.54-.12,1.12.02,1.55.34l.56.47c.14.13.25.28.38.43.26.28.44.61.64.92.62,1.09.88,2.23,1.11,3.29l.21,1.02c.07.26.14.54.31.78.11.16.29.27.48.29.42.08.65-.36.75-.7.06-.18.1-.37.14-.56l.05-.29.05-.4c.14-1.38.15-2.8.13-4.23-.02-.63-.03-1.25-.05-1.88l-.02-.96c0-.34-.01-.61.06-1.13.03-.23.11-.45.2-.66.13-.19.26-.38.43-.55.36-.38.6-.53.86-.74.51-.39.97-.73,1.39-1.1.37-.33.68-.67.95-1.02.52-.64.69-1.08.93-1.39.2-.32.47-.5.82-.69.16-.08.32-.21.47-.26.25-.1.47.05.67.5.22.44.2,1.21-.13,2.1-.51,1.32-1.49,2.35-2.43,3.15-.48.4-.96.76-1.36,1.08-.05.04-.1.08-.14.11-.05.04-.08.07-.08.07,0,.01,0,.02-.01.04,0,.02,0,.05.01.06v.63s0,.82,0,.82l.03,1.72c.01,1.17.01,2.37-.05,3.61l-.05.69-.03.35-.05.49c-.12.84-.27,1.71-.57,2.4-.58,1.4-1.49,2.14-2.88,2.16-1.38-.13-2.31-.82-2.92-2.27-.15-.36-.24-.79-.36-1.18l-.24-1.14c-.09-.46-.16-.84-.25-1.23l.06-.02Z"/><path class="cls-3" d="M146.64,217.64c-2.38,1.93-4.43,4.19-6.06,6.75-.88,1.24-1.49,2.65-2.19,4.01l-.82,2.15-.31.82c-.12.36-.21.73-.31,1.09l-.57,2.13-.82.96-.41.48-.2.24-.1.12s-.13.02-.17.02c-.41-.04-.77-.2-1.18-.49-.4-.29-.81-.77-1.2-1.34-.65-.97-1.26-2.13-1.77-3.34l-.27-.69-.21-.57c-.13-.38-.26-.76-.37-1.15-.46-1.55-.76-3.14-.87-4.75-.81-11.55,7.18-22.18,17.01-26.43,4.15-2.19,7.96-4.75,10.54-8.43,1.67-2.36,2.93-4.95,3.42-7.74.26-1.4.29-2.84.32-4.31.05-1.47-.03-2.97,0-4.48.22-1.91.05-1.63.6-.1.29.77.64,1.85,1.04,3.2.19.68.41,1.42.54,2.24.11.82.16,1.71.13,2.64-.07,1.66-.36,3.35-.9,4.95-.53,1.61-1.33,3.09-2.19,4.49-1.75,2.77-4.09,5.34-6.82,7.14-2.7,1.87-5.54,3.18-8.11,4.66-2.59,1.45-4.9,3.14-6.77,5.3-2.29,2.65-4.12,5.84-5.07,9.27-.97,3.43-1.02,7.09-.21,10.53.19.83.44,1.65.73,2.46l.25.65c.06.15.13.3.2.44.15.29.32.6.56.86.02.01.03.03.05.03.01-.01.01-.04.02-.05l.03-.11.07-.23.14-.47c.07-.21.1-.42.2-.63l.54-1.44c.38-1.15.96-2.22,1.5-3.3.49-1.11,1.23-2.09,1.85-3.12.3-.53.71-.98,1.07-1.46l1.13-1.43c1.78-1.97,3.73-3.78,5.85-5.32,2.12-1.54,4.32-2.92,6.52-4.23,3.33-1.99,6.67-3.9,9.4-6.43,2.74-2.53,4.72-5.79,5.59-9.35.69-2.77.73-5.69.42-8.49-.35-2.79-1.15-5.54-2.27-8.15-.48-1.16-1.06-2.23-1.66-3.34-2.33-4.02-3.22-5.18-3.31-6.48-.03-.29-.11-.64-.08-.87.05-.38.5-.29,1.3.22.78.52,1.9,1.5,3.03,2.98,1.67,2.21,3.04,4.7,4.12,7.33,1.06,2.65,1.87,5.46,2.13,8.45.23,2.92.14,5.93-.59,8.92-.72,2.98-2.1,5.87-4.01,8.29-1.38,1.82-3.09,3.37-4.85,4.71-1.76,1.37-3.6,2.46-5.41,3.56-3.61,2.14-7.13,4.16-10.19,6.67l-.06-.05Z"/><path class="cls-3" d="M112.88,252.83c4.69-.09,9.39-.32,14.02-.87,1.69-.2,3.35-.54,5-.84,1.45-.27,2.89-.59,4.24-1.02.68-.21,1.33-.46,1.93-.74.16-.06.3-.14.43-.21l.29-.16c.05-.04.09-.09.14-.15.04-.05.16-.23.23-.36.7-1.19,1.33-2.59,1.91-3.96.59-1.38,1.13-2.79,1.65-4.21.89-2.53,1.71-5.1,2.37-7.68.83-3.31,1.62-6.65,2.08-10.02.22-1.05.31-.93.62,0,.29.92.63,2.69.48,4.72-.56,7.23-2.55,14.12-5.62,20.75-.24.5-.49,1-.77,1.52-.15.27-.27.5-.49.83-.24.39-.56.73-.92.99-1.19.79-2.23,1.17-3.34,1.57-2.19.76-4.39,1.25-6.58,1.63-4.81.79-9.62,1.14-14.43,1.36-2.96.13-5.92.18-8.87.2-4.48.03-8.97-.12-13.41-.28-1.11-.03-2.22-.07-3.32-.1l-1.65-.05c-.21,0-.71-.05-1.1-.08-.39-.06-.8-.11-1.22-.12l-1.05-.38c-.17-.08-.38-.08-.47-.27-.09-.17-.13-.32-.15-.49-.11-.64.13-1.53.59-2.41.24-.5.48-.99.72-1.48.17-.34.35-.68.54-1.02,1.43-2.47,2.17-3.12,3.11-3.19.22-.01.46-.06.64-.02.59.15.3,1.25-.59,3.05-.27.55-.53,1.1-.8,1.65-.23.5-.62,1.32-.53,1.23-.01.1,0,.17,0,.23-.02.09.17,0,.25-.05v.04s.02-.02.03-.03c.04-.03.01-.01.06-.02.46,0,.91.04,1.37.06.92.04,1.84.08,2.76.13,1.86.06,3.73.12,5.6.18,4.72.11,9.47.15,14.2-.01v.08Z"/><path class="cls-3" d="M158.47,244.31c-.82.01-1.63,0-2.44-.02-.29,0-.58.07-.87.05-1.04-.05-2.07-.16-3.08-.23-.45-.02-.9-.03-1.35-.02-.57-.01-1.16.13-1.72-.27-.18-.11-.14-.39.02-.75.08-.18.19-.39.32-.59.13-.22.27-.36.43-.38.55-.1,1.1-.2,1.65-.25.55-.03,1.12.02,1.69.1.69.11,1.38-.1,2.06-.17.76-.07,1.52-.14,2.27-.22.46-.06.93-.1,1.39-.18.7-.11,1.41-.2,2.06-.45.51-.19.94-.56,1.36-.89.09-.07.17-.17.27-.22.35-.21.57-.02,1,.66l.3.47c.31.54.36,1.09.11,1.45-.79.97-1.91,1.35-3,1.61-.81.18-1.64.28-2.46.35v-.07Z"/><path class="cls-3" d="M90.44,436.87c.09.31.2.59.28.91l.19.71c.06.26.09.52.12.78.19,1.05.04,2-.42,2.76-.1.2-.28.36-.41.54-.18.14-.37.28-.56.38-.21.08-.38.22-.61.24l-.68.1c-.22.05-.49-.02-.73-.03-.25-.03-.49-.02-.74-.09l-.75-.19c-.24-.06-.53-.13-.68-.2-2.47-.95-4.4-2.34-6.29-3.79-1.36-1.07-2.7-2.14-3.91-3.35-2.13-2.14-4.09-4.43-5.8-6.92-1.71-2.48-3.22-5.14-4.16-8.11-.4-1.32-.67-2.7-.69-4.14-.03-1.45.3-2.88.77-4.16.6-1.66,1.44-3.17,2.39-4.57.47-.7.97-1.38,1.49-2.03.5-.67,1.11-1.25,1.64-1.87.68-.74.76-.59.62.37-.07.47-.22,1.14-.4,1.92-.22.76-.56,1.58-.99,2.4-1.45,2.93-2.94,5.79-2.54,8.42.07.69.24,1.4.44,2.12.19.72.43,1.45.7,2.18.57,1.45,1.3,2.89,2.11,4.3,1.98,3.38,4.87,6.41,7.87,9.1,1.65,1.48,3.4,2.86,5.25,3.98.46.28.93.54,1.4.77.24.1.47.24.71.32.24.09.51.21.57.22.23.08.47.14.73.15.13,0,.26-.02.36-.1.09-.09.14-.21.15-.34.03-.33-.02-.58-.12-.99-.18-.62-.4-1.26-.66-1.89-.5-1.27-1.09-2.52-1.71-3.77-1.88-3.78-3.98-7.51-6.08-11.22-.4-.73-.81-1.45-1.21-2.2-.2-.39-.39-.75-.57-1.23-.1-.24-.15-.47-.21-.71-.07-.24-.11-.47-.14-.7-.27-1.87.02-3.65.5-5.33.21-.75.45-1.46.75-2.18.59-1.32,1.15-2.11,1.66-2.58.5-.48.98-.61,1.49-.57.23.02.48,0,.66.07.57.24.31,1.31-.42,2.93-.52,1.23-.96,2.53-1.22,3.83-.27,1.29-.39,2.61-.21,3.64.07.71.94,2.16,1.62,3.43.75,1.32,1.5,2.65,2.25,3.99,1.12,2,2.24,4.02,3.31,6.1,1.06,2.09,2.1,4.18,2.95,6.54l-.07.03Z"/><path class="cls-3" d="M232.24,328.68c-.22,7.38-.71,14.74-1.59,22.08-.45,3.67-.98,7.34-1.72,10.99-.39,1.83-.77,3.66-1.34,5.49-.12.46-.28.92-.44,1.38-.15.46-.31.92-.52,1.39-.2.46-.38.92-.67,1.41-.14.24-.26.47-.41.71-.19.26-.4.51-.6.75-4.39,4.22-9.99,5.95-15.44,6.71-4.84.63-9.7.57-14.48-.04-4.77-.58-9.55-1.66-14.01-3.69-2.21-1.01-4.35-2.21-6.33-3.69-1.96-1.49-3.85-3.25-5.05-5.66-.6-1.19-.93-2.59-.99-3.84-.1-1.27-.04-2.49.04-3.7.18-2.42.56-4.78,1-7.12,1.6-8.28,3.87-16.4,5.9-24.42.5-1.95.98-3.91,1.41-5.86.21-.97.41-1.95.57-2.91.07-.48.14-.95.17-1.39.02-.27.01-.33,0-.43-.01-.1-.02-.21-.11-.28-.11-.14-.21-.18-.54-.44-.33-.2-.63-.41-.98-.6-.68-.39-1.4-.76-2.13-1.13-1.45-.72-2.95-1.4-4.45-2.07-3-1.34-6.07-2.53-9.05-3.94-2.99-1.42-2.55-1.43.32-1.12,2.9.26,8.06,1.33,13.79,3.89.91.41,1.81.83,2.72,1.32.45.23.92.5,1.39.79.12.07.23.14.36.24l.43.31c.39.25.67.67,1.02.99.68.96.53,2.59.47,3.09-.07.71-.18,1.36-.3,2.01-.24,1.28-.52,2.51-.81,3.73-.59,2.44-1.22,4.85-1.85,7.25-1.27,4.8-2.55,9.56-3.7,14.35-1.11,4.78-2.23,9.6-2.62,14.32-.08,1.17-.12,2.34,0,3.4.1,1.06.41,1.89.92,2.82.51.9,1.22,1.76,2.04,2.55.82.79,1.71,1.53,2.69,2.2,2.55,1.76,5.45,3.22,8.49,4.19,3.05,1,6.28,1.64,9.54,2.03,3.26.38,6.57.46,9.84.26,3.27-.21,6.51-.73,9.56-1.7.81-.32,1.65-.59,2.45-.94l1.17-.57c.39-.18.78-.37,1.13-.62.71-.47,1.47-.88,2.08-1.47l.97-.81c.17-.27.38-.43.56-.82.75-1.37,1.28-3.12,1.74-4.84.44-1.74.82-3.51,1.13-5.31,1.26-7.18,1.96-14.5,2.42-21.82.54-9.02.68-18.08.22-27.09-.38-6.81-1-13.67-2.66-20.21-.41-1.63-.94-3.23-1.56-4.74-.58-1.34-1.71-2.54-2.95-3.58-1.24-1.05-2.62-2-4.06-2.85-1.43-.87-2.92-1.65-4.43-2.4-2.35-1.17-4.75-2.24-7.16-3.33-1.2-.54-2.43-1.12-3.6-1.72l-3.51-1.78c-4.67-2.37-9.33-4.73-14-7.1-2.06-1.03-4.08-2.03-6.16-3.07-7.69-3.85-10.08-5.19-11.32-6.9-.29-.38-.7-.81-.83-1.11-.46-.97,3.05-.15,8.83,2.47,4.29,1.93,8.6,4,12.9,6.16,4.29,2.17,8.59,4.42,12.92,6.67,1.08.56,2.16,1.13,3.25,1.69,1.05.54,2.1,1.05,3.21,1.56,2.21,1.03,4.47,2.06,6.73,3.19,2.26,1.13,4.51,2.35,6.71,3.82.55.36,1.1.75,1.63,1.16.54.39,1.07.85,1.59,1.31.53.43,1.01,1.01,1.52,1.52.24.27.47.6.7.9.23.31.46.6.65.97.66,1.13.92,2.01,1.29,2.95.32.93.6,1.87.87,2.8.49,1.87.91,3.74,1.23,5.61.66,3.74,1.08,7.48,1.38,11.22.56,7.48.67,14.95.49,22.4l-.09.02Z"/><path class="cls-3" d="M234.52,395.58c-.13.44-.4.81-.68,1.17-.34.31-.67.65-1.06.89l-.49.28c-.15.09-.28.14-.42.2-.28.12-.56.25-.82.33-1.08.39-2.12.62-3.15.81-2.07.38-4.1.57-6.13.7-1.48.09-2.96.23-4.43.23-2.61,0-5.2-.1-7.81-.34-1.3-.12-2.6-.28-3.92-.54-.66-.14-1.32-.28-2.03-.54-.81-.35-1.46-.88-1.91-1.41-.86-.95-1.5-1.95-2.1-2.96-.61-1-1.15-2.02-1.68-3.03-1.32-2.62-2.44-5.3-3.46-7.97-.34-.82-.12-.85.57-.35.35.24.79.63,1.3,1.12.52.48,1.05,1.09,1.48,1.81.77,1.28,1.56,2.53,2.29,3.79.67,1.28,1.35,2.56,2.08,3.73.37.58.75,1.13,1.14,1.63.38.44.83.91,1.06,1,.03.05.17.1.32.14.13.05.28.09.44.14.3.1.64.17.97.25.68.15,1.38.28,2.1.39,3.43.54,7.14.42,10.72.29,1.97-.08,3.95-.2,5.89-.44,1.93-.25,3.89-.57,5.57-1.22.26-.11.52-.22.73-.35.16-.08.26-.16.38-.26.23-.2.31-.56.16-.84-.13-.28-.27-.43-.72-.73-.39-.27-.9-.47-1.4-.66-1.64-.58-3.47-.91-5.3-1.22-1.85-.29-3.71-.57-5.55-.85-2.87-.49-5.8-.79-8.67-2.3-.31-.19-.62-.36-.92-.57-.29-.23-.6-.43-.87-.72-1.04-1.01-1.42-2.03-1.48-2.7-.07-.69.15-1.11.53-1.43.17-.15.34-.31.52-.39.66-.24,1.13.65,1.85,1.61,1.14,1.42,3.36,2.19,5.74,2.77,2.4.58,5.01.96,7.68,1.37,1.78.28,3.6.57,5.47,1.04.94.24,1.9.53,2.91.99.5.23,1.02.51,1.54.92l.45.38c.15.15.27.34.41.51.13.17.27.34.39.52l.31.57.09.27c0,.1.03.19.04.29l.11.57c.02.19-.01.38-.03.57,0,.19-.05.38-.13.56h-.07Z"/><path class="cls-3" d="M261.44,159.58c1.11-1.09,2.1-2.4,2.85-3.81.28-.51.42-1.08.64-1.6.4-.93.67-1.89.74-2.84.03-.47,0-.94-.1-1.38-.04-.23-.11-.44-.21-.64-.02-.05-.04-.12-.06-.15-.01-.02-.03-.04-.04-.06,0-.05-.07-.09-.12-.15-.46-.39-1.48-.6-2.37-.61-1.2-.04-2.36.24-3.6.13-.33.04-.41.03-.22-.39.1-.2.28-.45.49-.84.24-.32.59-.54.98-.7.69-.28,1.42-.35,2.15-.44.74-.07,1.49-.06,2.33.09.42.08.85.23,1.31.48.22.1.48.33.7.5.21.21.49.56.59.77.42.77.61,1.62.67,2.42.11,1.92-.12,3.75-.75,5.41-.72,1.79-1.74,3.4-2.93,4.86-.74.89-1.57,1.72-2.5,2.46-.71.56-1.49,1.06-2.43,1.39-.47.16-.99.28-1.55.26-.61,0-1.17-.2-1.66-.52-.76-.49-1.3-1.34-1.42-2.27-.13-.85-.05-1.62.1-2.34.07-.31.13-.63.24-.93.2-.56.43-.87.72-1.02.28-.15.57-.16.96-.06.18.05.35.08.51.15.52.24.72.82.68,1.53-.09.5-.17.99-.2,1.43-.04.43,0,.85.06,1,.04.03.09.01.1,0,0,.01,0,0,0,0,.01,0-.03-.02,0-.01,0,.02.07-.02.11,0,.3-.02.92-.3,1.48-.69.58-.39,1.16-.9,1.69-1.47l.06.05Z"/><path class="cls-3" d="M264.66,162.55c.98-.7,1.98-1.44,2.81-2.32.31-.32.54-.7.8-1.03.95-1.18,1.67-2.57,1.53-3.93-.08-.62-.38-1.15-.83-1.44-.56-.41-1.49-.49-2.36-.4-.23.03-.34-.1-.18-.42.17-.3.6-.79,1.28-.96.59-.13,1.28-.15,1.99.09.72.21,1.31.82,1.67,1.42.68,1.16.84,2.63.42,3.76-.44,1.37-.99,2.63-1.76,3.71-.85,1.17-1.86,2.18-2.95,3.07-.68.54-1.39,1.03-2.12,1.49-1.12.69-2.3,1.27-3.67,1.65-.27.08-.55.13-.86.17-.35.04-.71.02-1.06-.06-.71-.14-1.31-.65-1.71-1.31-.17-.29-.31-.53-.39-.84-.28-1.16.25-1.71.95-1.59.17.02.33.04.48.1.25.1.43.28.6.4.18.14.34.22.42.33.11.14.32.38.4.37.1.01.16-.02.2-.05.03-.01,0-.04.02-.05.09-.02.19-.04.33-.08.26-.07.59-.2.92-.34.99-.44,2.05-1.06,3.01-1.79l.04.05Z"/><path class="cls-3" d="M266.15,165.96c1.01-.44,2.01-1,2.89-1.69.33-.24.56-.57.88-.83.51-.47,1.04-.95,1.4-1.51.22-.27.32-.56.47-.85.06-.15.07-.29.12-.44.05-.16.07-.3.07-.45.01-.59-.15-1.27-.35-1.88-.14-.39-.23-.8-.38-1.18-.14-.37-.29-.77-.58-.99-.18-.12-.21-.2.09-.29.28-.08.98.03,1.48.45.42.37.81.76,1.1,1.21.24.46.43.94.59,1.44.15.49.29,1.07.19,1.74-.05.31-.08.63-.17.91-.1.27-.21.55-.33.81-.64,1.18-1.29,2.28-2.17,3.16-.98.94-2.06,1.71-3.2,2.36-.71.39-1.44.75-2.21,1.05-.58.23-1.18.41-1.83.52-.63.13-1.36.17-2.14-.03-1-.3-2.06-.83-2.75-1.81-.15-.21-.31-.42-.4-.67-.31-.93-.07-1.28.56-1.49.15-.05.29-.1.44-.13.51-.08.93.18,1.2.47.44.43.75.67,1.15.86.19.09.4.17.63.23h.02s.01,0,.01,0h0c-.15.47-.04.13-.08.23h0s0-.01,0-.01v-.02s.07-.16.07-.16c.03-.1.02-.04.03-.06.01,0,.02,0,.03,0,.1-.02.2-.03.3-.03.77-.13,1.85-.5,2.82-.98l.03.06Z"/><path class="cls-3" d="M314.75,390.24c-5.04-.15-10.08-.36-15.15-.71-1.27-.08-2.54-.18-3.83-.31l-.98-.11c-.35-.06-.57-.06-1.23-.19-.28-.05-.56-.1-.82-.19-.27-.07-.54-.14-.76-.26-.25-.1-.45-.24-.64-.38-.1-.06-.17-.17-.26-.25l-.03-.03-.02-.02s.12-.09.06-.06h0s-.05-.08-.05-.08l-.1-.14c-.29-.35-.28-.92-.27-1.46,0-.27.04-.55.06-.83l.08-.73.27-1.91.61-3.76c.62-3.64,1.2-7.27,1.92-10.88l.91-4.39.49-2.2.13-.57.23-.92c.08-.3.18-.6.31-.87.15-.25.3-.46.48-.69.46-.17.84-.38,1.38-.42.26-.04.5-.09.76-.11l.67-.04,1.89-.07,3.75-.09,7.48-.09c4.99-.03,9.97-.05,14.95,0,5.74,0,11.51,0,17.21.01h5.5c1.83.02,3.67.06,5.5.12,3.67.13,7.34.25,10.97,1,2.26.54,1.96.38.01.77-.97.19-2.36.6-4.01.85-.83.14-1.73.31-2.69.41-.95.08-1.96.13-3.02.15l-5.59.1c-1.86.04-3.72,0-5.59,0-3.73,0-7.46-.02-11.19-.02-3.73-.01-7.47-.02-11.21-.03-3.74-.04-7.49-.08-11.25-.12-2.37-.03-4.76-.01-7.16.03-1.2.03-2.4.07-3.61.1l-1.79.09-.38.02c-.1.01-.2,0-.29.04-.07.16-.1.33-.15.5l-.35,1.55-.66,3.19c-.42,2.14-.84,4.28-1.25,6.41-.47,2.48-.93,4.96-1.36,7.44-.21,1.24-.42,2.48-.6,3.71l-.19,1.43c-.01.12-.03.24-.03.37-.03.15.16.16.25.2.12.04.24.06.36.09l.67.11c.6.09,1.21.17,1.83.24,1.24.14,2.49.25,3.74.35,2.51.17,5.03.29,7.55.39,6.21.24,12.44.37,18.66.39,9.42.01,18.91-.02,28.23-.59,1.71-.11,3.41-.24,5.07-.43.83-.09,1.66-.2,2.47-.34.38-.06.85-.16,1.11-.22.2-.06.42-.11.57-.25.05-.11.09-.22.13-.34l.15-.5.39-1.34c.25-.9.49-1.81.72-2.73.45-1.83.88-3.66,1.26-5.5.33-1.53.57-3.05.85-4.59,1.02-5.74,1.26-7.46,2.27-8.69.21-.28.42-.66.62-.84.34-.29.64.15.94,1.29.29,1.13.34,2.91.14,5.13-.31,3.32-.95,6.6-1.69,9.88-.38,1.64-.79,3.28-1.25,4.92-.23.82-.46,1.64-.72,2.47-.12.41-.26.83-.4,1.26l-.05.16c-.03.08-.06.17-.1.27l-.26.54c-.17.37-.35.72-.56,1.04-.32.22-.59.5-.97.64-.35.17-.75.27-1.14.38-.22.06-.37.08-.47.1l-.35.07-.68.11c-.89.14-1.75.23-2.6.32-1.71.17-3.41.29-5.11.39-3.4.19-6.79.31-10.19.39-10.16.23-20.35.12-30.53-.09v-.08Z"/><path class="cls-3" d="M440.96,273.11c.05-1.54.07-3.09.01-4.64-.03-.57-.12-1.12-.17-1.69-.1-2-.33-4.01-.58-6.03-.12-.9-.29-1.79-.51-2.66-.3-1.11-.47-2.26-.61-3.44-.03-.37.08-.36.36-.13.27.23.78.66,1.17,1.25,1.26,2.11,2.14,4.4,2.4,6.84.1,1.47.51,2.93.69,4.42.17,1.64.3,3.28.27,4.92,0,1.01-.04,2.02-.08,3.03-.05,1.53-.23,3.05-.37,4.55-.1,1.17-.07,2.33-.16,3.49-.02.26,0,.51-.06.76-.19.94-.43,1.21-1.06,1.3-.14.02-.29.06-.43.06-.46.01-.79-.43-.89-1.13-.3-2.08-.21-4.16-.23-6.25.03-1.55.18-3.09.15-4.64h.08Z"/><path class="cls-3" d="M399.08,221.2c-1.01,1.85-.98,4.45-.14,6.87.29.89.75,1.72,1.21,2.54.79,1.47,1.81,2.75,3.13,3.87,1.31,1.11,2.85,2.05,4.45,2.9,1.42.78,2.93,1.45,4.43,2.14,1.94.83,3.87,1.88,5.45,3.39.5.46.27.62-.39.64-.34.02-.78,0-1.3-.03-.53,0-1.09-.1-1.65-.29-.5-.17-.99-.34-1.49-.5-.5-.16-.97-.39-1.47-.57l-2.97-1.21c-2.01-.82-3.99-1.93-5.86-3.33-1.1-.86-2.22-1.78-3.23-2.84-1.03-1.07-1.88-2.27-2.54-3.55-.73-1.41-1.28-2.92-1.56-4.51-.29-1.58-.33-3.26.06-4.89.43-2.02,1.63-3.86,3.15-5.17l.89-.7c.3-.23.64-.39.95-.58.61-.37,1.37-.73,2.13-.91,1.54-.39,3.11-.3,4.55.05,1.13.27,2.22.65,3.24,1.2,1.02.53,2.01,1.19,2.84,2.06.39.35.72.78,1.06,1.21.26.44.48.81.59,1.16.1.35.14.65.13.9-.03.51-.29.85-.69,1.13-.19.13-.36.27-.56.35-.33.13-.67.04-1-.15-.16-.1-.31-.22-.46-.37-.17-.14-.34-.31-.48-.5-.88-1.15-2.06-2.13-3.41-2.82-.67-.36-1.38-.63-2.09-.79-.71-.19-1.41-.24-2.05-.18-.24.02-.48.04-.69.11-.23.03-.43.13-.64.21-.19.04-.47.25-.71.38-.24.15-.53.27-.73.45-.96.63-1.62,1.45-2.1,2.39l-.08-.03Z"/><path class="cls-3" d="M494.17,221.4c.14.8.16,1.59.13,2.36-.08.73-.18,1.44-.28,2.16-.29,1.42-.72,2.82-1.39,4.11-.19.49-.49.93-.75,1.38-.27.45-.52.92-.88,1.29l-.9,1.02c-.31.32-.66.6-.99.9-.64.62-1.38,1.09-2.07,1.61-1.45.93-2.91,1.78-4.38,2.53-1.31.68-2.56,1.42-3.8,2.12-1.61.89-3.09,1.85-4.56,2.89-.47.33-.55.19-.41-.35.07-.27.18-.66.36-1.12.2-.43.48-.91.89-1.33,2.85-2.94,6.39-4.41,9.41-6.37,1.85-1.14,3.39-2.77,4.48-4.52,1.23-1.91,1.82-4.19,1.87-6.52,0-1.36-.34-2.68-1.1-3.79-.56-.85-1.33-1.58-2.21-2.19-.44-.3-.92-.57-1.41-.81-.49-.23-.93-.38-1.43-.46-1.54-.25-3.09.35-4.51,1.12-.32.17-.61.39-.92.56-1.16.7-1.71.65-2.5,0-.18-.15-.38-.29-.54-.45-.53-.54-.37-1.44.52-2.29,1.37-1.16,3.09-2.15,5.21-2.57,1.05-.21,2.21-.26,3.38-.06.58.09,1.16.25,1.72.47.59.21.97.42,1.46.67,1.36.73,2.63,1.77,3.66,3.07,1.04,1.3,1.75,2.9,2.05,4.52l-.09.02Z"/><path class="cls-3" d="M189.31,61.81c.4,2.64.2,5.27-.41,7.77-.59,2.52-1.75,4.97-3.4,7.03-1.63,2.08-3.72,3.68-5.9,4.92-2.18,1.26-4.47,2.14-6.74,2.94-3.3,1.15-6.61,2.14-9.52,3.45-1.27.58-2.4,1.29-3.13,2.15-.38.42-.62.89-.79,1.4-.16.55-.21.96-.15,1.6.13,1.24.59,2.63,1.09,4.01l1.61,4.24c.52,1.45,1.04,2.94,1.32,4.6.13.83.2,1.71.06,2.65-.13.93-.57,1.95-1.31,2.68-.18.18-.38.33-.58.49l-.61.37c-.43.22-.89.39-1.37.5-.96.21-1.93.11-2.76-.12-1.69-.47-3.04-1.3-4.36-2.08-2.3-1.4-4.53-2.91-6.89-3.4-2.27-.51-4.79.42-5.61,2.39-.58,1.27-.62,2.86-.3,4.31.17.73.43,1.43.79,2.06l.28.46.32.42c.24.27.49.58.78.83,1.09,1.07,2.37,1.97,3.8,2.48.71.25,1.44.43,2.18.47.74.06,1.5.12,2.28-.02.25-.04.46-.08.64-.11.18-.05.32-.08.44-.11.24-.05.36-.06.37-.02.01.05-.08.15-.26.34-.17.2-.45.44-.83.75-.38.32-.9.64-1.56.97-.66.39-1.5.47-2.42.51-1.84.06-4-.58-5.88-1.94-.85-.61-1.53-1.34-2.21-2.18-.71-.9-1.2-1.89-1.54-2.91-.67-2.03-.82-4.2-.2-6.38.31-1.08.85-2.17,1.69-3.08.22-.22.45-.43.68-.64.24-.19.51-.36.77-.54.52-.3.99-.53,1.54-.72,1.07-.38,2.24-.53,3.35-.46,1.11.07,2.15.34,3.09.69,1.89.71,3.45,1.72,4.96,2.62,1.49.91,2.93,1.83,4.28,2.32,1.35.49,2.33.35,3.09-.34.29-.29.48-.68.53-1.33.05-.62-.04-1.38-.2-2.15-.41-1.86-1.21-3.81-2-5.79-.78-2.01-1.7-4.01-2.07-6.51-.08-.62-.1-1.35.04-2.06.08-.33.15-.67.25-1l.41-.96c.65-1.24,1.63-2.18,2.64-2.89,2.03-1.42,4.18-2.16,6.25-2.87,4.56-1.49,9.06-2.75,12.88-5.12,1.88-1.19,3.55-2.66,4.8-4.43,1.23-1.79,2.04-3.86,2.44-6.04.53-2.69.43-5.48-.44-8.01-.84-2.56-2.53-4.79-4.61-6.59-1.57-1.36-3.41-2.49-5.31-3.37-1.89-.88-3.95-1.45-6.04-1.75-4.19-.59-8.56-.13-12.53,1.29-1.54.57-3.02,1.26-4.39,2.11-1.36.87-2.61,1.85-3.72,2.99-1.09,1.16-2.06,2.42-2.88,3.78-.8,1.37-1.5,2.8-2.03,4.31-.45,1.32-.8,2.65-1.03,4.03-.45,2.56-.43,4.27-.53,5.48-.03,1.2-.24,1.94-.53,2.59-.14.3-.25.69-.4.89-.25.34-.61-.01-1.1-1-.48-.98-.86-2.66-.88-4.83-.04-6.43,2.5-13.09,7.42-17.97,2.49-2.46,5.56-4.2,8.76-5.42,3.23-1.16,6.64-1.84,10.1-1.86,2.56-.03,5.15.26,7.67.95.63.16,1.26.36,1.87.6.62.2,1.23.48,1.83.76,1.2.55,2.29,1.2,3.38,1.9,2.15,1.45,4.18,3.21,5.74,5.42,1.58,2.18,2.68,4.77,3.08,7.45l-.08.03Z"/><path class="cls-3" d="M186.64,128.74c1.88-2.65,3.26-5.68,3.9-8.9.25-1.17.29-2.37.37-3.56.11-2.11-.03-4.26-.48-6.34-.44-2.1-1.14-4.18-2.02-6.19-.78-1.78-1.72-3.51-2.75-5.15-1.4-2.06-2.76-4.11-4.14-6.26-.4-.71-.35-.61.29-.31.68.27,1.94.83,3.08,1.86,3.84,3.81,6.3,8.75,7.64,14.02.79,3.17,1.32,6.59,1.04,9.94-.33,3.68-1.47,7.27-3.26,10.46-1.1,1.96-2.45,3.77-3.95,5.42-2.3,2.59-5.29,4.34-8,6.07-2.12,1.36-4.03,2.86-5.7,4.55-.38.36-.7.76-1.07,1.13-1.33,1.41-1.84,1.77-2.75,1.62-.2-.03-.43-.03-.6-.09-.3-.1-.42-.39-.36-.83.07-.44.26-1.07.74-1.72,1.32-1.99,3.15-3.72,5.11-5.15,1.96-1.44,4.04-2.63,5.91-3.87,1.4-.92,2.69-1.88,3.81-2.98,1.14-1.12,2.21-2.41,3.12-3.76l.06.04Z"/><path class="cls-3" d="M171.88,156.29c.42-1.34.74-2.78,1-4.25.13-.72.25-1.5.36-2.2.02-.17.04-.32.05-.46,0-.05.01-.09.01-.13,0-.08,0-.19-.06-.26-.05-.04-.12-.06-.18-.08l-.54-.15c-.52-.14-1.05-.26-1.58-.43-3.76-1.14-7.59-2.25-11.33-3.59-1.66-.6-3.34-1.18-4.97-1.84-2.07-.86-4.24-1.7-5.94-3.29-.5-.53-.38-.51.26-.42.39.07.82.14,1.26.22.25.05.54.08.82.16.27.09.56.18.85.3,4.1,1.67,8.51,2.55,12.82,4,2.6.84,5.4,1.26,8.17,1.97l.58.16.73.22c.29.12.61.19.86.37.29.12.43.39.67.58.31.51.45,1.14.48,1.76,0,.16,0,.31,0,.48l-.02.35-.07.63c-.21,1.55-.45,3.1-.78,4.66-.42,1.89-.97,3.89-2.01,5.65-1.41,2.66-3.66,5.05-6.47,6.4-2.17,1.01-4.49,1.62-6.78,1.68-.51.03-1,.05-1.5.03-1.86-.09-2.42-.38-2.77-1.07-.08-.16-.18-.32-.22-.47-.13-.52.64-.89,1.93-1.07,3.88-.59,7.51-1.16,10.06-3.31.96-.8,1.82-1.8,2.55-2.95.33-.58.74-1.23.99-1.77.27-.58.5-1.24.69-1.91l.08.02Z"/><path class="cls-3" d="M69.62,240.46c-2.9-1.11-5.69-2.54-8.23-4.37-2.54-1.81-4.86-4.04-6.66-6.7-1.82-2.64-3-5.79-3.31-9.03l-.08-1.21v-1.21c0-.41.07-.8.09-1.21l.05-.6.11-.65c.33-1.72,1.02-3.23,1.81-4.61,2.39-3.99,5.48-7.19,8.72-10.15,5.76-5.16,11.98-9.62,18.27-13.93,6.3-4.3,12.71-8.39,19.13-12.47,5.69-3.62,11.37-7.31,16.89-11.04,3.53-2.41,7.04-4.9,10.3-7.58.81-.68,1.6-1.36,2.34-2.08.75-.7,1.47-1.43,2.01-2.18.57-.84,1.08-1.72,1.46-2.63.38-.91.76-1.84.84-2.83.12-1.24-.07-1.81.06-1.81.08.01.47.55.77,1.72.28,1.14.51,3.05-.22,5.08-.16.51-.36,1.03-.6,1.55-.23.53-.58,1.12-.93,1.64-.35.52-.75,1.01-1.16,1.51-.44.46-.89.92-1.37,1.35-3.41,3.05-7.01,5.62-10.64,8.16-3.63,2.52-7.3,4.95-11.02,7.3-7.43,4.72-14.91,9.33-22.32,14.12-4.43,2.86-8.84,5.93-13.12,9.21-4.27,3.28-8.44,6.75-12.1,10.55-1.98,2.1-3.86,4.33-5.12,6.77-.63,1.23-1.07,2.45-1.18,3.76-.17,1.37-.12,2.76.08,4.11.39,2.72,1.57,5.31,3.26,7.55,1.68,2.26,3.84,4.17,6.23,5.76,2.94,1.95,6.23,3.43,9.65,4.38,3.42.94,7.01,1.38,10.32.49,5.11-1.38,9.74-4.57,13.96-7.99,4.23-3.47,8.09-7.41,11.72-11.49,5.6-6.39,10.41-13.25,14.73-20.41.94-1.58,1.8-3.16,2.7-4.78,1.65-3,2.62-5.01,3.41-6.37.42-.67.77-1.19,1.1-1.61.34-.42.67-.74.99-1.02.3-.25.63-.62.89-.75.78-.53.84,2.65-1.3,7.46-3.2,7.06-7.41,13.76-12.13,20.2-2.37,3.22-4.9,6.36-7.58,9.4-2.67,3.05-5.51,5.98-8.57,8.72-2.28,2.03-4.65,3.97-7.18,5.75-2.53,1.77-5.21,3.4-8.17,4.64-1.49.59-3.03,1.13-4.67,1.44l-1.24.21c-.41.07-.85.06-1.27.09-.87.07-1.68.04-2.48-.03-3.22-.28-6.31-.99-9.25-2.1v-.08Z"/><path class="cls-3" d="M250.75,148.05c.4-.27.89-.49,1.37-.69.23-.11.48-.2.75-.27l.94-.25c.63-.09,1.29,0,1.87.27.63.28.92.5,1.29.77.68.52,1.24,1.08,1.76,1.65.6.67,1.21,1.31,1.71,2.06.85,1.33,1.62,2.7,1.96,4.48.04.23.06.45.08.73,0,.29,0,.58-.05.86-.1.56-.33,1.1-.71,1.51l-.31.29-.36.21c-.23.16-.5.26-.76.34-.25.11-.55.11-.83.15-.24.03-.47,0-.69,0-.79-.06-1.52-.25-2.2-.52-.68-.25-1.31-.6-1.9-.99-.74-.53-1.41-1.17-1.93-1.93-.58-.72-.72-1.73-.76-2.6,0-.56.11-.48.5-.16.19.16.48.37.85.56.18.1.36.19.57.28.11.04.19.1.3.13.06.07.13.13.21.19.47.47,1.06.84,1.64,1.14.57.31,1.14.63,1.73.78.29.08.57.14.83.17.13.02.24,0,.36.02.05,0,.11-.02.12,0,0,0,0,.04.02.03.11.05.34.02.44-.18.08-.03.05-.49-.05-.86-.11-.39-.28-.8-.48-1.2-.42-.81-.97-1.59-1.54-2.34-.53-.7-1.11-1.37-1.72-1.94-.31-.28-.63-.54-.92-.73-.23-.14-.37-.23-.59-.19-.11.03-.46.09-.72.19-1.09.38-2.15,1.16-3.11,2.06-1.47,1.35-2.83,2.96-4.14,4.59-1.02,1.27-1.9,2.65-3.08,3.91-.27.27-.52.56-.81.82-.6.44-1,.73-1.4.75-.4.01-.68-.12-.97-.38-.13-.12-.27-.23-.37-.35-.3-.42-.09-1.14.47-1.73,1.71-1.81,3.34-4.22,5.28-6.61,1.47-1.76,3.03-3.61,5.32-5.09l.04.06Z"/><path class="cls-3" d="M238.03,162.68c1.29.47,2.55,1.17,3.64,2.13.26.25.54.5.77.75l.63.71c.4.49.8.97,1.17,1.49,1.49,2.04,2.64,4.35,3.29,6.86.32,1.25.51,2.55.52,3.87,0,.66-.04,1.32-.12,1.98l-.17.98-.22.89c-.57,2.37-1.39,4.68-2.46,6.85-1.51,3.19-3.44,6.14-5.66,8.81-3.96,4.69-8.7,8.58-13.79,11.83-5.11,3.21-10.6,5.84-16.42,7.52-2.59.71-5.25,1.3-8.03,1.35-2.74.03-5.43-.29-8.04-.92-3.34-.82-6.64-2-9.58-3.84-2.97-1.76-5.62-4.1-7.67-6.85-1.08-1.87-.89-1.61.58-.56.76.5,1.77,1.24,3.04,2.02,1.29.76,2.74,1.65,4.35,2.55,1.42.81,2.9,1.49,4.4,2.12,1.49.65,3.03,1.18,4.6,1.59,1.56.44,3.17.71,4.77.91,1.61.18,3.23.25,4.77.12,3.16-.27,6.38-1.19,9.51-2.31,3.12-1.16,6.19-2.56,9.13-4.2,7.06-3.9,13.58-9.57,18.22-16.29,2.55-3.68,4.46-7.8,5.37-12.13.85-4.06-.8-8.49-3.52-11.85-.41-.51-.88-1.07-1.32-1.48-.21-.22-.44-.42-.69-.59-.23-.2-.5-.35-.77-.51-1.07-.62-2.32-.99-3.62-1.18-2.6-.35-5.39-.08-7.97.73l-1.46.48c-.48.18-.95.41-1.42.61-.48.2-.95.42-1.4.68l-1.38.75c-1.8,1.09-3.56,2.29-5.29,3.57-3.48,2.53-6.97,5.28-11.06,7.12-3.16,1.44-6.64,2.24-10.12,2.2-.87-.05-1.72-.05-2.61-.14-.91-.12-1.79-.32-2.64-.59-1.7-.54-3.29-1.3-4.78-2.21-1.31-.81-2.55-1.66-3.72-2.68-4.28-3.9-4.67-6.19-4.38-7.57.08-.34.14-.74.27-.94.22-.35.67-.04,1.25.67.63.71,1.54,1.79,2.8,3.14,1.88,1.98,4.17,3.69,6.61,4.99,1.23.63,2.5,1.16,3.76,1.49.31.08.63.17.93.2.31.04.6.11.96.11l2.08.1c2.76-.04,5.46-.65,8.04-1.81,2.58-1.14,5.04-2.79,7.51-4.6,1.84-1.34,3.68-2.78,5.67-4.14,1.98-1.36,4.08-2.7,6.44-3.68,1.14-.55,2.4-.88,3.62-1.28,1.25-.32,2.51-.55,3.79-.67,2.55-.24,5.23-.13,7.87.8l-.02.08Z"/><path class="cls-3" d="M66.49,395.3c9,4.43,18.97,7.16,28.99,7.45,1.25.04,2.5.01,3.75,0,1.24-.1,2.5-.11,3.72-.31,2.47-.27,4.89-.81,7.13-1.65.28-.11.57-.2.84-.32l.78-.39c.26-.13.54-.24.77-.39l.69-.46c.47-.25.93-.74,1.39-1.12l1.4-1.22c1.79-1.72,3.48-3.59,4.99-5.62,4.49-5.87,7.98-12.55,11.13-19.34,5.49-12.03,9.75-24.65,13.42-37.43,3.62-12.79,6.65-25.77,9.16-38.84,2.25-11.6,4.04-23.36,5.4-35,1.83-14.96,2.9-30.04,3.41-45.07.28-4.7.22-4.08.77-.11.58,3.97,1.27,11.36.87,20.1-.39,7.73-1.02,15.45-1.83,23.14-.84,7.69-1.97,15.35-3.21,23-1.24,7.65-2.67,15.27-4.29,22.86-1.62,7.59-3.39,15.17-5.43,22.7-2.42,9-5.09,18.14-8.21,27.21-3.12,9.06-6.72,18.05-11.23,26.54-2.49,4.65-5.23,9.22-8.62,13.37-.78,1.08-1.75,2.03-2.64,3.04-.46.49-.87,1.02-1.38,1.47l-1.51,1.37c-.53.45-.95.93-1.56,1.34-.6.41-1.19.86-1.83,1.15-.63.32-1.25.67-1.9.9-.65.24-1.28.54-1.94.71-5.24,1.65-10.66,1.97-16,1.78-5.34-.26-10.63-1.19-15.74-2.67-1.56-.49-3.13-.97-4.67-1.51-1.52-.61-3.08-1.12-4.56-1.81-1.49-.69-2.99-1.28-4.47-2.1-1.48-.77-2.88-1.69-4.24-2.65-2.69-1.97-5.11-4.32-7.14-6.97-2.04-2.64-3.69-5.61-4.75-8.8-.81-2.41-1.34-4.93-1.42-7.49-.1-2.58.27-5.12.84-7.57,1.2-4.88,3.15-9.45,5.28-13.87,4.29-8.84,9.25-17.23,14.02-25.64,7.47-13.04,14.45-26,20.58-39.46.66-1.49,1.31-2.96,1.96-4.44.63-1.48,1.27-2.97,1.91-4.48,2.34-5.61,3.82-9.33,4.94-11.92,1.15-2.57,1.93-4.02,2.81-5.1.4-.49.86-1.17,1.18-1.43.54-.44.55.57.08,2.76-.46,2.2-1.44,5.58-3,9.81-4.59,12.57-10.48,25.03-17.02,37.29-6.51,12.28-13.81,24.33-20.43,36.61-2.42,4.57-4.73,9.18-6.61,13.89-.9,2.36-1.71,4.74-2.27,7.12-.53,2.4-.79,4.71-.59,7.05.37,4.72,2.28,9.29,5.18,13.16,2.9,3.88,6.78,7.07,11.14,9.25l-.02.09Z"/><path class="cls-3" d="M474.35,212.33c-.12-.64-.28-1.25-.45-1.84-.17-.58-.38-1.18-.58-1.56l-.13-.25c-.06-.05-.11-.1-.16-.16l-.07-.09-.14-.1-.28-.22c-.43-.28-.93-.57-1.5-.81-2.25-1.01-4.9-1.64-7.51-2.18-5.27-1.03-10.7-1.54-16.12-1.72-3.96-.12-7.92.05-11.85.36-3.53.27-7.03.77-10.42,1.61-1.69.42-3.35.93-4.9,1.62-.79.32-1.52.73-2.24,1.13l-1.02.68-.8.66c-.07.04-.1.12-.13.19l-.04.12-.06.25c-.09.38-.16.78-.23,1.19-.13.82-.23,1.66-.31,2.5-.16,1.68-.23,3.39-.24,5.09,0,3.4.28,6.81.96,10.12.63,2.99,1.57,5.9,3.13,8.51.7,1.36,1.59,2.6,2.44,3.86l1.42,1.78c.46.6,1.02,1.12,1.52,1.68,1.34,1.41,2.81,2.67,4.34,3.87,1.57,1.14,3.19,2.23,4.91,3.13,1.7.94,3.49,1.73,5.29,2.47l1.37.52,1.39.45c.93.29,1.84.7,2.8.94,2.37.62,2.11.63-.08.83-.54.03-1.22.1-1.99.12-.8.13-1.64-.06-2.59-.14-.93-.15-1.96-.31-3.02-.62-.53-.15-1.08-.3-1.63-.48-.53-.22-1.08-.45-1.64-.69-3.88-1.82-7.51-4.25-10.63-7.25-3.1-3.02-5.61-6.62-7.52-10.5-1.92-4.01-2.83-8.27-3.26-12.5-.41-4.24-.36-8.48.18-12.72.09-.67.19-1.35.32-2.04.07-.36.14-.69.24-1.1.13-.55.37-1.09.76-1.51l.82-.7c.23-.2.47-.4.72-.55.5-.31.98-.7,1.5-.95,1.02-.58,2.08-1.05,3.14-1.49,2.14-.85,4.33-1.42,6.53-1.91,4.41-.96,8.89-1.39,13.32-1.58,5.62-.19,11.24.01,16.82.62,2.79.31,5.58.72,8.35,1.31,2.77.6,5.53,1.29,8.23,2.67.41.24.83.45,1.24.79.2.17.41.28.6.5.2.21.39.43.57.65.15.23.27.47.41.7.13.24.19.45.29.67.2.45.31.88.45,1.31.51,1.74.8,3.47,1.03,5.21.43,3.48.47,6.98.12,10.47-.27,2.64-.79,5.26-1.65,7.8-.88,2.53-2,4.92-3.34,7.21-2.63,4.62-6.39,8.54-10.55,11.68-1.61,1.23-3.27,2.36-4.89,3.49-.81.56-1.59,1.13-2.35,1.71-.35.3-.76.61-1.06.89-.24.21-.45.56-.64.9-.74,1.5-1.03,3.43-1.22,5.3-.19,1.9-.24,3.83-.25,5.78,0,1.72.05,3.4.08,5.14.14,6.46-.02,8.58-.85,9.97-.18.32-.37.73-.54.91-.58.59-1.07-2-1.37-6.74-.22-3.52-.42-7.11-.4-10.8.02-1.85.08-3.71.32-5.64.12-.96.27-1.93.53-2.94.27-1,.6-2.04,1.29-3.13.21-.28.37-.55.64-.81l.39-.39.29-.25c.38-.31.77-.66,1.16-.93.78-.59,1.55-1.14,2.32-1.68,1.54-1.06,3.03-2.08,4.46-3.15,2.87-2.13,5.41-4.56,7.53-7.35,3.07-4.16,5.49-9.05,6.44-14.11.49-2.56.7-5.22.68-7.87-.02-2.65-.27-5.33-.81-7.87l.08-.03Z"/><path class="cls-3" d="M455.24,291.41l2.42.09h.27s.04.02.04.02l.09.02.22.04c.13.02.47.07.4-.13-.02-.14-.1-.28-.2-.44-.04-.06-.09-.11-.14-.16l-.44-.38c-.41-.34-.84-.67-1.28-.99-3.07-2.31-6.97-3.69-10.93-3.7-1.75.02-3.53.4-5.22.97-2.2.66-4.24,1.71-6.38,2.6-.72.21-.78.03-.54-.73.12-.39.36-.86.72-1.36.35-.52.84-1.03,1.47-1.4,1.11-.67,2.27-1.25,3.47-1.75,1.21-.47,2.49-.79,3.79-1.02,1.3-.22,2.68-.32,4.02-.23,1.33.08,2.65.3,3.93.67,3.03.91,6.11,2.14,8.64,4.22.17.14.34.29.51.44.17.15.31.28.6.56.48.48.94.98,1.32,1.49.74,1.03,1.2,2.05,1.09,2.98-.04.21-.02.55-.26.69-.17.14-.34.25-.51.36-.34.24-.87.37-1.47.44-.61.06-1.26.09-1.9.1h-.97s-.64,0-.64,0c-2.05-.03-4.08-.1-6.11-.16-3.08-.08-6.16-.24-9.21-.24-2.37,0-4.7.21-7.03.36-.51.03-1.02.1-1.53.11-1.92.06-2.52-.18-2.94-1.14-.1-.22-.22-.43-.28-.65-.2-.73.59-1.38,2.02-1.59,4.23-.62,8.65-.58,13.08-.48,3.28.1,6.57.2,9.86.3v.08Z"/><path class="cls-3" d="M426.82,326.07c-3.67-.11-7.35-.25-11.03-.45l-5.54-.35c-.93-.07-1.86-.15-2.81-.26l-.71-.09-.36-.05-.19-.03c-.1,0-.2-.03-.31-.05-.82-.14-1.62-.34-2.25-.71-.19-.17-.47-.27-.5-.58-.14-.21-.3-.4-.33-.68-.1-.54-.04-1.16,0-1.76l.16-1.3.15-1.03c.2-1.37.43-2.73.66-4.08.62-3.64,1.2-7.27,1.92-10.88l.91-4.39.49-2.2.13-.56.23-.92c.08-.3.18-.6.31-.87.15-.25.3-.46.48-.69.46-.17.84-.38,1.38-.42.26-.04.5-.09.76-.11l.67-.04,1.89-.07,3.75-.09,7.48-.09c4.99-.03,9.97-.05,14.95,0,5.74,0,11.51,0,17.21.01h5.5c1.83.02,3.67.06,5.5.12,3.67.13,7.34.25,10.97,1,2.26.54,1.96.38.01.77-.97.19-2.36.6-4.01.85-.83.14-1.73.31-2.69.41-.95.08-1.96.13-3.02.15l-5.59.1c-1.86.04-3.72,0-5.59,0-3.73,0-7.46-.02-11.19-.02-3.73-.01-7.47-.02-11.21-.03-3.74-.04-7.49-.08-11.25-.12-2.37-.03-4.76-.01-7.16.03-1.2.03-2.4.07-3.61.1l-1.79.09-.38.02c-.1.01-.2,0-.29.04-.07.16-.1.33-.15.5l-.35,1.55-.66,3.19c-.42,2.14-.84,4.28-1.25,6.41-.47,2.44-.92,4.89-1.34,7.34-.21,1.22-.41,2.45-.6,3.66l-.21,1.51c-.01.12-.03.24-.03.36,0,.06-.01.12.01.18.05.03.1.06.16.08.12.04.24.07.36.1l.57.1c.6.1,1.23.18,1.85.25,1.25.14,2.52.26,3.79.36,2.54.18,5.1.3,7.66.4,6.21.24,12.44.37,18.66.39,9.42.01,18.91-.02,28.23-.59,1.71-.11,3.41-.24,5.07-.43.83-.09,1.66-.2,2.47-.34.38-.06.85-.16,1.11-.22.2-.06.42-.11.57-.25.05-.11.09-.22.13-.34l.15-.5.39-1.34c.25-.9.49-1.81.72-2.73.45-1.83.88-3.66,1.26-5.5.33-1.53.57-3.05.85-4.59,1.02-5.74,1.26-7.46,2.27-8.69.21-.28.42-.66.62-.84.34-.29.64.15.94,1.29.29,1.13.34,2.91.14,5.13-.31,3.32-.95,6.6-1.69,9.88-.38,1.64-.79,3.28-1.25,4.92-.23.82-.46,1.64-.72,2.47-.12.41-.26.83-.4,1.26l-.05.16c-.03.08-.06.17-.1.27l-.26.54c-.17.37-.35.72-.56,1.04-.32.22-.59.5-.97.64-.35.17-.75.27-1.14.38-.22.06-.37.08-.47.1l-.35.07-.68.11c-.89.14-1.75.23-2.6.32-1.71.17-3.41.29-5.11.39-3.4.19-6.79.31-10.19.39-10.16.23-20.35.12-30.53-.09v-.08Z"/><path class="cls-3" d="M427.34,211.52c.94-.11,1.87-.19,2.8-.24.34-.03.67-.1,1.01-.1.6-.01,1.19.01,1.79.05.59.07,1.18.13,1.77.2.52.05,1.04.09,1.55.11.33.02.66.03.99.07.33.06.65.16.97.28.2.08.15.28-.05.5-.19.22-.53.52-.9.6-1.3.11-2.56.22-3.85.16-.78-.05-1.57.11-2.35.21-.86.09-1.73.2-2.58.36-.53.09-1.06.2-1.58.33-.79.2-1.59.41-2.32.74-.57.27-1.06.69-1.57,1.04-.11.08-.21.18-.33.25-.43.26-.65.17-1.08-.42-.1-.13-.2-.26-.29-.4-.3-.47-.31-.97-.02-1.29.85-.97,2.03-1.51,3.26-1.87.91-.28,1.85-.46,2.78-.62l.02.06Z"/><path class="cls-3" d="M447.27,177.45c.07.32-.3.57-.53.79-.08.07-.26.05-.32-.04-.1-.18-.23-.36-.36-.55-.02-.06-.14-.52-.28-1.05-.08-.52-.18-1.1-.23-1.41-.11-.58-.15-1.15-.17-1.72-.03-1.16-.16-2.33-.15-3.49,0-.26.02-.52.08-.77.19-.88.2-1.76.15-2.65,0-.15,0-.3-.09-.44-.16-.24-.18-2.64-.09-2.95.21-.76.34-1.53.52-2.3.03-.11-.02-.23.12-.32.32-.22.28-.46.32-.7.05-.33.12-.66.24-.98.06-.16.24-.32.39-.47.13-.14.58-.04.63,0,.14.15.36.04.54.04.06,0,.15,0,.2,0,.11.02.86,1.95.86,2.16,0,.02.01.73.03,1.48.01.74.03,1.52.05,1.67.02.17-.06.33-.12.49-.02.08.05,2.3.03,2.39-.07.46,0,.92-.27,1.37-.05.09-.05.18-.05.27-.02.79-.17,1.58-.28,2.36-.04.41-.08.81-.12,1.21,0,.07-.05.14-.07.22-.03.09-.07.18-.07.27-.07.96-.27,1.91-.28,2.86,0,.22-.32,1.26-.31,1.52-.03.14-.38.59-.36.72Z"/><path class="cls-3" d="M435.18,183.49c.32.09.38.46.32.95-.02.16-.26.48-.37.49-.21,0-.43,0-.64-.01-.12-.02-1.78-.67-2.37-.85-.54-.22-1.03-.52-1.51-.83l-2.94-1.88c-.22-.14-.41-.31-.59-.5-.61-.66-1.33-1.17-2.1-1.63-.13-.08-.24-.18-.42-.17-.3.01-2.29-1.35-2.49-1.6-.49-.63-1.03-1.2-1.54-1.8-.07-.09-.2-.12-.19-.3.02-.41-.2-.51-.37-.68-.24-.23-.46-.48-.65-.77-.09-.14-.1-.39-.14-.61-.03-.2.34-.53.41-.54.21-.03.26-.29.38-.46.04-.06.09-.13.13-.17.09-.08,2.11.39,2.28.51.02.01.61.4,1.22.8.62.4,1.26.82,1.39.9.15.08.23.24.33.38.05.07,1.91,1.25,1.97,1.31.33.32.75.51.95,1.01.04.1.12.14.19.2.64.46,1.19,1.02,1.77,1.56.3.27.63.49.95.74.06.04.09.12.14.18.06.07.11.15.19.21.77.56,1.45,1.24,2.26,1.73.18.12.82,1.03,1.04,1.16.11.08.28.65.41.68Z"/><path class="cls-3" d="M463.21,182.4c-.09.31-.49.3-1.04.14-.17-.05-.55-.38-.56-.5,0-.22-.02-.45,0-.66.01-.06.18-.49.41-.94.24-.45.5-.94.64-1.2.25-.5.57-.94.91-1.36l2.02-2.63c.15-.19.33-.37.52-.52.68-.53,1.21-1.18,1.69-1.87.08-.12.18-.22.19-.39,0-.28,1.42-2.08,1.67-2.25.61-.44,1.18-.93,1.78-1.38.09-.06.13-.18.29-.17.37.02.48-.18.64-.34.23-.22.47-.43.74-.61.14-.09.37-.1.57-.13.18-.03.48.32.48.39.02.2.25.25.4.35.05.04.12.09.15.12.08.08-.49,1.97-.61,2.12-.03.04-1.52,2.2-1.71,2.47-.08.14-.24.21-.37.3-.06.04-1.26,1.8-1.33,1.85-.31.31-.52.71-1,.88-.09.03-.14.11-.2.18-.46.6-1.03,1.1-1.57,1.63-.28.27-.5.58-.76.87-.05.05-.12.08-.18.12-.07.05-.15.1-.21.17-.57.71-1.27,1.31-1.78,2.07-.12.17-.98.76-1.11.96-.07.12-.68.18-.71.31Z"/></svg>