<svg xmlns="http://www.w3.org/2000/svg" width="101.9" height="56.5" viewBox="0 0 101.9 56.5" style="enable-background:new 0 0 101.9 56.5" xml:space="preserve"><path d="M96.5 29.5c2.8 0 5.1-2.2 5.1-4.8V5.2c0-2.7-2.3-4.8-5.2-4.8H5.5C2.7.4.3 2.5.3 5.2v19.4c0 2.7 2.3 4.8 5.2 4.8 2.5 0 4.4 1.9 4.4 4.1v17.7c0 2.7 2.3 4.8 5.2 4.8h71.8c2.8 0 5.2-2.1 5.2-4.8V33.6c0-2.3 1.9-4.1 4.4-4.1z" style="fill:#fff"/><path d="M86.9 56.5H15.1c-3 0-5.5-2.3-5.5-5.2V33.6c0-2-1.8-3.7-4-3.7-3.1 0-5.5-2.3-5.5-5.2V5.2C0 2.3 2.5 0 5.5 0h90.9c3 0 5.5 2.3 5.5 5.2v19.4c0 2.8-2.4 5.2-5.4 5.2-2.2 0-4 1.7-4 3.7v17.7c0 3-2.5 5.3-5.6 5.3zM5.5.8C2.9.8.7 2.8.7 5.3v19.4c0 2.5 2.1 4.5 4.8 4.5s4.8 2 4.8 4.5v17.7c0 2.5 2.1 4.5 4.8 4.5h71.8c2.6 0 4.8-2 4.8-4.5V33.6c0-2.5 2.1-4.5 4.8-4.5 2.6 0 4.7-2 4.7-4.5V5.2c0-2.5-2.1-4.5-4.8-4.5H5.5z"/><path d="M58.1 15.6v3.6h5.6c-.1.3-.2.7-.4 1-.2.3-.4.7-.6.9s-.5.5-.8.7c-.3.2-.6.4-1 .6-.4.2-.7.3-1.2.3-.4.1-.8.1-1.3.1-.6 0-1.1-.1-1.7-.2-.5-.1-1-.3-1.4-.6-.4-.3-.8-.6-1.2-1l-.9-1.2-.6-1.5c-.1-.5-.2-1.1-.2-1.7 0-.6.1-1.1.2-1.7.1-.5.3-1 .6-1.5.2-.5.5-.9.9-1.2.3-.4.7-.7 1.2-.9.4-.3.9-.5 1.4-.6.5-.1 1.1-.2 1.7-.2.6 0 1.2.1 1.7.2s1 .3 1.4.5c.4.2.8.5 1.1.8.3.3.6.7.9 1.1v.1l3.5-2.4v-.1c-.4-.6-.9-1.1-1.5-1.6s-1.2-.9-2-1.3c-.7-.4-1.5-.6-2.4-.8-.9-.2-1.8-.3-2.8-.3-1.5 0-2.9.3-4.2.8C53 8 51.9 8.7 51 9.6c-.9.9-1.6 2-2.1 3.2-.5 1.2-.7 2.5-.7 3.9 0 .9.1 1.8.3 2.7.2.9.5 1.7 1 2.4.4.7.9 1.4 1.5 2 .6.6 1.3 1.1 2.1 1.5.8.4 1.6.8 2.5 1 .9.2 1.9.3 2.9.3s2-.1 2.9-.4c.9-.2 1.7-.6 2.5-1 .7-.4 1.4-1 2-1.6.6-.6 1.1-1.4 1.5-2.2.4-.8.7-1.7.9-2.7.2-1 .3-2 .3-3.1v-.1H58.1zm32.5-2.9c-.5-1.2-1.2-2.3-2.1-3.2s-2-1.6-3.3-2.1C84 7 82.6 6.7 81 6.7c-1.5 0-2.9.3-4.2.8-1.3.5-2.4 1.2-3.3 2.1-.9.9-1.6 2-2.1 3.2-.5 1.2-.7 2.5-.7 3.9s.3 2.7.7 3.9c.5 1.2 1.2 2.3 2.1 3.2.9.9 2 1.6 3.3 2.1 1.3.5 2.7.8 4.2.8s2.9-.2 4.2-.8c1.3-.5 2.4-1.2 3.3-2.1.9-.9 1.6-1.9 2.1-3.2.5-1.2.8-2.5.8-3.9s-.3-2.8-.8-4zm-3.7 4c0 .6-.1 1.1-.2 1.7-.1.5-.3 1-.6 1.5-.2.4-.5.9-.9 1.2-.3.4-.7.7-1.2.9-.4.3-.9.5-1.4.6-.5.1-1.1.2-1.6.2-.6 0-1.1-.1-1.6-.2s-1-.3-1.4-.6l-1.2-.9-.9-1.2-.6-1.5c-.1-.5-.2-1.1-.2-1.7 0-.6.1-1.2.2-1.7s.3-1 .6-1.5c.2-.5.5-.9.9-1.2s.7-.7 1.2-.9c.4-.3.9-.5 1.4-.6.5-.1 1.1-.2 1.6-.2.6 0 1.1.1 1.6.2s1 .3 1.4.6l1.2.9.9 1.2c.2.5.4.9.6 1.5.1.5.2 1.1.2 1.7zM27.2 14c-.2-.8-.5-1.6-1-2.3-.4-.7-.9-1.3-1.5-1.9-.6-.6-1.3-1-2.1-1.4-.8-.4-1.6-.8-2.6-1-.9-.2-1.9-.3-2.9-.3h-6.8v19.1h6.8c1 0 2-.1 2.9-.3.9-.2 1.8-.5 2.5-.9.8-.4 1.5-.9 2.1-1.4.6-.6 1.1-1.2 1.6-1.9l.1-.1h-1.8v-3.4h2.9v-.1c.1-.4.1-.9.1-1.4 0-1-.1-1.9-.3-2.7zM23 16.7c0 .6-.1 1.2-.2 1.7s-.3 1-.5 1.4c-.2.4-.5.8-.9 1.2-.3.3-.7.6-1.2.8-.4.2-.9.4-1.5.5-.5.1-1.1.2-1.7.2h-2.6V10.8H17c.6 0 1.2.1 1.7.2s1 .3 1.5.5c.4.2.8.5 1.2.8.3.3.6.7.9 1.2.2.4.4.9.5 1.4.2.6.2 1.1.2 1.8zm17.3-9.5h-4.8l-4.3 11H34v3.4h-4.2l-1.9 4.7h4.5l1.7-4.6h7.6l1.7 4.5h4.5l-7.6-19zm0 10.7h-4.8l2.4-6.5 2.4 6.5zm34.3 11.6c-1.1 0-2.2.1-3 .4-.9.2-1.7.6-2.3 1.1-.6.5-1.1 1.1-1.4 1.7-.3.7-.5 1.5-.5 2.4 0 .6.1 1.2.3 1.7s.4.9.7 1.3c.3.4.7.7 1.1 1l1.2.6c-.3.2-.5.4-.8.6-.3.3-.5.6-.7.9-.2.3-.4.7-.5 1.1-.1.4-.2.9-.2 1.4 0 .7.1 1.4.4 2 .3.6.7 1.1 1.2 1.6.5.4 1.2.8 2 1 .8.2 1.8.4 2.8.4h7.4V29.5h-7.7zM72.5 37c-.2-.2-.4-.4-.5-.7-.1-.3-.2-.6-.2-1s.1-.7.2-.9c.1-.3.3-.5.5-.7.2-.2.5-.4.9-.5.4-.1.8-.2 1.3-.2h3.5v4.6h-3.5c-.5 0-.9-.1-1.3-.2s-.7-.3-.9-.4zm.4 6c0-.3.1-.6.2-.9.1-.3.3-.5.4-.7.2-.2.4-.3.7-.4.3-.1.6-.2 1-.2h3V45h-3c-.4 0-.7 0-1-.1-.3-.1-.5-.2-.7-.4-.2-.2-.3-.4-.4-.7-.2-.2-.2-.5-.2-.8zm-22-13.5v3.7h8.8v4.1h-7.6V41h7.6v3.9h-8.8v3.7h13V29.5zm-7.9 0v7.4h-1.4l-5.3-7.3h-5l5.8 7.7h-.2c-.9.3-1.6.7-2.2 1.2-.6.5-1 1.1-1.3 1.8-.3.7-.4 1.5-.4 2.4 0 .9.1 1.7.4 2.4.3.7.7 1.3 1.3 1.9.6.5 1.3.9 2.2 1.2.9.3 1.9.4 3.1.4h7.2V29.5H43zm0 15.6h-2.7c-.5 0-1-.1-1.3-.2-.4-.1-.7-.3-.9-.5-.2-.2-.4-.5-.5-.8-.1-.3-.2-.6-.2-1s.1-.7.2-1c.1-.3.3-.5.5-.8.2-.2.6-.4.9-.5.4-.1.8-.2 1.3-.2H43v5zm-17.6-.2V29.5h-4.2v15.4h-6v3.7h16.3v-3.7z"/></svg>