<svg xmlns="http://www.w3.org/2000/svg" viewBox="0 0 95.22 38.06" fill="#000" width="95" height="38">
    <path class="cls-1" d="M55.17,21.91a7.51,7.51,0,0,0-2.7,1.34,6.58,6.58,0,0,0-1.91,2.58,10,10,0,0,0-.7,4v7.84h3.59V29.32a4.12,4.12,0,0,1,1.14-2.82,4.18,4.18,0,0,1,2.8-1.19h1.78l0-3.83h-.83A12,12,0,0,0,55.17,21.91Z"/>
    <path class="cls-1" d="M67.82,20.92a8.57,8.57,0,1,0,8.57,8.57A8.57,8.57,0,0,0,67.82,20.92Zm0,13.93a5.36,5.36,0,1,1,5.36-5.36A5.37,5.37,0,0,1,67.85,34.85Z"/>
    <path class="cls-1" d="M41.52,12.51a8.74,8.74,0,0,0-8.74,8.74h0v16.4h3.46l0-7.66h5.31a8.74,8.74,0,1,0,0-17.48Zm0,14H36.21l0-5.28a5.28,5.28,0,1,1,5.29,5.28Z"/>
    <path class="cls-1" d="M91.74,12.87v9.94a8.57,8.57,0,1,0,0,13.36v1.52h3.48V12.87Zm-5.36,22a5.36,5.36,0,1,1,5.36-5.36A5.37,5.37,0,0,1,86.38,34.85Z"/>
    <path class="cls-1" d="M21.06,8.71A5,5,0,0,0,22.4,5a4.79,4.79,0,0,0-1.26-3.63A4.42,4.42,0,0,0,17.66,0a4.32,4.32,0,0,0-3.5,1.54A7,7,0,0,0,13,6s0,.25,0,.44l-3,0V6.21a6.34,6.34,0,0,0-1.07-4A4,4,0,0,0,5.66.82,4,4,0,0,0,2.75,2a4.2,4.2,0,0,0-1,3.07A5,5,0,0,0,2.92,8.69,5.62,5.62,0,0,0,6.75,9.92a8.18,8.18,0,0,1,4.74,1.7,19.11,19.11,0,0,1,4.71,5.28c.65.93,1.41,2.08,2.28,3.46s1.78,2.3,2.8,2.51l.49.1V13.79l-.56.21a10.8,10.8,0,0,1-3.56.61V10A4.94,4.94,0,0,0,21.06,8.71Z"/>
    <path class="cls-1" d="M19.62,28.08a17.34,17.34,0,0,1-5-5c-.1-.14-.24-.38-.43-.71s-.43-.71-.7-1.15A25.26,25.26,0,0,0,10.23,17a4.79,4.79,0,0,0-3.39-1.59h0a4.33,4.33,0,0,0-3.32,1.27A4.6,4.6,0,0,0,2.25,20a4.76,4.76,0,0,0,1.53,3.74A6.11,6.11,0,0,0,7.18,25v4.24H7a10.9,10.9,0,0,1-1.49-.08A9.63,9.63,0,0,1,.74,27,6.5,6.5,0,0,1,0,26.15V37.6H25.24V29.86A12.14,12.14,0,0,1,19.62,28.08Z"/>
</svg>