<svg width="64" height="33" xmlns="http://www.w3.org/2000/svg"><g fill="none" fill-rule="evenodd"><path d="M19.82 24.804c-.042 4.065-2.436 6.779-6.517 7.749-1.289.307-2.723.417-4.091.417H.826c-.544 0-.818-.314-.818-.812V17.45c0-.498.274-.813.818-.813h8.629c1.138 0 2.743.116 3.715.339 4.09.936 6.608 3.762 6.65 7.828" fill="#000000"/><path d="M.85 14.887c-.56 0-.842-.319-.842-.823V.86C.008.355.29.037.85.037h7.362c1.06 0 2.556.106 3.462.31 3.81.857 6.156 3.393 6.196 7.115-.04 3.722-2.314 6.2-6.116 7.089-.827.193-2.353.336-3.736.336H.85" fill="#000000"/><path d="M62.674 32.38v-2.94c0-.47-.202-.704-.72-.704-.558 0-.987.389-.987.687v2.958H59.74v-6.51h1.226v2.361c.292-.242.754-.49 1.336-.49 1.013 0 1.588.45 1.588 1.38v3.259h-1.217M41.499 14.32h1.226V7.811h-1.226zM58.48 29.125c-.298-.305-.607-.442-1.041-.442-.747 0-1.078.46-1.078 1.405 0 .972.322 1.44 1.105 1.44.434 0 .726-.119 1.063-.443l.558.82c-.446.385-.987.573-1.764.573-1.592 0-2.196-.935-2.196-2.39 0-1.377.687-2.346 2.24-2.346.715 0 1.256.162 1.74.593l-.627.79M39.36 14.119c-.437 1.215-.816 1.939-2.041 1.939h-.685v-.932h.524c.46 0 .66-.153.886-.757L36.28 9.77h1.288l1.098 3.242 1.02-3.242h1.234L39.36 14.12M39.532 23.35v-2.94c0-.47-.203-.704-.72-.704-.557 0-.978.388-.978.687v2.957h-1.226V18.8h1.02l.097.469c.318-.28.83-.557 1.454-.557 1.013 0 1.579.45 1.579 1.38v3.258h-1.226M42.778 32.38v-2.94c0-.47-.203-.704-.72-.704-.558 0-.979.388-.979.687v2.958h-1.225v-4.55h1.02l.097.468a2.23 2.23 0 0 1 1.454-.557c1.013 0 1.578.45 1.578 1.38v3.259h-1.225M38.544 28.986c-.65 0-.89.453-.89.98v2.415H36.43v-3.567l-.133-.983h1.09l.127.637c.252-.38.566-.637 1.219-.637h.416v1.155h-.604M46.775 11.495c0-.64-.301-.935-.898-.935-.622 0-.929.344-.968 1.01h1.866v-.075Zm1.194.9H44.9c.04.73.38 1.073 1.129 1.073.576 0 .962-.215 1.233-.62L48 13.5c-.384.566-.973.917-2.033.917-1.539 0-2.32-.723-2.32-2.39 0-1.45.696-2.337 2.221-2.346 1.635-.009 2.125.943 2.125 2.045v.204c0 .143-.009.332-.023.466ZM44.79 20.526c0-.64-.302-.935-.899-.935-.621 0-.928.344-.967 1.01h1.866v-.075Zm1.194.9h-3.07c.04.73.38 1.072 1.13 1.072.575 0 .961-.215 1.233-.619l.736.652c-.384.565-.973.917-2.032.917-1.54 0-2.321-.723-2.321-2.39 0-1.45.697-2.337 2.222-2.346 1.635-.01 2.125.942 2.125 2.044v.204c0 .144-.01.332-.023.466ZM33.653 10.587c-.726 0-.997.419-.997 1.467s.271 1.458.997 1.458c.734 0 1.005-.41 1.005-1.458s-.271-1.467-1.005-1.467Zm0 3.83c-1.45 0-2.25-.651-2.25-2.372 0-1.713.828-2.364 2.25-2.364 1.421 0 2.258.651 2.258 2.364 0 1.721-.81 2.372-2.258 2.372ZM52.927 30.335c-.96.055-1.573.14-1.573.755 0 .369.135.51.567.51.748 0 1.006-.463 1.006-.865v-.4Zm.998 2.108c-.536 0-.784-.212-.907-.564-.372.394-.874.59-1.463.59-1.037 0-1.427-.455-1.427-1.308 0-1.221 1.097-1.456 2.8-1.571v-.167c0-.511-.244-.758-.836-.758-.475 0-.816.204-1.066.632l-.86-.54c.382-.681 1.045-1.015 1.988-1.015 1.25 0 1.963.473 1.963 1.628v1.853c0 .274.075.387.289.368 0 0 .086 0 .194-.018v.785c-.066.022-.34.085-.675.085ZM47.316 28.718c-.567 0-.952.415-.952.607v2.04c.229.133.538.19.827.19.898 0 1.024-.612 1.024-1.511 0-1.027-.278-1.326-.899-1.326Zm-.16 3.76c-.804 0-1.484-.188-2.018-.5v-6.107h1.226v2.366c.412-.326.84-.486 1.355-.486 1.136 0 1.748.653 1.748 2.266 0 1.992-.984 2.461-2.312 2.461ZM27.724 9.017h-.863v4.274h.917c1.128 0 1.56-.626 1.56-2.221 0-1.483-.498-2.053-1.614-2.053Zm-.018 5.303h-2.133V7.988h2.097c1.912 0 2.983.729 2.983 3.09 0 2.284-.876 3.242-2.947 3.242ZM34.158 21.305c-.96.054-1.574.14-1.574.755 0 .368.136.51.568.51.748 0 1.005-.464 1.006-.865v-.4Zm.997 2.107c-.536 0-.783-.211-.907-.563-.372.394-.874.59-1.463.59-1.037 0-1.427-.455-1.427-1.308 0-1.221 1.098-1.456 2.8-1.572v-.166c-.001-.511-.244-.758-.836-.758-.474 0-.816.203-1.065.632l-.862-.54c.383-.681 1.047-1.015 1.99-1.015 1.25 0 1.963.473 1.963 1.627v1.854c0 .274.074.387.288.367 0 0 .086 0 .194-.017v.785c-.066.022-.34.084-.675.084ZM27.724 18.048h-.863v4.273h.917c1.128 0 1.56-.625 1.56-2.22 0-1.484-.498-2.053-1.614-2.053Zm-.018 5.302h-2.133v-6.332h2.097c1.912 0 2.983.73 2.983 3.091 0 2.284-.876 3.241-2.947 3.241ZM34.229 29.556c-.002-.64-.301-.935-.898-.935-.622 0-.929.344-.968 1.01h1.866v-.075Zm1.194.9h-3.069c.039.73.379 1.073 1.129 1.073.575 0 .961-.215 1.233-.62l.737.652c-.384.566-.974.917-2.033.917-1.54 0-2.32-.723-2.32-2.39 0-1.45.696-2.337 2.221-2.346 1.635-.01 2.125.943 2.125 2.045v.203a5.2 5.2 0 0 1-.023.466ZM27.93 29.578h-1.086v1.809h1.121c.819 0 1.095-.32 1.095-.9 0-.638-.3-.909-1.13-.909Zm.026-2.536h-1.112v1.578h1.077c.696 0 .925-.332.925-.829 0-.483-.233-.748-.89-.749Zm.188 5.339h-2.571v-6.332h2.67c1.17 0 1.9.482 1.9 1.627 0 .654-.304 1.067-.754 1.313.56.206.969.627.969 1.498 0 1.34-.792 1.894-2.214 1.894Z" fill="#000000"/></g></svg>