<svg xmlns="http://www.w3.org/2000/svg" fill="none" viewBox="0 0 146 30" data-component-id="94963">
<path fill="#000" d="M16.069 20.553c-1.016 1.835-2.678 2.753-4.525 2.753-3.325 0-5.449-2.66-5.449-7.524 0-4.037 1.293-6.24 2.678-6.24 1.57 0 1.755 2.478 2.309 3.763.37 1.1 1.293 1.743 2.493 1.743 1.478 0 2.494-1.01 2.494-2.294 0-1.835-2.032-3.854-6.372-3.854C4.063 8.9 0 12.938 0 18.351c0 5.23 3.879 8.809 8.496 8.809 3.971 0 6.834-2.294 7.942-6.423l-.37-.184Zm32.785 2.753c-2.77 0-4.71-1.835-5.264-5.322l6.002-1.651c1.478-.46 2.401-.734 2.956-1.285.923-.917.923-2.477.646-3.028-.554-1.56-2.586-3.028-6.187-3.028-5.541 0-9.605 4.038-9.605 9.451 0 5.23 3.879 8.809 8.496 8.809 3.971 0 6.834-2.294 7.942-6.423l-.461-.184c-1.016 1.744-2.678 2.661-4.525 2.661Zm-2.77-13.763c.369 0 .738.183 1.015.367l.185.092.184.183-.184-.092c.184.276.554.643.83 1.377.278.825.555 1.927.093 2.844A4.066 4.066 0 0 1 47.1 15.69a8.707 8.707 0 0 1-2.032 1.102c-.554.275-1.108.458-1.662.642-.092-.459-.092-1.01-.092-1.56 0-4.22 1.293-6.331 2.77-6.331Z"/>
<path fill="#000" d="M35.277 23.49v-9.818c0-3.212-1.847-4.772-4.617-4.772-2.494 0-4.71 1.468-6.188 3.028V.092L24.195 0l-8.127 2.11v.367c1.108-.091 2.31.46 2.31 2.661V23.49c0 1.835-.924 2.477-1.94 2.66v.368h9.789v-.367c-.924-.092-1.663-.735-1.663-2.661V12.754c.74-.734 1.663-1.193 2.586-1.193 1.2 0 2.032.918 2.032 2.661v9.176c0 1.927-.554 2.477-1.662 2.66v.368H37.4v-.367c-1.108-.092-2.124-.734-2.124-2.57ZM68.155 8.442c-1.847 0-4.156 1.468-5.264 4.68V9.083l-.277-.092-8.22 2.294v.367c1.201-.092 2.494.459 2.494 2.57v9.358c0 1.836-1.108 2.478-2.124 2.661v.367h10.435v-.367c-1.108-.091-2.124-.734-2.124-2.66v-8.9c.37-1.469.832-2.387 1.755-2.387 1.293 0 1.662 1.469 3.417 1.469 1.57 0 2.678-1.102 2.678-2.753-.092-1.285-1.108-2.57-2.77-2.57ZM96.32 23.765c-.462.642-.924.917-1.478.917-.739 0-1.108-.55-1.108-1.468v-8.441c0-3.579-2.493-5.873-7.573-5.873-4.894 0-7.203 1.744-7.203 3.946 0 1.468 1.108 2.386 2.401 2.386 1.109 0 2.217-.551 2.77-2.11.74-1.836.185-3.671 1.848-3.671 1.016 0 1.57.826 1.57 3.395v3.211c-7.573 2.019-9.605 4.221-9.605 6.974 0 2.66 2.124 4.037 4.34 4.037 1.848 0 3.972-.918 5.542-2.477.554 1.651 1.847 2.477 3.601 2.477 2.217 0 4.064-1.101 5.172-3.028l-.277-.275Zm-10.343.734c-1.2 0-2.309-.918-2.309-2.844 0-1.652.646-3.67 3.971-4.864v5.781c0 .459 0 .918.092 1.285-.646.458-1.2.642-1.754.642Zm39.709-1.01v-9.817c0-3.212-1.94-4.772-4.618-4.772-2.585 0-4.525 1.468-5.91 3.212-.554-2.11-2.216-3.212-4.433-3.212-2.493 0-4.433 1.468-5.818 3.028V9.084l-.277-.092-8.219 2.294v.367c1.2-.092 2.493.459 2.493 2.57v9.267c0 1.835-1.015 2.477-2.124 2.66v.368h9.605v-.367c-.924-.092-1.385-.734-1.385-2.661V12.662c.738-.734 1.57-1.1 2.308-1.1 1.201 0 1.94.917 1.94 2.66v9.176c0 1.927-.462 2.569-1.478 2.66v.368h9.05v-.367c-.923-.092-1.385-.734-1.385-2.661V12.846c.739-.734 1.478-1.285 2.309-1.285 1.108 0 1.939.918 1.939 2.661v9.176c0 1.927-.369 2.569-1.385 2.66v.368h9.604v-.367c-1.2-.092-2.216-.734-2.216-2.57Zm7.665-16.332c2.031 0 3.601-1.56 3.601-3.487 0-2.018-1.57-3.578-3.601-3.578-1.94 0-3.602 1.56-3.602 3.578 0 1.835 1.662 3.487 3.602 3.487Zm3.141 16.333v-9.726l.092-4.772-.277-.092-8.404 2.294v.367c1.201-.091 2.494.46 2.494 2.57v9.267c0 1.835-1.016 2.477-2.124 2.66v.368h10.435v-.367c-1.016-.092-2.216-.734-2.216-2.57Zm7.202-2.478c-1.662-.459-3.047.459-3.417 1.744-.277 1.1.092 2.018.831 2.66.739.643 1.57.918 1.293 1.927-.277.918-2.032 1.835-3.232 1.744v.459c2.863.183 5.356-2.203 6.187-4.864.647-1.835-.184-3.211-1.662-3.67Z"/>
</svg>