<svg width="44" height="49" xmlns="http://www.w3.org/2000/svg"><path d="M21.844 21.586c.537 0 1.022.322 1.232.816l10.503 24.74a.79.79 0 0 1-.31.98l-1.092.68a.79.79 0 0 1-.96-.096l-8.975-8.474a.58.58 0 0 0-.797 0l-8.964 8.48a.79.79 0 0 1-.96.096l-1.1-.685a.79.79 0 0 1-.309-.979l10.5-24.742c.209-.494.694-.816 1.232-.816ZM18.079 36.3a.312.312 0 0 0-.502.105l-2.357 5.554c-.075.177.146.331.286.199l4.028-3.805a.467.467 0 0 0 0-.679Zm8.031.105a.312.312 0 0 0-.502-.105l-1.455 1.374a.467.467 0 0 0 0 .68l4.028 3.804c.14.132.362-.022.286-.2ZM21.211.088c12.333-.35 22.476 9.58 22.476 21.835 0 7.405-3.705 13.961-9.359 17.913a.444.444 0 0 1-.663-.19l-1.033-2.432a.444.444 0 0 1 .147-.53c4.513-3.351 7.443-8.72 7.443-14.761 0-10.225-8.393-18.526-18.651-18.377-10.065.147-18.203 8.493-18.105 18.558.058 5.967 2.975 11.263 7.443 14.58.165.123.226.341.146.53l-1.032 2.433a.444.444 0 0 1-.665.188C3.56 35.783-.187 28.993.008 21.357.3 9.807 9.661.416 21.21.087Zm.96 27.035a.355.355 0 0 0-.655 0l-2.474 5.831a.636.636 0 0 0 .149.712l2.254 2.13a.58.58 0 0 0 .797 0l2.255-2.13a.637.637 0 0 0 .149-.712Zm-.927-20.325c8.619-.335 15.736 6.58 15.736 15.125 0 4.605-2.067 8.737-5.323 11.516a.444.444 0 0 1-.697-.165l-1.068-2.515a.445.445 0 0 1 .102-.493 11.634 11.634 0 0 0 3.521-8.343c0-6.649-5.588-12.017-12.314-11.654-5.903.318-10.678 5.082-11.01 10.984a11.635 11.635 0 0 0 3.502 9.013.445.445 0 0 1 .102.492l-1.068 2.516a.444.444 0 0 1-.696.165C8.67 30.57 6.574 26.26 6.713 21.475c.23-7.916 6.619-14.37 14.531-14.677Zm.685 6.695.256.007c4.282.17 7.798 3.597 8.07 7.874a8.386 8.386 0 0 1-1.393 5.211.443.443 0 0 1-.774-.077l-1.263-2.976a1.418 1.418 0 0 1-.085-.79 4.97 4.97 0 0 0-5.424-5.756 4.971 4.971 0 0 0-4.382 4.193c-.08.543-.07 1.07.015 1.573.045.263.018.533-.086.779l-1.264 2.977a.443.443 0 0 1-.774.077 8.378 8.378 0 0 1-1.411-4.663c0-4.761 3.968-8.613 8.771-8.422Z" fill="#000" fill-rule="evenodd"/></svg>