<svg version="1.0" xmlns="http://www.w3.org/2000/svg" width="896" height="896" viewBox="0 0 672 672"><g fill="#000000"><path d="M507.8 61.4c-1.5 1.3-2.4 2.7-2 3.1.4.4-.3.2-1.5-.4-2.5-1.2-6.3 0-6.3 2 0 2.6 2.2 5 4.1 4.4 2-.7 2.3.5 1.1 3.7-.6 1.5-1 1.6-3.2.3-7-3.9-9.9-4.8-16.1-4.9-7.9-.1-12.3 2.3-16.9 9.5-6.6 10.1-3.1 21.1 9.5 30.2 4.7 3.5 5 4 4.7 7.5-.3 2.9-1 4.1-3.3 5.4-1.6 1-2.9 2.5-2.9 3.5 0 1.3-1.8 2.5-6.1 4.1-3.4 1.3-8.5 3.8-11.5 5.6l-5.4 3.3-5.7-2.8c-3.2-1.5-8.9-3.9-12.6-5.3l-6.9-2.6.7 6.8c.3 3.7.8 11.3 1 16.9l.4 10.2-5.4 5.1c-5.6 5.5-11.7 16.2-10.7 18.9.4 1 .7 1.1 1 .3.2-.7 1.2-1.2 2.2-1.2 3.6 0 2.8 2.8-2.3 8.2-5 5.2-7.6 9.9-11.3 20l-1.7 4.7-2.6-2c-2.4-2-15.7-13.6-19.1-16.9-1.4-1.3-7.1-6.4-20.9-18.5-4.3-3.8-8.9-7.9-12.1-10.8-4.6-4.2-24.9-22.1-28.9-25.6-1.3-1.2-3.3-4-4.3-6.3-2.3-5.2-5.8-8.3-13.3-11.8-3.3-1.5-8.9-5.4-12.4-8.7-3.5-3.2-7.4-6.7-8.7-7.7l-2.4-2 4.3-2.8c2.3-1.5 4.7-2.8 5.3-2.8.6 0 1.7-.7 2.4-1.5s.8-1.5.3-1.5-2.8-1.8-5.1-4c-2.2-2.2-4.6-4-5.1-4-.6 0-3.3 1.3-6.1 3-2.8 1.6-5.5 3-6 3-.9 0-2.1-.9-9.4-7.2-1.7-1.5-3.5-2.8-3.9-2.8-.7 0-9.6 4.7-10.5 5.5-.2.2 1.1 1.6 2.8 3.2 1.8 1.5 4.6 4 6.3 5.5 1.7 1.6 2.9 2.9 2.6 3-.5.4-4.2 2.4-8.8 5-2 1.1-3.9 2.2-4.3 2.4-.4.3 1.5 2.5 4.1 4.9 4.6 4.3 7.4 5.5 8.5 3.7.3-.4 3-2.1 6.1-3.6l5.6-2.9 2.6 2.4c1.5 1.3 3.7 3.3 4.8 4.4 1.2 1.1 4.3 3.8 6.9 6 2.6 2.2 6.4 5.6 8.5 7.5 2.1 1.9 5.5 5 7.6 6.8 3.6 3.2 3.7 3.4 1.9 5.1-2.5 2.2-9.2 4.7-12.4 4.5-7.2-.4-16.7-1.6-27.5-3.4-13.3-2.3-15.9-2.7-19.5-3.5-1.4-.3-4.1-.8-6-1.1-1.9-.3-4.4-.7-5.5-.8-10.5-1.8-16.4-2.4-23.8-2.7-8.4-.2-10.1 1.7-10.3 11.3l-.1 7.2-6.4-.4c-23.2-1.2-47.8.4-55.2 3.5-5.7 2.3-7.5 9.8-5.2 20.5.7 3.3.2 3.5-9 4.5-3.3.3-6.9.8-8 1-1.1.3-4.7.7-8 1.1-3.3.3-7.3.8-9 1-3.4.4-12.2 1.4-17.5 1.9-1.9.2-4.8.6-6.5.9-1.6.2-5 .8-7.5 1.1-2.5.3-5.3.8-6.2 1.1-.9.3-2.7.7-4 1-8.5 1.8-15.7 3.3-17.8 3.8-5.6 1.3-8.6 1.9-10.5 2.2-1.1.2-3.1.6-4.5.9-1.4.3-4 .8-5.9 1-4.3.5-5.3 1.5-1.5 1.5 13 .2 30.1 1.9 35.6 3.6 2.7.8 2.9 3.3.3 5-1.3.8-10.4 4.3-20.2 7.6C8.2 226 2 228.5 2 229.6c0 .2.8 0 1.8-.5.9-.5 2-.9 2.5-.9.4 0 2.6-.3 5-.7 2.3-.4 5.6-.9 7.2-1.1 1.7-.3 5.5-.9 8.5-1.5s7-1.2 8.9-1.5c1.9-.2 5.3-.9 7.8-1.4 2.4-.6 6-1.3 8.1-1.5 2-.3 4.8-.8 6.1-1.1 1.3-.3 8-.7 15-1 6.9-.2 18.7-.6 26.1-.9 7.4-.3 16-.7 19-1.1 18.4-1.9 20.1-2.7 20.4-9.6.1-3.8.7-5.2 3-7.1 2.6-2.2 3.4-2.4 12.4-2.1 56.6 2 58.4 1.7 60.6-8.8.4-1.5 1.8-3.5 3.2-4.4 2.3-1.6 3-1.6 10.7.4 4.5 1.1 10 2.4 12.2 2.7 2.2.4 4.9.9 6 1.1 10.4 1.8 33.8 2.5 40.6 1.2 5.5-1.1 12.1-4.2 15-7.2 3.1-3 6.8-10.2 10.2-19.4 2.3-6.1 2.4-6.2 4.3-4.5 2.2 2 17.3 15.4 21.8 19.3 1.5 1.4 3.8 3.4 5 4.5 1.2 1.1 5.7 5.1 10.1 9 4.4 3.8 9.8 8.6 12 10.6 2.2 2 5.4 4.9 7 6.3 1.7 1.4 4.2 3.6 5.6 4.9 1.4 1.2 6 5.3 10.3 9.2 4.3 3.8 8.4 7.4 9.2 7.8 1.2.7 1.4 3 1.3 10.3-.2 11.4-1.8 15.4-6.7 16.7-3.3.8-3.3.9-1.8 3.2 3 4.6-2.5 6.5-22.9 8-3.8.3-8.8.8-11 1-4.3.5-25.4 1.7-32.2 1.9-2.4 0-4.3.4-4.3.9 0 .4-.8.3-1.9-.2-1-.6-2-.8-2.3-.6-.6.6-21.2 1.6-41.3 2-8.8.1-18.2.6-21 1-11.2 1.6-29.2 8.3-50.7 19.1-3.8 1.8-6.8 3-6.8 2.6 0-.4-.4-.2-.8.4-1 1.4-17.9 8.7-27.7 11.9-8.8 2.8-16 3.6-21.8 2.3-4.8-1-11.7-4-11.7-5 0-.5-.6-.8-1.4-.8-1.6 0-6.9-5.8-9-9.8-3.9-7.5-1.5-16.5 6.2-23.4 3.6-3.3 10.8-7.7 12.2-7.5.3 0 2.8-.7 5.5-1.6 15.1-4.8 25.9-5.2 114.5-4.4 11.2.1 30.6-.9 31.9-1.7.3-.2 2.9-.6 5.6-1 2.8-.3 7.5-1 10.5-1.7 3-.6 6.7-1.3 8.2-1.5 7.9-1.4 17.8-5.1 26.9-10 4.7-2.5 12.9-10.5 15-14.6 2.5-4.8 3.2-12.8 1.6-17.3-2.4-6.7-9.9-13-16.4-13.9-1.6-.2-3.2-.5-3.8-.7-2.6-.8-13 2.7-23.5 7.8-6.3 3-12.8 5.8-14.5 6.1-5.2 1-15.2.4-18.9-1.2-5.3-2.2-4.6-.2 2.3 6.5 10.4 10.1 19.8 13.5 39.4 14.2 7.7.2 10.1.7 11.5 2.1 1.6 1.7 1.5 1.9-1.8 4.7-3.6 3-12.3 6.3-20.1 7.4-2.4.4-4.6.8-4.9 1-.3.1-3 .6-6.1.9-3.1.4-6.7.9-8 1.1-3.1.6-28.1 1.6-38.4 1.5-12.7-.2-34-1.2-52.5-2.5-5.4-.4-36-.5-41-.1-6.9.6-21.8 3.6-26 5.3-.8.3-2 .7-2.6.8-2.4.6-15.1 6.9-18.9 9.5-3.7 2.6-12.7 11-15 14.1-7.8 10.5-10.4 25.4-6 34 3.9 7.4 13 14.7 27.2 21.8 8.1 4 26 11 30.2 11.8 1.3.2 3.3.9 4.3 1.4 1.8 1 1.7 1.2-1.2 4.7-4.4 5.2-4.2 5-7.7 12.7-2.9 6.4-7.6 21.1-8.7 27.2-2.2 11.6-7.7 21.4-15.9 27.9-5 3.9-18.1 11.1-21.6 11.8-.9.2-2.3.6-3.1.9-.8.4-5.8 2.1-11 3.8-5.2 1.7-11.4 3.9-13.7 5-8.3 3.8-11.3 11.3-8.7 21.4.8 2.7 1.6 6.8 2 9 .3 2.2.7 4.3 1 4.6.2.4.7 2.4 1 4.5.7 4.2.8 4.7 1.7 8.4.7 2.5 1.4 6.1 2.4 11.3.6 3.1 10.9 13.6 18.8 19.2 3.7 2.7 5.8 3.5 8.9 3.4 3.9-.1 15 0 26.6.2 3 0 6.2 0 7-.1.8 0 2.6 0 4 .1 2.6.1 3.6.1 10.5-.1h7.9c5 .1 6.7-1.6 7.1-6.8.5-8.1-5.8-16.4-14.8-19.3-2.6-.8-9.4-1.4-17.7-1.4-14.9-.2-19.5-1.2-23.1-5.3-5.6-6.3-6.5-12.5-2.6-18.2 4.6-6.9 11.1-8.4 28.7-6.5 14.7 1.6 35.1 1.2 45-1 1.4-.2 3.4-.7 4.5-.9 1.1-.2 3.1-.9 4.5-1.4 1.4-.5 2.8-1 3.3-1.1.4 0 2.3-.8 4.3-1.6s3.8-1.5 4.1-1.5c1.7 0 15.1-8.9 19.6-13 4.6-4.2 15.2-18 15.6-20.2.4-2.5 4-8.6 6.1-10.5 4.9-4.4 14.8-2.5 20.5 3.8 5.2 5.7 7.7 12.5 7.8 20.4.1 8.8-1.2 13.4-6.3 21.7-2.2 3.7-4 7.9-4 9.4 0 1.7 2.2 5.8 6.2 11.3 3.4 4.7 6.5 8.8 6.8 9.1.3.3 5.3 7.2 11.1 15.4 5.7 8.2 11.4 15.5 12.6 16.3 1.5 1 4.7 1.5 10 1.4 4.3-.1 10.3-.1 13.3 0 3 0 6.2 0 7-.1.8 0 2.6 0 4 .1s3.4.1 4.5.1c7.6-.3 12-.2 19.3 0 4.5.2 8.2 0 8.2-.3 0-.4.8-.6 1.7-.5 2.6.2 4.5-4.3 3.8-9.4-.8-6.6-4.4-11.3-11.1-14.6-5.3-2.6-6.8-2.8-19.3-3.1-18.7-.3-23-1.6-27.5-8.2-2.5-3.6-6.6-13.3-6.6-15.7 0-.5 2.6-2.1 5.7-3.4 10.5-4.3 21.3-12.7 30.4-23.6 6.2-7.3 17.9-33.4 17.9-39.9 0-3.7 1.2-3.7 6.7 0 13.5 9.1 36.9 19.2 48.8 21.1 2.2.3 4.2.7 4.5.9 1.5.9 16.3 1.8 31.7 1.9 16.7.1 18.5.4 18.9 2.9.7 4.6 5.7 14.8 11.7 24.1 1.7 2.8 7.1 8.8 14.8 16.5 12.2 12.2 17.8 21.5 23.9 39.3 4.2 12.3 4.1 12.2 23.8 11.7 1.5-.1 4.3-.1 6.2 0 1.9.1 4.6.2 6 .2 2.8.1 4.8.1 10.5-.1 2.2-.1 7.6-.1 12 0s8.5.1 9 0c.6-.1 3.2-.2 5.9-.1 6 0 7.5-1.6 7.6-7.7 0-4.7-2.5-10.5-6.2-13.9-4.9-4.6-9.4-5.7-24.4-5.9-14-.1-14.1-.2-17.3-3-3.5-3.1-5.6-7.2-6.5-12.6-.3-1.8-.8-4.3-1-5.6-1.5-7.4-2.8-42.4-1.8-49.5.3-2 1.4-3.2 4.1-4.4 2-1 8.1-6.1 13.6-11.5 5.5-5.3 11.6-10.5 13.6-11.4 4.1-1.8 2.3-2.8 14.7 8.9l5.1 4.7-1.5 3.5c-3.6 8.8 0 16.2 9.6 19.4 3.9 1.2 11.3 1.2 14.6 0 2.3-.8 2.6-.5 37.8 31.4 2.2 2 4.4 3.7 4.8 3.7.4 0 2.2-.8 4-1.8 1.8-1 4.3-2.4 5.6-3.1 2.3-1.2 2.3-1.3.3-3-1.8-1.6-18.3-17-31.8-29.6l-5.3-5.1 2.9-5.4c2.5-4.6 4.3-11 4.4-15.5 0-3.5-1.6-10.5-3.3-14.1-1.8-3.7-13.2-15.7-25.1-26.6-13.6-12.3-16-13.3-35.9-13.7l-6.5-.2 4-1.6c2.2-.9 5.8-2.8 8-4.2 4.1-2.7 8.8-8.7 8-10.2-.3-.4-.1-1 .5-1.4.6-.4 1 .6 1 2.4 0 1.7.4 3.1.9 3.1 1.6 0 7.1-12.3 6.7-15-.9-6.8-1.9-11-2.7-11.6-1.9-1.1-.8-3.4 2.4-4.7 1.7-.8 4.1-2.4 5.1-3.6l1.9-2.1-3.9-.1-3.9-.1 3.8-.8c2.1-.4 4.6-1.4 5.5-2.4 1.5-1.5 1.5-1.6-.3-1.7-1.1-.1-2.3-.1-2.7 0-.4 0-1.7-1.2-3.1-2.8-1.6-1.9-2.3-3.9-2.2-6.2.3-3.7 2.2-11.2 3.5-13.8 2-3.7 4.1-12.2 4.2-17.2.2-8.5-.8-11.6-6.3-19.4-3.6-5-4.4-11.7-1.6-12.3 1-.2 2.6.3 3.6 1.2 2 1.8 1.8 2.3 2.4-7.2.3-3.5 0-8.2-.5-10.5-.8-3.9-4.5-12.6-5.7-13.7-.3-.3-2.1-2.2-4-4.3-3.6-3.9-3.7-5.6-.2-3.7 3 1.6 2.6-.4-.6-3.6-1.6-1.5-2.1-2.4-1.2-2.1 1.6.5 5.9-2.5 5.9-4.1 0-.4-2.9-2.2-6.4-4-8.9-4.6-10.4-6.4-8.7-10.5 1.5-3.8 1.4-3.7 2.9-10.7 1.2-6.3 2.5-17 2-17-.2 0-3.1.9-6.3 2.1-9.1 3.2-14.8 3.5-18.2 1.1-1.5-1.1-5.6-3.4-9-5.1-3.4-1.8-6.4-4-6.8-5-.3-1-1.5-2.3-2.8-2.8-1.7-.8-2.2-1.9-2.3-5.2 0-2.2.3-4.1.7-4.1.3 0 2.9-2.3 5.7-5.2 13.6-14 13.2-27.3-1.1-36.5-7.4-4.7-18-2.8-26.6 4.8-3.8 3.3-4.6 3-5.6-1.8-.5-2.7-.4-3.2.9-2.7.8.3 2.3-.1 3.2-1 1.5-1.6 1.5-1.8 0-3.5-.9-1-1.3-2.1-.9-2.4.3-.4.2-.7-.3-.7-.6 0-1.5.5-2.1 1.1-.7.7-.9.3-.6-1.5.4-1.9.1-2.6-1.1-2.6-.9 0-1.6-.5-1.6-1 0-1.7-2.4-1-5.2 1.4zm-27.4 140.8c.1.2.8 1.1 1.5 2 3.7 4.9-5.3 5.4-9.2.6-1.7-2-1.7-2.3-.2-3.4 1.4-1 7.3-.4 7.9.8zm59.2 0c-.3 2.4-1.8 4-4.9 5.3-6 2.5-8.1-.5-3.4-4.8 2.3-2 8.6-2.4 8.3-.5zM440.8 528.5c-.2.1-3.3.5-6.9.7-20.6 1.5-36.4 20.9-35.2 43.3.3 7.4.4 7.7 2.8 14.2 3.9 10.9 13.2 19.6 24.3 22.9 3.1.9 10.2 1.8 15.8 2 15.2.5 23.5-2.2 31.2-10.3 4.8-5 7.7-10.2 8.7-15.5l.7-3.6-9.6-3.2c-10.7-3.5-10.9-3.6-11.2-1.8-.9 5.4-1.5 7.2-3.4 9.8-4.1 5.8-11.8 7.3-17.6 3.5-2.3-1.5-5.1-6.4-6.1-10.5-.9-3.7-.5-17.9.7-21.9 3.5-13 18-13.5 24.6-.9 1.3 2.5 3.5 3.4 6.7 2.9.8-.1 4.3-.2 6.7-.1.8.1 2.9 0 4.6-.1l3.2-.2v-14.3c0-7.9-.3-14.5-.6-14.5-.4-.1-4.8-.2-9.8-.3-9.1-.2-9.2-.2-8.8 2.1.5 2.4-1.9 3.3-3.1 1.2-.4-.5-1.9-1.5-3.3-2-3.3-1.3-14-3.8-14.4-3.4zM484 534.5c0 15.9 0 15.7 3.5 15.1 1.4-.3 2.8 0 3.1.6.6.9.7 15.1.4 38.5 0 3-.3 3.3-3 3.3-1.7 0-3 .5-3.1 1.2 0 .7-.1 5-.2 9.6l-.2 8.2h5.5c7.7.1 57.1.1 65 0h6.6v-12.5c0-7.8-.4-12.5-1.1-12.6-.5-.1-5.4-.2-10.7-.3l-9.8-.1v6.4l-9.2-.2-9.3-.2v-4.7c-.1-8.1.5-8.8 7.3-8.4 3.3.2 6.6 0 7.3-.5 1-.6 1.4-3.1 1.5-8.3 0-8.6.3-8.3-9.3-8.1-4.7.2-6.3-.2-6.4-1.2-.1-1.7-.1-10.1 0-11.1.1-.4 4.2-.7 9.1-.7h9v3.2c0 3.6-.7 3.4 12.5 3.4 10.1 0 9 1.5 9-12.6.1-7.8-.3-12.5-1-12.6-.5-.1-18-.2-38.8-.3l-37.7-.1v5zM87.8 537.1c-.4 9.2.3 12.4 2.7 12.5 1.1.1 2.5.2 3 .3.7 0 1 7.5 1 20.8l-.1 20.8-3.1.3-3.2.3v9.5c0 9 .1 9.4 2.2 9.5 2.5 0 21.5 0 26.4-.1 3.1 0 3.3-.2 3.3-3.8 0-2 0-5.3.1-7.2.2-7.5-.3-8.5-3.5-8.5h-3l-.1-20.3c0-19.6.4-23.8 2-18.9.4 1.2.8 2.4 1 2.7.1.3.5 1.3.8 2.2.4 1 1 2.6 1.4 3.5.3 1 .7 2 .8 2.3.1.3.5 1.4 1 2.5.4 1.1 2.1 5.6 3.7 10s3.5 9.6 4.3 11.5c2.4 6.1 6.2 16.4 7.6 20.2 1.2 3.6 1.3 3.6 7.1 4 6.5.3 6 .7 9.8-8.7 1.6-4 3.5-9 3.6-9.5 0-.3.6-1.9 1.3-3.5.6-1.7 1.6-4.4 2.2-6 .6-1.7 1.5-3.9 2-5s3.4-8.5 6.4-16.5c3-8 5.5-14.1 5.6-13.5.1.5.2 10.4.3 21.8.1 18 0 21-1.4 21.7-.9.5-2.3.4-3.3-.1-1.7-1-2.3-.1-1.8 2.5.1.5.2 4.5.2 8.8 0 6.7.2 7.8 1.7 7.8 2.6.1 32.2.1 36.7.1l4.1-.1-.2-9.3c-.1-5-.3-9.5-.3-9.8-.1-.3-1.4-.4-3-.1l-3 .4-.1-21.1c0-16.5.2-21.1 1.2-21.2.7-.1 2-.2 2.8-.3 1.2-.1 1.5-1.8 1.6-8.6 0-4.7-.1-9-.3-9.5-.2-.7-8.5-1.1-24.4-1h-24l-1.8 4c-1 2.2-1.9 4.4-2.1 5-.1.5-.7 2.1-1.2 3.5-5.9 16.1-7.8 20.2-7.8 17 0-.8-.6-2.6-1.3-4-.7-1.4-2.3-5.4-3.6-9-1.2-3.6-2.6-7.4-3.1-8.5-1.6-3.9-2.3-6-2.2-6.8.3-1 1.3-1-25.5-1.1l-24.2-.2-.3 6.7zM228.2 540c.3 9 .4 9.5 2.5 9.5 1.2 0 2.4.3 2.7.6.3.3-2.5 9.7-6.3 21l-6.9 20.4-3.4.5-3.3.5v8.7c0 4.7.3 8.9.6 9.3.6.6 7.2.7 25 .6l6.5-.1-.2-8.3c-.2-10.1 0-9.4-2.1-9.4-4 0-4.2-.2-3-3.8.6-1.9 1.5-3.6 2.1-3.6 6.2-.7 20.9-.3 21.6.6.5.6 1 2.4 1.2 4 .2 2.4-.1 3-1.7 3-3.8 0-4.4 1.3-4.4 9.5v8h4.7c5.7.1 30.5.1 34.8 0h3v-9.3l-.1-9.2-2.7-.3c-2.4-.3-3.1-1.4-7.3-12.5-2.6-6.7-5-13.1-5.5-14.2-1.7-4.2-3.2-8.4-3.2-8.9.1-.3-.5-1.8-1.3-3.3-1.7-3.2-1.4-3.6 2.2-3.8l2.8-.1v-8c.1-4.3-.1-8.6-.3-9.4-.3-1.4-4.1-1.6-29.3-1.5h-29l.3 9.5zm27.9 19.2c1.2 4 2.2 7.8 2.3 8.5.1.7.5 1.6.9 1.9 1.7 1.8.2 2.3-6.1 2.3l-6.9-.1 3.6-9.9c2-5.4 3.7-9.9 3.8-9.9.1 0 1.2 3.3 2.4 7.2zM305.7 531.4c-.1.6-.3 4.9-.2 9.6v8.5h3.3c3.1-.1 4 1.2 3.2 5-.1.9-.1 5.8 0 20.1.1 2.9 0 5.6-.1 6-.1.5 0 1.2.1 1.6.2.8.2 6.5.1 9.2-.1 1.1-.8 1.3-3 .6-2-.6-3.1-.4-3.3.3-.4 1-.3 15.3.1 18.2.1.6 6.6.9 17.8.8 9.8-.1 19.6-.2 21.9-.3h4v-9.2l-.1-9.3-3-.5c-3-.5-3-.6-3-7v-6.5h4.3c2.4 0 4.6.2 5 .5.8.6 1.1 1.1 10.6 19.2 7.5 14.3 5.5 12.9 19.1 12.9 18.3 0 17.3.2 17.7-2.9.2-1.5 0-4.4-.3-6.5-.4-2-.3-3.7.1-3.7.5 0 .5-1.2.1-2.8-.5-1.9-1.5-2.8-3.3-3-1.7-.2-3.2-1.6-4.9-4.5-1.3-2.3-2.9-5.1-3.6-6.2-.6-1.1-2.1-3.7-3.1-5.7-1.8-3.4-1.8-3.8-.3-4.3 2.6-.9 6.8-5 8.5-8.3 1.8-3.5 2.1-10.9.6-16.2-1.9-6.9-11.8-14.3-20.9-15.7-7.2-1.1-67-1-67.4.1zm54.6 19.9c3.7 2.4 3.9 5.2.9 8.6-2.4 2.7-3.5 3.1-9.8 3.6l-7.2.5-.1-6.6c0-3.6-.3-6.9-.6-7.4-1.5-2.4 12.8-1.3 16.8 1.3zM566.6 531c-.1.3-.2 4.5-.2 9.5.1 9.5-.1 9.1 5.1 9.4 2 .1 2 .7 2 20.8v20.8l-3.5.5-3.5.5-.1 9.2v9.3l3 .1c17.2.2 72.9-.1 73.3-.5.5-.4.6-8.9.3-27.3v-4.2h-19l-.1 3.2c-.1 1.8 0 4.7.1 6.4.1 3.2 0 3.3-3.7 3.4-2.1.1-4.2 0-4.8-.1-.5-.1-3.1-.2-5.7-.1-3.3.1-4.8-.3-4.9-1.1-.3-7 .2-40.2.7-40.7.3-.3 2-.6 3.7-.6h3.2l.2-9.5.1-9.5h-22.9c-12.7-.1-23.1.2-23.3.5z"/></g></svg>