<svg width="20" height="25" viewBox="0 0 20 25" fill="none" xmlns="http://www.w3.org/2000/svg">
<path d="M0.0537109 23.929V0H9.16609C10.0479 0 10.8318 0.190669 11.6157 0.476672C12.3015 0.762676 12.9874 1.23935 13.5753 1.81135C14.1632 2.38336 14.6531 3.0507 14.9471 3.71804C14.9471 3.71804 15.143 4.29005 15.241 4.57606C15.437 5.14806 15.437 5.62473 15.437 6.10141C15.437 6.86408 15.339 7.43609 15.045 8.10343C14.8491 8.5801 14.5551 9.15211 14.4572 9.34278L14.1632 9.72412L14.5551 9.91479C14.7511 10.0101 15.045 10.2008 15.241 10.2961C15.241 10.3915 15.241 10.3915 15.241 10.4868C15.241 11.6308 14.3592 12.4888 13.1834 12.4888H12.8894C12.2036 12.2028 11.6157 12.0121 10.8318 12.0121H8.87215V8.96144H9.55802C10.0479 8.96144 10.6358 8.77077 11.0278 8.48477C11.0278 8.48477 11.4197 8.19876 11.8116 7.62676C12.1056 7.15009 12.3015 6.67341 12.3015 6.10141V6.00607C12.3015 5.14806 11.9096 4.38539 11.2237 3.81338C10.4399 3.0507 9.36206 3.0507 8.97013 3.0507H3.18915V20.8783H10.8318C12.0076 20.8783 13.1834 20.4016 14.0652 19.5436C14.5551 19.0669 14.9471 18.4949 15.143 17.8275C15.535 17.7322 15.8289 17.6369 16.2208 17.5415C17.1027 17.1602 17.8865 16.6835 18.5724 16.1115C18.5724 16.3022 18.5724 16.3975 18.5724 16.5882C18.5724 17.5415 18.3765 18.5902 17.9845 19.4482C17.5926 20.3062 17.0047 21.1643 16.3188 21.8316C15.6329 22.4989 14.8491 23.0709 13.8693 23.4523C12.8894 23.8336 11.9096 24.0243 10.9298 24.0243H0.0537109V23.929Z" fill="#222222"/>
<path d="M4.6582 19.4481V4.38525H9.1654C10.1452 4.38525 10.9291 5.14793 10.9291 6.10127C10.9291 6.48261 10.7331 6.86395 10.4392 7.14995H7.4997V13.8234H12.6928C12.7908 13.8234 13.2807 13.8234 13.8686 13.728C15.4363 13.442 16.6121 12.2027 16.7101 10.6773C16.7101 10.582 16.7101 10.4867 16.7101 10.3913C16.7101 10.1053 16.7101 9.81931 16.6121 9.53331C16.5141 9.24731 16.4161 9.05664 16.3181 8.86597C16.4161 8.77063 16.4161 8.6753 16.5141 8.48463C16.8081 7.72196 17.004 6.86395 17.004 6.00594C17.004 5.81527 17.004 5.6246 17.004 5.43393C17.298 5.6246 17.5919 5.9106 17.8859 6.10127C18.4738 6.67328 18.8657 7.34062 19.2576 8.00796C19.5516 8.77064 19.7475 9.62864 19.7475 10.3913C19.7475 11.2493 19.5516 12.012 19.2576 12.7747C19.2576 12.87 19.1596 12.9653 19.1596 13.0607L19.0617 13.2513C18.9637 13.5374 18.7677 13.728 18.5717 14.014C18.3758 14.2047 18.1798 14.4907 17.9838 14.7767C17.3959 15.3487 16.7101 15.73 16.0242 16.1114C15.8282 16.2067 15.6323 16.2067 15.5343 16.302L14.9464 16.3974C14.9464 16.3974 14.4565 16.4927 14.2605 16.5881C13.8686 16.6834 13.5746 16.6834 13.2807 16.6834H7.4997V19.4481H4.6582Z" fill="#222222"/>
</svg>
