<svg width="175" height="35" viewBox="0 0 175 35" fill="none" xmlns="http://www.w3.org/2000/svg">
  <path fill-rule="evenodd" clip-rule="evenodd" d="M61.0224 2.00488L62.0582 1.71292C62.3535 1.59976 62.6829 1.49339 63.0463 1.3938C63.4098 1.29422 63.8186 1.16295 64.2729 1V26.0812L62.6306 26.5768C62.0537 26.7488 61.454 26.9435 60.8316 27.1607L58.726 27.8397L58.0445 28.0502V25.2189C57.3097 26.0931 56.4177 26.823 55.4141 27.3712C54.5494 27.8198 53.5883 28.0528 52.6134 28.0502C51.7227 28.0566 50.8445 27.842 50.058 27.4255C49.2633 27.0078 48.5666 26.4269 48.0136 25.7213C47.4007 24.9467 46.9385 24.0647 46.6507 23.1209C46.3191 22.0665 46.1558 20.9667 46.1669 19.8618C46.1566 18.4677 46.4157 17.0845 46.9301 15.788C47.3988 14.5685 48.0921 13.447 48.9745 12.4814C49.8339 11.553 50.8691 10.803 52.0205 10.2747C53.2151 9.72914 54.5158 9.45324 55.8298 9.46677C56.1839 9.46232 56.5376 9.49188 56.8861 9.55503C57.2879 9.63496 57.6823 9.74852 58.065 9.89452V2.81285L58.4125 2.73138C58.7896 2.64085 59.228 2.52542 59.7277 2.3851L61.0224 2.00488ZM56.9678 25.5787C57.3769 25.3125 57.7443 24.9877 58.0581 24.6146L58.0786 11.816C58.0934 11.3064 57.9159 10.8097 57.5811 10.4241C57.4128 10.2467 57.2084 10.1071 56.9816 10.0146C56.7548 9.92213 56.5108 9.87887 56.2659 9.88773C55.1347 9.88773 54.2738 10.6459 53.6833 12.1623C53.0198 14.3272 52.7295 16.5885 52.8246 18.8501C52.8246 21.3216 53.0518 23.1028 53.5061 24.1936C53.6784 24.6819 54.0027 25.1026 54.4317 25.3945C54.8607 25.6863 55.372 25.8341 55.8911 25.8164C56.2645 25.8298 56.6351 25.748 56.9678 25.5787ZM13.1792 18.8978L7.33235 4.04192H0V27.5818H0.463383V5.5696L9.81963 28.7497L19.1622 5.03321V27.5818H26.1334V4.04192H19.0941L13.1792 18.8978ZM45.1659 13.9684C45.163 13.2792 45.0644 12.5938 44.8729 11.9315C44.6542 11.3413 44.277 10.8223 43.7826 10.431C42.8539 9.75193 41.716 9.41805 40.5661 9.48723C40.0106 9.48968 39.4556 9.52141 38.9034 9.58229C37.9998 9.68138 37.1032 9.83557 36.2185 10.044C34.6539 10.4115 33.1309 10.937 31.6733 11.6124C28.9475 12.8662 27.5846 14.3487 27.5846 16.0597C27.5682 16.3886 27.6208 16.7173 27.7391 17.0248C27.8573 17.3323 28.0386 17.6119 28.2714 17.8458C28.5041 18.0796 28.7832 18.2625 29.0909 18.3828C29.3986 18.5032 29.728 18.5583 30.0583 18.5447C30.5192 18.5573 30.9779 18.4765 31.4066 18.3073C31.8353 18.1381 32.2251 17.8839 32.5523 17.5602C33.2643 16.8482 33.699 15.9073 33.7789 14.9054L33.9152 13.8326C33.98 13.2253 34.1103 12.6266 34.3037 12.047C34.4334 11.6481 34.6688 11.2915 34.9851 11.0149C35.235 10.82 35.516 10.6685 35.8165 10.5668C36.1235 10.4413 36.4522 10.3767 36.7841 10.3767C37.2006 10.3655 37.609 10.493 37.9446 10.7389C38.2803 10.9848 38.5242 11.3352 38.6376 11.7346C38.8067 12.5841 38.8867 13.4488 38.8761 14.3147V17.0713C35.7803 17.8977 32.7828 19.0541 29.9356 20.5205C28.3047 21.4801 27.4892 22.7068 27.4892 24.2005C27.4767 24.7457 27.6003 25.2855 27.8488 25.7714C28.0974 26.2573 28.4632 26.6741 28.9134 26.9843C29.9776 27.7361 31.2627 28.1135 32.566 28.0571C34.0742 28.098 35.5586 27.6761 36.8182 26.8485C37.2029 26.6111 37.5575 26.3284 37.8744 26.0066C38.2724 25.6055 38.6327 25.1692 38.9511 24.7029C39.4054 26.9662 40.582 28.0978 42.481 28.0978C43.4303 28.0862 44.3637 27.8537 45.2068 27.4188L45.786 27.1065C45.786 27.1065 45.2068 26.4275 45.2068 24.6011L45.1659 13.9684ZM38.9034 23.1074C38.9269 23.7665 38.7277 24.4144 38.3378 24.9474C38.15 25.1735 37.9116 25.3527 37.6418 25.4706C37.372 25.5885 37.0783 25.6418 36.7841 25.6263C36.4771 25.6361 36.1732 25.5631 35.9045 25.4149C35.6358 25.2666 35.4123 25.0488 35.2577 24.7844C34.8596 24.0383 34.6757 23.1972 34.7262 22.3537C34.7006 21.5942 34.8352 20.8379 35.1214 20.1335C35.3815 19.5344 35.8068 19.0211 36.348 18.6533C36.6514 18.4073 36.9917 18.2102 37.3565 18.0694C37.6882 17.9427 38.1947 17.7594 38.8761 17.5194L38.9034 23.1074ZM83.7692 1C83.3149 1.16295 82.906 1.29422 82.5426 1.3938C82.1791 1.49339 81.8452 1.59749 81.5408 1.70613L80.505 1.99809L79.2103 2.37831C78.7106 2.51863 78.2722 2.63406 77.8951 2.72459L77.5476 2.80606V9.89451C77.1649 9.74851 76.7705 9.63495 76.3687 9.55503C76.0202 9.49224 75.6665 9.46269 75.3124 9.46676C74.0048 9.45836 72.7113 9.73652 71.5236 10.2815C70.3722 10.8098 69.337 11.5598 68.4775 12.4882C67.5949 13.4536 66.9016 14.5751 66.4332 15.7948C65.9188 17.0913 65.6596 18.4744 65.67 19.8686C65.6589 20.9735 65.8221 22.0733 66.1538 23.1276C66.4412 24.0716 66.9035 24.9536 67.5167 25.7281C68.0696 26.4337 68.7664 27.0145 69.561 27.4323C70.3475 27.8487 71.2258 28.0634 72.1164 28.057C73.0914 28.0601 74.0526 27.8271 74.9172 27.378C75.9211 26.8303 76.8132 26.1003 77.5476 25.2257V28.057L78.229 27.8465C79.0013 27.6066 79.7032 27.3803 80.3347 27.1675C80.9662 26.9548 81.5658 26.7601 82.1337 26.5836L83.776 26.088L83.7692 1ZM77.5476 24.6146C77.2334 24.9874 76.8661 25.3122 76.4573 25.5787C76.1244 25.7477 75.7539 25.8295 75.3806 25.8164C74.8614 25.8341 74.3501 25.6863 73.9211 25.3944C73.4922 25.1026 73.1679 24.6819 72.9955 24.1936C72.5412 23.1027 72.3141 21.3216 72.3141 18.8501C72.2107 16.5923 72.4918 14.3334 73.1454 12.1691C73.736 10.6527 74.5969 9.89451 75.7281 9.89451C75.973 9.88565 76.217 9.92892 76.4437 10.0214C76.6705 10.1139 76.8749 10.2535 77.0433 10.4309C77.3781 10.8165 77.5556 11.3131 77.5407 11.8228L77.5476 24.6146ZM97.4606 21.0092C97.8967 20.1537 98.267 19.4001 98.5713 18.7483L102.96 9.93524H103.491L93.59 29.7001C92.9213 31.2257 91.9394 32.5949 90.7075 33.7196C89.7632 34.5402 88.5533 34.9935 87.3002 34.996C86.216 35.0417 85.1523 34.6916 84.3087 34.0115C83.9363 33.6927 83.6402 33.2949 83.4421 32.8473C83.244 32.3997 83.149 31.9136 83.1639 31.4247C83.1524 31.0211 83.2252 30.6196 83.3777 30.2455C83.5302 29.8715 83.759 29.5332 84.0498 29.2519C84.3409 28.9699 84.6854 28.7484 85.0633 28.6003C85.4412 28.4523 85.8449 28.3807 86.2508 28.3897C86.7937 28.3738 87.3307 28.5053 87.8045 28.7699C88.3424 29.1084 88.806 29.5518 89.1674 30.0735C89.2669 30.1837 89.3601 30.2993 89.4468 30.4198C89.516 30.5106 89.5911 30.5968 89.6717 30.6778C89.8178 30.866 90.0031 31.0205 90.2149 31.1307C90.4266 31.2408 90.6597 31.3041 90.8983 31.316C91.4167 31.2976 91.9067 31.0755 92.2612 30.6982C92.8197 30.0945 93.2796 29.4071 93.6241 28.6612L94.0193 27.8872L85.1605 9.92845H91.975L93.9035 13.8189C93.9716 13.9887 94.0602 14.1652 94.1556 14.3418L97.4606 21.0092ZM119.989 10.913C119.611 10.426 119.103 10.0544 118.524 9.84027C117.84 9.57603 117.111 9.44689 116.377 9.46005C115.818 9.45667 115.261 9.51359 114.715 9.62979L114.524 9.67732C114.05 9.80038 113.593 9.97811 113.161 10.2069C112.605 10.4942 112.078 10.8329 111.587 11.2186C110.981 11.7139 110.41 12.2493 109.876 12.821V9.46684L108.459 9.94891L107.348 10.3088C107.14 10.3839 106.914 10.4562 106.697 10.5255C106.581 10.5627 106.467 10.5991 106.36 10.6347L105.256 10.947L104.098 11.3136L103.6 11.4426V27.5818H109.876V13.4049C110.572 12.6688 111.516 12.2143 112.527 12.1284C112.867 12.1302 113.2 12.219 113.495 12.3864C113.772 12.524 113.997 12.7481 114.135 13.0246C114.227 13.1825 114.298 13.3513 114.347 13.5271C114.399 13.7502 114.433 13.9773 114.449 14.2061C114.471 14.4912 114.487 14.8647 114.496 15.3264V15.7473V27.5818H120.779V14.0838C120.77 13.496 120.711 12.91 120.602 12.3321C120.51 11.8184 120.3 11.3328 119.989 10.913ZM138.047 22.5844C138.403 22.3605 138.724 22.086 139.001 21.7696C139.318 21.3797 139.605 20.9666 139.859 20.5339L140.173 20.6697C139.964 21.2355 139.773 21.713 139.601 22.1023C139.458 22.4548 139.297 22.7994 139.117 23.1343C138.944 23.4467 138.76 23.7454 138.565 24.0306L137.883 24.9472C137.085 25.9291 136.074 26.7183 134.926 27.2557C133.725 27.7956 132.42 28.0668 131.103 28.0501C129.837 28.0656 128.58 27.835 127.403 27.3711C126.291 26.9413 125.278 26.2924 124.425 25.4632C123.577 24.6487 122.906 23.6687 122.455 22.5844C121.983 21.444 121.751 20.2192 121.774 18.9858C121.765 17.7126 122.018 16.4509 122.517 15.2787C122.995 14.149 123.689 13.1228 124.561 12.2572C125.442 11.3906 126.48 10.6992 127.621 10.2203C129.865 9.30601 132.365 9.23125 134.66 10.0098C135.616 10.3471 136.499 10.8608 137.263 11.5239C138.038 12.1939 138.675 13.008 139.137 13.9207C139.629 14.9089 139.945 15.975 140.071 17.0711H128.343C128.366 21.4709 130.337 23.6707 134.258 23.6707C135.604 23.7117 136.929 23.3319 138.047 22.5844ZM131.362 9.96231C130.367 9.96231 129.617 10.5326 129.113 11.6733C128.518 13.2559 128.244 14.9408 128.309 16.6298H133.761V15.6114V14.8509C133.751 14.6336 133.74 14.4277 133.726 14.233C133.713 14.0384 133.695 13.8257 133.672 13.5948C133.671 12.6303 133.438 11.6801 132.991 10.8246C132.822 10.5483 132.582 10.3224 132.295 10.1707C132.008 10.0189 131.686 9.94696 131.362 9.96231ZM151.821 16.2569L149.415 15.4829C147.18 14.7587 146.063 13.6904 146.063 12.2782C146.051 11.9645 146.106 11.652 146.223 11.3607C146.341 11.0695 146.518 10.8061 146.744 10.5875C146.976 10.3654 147.249 10.1911 147.548 10.0746C147.848 9.95807 148.167 9.90164 148.489 9.90855C149.115 9.92008 149.728 10.0857 150.274 10.3906C150.935 10.7366 151.542 11.1782 152.073 11.701C152.696 12.3213 153.253 13.0039 153.736 13.7379C154.281 14.5352 154.738 15.3889 155.099 16.2841H155.467L155.099 10.4993C153.982 10.1623 152.844 9.90369 151.691 9.72523C150.732 9.56377 149.761 9.47751 148.788 9.46722C147.767 9.45771 146.751 9.60895 145.777 9.91534C144.91 10.1751 144.096 10.5842 143.371 11.1239C142.721 11.6246 142.179 12.2504 141.776 12.9639C141.387 13.6734 141.185 14.4703 141.19 15.2792C141.186 15.9073 141.314 16.5293 141.566 17.1049C141.818 17.6804 142.19 18.1966 142.656 18.6197C143.623 19.5522 145.243 20.4032 147.514 21.1727L149.245 21.7702C150.203 22.0291 151.094 22.4925 151.855 23.1281C152.099 23.3824 152.289 23.6829 152.414 24.0118C152.54 24.3407 152.597 24.6913 152.584 25.0428C152.602 25.3796 152.551 25.7165 152.434 26.0328C152.317 26.3492 152.136 26.6385 151.903 26.8828C151.654 27.1161 151.36 27.2966 151.039 27.4134C150.718 27.5301 150.377 27.5806 150.036 27.5618C149.232 27.552 148.443 27.3518 147.732 26.9779C146.899 26.5357 146.137 25.9728 145.47 25.3076C144.67 24.5101 143.955 23.6318 143.337 22.6868C142.628 21.5714 142.008 20.4023 141.483 19.1901H141.122L141.483 26.2038L142.213 26.4822C142.41 26.5637 142.621 26.6384 142.839 26.7063C143.058 26.7742 143.276 26.8421 143.521 26.91L144.489 27.1884C145.102 27.383 145.633 27.5324 146.083 27.6365C146.533 27.7406 146.949 27.8198 147.33 27.8741C147.673 27.9388 148.018 27.9842 148.366 28.0099C148.689 28.0325 149.018 28.0439 149.354 28.0439C150.423 28.0548 151.486 27.892 152.502 27.5618C153.414 27.2738 154.261 26.8127 154.996 26.2038C155.682 25.651 156.237 24.9559 156.625 24.1669C157.02 23.3693 157.221 22.4899 157.211 21.6004C157.226 21.0117 157.121 20.4262 156.9 19.8797C156.68 19.3332 156.35 18.8375 155.93 18.4228C154.743 17.399 153.338 16.6583 151.821 16.2569ZM168.595 16.2562C170.109 16.6724 171.507 17.4271 172.684 18.4628C173.11 18.864 173.449 19.347 173.682 19.8826C173.915 20.4183 174.037 20.9955 174.04 21.5793C174.05 22.4689 173.849 23.3482 173.454 24.1458C173.066 24.9348 172.51 25.6299 171.825 26.1827C171.09 26.7915 170.243 27.2527 169.331 27.5407C168.315 27.8709 167.252 28.0337 166.183 28.0227C165.847 28.0227 165.517 28.0114 165.195 27.9888C164.847 27.963 164.501 27.9177 164.159 27.853C163.777 27.7987 163.362 27.7195 162.912 27.6154C162.462 27.5112 161.931 27.3619 161.317 27.1672L160.35 26.8889C160.104 26.821 159.886 26.7531 159.668 26.6852C159.45 26.6173 159.239 26.5426 159.041 26.4611L158.312 26.1827L157.951 19.169H158.312C158.837 20.3812 159.457 21.5503 160.166 22.6657C160.778 23.6293 161.491 24.5259 162.292 25.3408C162.959 26.006 163.721 26.5689 164.554 27.0111C165.265 27.385 166.054 27.5852 166.858 27.595C167.199 27.6138 167.54 27.5633 167.861 27.4466C168.182 27.3298 168.476 27.1493 168.725 26.916C168.958 26.6716 169.139 26.3824 169.256 26.066C169.373 25.7496 169.424 25.4128 169.406 25.076C169.419 24.7245 169.362 24.3739 169.237 24.045C169.111 23.7161 168.921 23.4156 168.677 23.1613C167.916 22.5257 167.026 22.0623 166.067 21.8034L164.336 21.2059C162.065 20.4364 160.445 19.5854 159.478 18.6529C159.014 18.2286 158.646 17.7119 158.395 17.1364C158.145 16.5609 158.02 15.9395 158.026 15.3124C158.02 14.5035 158.222 13.7066 158.612 12.9971C159.015 12.2836 159.557 11.6578 160.207 11.1571C160.932 10.6174 161.746 10.2083 162.612 9.94854C163.586 9.64215 164.603 9.49091 165.624 9.50042C166.585 9.50125 167.544 9.57616 168.493 9.72448C169.646 9.90295 170.784 10.1616 171.9 10.4985L172.268 16.2833H171.9C171.539 15.3881 171.082 14.5345 170.537 13.7372C170.055 13.0032 169.498 12.3206 168.875 11.7003C168.343 11.1775 167.737 10.7359 167.076 10.3899C166.53 10.0849 165.916 9.91934 165.29 9.9078C164.969 9.9009 164.649 9.95733 164.35 10.0738C164.051 10.1904 163.777 10.3647 163.546 10.5868C163.311 10.8011 163.125 11.0626 162.999 11.3541C162.873 11.6455 162.811 11.9602 162.817 12.2774C162.817 13.6897 163.941 14.7579 166.19 15.4822L168.595 16.2562Z" fill="black"/>
</svg>
