<svg width="99" height="22" fill="none" xmlns="http://www.w3.org/2000/svg"><path d="M10.4 9.32c3.8.88 6.68 2.12 6.68 6.04 0 3.56-3.44 6.04-8.04 6.04-4.08 0-6.84-1.88-8.32-3.8l2.76-2.52c1.24 1.56 3.2 2.56 5.4 2.56s3.84-.6 3.84-2.12c0-1.44-1.16-1.96-4.72-2.68-3.84-.76-6.48-2.44-6.48-6.16C1.52 3.24 4.64.76 9.44.76c3.52 0 6.36 1.6 7.68 3.48l-2.76 2.68c-1.08-1.44-2.84-2.4-4.92-2.4-1.6 0-3.56.64-3.56 2.16 0 1.6 1.56 1.96 4.52 2.64Zm13.092 3.32c.56 3.36 2.8 5 6.08 5 2.08 0 3.56-.8 4.64-2.36l2.76 2.64c-1.32 1.84-3.6 3.48-7.72 3.48-6 0-10.28-4.2-10.28-10.36 0-5.64 4.08-10.28 9.68-10.28 6.12 0 9.48 4.56 9.48 10.56v1.32h-14.64Zm-.04-3.32h10.44c-.24-3.08-2.28-4.8-5.28-4.8-2.84 0-4.72 1.76-5.16 4.8ZM49.5.76c5 0 8.8 2.6 8.8 7.6V21h-4.24V8.76c0-2.84-1.72-4.24-4.56-4.24s-4.56 1.4-4.56 4.24V21H40.7V8.36c0-5 3.8-7.6 8.8-7.6Zm20.47 8.56c3.8.88 6.68 2.12 6.68 6.04 0 3.56-3.44 6.04-8.04 6.04-4.08 0-6.84-1.88-8.32-3.8l2.76-2.52c1.24 1.56 3.2 2.56 5.4 2.56s3.84-.6 3.84-2.12c0-1.44-1.16-1.96-4.72-2.68-3.84-.76-6.48-2.44-6.48-6.16 0-3.44 3.12-5.92 7.92-5.92 3.52 0 6.36 1.6 7.68 3.48l-2.76 2.68c-1.08-1.44-2.84-2.4-4.92-2.4-1.6 0-3.56.64-3.56 2.16 0 1.6 1.56 1.96 4.52 2.64ZM88.662.76c6.48 0 10.08 4.64 10.08 10.28s-3.6 10.36-10.08 10.36c-6.52 0-10.12-4.72-10.12-10.36S82.142.76 88.662.76Zm-5.76 10.28c0 3.52 1.8 6.56 5.76 6.56 3.92 0 5.72-3.04 5.72-6.56 0-3.44-1.92-6.52-5.72-6.52-3.96 0-5.76 3.08-5.76 6.52Z" fill="#000"/></svg>