<svg xmlns="http://www.w3.org/2000/svg" viewBox="0 0 67 20"><defs><linearGradient y2="100%" y1="0%" x2="50%" x1="50%" id="a"><stop offset="0%"/><stop offset="100%"/></linearGradient></defs><g fill-rule="evenodd" fill="none"><path d="M9.872 4.356c-.48-.111-1.166-.156-1.577-.156-.389 0-.846 0-1.303.067a12.436 12.436 0 0 1-3.941 4.237v2.687c.201-.115.402-.235.603-.356l.001.001a18.99 18.99 0 0 0 2.219-1.61c1.462-1.254 2.835-2.876 3.998-4.87" fill="#000"/><path transform="translate(.18)" d="M2.583 8.69V.112A8.531 8.531 0 0 0 1.28 0C.846 0 .434.045 0 .112v14.7c.457.089.892.111 1.303.111.434 0 .869-.022 1.28-.112V8.69z" fill="url(#a)"/><path d="M5.895 9.614c-.397.329-1.39 1.128-2.03 1.455l3.424 3.81c.388.044.983.066 1.303.066.709 0 1.486-.111 1.874-.2L5.895 9.613z" fill="#000"/><path d="M16.3 3.774c1.43 0 2.612.46 3.543 1.379.931.918 1.397 2.092 1.397 3.514 0 .403-.026.854-.077 1.351l-.024.22h-8.04l.005.064c.088.845.392 1.555.913 2.134l.054.059.056.058c.625.636 1.407.953 2.353.953.421 0 .8-.031 1.139-.093.335-.062.634-.16.899-.293l.056-.029.107-.055.1-.052.09-.05.081-.046.073-.043.034-.02.06-.04.07-.047.077-.053.083-.06.14-.1.205-.155.059.028c.247.12.471.307.672.561.184.234.311.468.38.702l.016.06.016.063-.05.042c-1.256 1.06-2.7 1.591-4.33 1.591-1.631 0-2.961-.53-3.982-1.587-1.021-1.057-1.53-2.46-1.53-4.2 0-1.682.513-3.08 1.54-4.189 1.027-1.11 2.302-1.667 3.815-1.667zm0 1.855c-.88 0-1.602.282-2.174.848-.536.53-.866 1.185-.991 1.966l-.008.052h5.966l-.003-.082a3.609 3.609 0 0 0-.128-.804l-.026-.085a3.26 3.26 0 0 0-.474-.949 2.136 2.136 0 0 0-.863-.687c-.372-.172-.804-.259-1.299-.259z" fill-rule="nonzero" fill="#040404"/><path d="M32.6 4.126c.345 0 .72.078 1.124.234-1.026 3.93-2.263 7.167-3.71 9.71-1.064 1.857-2.45 3.729-4.159 5.615a1.55 1.55 0 0 1-.798-.397 2.005 2.005 0 0 1-.517-.732c1.289-1.425 2.263-2.681 2.923-3.77-1.844-3.043-3.294-6.54-4.351-10.493a3.91 3.91 0 0 1 1.147-.167c.277 0 .554.022.832.067.404 1.543.865 2.99 1.382 4.34.518 1.35 1.162 2.8 1.934 4.351.03.075.09.187.18.336.007-.015.034-.06.079-.134.044-.075.074-.135.09-.18 1.206-2.319 2.233-5.223 3.08-8.713a4.39 4.39 0 0 1 .764-.067" fill="#FFF"/><path d="M53.874 4.02c-.345 0-.667.03-.966.092l-.085.017v8.905l.07-.025a7.548 7.548 0 0 1-2.65.475c-.65 0-1.182-.07-1.597-.208-.407-.134-.713-.344-.92-.627a2.555 2.555 0 0 1-.438-.968c-.08-.36-.121-.817-.121-1.37v-6.18l-.083-.019a4.427 4.427 0 0 0-.945-.092c-.344 0-.666.03-.965.092l-.085.017v6.943c0 1.347.402 2.411 1.207 3.186.805.774 1.976 1.16 3.508 1.16 1.02 0 1.918-.095 2.695-.284.773-.187 1.553-.45 2.339-.788l.064-.028V4.131l-.083-.019a4.427 4.427 0 0 0-.945-.092zm8.768-.246c-1.371 0-2.462.312-3.27.94-.812.63-1.22 1.44-1.22 2.42 0 .539.104 1.012.315 1.419.21.408.514.737.908.986.386.244.803.434 1.251.571.41.126.873.222 1.39.29l.13.016c.996.125 1.694.32 2.09.582.383.253.57.587.57 1.014 0 .472-.201.844-.611 1.127-.418.287-1.082.434-1.992.434a5.43 5.43 0 0 1-1.477-.186l-.073-.02-.137-.042c-.333-.103-.578-.206-.734-.306a6.603 6.603 0 0 1-.57-.411l-.137-.11-.063.039c-.501.303-.868.766-1.101 1.384l-.025.065.05.048c.371.354.907.672 1.608.956.703.285 1.59.427 2.66.427 1.43 0 2.56-.322 3.387-.968.831-.65 1.249-1.552 1.249-2.694 0-.988-.374-1.751-1.118-2.279-.712-.504-1.73-.85-3.053-1.043l-.114-.016a12.954 12.954 0 0 1-.256-.038l-.16-.027-.155-.029c-.628-.12-1.072-.273-1.327-.452-.316-.222-.473-.535-.473-.949 0-.404.177-.718.537-.952.37-.24.94-.363 1.707-.363 1.188 0 2.236.278 3.149.834l.067.041.058-.052c.43-.38.707-.867.832-1.455l.013-.062-.05-.04c-.37-.309-.9-.568-1.587-.781a7.65 7.65 0 0 0-2.268-.318z" fill-rule="nonzero" fill="#040404"/><path d="M43.178 4.237c.023.276-.007.562-.09.856a2.124 2.124 0 0 1-.37.755 7.78 7.78 0 0 0-1.98-.235c-.981 0-1.772.187-2.371.56v8.814c-.27.06-.585.09-.945.09-.337 0-.652-.03-.944-.09V5.03c.487-.41 1.126-.652 1.917-.935.79-.284 3.399-.435 4.783.143z" fill="#040404"/><path d="M32.6 4.02c-.26 0-.521.023-.783.069l-.068.012-.016.067c-.845 3.483-1.87 6.38-3.072 8.69l-.01.026a1.012 1.012 0 0 1-.057.115l-.007.01-.026-.047-.027-.053-.02-.044-.009-.02a50.178 50.178 0 0 1-1.933-4.35 41.316 41.316 0 0 1-1.307-4.058l-.09-.337-.067-.011a5.305 5.305 0 0 0-.85-.069c-.407 0-.8.058-1.177.173l-.098.03.088.326c1.033 3.792 2.431 7.164 4.195 10.115l.073.121-.082.134c-.553.88-1.308 1.87-2.264 2.968l-.208.236-.107.12-.217.242-.044.049.025.061c.118.29.3.548.543.77.247.227.532.369.852.424l.057.01.04-.043c1.713-1.892 3.104-3.77 4.173-5.634 1.426-2.507 2.647-5.683 3.666-9.528l.078-.298-.088-.034c-.416-.16-.804-.242-1.163-.242z" fill-rule="nonzero" fill="#040404"/></g></svg>