<svg fill="none" height="40" viewBox="0 0 41 40" width="41" xmlns="http://www.w3.org/2000/svg"><path d="M39.8015 21.9999H31.3134C31.0507 21.9999 30.7907 21.9482 30.548 21.8477C30.3053 21.7472 30.0848 21.5999 29.8991 21.4142C29.524 21.0391 29.3134 20.5304 29.3134 20C29.3134 19.4696 29.524 18.9609 29.8991 18.5858L36.2428 12.2427C38.5857 9.89969 38.5857 6.10058 36.2428 3.75759C33.8998 1.4146 30.1007 1.41432 27.7574 3.75759L26.0001 5.51456V0.201024C26.0001 0.147976 25.9791 0.0970959 25.9416 0.0595592C25.9041 0.0220224 25.8533 0.000897833 25.8002 0.000824964H22.2016C22.1752 0.000643599 22.149 0.00568808 22.1245 0.0156678C22.1001 0.0256475 22.0779 0.0403653 22.0591 0.0589736C22.0404 0.0775819 22.0255 0.0997131 22.0154 0.124092C22.0052 0.148472 22 0.174618 22 0.201024V8.68695C22.0004 9.20844 21.7963 9.70931 21.4316 10.082L21.4134 10.1002C21.3184 10.1954 21.2139 10.2807 21.1016 10.3548C21.0955 10.3589 21.0889 10.3625 21.0826 10.3666C21.0342 10.3977 20.9847 10.4274 20.9344 10.4541C20.922 10.4607 20.9085 10.4662 20.8959 10.4725C20.8505 10.4953 20.8049 10.5173 20.7584 10.5366C20.7433 10.5426 20.727 10.5476 20.7116 10.5536C20.6665 10.5707 20.6214 10.5875 20.5741 10.6012C20.556 10.6067 20.5373 10.6106 20.5191 10.6152C20.4751 10.6273 20.4309 10.6392 20.386 10.648C20.3616 10.6526 20.3365 10.6554 20.3118 10.6592C20.2727 10.6653 20.2337 10.6722 20.1944 10.676C20.1394 10.6815 20.0813 10.684 20.0239 10.6848C20.0156 10.6848 20.0074 10.6848 19.9988 10.6848C19.9317 10.6848 19.8652 10.6812 19.7997 10.6749C19.781 10.673 19.7629 10.6691 19.7447 10.6669C19.6974 10.6609 19.6504 10.6546 19.6045 10.6455C19.5836 10.6414 19.563 10.635 19.5423 10.6304C19.4989 10.6199 19.4552 10.61 19.4128 10.5968C19.3952 10.5916 19.3779 10.5844 19.3603 10.5787C19.3155 10.5633 19.2704 10.5479 19.2266 10.5297C19.2148 10.5248 19.2035 10.5187 19.1917 10.5135C19.143 10.4918 19.0946 10.4695 19.0482 10.4442C19.0438 10.442 19.0396 10.439 19.0352 10.4368C18.7217 10.2642 18.4601 10.0106 18.278 9.70247C18.0959 9.39434 17.9998 9.04296 17.9999 8.68502V3.99904V0.201024C18.0001 0.148117 17.9794 0.097274 17.9422 0.0596059C17.9051 0.0219379 17.8545 0.000508267 17.8016 0H14.1991C14.1461 0.000291026 14.0953 0.021625 14.058 0.0593166C14.0206 0.0970082 13.9998 0.147975 14 0.201024V5.51483L12.3313 3.84586C10.0197 1.53394 6.25384 1.39232 3.87868 3.63961C1.41523 5.97161 1.37481 9.85982 3.7574 12.2427L5.51464 14.0002H0.201664C0.175387 14.0002 0.14936 14.0053 0.125072 14.0153C0.100784 14.0254 0.0787123 14.0401 0.0601184 14.0587C0.0415246 14.0772 0.0267738 14.0993 0.0167095 14.1236C0.00664514 14.1478 0.00146482 14.1739 0.00146484 14.2001V17.801C0.00175554 17.8539 0.0229762 17.9045 0.0604894 17.9418C0.0980026 17.9791 0.148758 18.0001 0.201664 18.0001H8.68538C8.948 18 9.20806 18.0517 9.45069 18.1522C9.69331 18.2528 9.91376 18.4001 10.0994 18.5858C10.4745 18.9609 10.6852 19.4697 10.6852 20.0001C10.6852 20.5306 10.4745 21.0393 10.0994 21.4145L3.7574 27.7573C1.37481 30.1402 1.41523 34.0273 3.87868 36.3604C6.25302 38.608 10.0197 38.4661 12.3313 36.1541L14 34.4852V39.8009C14.0001 39.854 14.0212 39.9048 14.0587 39.9423C14.0963 39.9798 14.1472 40.0008 14.2002 40.0008H17.8016C17.8546 40.0008 17.9054 39.9797 17.9429 39.9422C17.9804 39.9047 18.0015 39.8539 18.0015 39.8009V31.315C18.0012 31.0518 18.053 30.7912 18.154 30.5481C18.2549 30.305 18.4029 30.0843 18.5895 29.8987C18.6359 29.8525 18.684 29.8091 18.7338 29.7684C18.7572 29.7491 18.7822 29.7321 18.8064 29.7134C18.8306 29.6947 18.8614 29.6708 18.8909 29.6515C18.9203 29.6323 18.9494 29.6155 18.9789 29.5965C19.0083 29.5775 19.0317 29.5638 19.0589 29.5492C19.0861 29.5346 19.1194 29.5198 19.1502 29.5052C19.181 29.4906 19.2071 29.4777 19.236 29.4653C19.2649 29.453 19.2965 29.4431 19.3267 29.4323C19.357 29.4216 19.3892 29.409 19.4208 29.3993C19.4524 29.3897 19.4824 29.3834 19.5132 29.3757C19.544 29.368 19.5778 29.3584 19.6105 29.3518C19.6433 29.3452 19.682 29.3405 19.7181 29.3355C19.7456 29.3314 19.7753 29.3259 19.8041 29.3232C19.9354 29.3096 20.0678 29.3096 20.199 29.3232C20.2265 29.3259 20.2565 29.3314 20.2854 29.3355C20.3211 29.3405 20.3572 29.3449 20.3924 29.3518C20.4276 29.3586 20.4578 29.3674 20.4903 29.3757C20.5227 29.3839 20.5521 29.3903 20.5821 29.3993C20.6121 29.4084 20.6454 29.4213 20.6767 29.4326C20.7081 29.4439 20.7375 29.4532 20.7666 29.4653C20.7958 29.4774 20.8247 29.4928 20.8535 29.5058C20.8824 29.5187 20.9146 29.5333 20.944 29.5492C20.9734 29.5652 20.999 29.5811 21.0249 29.5971C21.0507 29.613 21.084 29.6312 21.112 29.6499C21.1401 29.6686 21.1695 29.6917 21.1978 29.7131C21.2218 29.731 21.2462 29.7475 21.2691 29.7665C21.3194 29.8077 21.3686 29.8517 21.4156 29.8987C21.6016 30.0842 21.7491 30.3046 21.8496 30.5473C21.9501 30.79 22.0017 31.0501 22.0014 31.3128V39.7987C22.0015 39.8517 22.0226 39.9026 22.0601 39.9401C22.0977 39.9776 22.1485 39.9986 22.2016 39.9986H25.8016C25.8546 39.9986 25.9054 39.9775 25.9429 39.94C25.9804 39.9025 26.0014 39.8517 26.0015 39.7987V34.4857L27.7588 36.2427C30.102 38.5857 33.9009 38.5857 36.2441 36.2427C38.5874 33.8997 38.5871 30.1006 36.2441 27.7573L34.4866 26.0001H39.8015C39.8545 26 39.9053 25.9789 39.9428 25.9414C39.9803 25.904 40.0014 25.8531 40.0014 25.8001V22.201C40.0015 22.1746 39.9965 22.1485 39.9865 22.1242C39.9765 22.0998 39.9618 22.0776 39.9432 22.059C39.9246 22.0403 39.9025 22.0255 39.8782 22.0153C39.8539 22.0052 39.8279 22 39.8015 21.9999ZM33.4158 33.4143C33.0406 33.7894 32.5319 34.0001 32.0014 34.0001C31.471 34.0001 30.9623 33.7894 30.5871 33.4143L24.2418 27.0715C21.8988 24.7285 18.1 24.7285 15.7567 27.0715L9.41413 33.4143C9.03772 33.7829 8.53111 33.988 8.00433 33.9852C7.47755 33.9824 6.97314 33.7719 6.60064 33.3994C6.22815 33.027 6.01765 32.5225 6.01487 31.9958C6.01208 31.469 6.21723 30.9624 6.58576 30.586L12.9278 24.2425C15.2716 21.8985 15.2716 18.1004 12.9278 15.7575L6.58604 9.4135C6.22483 9.03568 6.02589 8.53147 6.03179 8.0088C6.03769 7.48613 6.24796 6.98654 6.6176 6.61697C6.98724 6.2474 7.48688 6.03722 8.00954 6.03143C8.53221 6.02563 9.03638 6.22467 9.41413 6.58595L15.7567 12.9285C18.1 15.271 21.8991 15.271 24.2418 12.9285L30.5858 6.58595C30.9629 6.22163 31.4681 6.02 31.9924 6.02448C32.5168 6.02897 33.0184 6.23921 33.3893 6.60994C33.7602 6.98067 33.9706 7.48222 33.9753 8.00659C33.98 8.53096 33.7786 9.03619 33.4144 9.4135L27.0707 15.7575C24.7277 18.1004 24.7277 21.8996 27.0707 24.2425L33.4144 30.586C33.7894 30.961 34.0001 31.4697 34.0001 32.0001C34.0001 32.5306 33.7894 33.0392 33.4144 33.4143H33.4158Z" fill="currentColor"></path></svg>