<svg width="1290" height="174" viewBox="0 0 1290 174" fill="none" xmlns="http://www.w3.org/2000/svg">
<path d="M480.572 77.0928C472.778 72.2282 463.389 69.3917 453.595 69.3917C425.43 69.3917 402.046 93.1115 402.046 121.682C402.046 150.253 425.43 173.973 453.595 173.973C463.389 173.973 472.575 171.547 480.572 166.477V172.356H505.347V71.0087H480.572V77.0928ZM453.595 146.813C439.803 146.813 429.023 135.865 429.023 121.682C429.023 107.5 439.816 96.5509 453.595 96.5509C467.374 96.5509 478.168 107.5 478.168 121.682C478.168 135.865 467.374 146.813 453.595 146.813ZM560.49 125.437C560.165 126.492 559.868 126.506 559.544 125.437L543.725 71.0224H514.749L549.521 172.356H570.5L605.271 71.0224H576.295L560.476 125.437H560.49ZM371.084 41.8351H343.891V71.0498H325.209V95.6603H343.891V142.086C343.891 171.122 361.493 174 374.286 174C382.107 174 388.51 173.274 392.414 172.561V150.568C389.929 150.924 386.011 151.102 382.999 151.102C376.244 151.102 371.084 149.115 371.084 136.317V95.6603H394.022V71.0498H371.084V41.8351V41.8351ZM285.736 172.356H312.916V30.4753H285.736V172.356ZM66.6384 92.9197C91.9267 92.9197 112.433 72.1186 112.433 46.4667C112.433 20.8148 91.9402 0 66.6384 0C41.3366 0 20.8439 20.8011 20.8439 46.453C20.8439 72.1049 41.3501 92.906 66.6384 92.906V92.9197ZM66.6384 109.925L24.2346 89.2199L0 113.789L30.6377 172.315H102.653L155.62 71.1183L152.527 67.9803L66.6384 109.925V109.925ZM241.171 77.0928C233.376 72.2282 223.988 69.3917 214.194 69.3917C186.015 69.3917 162.645 93.1115 162.645 121.682C162.645 150.253 186.028 173.973 214.194 173.973C223.988 173.973 233.174 171.547 241.171 166.477V172.356H265.946V71.0087H241.171V77.0928ZM214.194 146.813C200.402 146.813 189.622 135.865 189.622 121.682C189.622 107.5 200.415 96.5509 214.194 96.5509C227.973 96.5509 238.766 107.5 238.766 121.682C238.766 135.865 227.973 146.813 214.194 146.813ZM614.686 172.356H641.866V71.0087H614.686V172.342V172.356ZM1054.44 110.843C1039.04 107.226 1033.23 105.293 1033.23 99.3737C1033.23 93.9063 1037.91 90.782 1046.1 90.782C1058.8 90.782 1069.62 95.7562 1076.72 100.182L1087.23 80.313C1079.09 74.9414 1064.45 69.3917 1046.76 69.3917C1021.72 69.3917 1005.55 81.6833 1005.55 100.717C1005.55 119.75 1024.53 127.547 1041.06 131.63C1053.94 134.631 1060.07 137.18 1060.07 143.538C1060.07 147.663 1057.68 152.582 1046.32 152.582C1032.29 152.582 1019.77 147.183 1012.34 141.908L1001.45 161.736C1008.57 166.546 1022.92 173.986 1043.45 173.986C1071.05 173.986 1087.53 161.941 1087.53 141.757C1087.53 121.573 1070.44 114.748 1054.44 110.843V110.843ZM1184.83 71.0087H1155.06L1129.68 111.953C1129.68 111.953 1128.88 113.269 1128.88 111.748V20.1296H1101.7V172.342H1128.88V131.603C1128.88 129.931 1129.56 131.069 1129.56 131.069C1130.38 132.535 1131.72 134.796 1133.68 137.879C1137.47 143.758 1143.67 154.295 1154.86 172.328H1185.43L1153.76 121.353L1184.82 70.9813L1184.83 71.0087ZM973.194 25.4738C963.265 25.4738 955.633 33.7366 955.633 43.0272C955.633 53.0989 963.265 60.8411 973.194 60.8411C982.353 60.8411 990.499 53.0989 990.499 43.0272C990.499 33.7366 982.353 25.4738 973.194 25.4738ZM1238.65 69.3917C1209.88 69.3917 1186.9 92.7004 1186.9 121.477C1186.9 150.253 1209.88 173.973 1238.65 173.973C1267.43 173.973 1290 150.664 1290 121.477C1290 92.2893 1267.02 69.3917 1238.65 69.3917V69.3917ZM1238.65 146.21C1225.06 146.21 1214.27 135.262 1214.27 121.477C1214.27 107.691 1225.06 96.9483 1238.65 96.9483C1252.24 96.9483 1262.83 107.897 1262.83 121.477C1262.83 135.056 1252.04 146.21 1238.65 146.21ZM628.411 25.4738C618.482 25.4738 610.85 33.7366 610.85 43.0272C610.85 53.0989 618.482 60.8411 628.411 60.8411C637.57 60.8411 645.716 53.0989 645.716 43.0272C645.716 33.7366 637.57 25.4738 628.411 25.4738V25.4738ZM734.536 77.0928C726.741 72.2282 717.353 69.3917 707.559 69.3917C679.393 69.3917 656.01 93.1115 656.01 121.682C656.01 150.253 679.393 173.973 707.559 173.973C717.353 173.973 726.539 171.547 734.536 166.477V172.356H759.311V71.0087H734.536V77.0928V77.0928ZM707.559 146.813C693.766 146.813 682.986 135.865 682.986 121.682C682.986 107.5 693.78 96.5509 707.559 96.5509C721.338 96.5509 732.131 107.5 732.131 121.682C732.131 135.865 721.338 146.813 707.559 146.813ZM801.647 138.55C791.705 138.55 784.059 146.827 784.059 156.131C784.059 166.217 791.705 173.973 801.647 173.973C810.819 173.973 818.979 166.217 818.979 156.131C818.979 146.827 810.819 138.55 801.647 138.55ZM912.526 75.8732C905.34 71.8171 897.14 69.3917 887.751 69.3917C859.572 69.3917 836.202 93.1115 836.202 121.682C836.202 150.253 859.586 173.973 887.751 173.973C898.14 173.973 906.731 170.725 913.931 166.683V172.356H939.706V30.4616H912.526V75.8595V75.8732ZM887.751 146.813C873.959 146.813 863.179 135.865 863.179 121.682C863.179 107.5 873.973 96.5509 887.751 96.5509C901.53 96.5509 912.324 107.5 912.324 121.682C912.324 135.865 901.53 146.813 887.751 146.813ZM959.51 172.356H986.689V71.0087H959.51V172.342V172.356Z" fill="#000"/>
</svg>
