<svg width="100" height="62" viewBox="0 0 100 62" fill="none" xmlns="http://www.w3.org/2000/svg">
<path d="M60.5879 31.6387C60.5879 48.364 47.0145 61.9374 30.2924 61.9374C13.5703 61.9374 0 48.3608 0 31.6387C0 14.9166 13.5703 1.34314 30.2955 1.34314C47.0208 1.34314 60.5911 14.9134 60.5911 31.6355" fill="#1d1d1d"/>
<path d="M99.9999 33.5139C99.9999 40.2483 94.5325 45.7157 87.798 45.7157C81.0636 45.7157 75.5962 40.2483 75.5962 33.5139C75.5962 26.7794 81.0604 21.312 87.798 21.312C94.5357 21.312 99.9999 26.7794 99.9999 33.5139Z" fill="#1d1d1d"/>
<path d="M67.0343 0H66.5845V60.3789H67.0343V0Z" fill="#1d1d1d"/>
</svg>
