<svg version="1.1" viewBox="30 18 74 28" xmlns="http://www.w3.org/2000/svg" xmlns:xlink="http://www.w3.org/1999/xlink"><path d="M70.3836204,24.1833079 L75.9411383,24.1833079 L75.9628364,32.0412562 L75.9411383,45.8102656 L81.8480499,45.8102656 C81.8480499,45.8102656 81.8687931,36.631707 81.8687931,32.0412562 C81.8687931,29.4227211 81.8480499,24.1833079 81.8480499,24.1833079 L87.4050582,24.1833079 L87.4050582,18.184387 L70.3836204,18.184387 L70.3836204,24.1833079 Z M51.7614928,45.8102656 L67.0625962,45.8102656 L67.0625962,39.8116897 L57.6452571,39.8116897 L57.6452571,34.9971317 L65.1174719,34.9971317 C65.1174719,34.9971317 65.117472,32.8690079 65.117472,31.8067686 C65.117472,30.8692526 65.1174719,28.9978658 65.1174719,28.9978658 L57.6452571,28.9978658 L57.6452571,24.1833079 L67.0625962,24.1833079 L67.0625962,18.184387 L51.7614928,18.184387 L51.7614928,45.8102656 Z M103.899603,24.4841423 L103.899603,18.2675305 C103.270966,18.1766247 102.629929,18.1278081 101.977513,18.1278081 C94.4335289,18.1278081 88.3392903,24.3383819 88.3392903,31.9999994 C88.3392903,39.6607544 94.4335289,45.8721919 101.977513,45.8721919 C102.629929,45.8721919 103.270966,45.8223404 103.899603,45.7324695 L103.899603,39.5155127 C103.285234,39.6757622 102.64063,39.7627006 101.977513,39.7627006 C97.7552325,39.7627006 94.3535844,36.2868897 94.3535844,31.9999994 C94.3535844,27.7122467 97.7552325,24.2367819 101.977513,24.2367819 C102.64063,24.2367819 103.285234,24.3232028 103.899603,24.4841423 Z M39.2756862,39.8358392 L39.2756862,39.8385992 L36.5926412,39.8385992 L36.5926412,33.988543 L39.2756862,33.988543 C40.8101652,34.0546093 42.0331283,35.3378129 42.0331283,36.9123636 C42.0331283,38.4858793 40.8101652,39.769083 39.2756862,39.8358392 L39.2756862,39.8358392 Z M36.5967177,24.2102174 L39.0300745,24.2102174 C40.3418722,24.2240172 41.4010942,25.3081595 41.4010942,26.6427672 C41.4010942,27.9782373 40.3418722,29.0618622 39.0300745,29.0753169 L36.5967177,29.0760069 L36.5967177,24.2102174 Z M38.5925255,18.2366652 L30.6988084,18.2366652 L30.6988084,45.8095756 L38.0822781,45.8095756 L38.7262021,45.803894 C43.7651497,45.803894 47.8506957,41.6623361 47.8506957,36.5547303 C47.8506957,34.3881385 47.1164082,32.6182272 45.8847825,31.2983693 C46.7517274,30.1875261 47.2538217,28.7609226 47.2538217,27.0156317 C47.2538217,22.1669701 43.3763494,18.2366652 38.5925255,18.2366652 Z" fill="#000000" fill-rule="evenodd" stroke="none"></path></svg>