<svg version="1.0" xmlns="http://www.w3.org/2000/svg" viewBox="0 0 78 32">
    <path fill="black" d="M21.232 22.735q0 4.29-3.118 6.767t-7.498 2.477q-4.378 0-7.497-2.477t-3.12-6.767c-0-0.017-0-0.037-0-0.057 0-1.578 0.436-3.055 1.194-4.315l-0.021 0.038c0.776-1.312 1.902-2.346 3.25-2.988l0.045-0.019q-1.682-0.93-2.765-2.806c-0.668-1.093-1.070-2.413-1.084-3.825l-0-0.004q0-4.157 2.882-6.458t7.116-2.301q4.246 0 7.128 2.301t2.882 6.458c-0.020 1.418-0.426 2.737-1.117 3.862l0.019-0.033q-1.084 1.881-2.765 2.809c1.393 0.662 2.519 1.695 3.277 2.973l0.019 0.035c0.738 1.224 1.174 2.702 1.174 4.282 0 0.018-0 0.035-0 0.053v-0.003zM15.659 22.382q0-1.99-1.327-3.273t-3.716-1.285q-2.389 0-3.716 1.283t-1.327 3.273q0 2.123 1.394 3.406t3.649 1.283 3.649-1.283 1.392-3.406zM13.889 11.787q1.15-1.171 1.15-2.941t-1.15-2.882q-1.15-1.098-3.273-1.1t-3.274 1.106q-1.151 1.106-1.15 2.882t1.15 2.941q1.151 1.166 3.274 1.166t3.273-1.172z"></path>
    <path fill="black" d="M47.773 25.561h-4.051v6.439h-5.749v-6.439h-14.256v-5.426l11.726-20.099h6.254l-11.913 20.322h8.19v-7.49h5.749v7.497h4.049z"></path>
    <path fill="black" d="M78.348 16.106c0 7.22-5.853 13.073-13.073 13.073s-13.073-5.853-13.073-13.073c0-7.22 5.853-13.073 13.073-13.073s13.073 5.853 13.073 13.073z"></path>
</svg>