<svg viewBox="0 0 32.4 5.5" xmlns="http://www.w3.org/2000/svg"><path fill="#000000" d="M0 .1h2.1c1 0 1.6.7 1.5 1.6 0 .4-.2.8-.5 1.1.4.2.6.6.6 1.1 0 .9-.7 1.6-1.6 1.6h-2.1v-5.4zm1.1 2.1h.8999999999999999c.3 0 .5-.2.5-.5s-.2-.5-.5-.5h-1v1zm0 2.2h.8999999999999999c.3 0 .5-.2.5-.5s-.2-.6-.5-.6h-1v1.1zM8.5 5.5l-1.1-2.1h-.5v2.1h-1.1v-5.4h2.2c1.9 0 2.1 2.7.5 3.2l1.2 2.2h-1.2zm-1.6-3.1h.9c.7 0 .7-1.2 0-1.2h-.9v1.2zM13.8 0c3.7 0 3.7 5.5 0 5.5s-3.7-5.5 0-5.5zm0 1.1c-2.2 0-2.2 3.3 0 3.3s2.2-3.3 0-3.3zM25.9 2.8l-1.5-2.7h1.3l.8 1.7.8-1.7h1.3l-1.5 2.7 1.7 2.7h-1.3l-1-1.7-1 1.7h-1.3l1.7-2.7zM31.5 5.5c-1.2 0-1.2-1.8 0-1.8 1.2.1 1.1 1.8 0 1.8zM21.4 3.1l-2.7-3h-.4v5.4h1.1v-3l2.6 3h.4v-5.4h-1z"></path></svg>