<svg version="1.0" xmlns="http://www.w3.org/2000/svg" width="346.667" height="346.667" viewBox="0 0 260 260"><g fill="#000000"><path d="M108.3 62.6c-.4 1.2 2.4 4.6 9.8 11.9 9.9 9.8 10.6 10.2 14.3 10 6.9-.5 6.4-2.2-4.7-13.3C118 61.4 117.4 61 113.2 61c-3 0-4.4.5-4.9 1.6zM129.3 62.6c-.4 1.1 2.4 4.6 9.4 11.6 8.7 8.7 10.5 10 13.7 10.3 2 .1 4.4-.4 5.4-1.1 1.5-1.2.7-2.3-8.8-11.8C138.9 61.4 138.4 61 134.2 61c-3 0-4.4.5-4.9 1.6zM86.4 97.7c-2.5.9-80.6 79.3-80.2 80.5.3.8 2.5 1.4 5.9 1.6l5.4.3 35.9-36 36-36 .1-4.6c.2-4.5-1-6.6-3.1-5.8zM100.8 98.1c-1.6.9-1.8 3.4-1.8 28.4 0 21.3-.3 27.5-1.2 27.6-.7 0-4.1.2-7.5.2-5.2.2-6.7.6-9.3 2.9-1.9 1.6-3 3.5-2.8 4.5.3 1.6 1.8 1.8 15 2 9 .1 15-.2 15.4-.8.3-.6.6-9.2.6-19.2-.1-19.7.2-21.7 2.4-21.7.9 0 16 14.4 33.6 32 20.2 20.2 32.7 32 33.7 31.8 1.4-.3 1.6-3.7 1.9-32.1.1-19.8.6-31.8 1.2-31.9.6 0 1.4-.1 1.9-.2s14.2 13.1 30.5 29.1l29.5 29.3h4.4c2.8 0 4.9-.6 5.7-1.6 1.2-1.3-4.2-7-39.1-41.5-23.3-23-41-39.8-41.9-39.7-1.3.3-1.5 4.7-1.8 32-.2 28.6-.4 31.7-1.9 32.2-1.3.5-9.8-7.4-34.2-31.8-27.5-27.4-32.9-32.4-34.3-31.5z"/></g></svg>