<svg width="70" height="83" viewBox="0 0 70 83" xmlns="http://www.w3.org/2000/svg"><path d="M57.7 6.3c.2-1.2 4-8.4 12-5.7.4.1.4.7.1.8-1.9.8-3.8 3.3-5 5.3-2.8 4.2-4.8 9-10.9 10.5-3.2.8-6.3 1.5-8 1.9-.4.1-.7-.4-.4-.7 1.9-2.1 5.9-7 8.6-12.7.7-1.5 1.8-3.3 3.9-3.7.4-.1.7.4.4.8-1 .8-1.4 2.1-.7 3.5z" fill="#000"></path><path d="M19.4 42.8c.2.2.5.3.7.3.3.0.6-.1.8-.4.4-.5.4-1.2-.1-1.6l-1.1-1c-.5-.4-1.2-.4-1.6.1-.4.5-.4 1.2.1 1.6l1.2 1zm6.2 4.6c-.6.0-1.1.6-1.1 1.2s.5 1.1 1.1 1.1h.9c.6.0 1.1-.6 1.1-1.2s-.5-1.1-1.2-1.1h-.8zm0 5c-.5.4-.5 1.1-.1 1.6.2.2.3.5.4.8.1.6.6 1 1.1 1h.2c.6-.1 1-.7 1-1.3-.1-.7-.4-1.4-.9-2-.6-.5-1.3-.5-1.7-.1zM15.7 55c-.2-.4-.3-.9-.3-1.4.0-.6-.5-1.1-1.1-1.1s-1.1.5-1.1 1.1c0 .8.2 1.7.6 2.4.2.4.6.6 1 .6.2.0.4.0.5-.1.5-.3.7-1 .4-1.5zm-4.3 13.2c-.4-.5-1.1-.5-1.6.0-.4.4-.5 1.1.0 1.6L11 71c.2.2.5.4.8.4s.6-.1.8-.3c.4-.4.5-1.1.0-1.6l-1.2-1.3zM21 66c-.2-.6-.8-.9-1.4-.7l-2.7.9c-.6.2-.9.8-.7 1.4.2.5.6.8 1.1.8.1.0.2.0.4-.1l2.7-.9c.5-.2.8-.9.6-1.4zm-4.1-3.4 1.8-.6c.6-.2.9-.8.7-1.4s-.8-.9-1.4-.7l-1.8.6c-.6.2-.9.8-.7 1.4.2.5.6.8 1.1.8.0.0.2.0.3-.1zm4.2 7.8-.7-.2c-.6-.2-1.2.1-1.4.7-.2.6.1 1.2.7 1.4l.7.2c.1.0.2.1.3.1.5.0.9-.3 1.1-.8.2-.6-.2-1.2-.7-1.4zM12.9 64c0-.6-.5-1.1-1.1-1.1l-2.4.1c-.6.0-1.1.5-1.1 1.1s.5 1.1 1.1 1.1l2.4-.1c.6.0 1.1-.5 1.1-1.1zm5.8-12.3h.3c.9-.3 1.8-.7 2.5-1.4.5-.4.5-1.1.1-1.6s-1.1-.5-1.6-.1-1 .7-1.6.9c-.6.2-.9.8-.8 1.4.1.5.6.8 1.1.8zM24.1 62c-.3.6.0 1.2.5 1.5.2.1.3.1.5.1.4.0.8-.2 1-.6 1-2.1-.2-3.7-.6-4.1-.4-.5-1.1-.5-1.6-.1s-.5 1.1-.1 1.6c.4.2.7.8.3 1.6zm-3.4-7.8-1.3.4c-.6.2-.9.8-.7 1.4.2.5.6.8 1.1.8.1.0.2.0.4-.1l1.3-.4c.6-.2.9-.8.7-1.4-.3-.5-1-.9-1.5-.7zM32 65.6c-.2-.6-.8-.9-1.4-.7-.6.2-.9.8-.7 1.4l.8 2.3c.2.5.6.8 1.1.8.1.0.2.0.4-.1.6-.2.9-.8.7-1.4l-.9-2.3zm-1.9-13.9c.2.5.6.8 1.1.8.1.0.2.0.4-.1l1.6-.6c.6-.2.9-.8.7-1.4-.2-.6-.8-.9-1.4-.7l-1.6.6c-.7.2-1 .8-.8 1.4zm1.6 3.8c-.9.8-1.4 2-1.3 3.3.0.6.5 1 1.1 1h.1c.6-.1 1.1-.6 1-1.2.0-.5.1-1.1.5-1.4.5-.4.5-1.1.1-1.6-.3-.5-1.1-.5-1.5-.1zm-1-8.2c.6.0 1.1-.5 1.1-1.1.0-1-.2-2-.5-3-.2-.6-.9-.9-1.4-.6-.6.2-.9.9-.6 1.5.3.7.4 1.4.4 2.1-.1.5.4 1 1 1.1zm-6.6-1.6 1.6-.6c.6-.2.9-.8.7-1.4s-.8-.9-1.4-.7l-1.6.6c-.6.2-.9.8-.7 1.4.2.5.6.8 1.1.8.0.0.2.0.3-.1zm3.6 22.7c-.2-.6-.8-.9-1.4-.7l-1.6.6c-.6.2-.9.8-.7 1.4.2.5.6.8 1.1.8.1.0.2.0.4-.1l1.6-.6c.5-.1.8-.8.6-1.4zm.8 4.1c-.6-.3-1.2.0-1.5.6l-1.2 2.6c-.2.6.0 1.2.6 1.5.1.1.3.1.4.1.4.0.8-.2 1-.7L29 74c.3-.6.0-1.2-.5-1.5z"></path><path d="M41.1 23l-1.2 1.1c-1 1-1.8.2-1.2-.9l1.6-2.5c-.4-2.1-1.8-3.3-4.1-2.5l-12.6 4.9c-.4.1-.8.3-1.2.4-1.2-1.3-3.2-1.4-4.7-.3l-.1.1c-1.5 1.1-3 3.3-3.7 4.4-1.7.2-3.6 1.3-4.7 4.8-.3.8-.4 1.7-.4 2.6-3.5 1.2-4.8 3.6-6 6.2l-.1.3c-.3.5-.3 1.1.0 1.6s.7.9 1.3 1c.4.1.9.1 1.3.1.5.0 1.1-.1 1.7-.2-.4 1.5-.4 2.9-.4 4.3v1.4c0 .8.3 1.5.9 2 .4.4 1 .6 1.5.6.2.0.4.0.6-.1h.1C8.5 57.2 4.2 60.7.6 62.8c-.6.4-.9 1.2-.5 1.8C5.5 75.1 10.8 76 15.9 76.9c3.6.6 7.1 1.2 10.6 5.6.2.3.6.5.9.5h.1c.3.0.6-.1.9-.3 6.3-5.3 10.2-15.5 10.3-22.2.0-.5.6-12.6-4.5-22.5-.1-.1-.1-.2-.2-.3L40.6 27s1.6-2.8.5-4zm-14.8 3.9c.5-.4 1.8-.4 2.3-.4.2.0.3.1.4.2.1.1.1.3.1.5-.1.5-.4 1.8-.9 2.2-.3.2-.8.3-1.3.4H26c-.2.0-.3-.1-.4-.2-.1-.1-.1-.3-.1-.5.0-.5.2-1.7.8-2.2zM36 60.4c0 .5.0 1.1-.1 1.6h-.1c0-.1-.1-.1-.1-.1-.4-.4-1-1.2-2-.8-.6.2-.9.8-.7 1.4.1.4.5.7.9.8.0.1.1.1.1.2.3.3.8.9 1.5.9-1 5.3-3.9 11.6-7.9 15.5-3.9-4.2-7.8-4.9-11.3-5.5-4.5-.8-8.7-1.5-13.2-9.6 5.8-3.6 9.1-8.3 9.6-13.4v-.1c1.8-1.2 3.6-3.2 4.5-6.2.2-.7-.2-1.5-.9-1.7s-1.5.2-1.7.9c-1.1 3.5-3.7 5.2-5.3 5.7v-1.1c0-2.6.0-4.9 2.8-7.4l.1-.1 1.9-2.1c.5-.6.5-1.4-.1-1.9-.5-.5-1.4-.5-1.9.1l-.4.5c-.1-.4-.1-.7-.2-1.1v-1.2c0-.3.0-.6.1-.9v-.2c0-.3.1-.6.2-.8.9-3 2.4-3 2.8-3 .5.0.9-.2 1.2-.7.5-.9 2.2-3.4 3.4-4.3l.1-.1s.1.0.1-.1c.3-.2.8-.1 1 .2.1.2.2.4.2.6-.1.5.1.9.5 1.2l.2.2c.5.6.5 1.4.0 2-.4.5-.4 1.3.0 1.8.0.0.1.1.3.4.4.7.2 1.5-.4 2-.1.1-.3.2-.4.2-.4.2-.7.5-.8.9s0 .9.2 1.2c4.5 6 9.7 5.1 12.1 4.3 4.2 8.6 3.7 19.2 3.7 19.8z"></path></svg>