<svg enable-background="new 0 0 94 21.2" viewBox="0 0 94 21.2" xmlns="http://www.w3.org/2000/svg" xmlns:xlink="http://www.w3.org/1999/xlink"><clipPath id="a"><path d="m0 0h94v21.2h-94z"/></clipPath><g clip-path="url(#a)" fill="#000"><path d="m92.3 6c0-.1-.1-.1-.2-.2-.1 0-.1-.1-.2-.1.2 0 .4-.1.5-.2s.2-.3.2-.5c0-.1 0-.2-.1-.3s-.1-.2-.2-.2c-.1-.1-.2-.1-.4-.1-.1 0-.3 0-.8 0h-.5v2.5h.6v-1h.1c.1 0 .3 0 .4.1 0 0 .1.1.3.4l.2.4h.6l-.3-.5c-.1-.1-.1-.2-.2-.3zm-.4-.7c-.1 0-.3 0-.5 0h-.1v-.6h.1.5c.1 0 .1.1.2.1 0 .1.1.1.1.2s0 .1-.1.2c-.1 0-.2.1-.2.1z"/><path d="m93.7 4.3c-.2-.4-.5-.7-.9-.9s-.7-.3-1.1-.3-.8.1-1.1.3c-.4.2-.7.5-.9.9s-.3.8-.3 1.2.1.8.3 1.2.5.7.9.9.8.3 1.2.3.8-.1 1.2-.3.7-.5.9-.9c0-.4.1-.8.1-1.2s-.1-.8-.3-1.2zm-.4 2.1c-.2.3-.4.5-.7.7s-.6.2-.9.2-.6-.1-.9-.2c-.3-.2-.5-.4-.7-.7s-.2-.6-.2-.9.1-.6.3-.9.4-.5.7-.7.6-.2.9-.2.6.1.9.2c.3.2.5.4.7.7s.3.6.3.9c-.2.3-.2.6-.4.9zm-64.1-3.2c-5 0-9 4-9 9s4 9 9 9 9-4 9-9-4-9-9-9zm0 13.5c-2.5 0-4.5-2-4.5-4.5s2-4.5 4.5-4.5 4.5 2 4.5 4.5-2 4.5-4.5 4.5zm14.8-16h-4.5v20h4.5zm10.3 2.5c-5 0-9 4-9 9s4 9 9 9 9-4 9-9-4.1-9-9-9zm0 13.5c-2.5 0-4.5-2-4.5-4.5s2-4.5 4.5-4.5 4.5 2 4.5 4.5-2.1 4.5-4.5 4.5zm14.8-12.6h-4.5v16.6h4.4v-8.1c0-2.5 2-4.5 4.5-4.5v-4.5c-1.6 0-3.2.6-4.5 1.7v-1.2zm19.4-.5h-13.8v4.5h6l-7.2 12.6h14.7v-4.5h-6.9zm-77.9 13.1c-3.4 0-6.1-2.7-6.1-6.1s2.7-6.1 6.1-6.1c2.2 0 4.2 1.2 5.3 3.1l3.9-2.3c-1.9-3.2-5.3-5.3-9.2-5.3-5.9 0-10.6 4.7-10.6 10.6s4.7 10.6 10.6 10.6c3.9 0 7.3-2.1 9.2-5.3l-3.9-2.2c-1.1 1.8-3.1 3-5.3 3z"/></g></svg>