<svg xmlns="http://www.w3.org/2000/svg" viewBox="0 0 49.65 8.89" class="header__logo"><path d="M9.31,4.77l-.23,0-.24.07a1,1,0,0,0-.21.1.47.47,0,0,0-.15.15.46.46,0,0,0-.07.17,2,2,0,0,0,0,.24q0,.13,0,.28c0,.1,0,.19,0,.29V7.84L8.13,8l-.42.21-.57.24a7.07,7.07,0,0,1-.69.22,7.29,7.29,0,0,1-.76.17,4.83,4.83,0,0,1-.79.06,6.56,6.56,0,0,1-2.08-.3,4.25,4.25,0,0,1-1.54-.88,3.73,3.73,0,0,1-1-1.39A4.91,4.91,0,0,1,0,4.48a5,5,0,0,1,.06-.7A4.09,4.09,0,0,1,.27,3a5,5,0,0,1,.42-.87,4,4,0,0,1,.69-.84A4.54,4.54,0,0,1,2,.74,4.21,4.21,0,0,1,2.82.35,5.17,5.17,0,0,1,3.76.09,6.53,6.53,0,0,1,4.89,0a5.69,5.69,0,0,1,1.3.13,5.75,5.75,0,0,1,.93.29A3.8,3.8,0,0,1,7.7.72a1,1,0,0,0,.23.13l0,0L8.06.68,8.18.51l.15-.2h.12V3.09H8.3a5.13,5.13,0,0,0-.18-.54A5,5,0,0,0,7.88,2a4.54,4.54,0,0,0-.29-.48,2.49,2.49,0,0,0-.31-.37A3.81,3.81,0,0,0,6.83.79,3.1,3.1,0,0,0,6.29.48,3.34,3.34,0,0,0,5.65.27,3.39,3.39,0,0,0,4.9.19,2.25,2.25,0,0,0,4,.35,2.52,2.52,0,0,0,3.33.8a3.07,3.07,0,0,0-.57.69,4.71,4.71,0,0,0-.42.88,5.61,5.61,0,0,0-.26,1A6.89,6.89,0,0,0,2,4.49a7.26,7.26,0,0,0,.18,1.67A4.32,4.32,0,0,0,2.7,7.49a2.68,2.68,0,0,0,.89.88,2.37,2.37,0,0,0,1.24.32,1.81,1.81,0,0,0,.86-.22,1.66,1.66,0,0,0,.66-.65.79.79,0,0,0,.08-.22q0-.14.06-.32t0-.39q0-.21,0-.41a5.09,5.09,0,0,0-.05-.77,1.15,1.15,0,0,0-.23-.57A.66.66,0,0,0,6.09,5L5.84,4.9l-.29-.08-.3,0V4.65H9.31Z"></path><path d="M15.27,5.91A3,3,0,0,1,15,7.08,2.9,2.9,0,0,1,13.5,8.66a2.9,2.9,0,0,1-1.16.23,3,3,0,0,1-.67-.08A3.08,3.08,0,0,1,11,8.57a3,3,0,0,1-.62-.41,2.74,2.74,0,0,1-.51-.58,2.89,2.89,0,0,1-.35-.75,3.12,3.12,0,0,1-.13-.93A3,3,0,0,1,9.6,4.8a2.85,2.85,0,0,1,1.54-1.59A3,3,0,0,1,12.36,3a3.11,3.11,0,0,1,.69.08,3,3,0,0,1,.67.24,2.82,2.82,0,0,1,.61.41,2.72,2.72,0,0,1,.49.57,2.77,2.77,0,0,1,.33.74A3.25,3.25,0,0,1,15.27,5.91Zm-1.62,0q0-.29,0-.6a5.39,5.39,0,0,0-.09-.62,3.79,3.79,0,0,0-.17-.58,2.21,2.21,0,0,0-.25-.49,1.19,1.19,0,0,0-.35-.33.88.88,0,0,0-.46-.12.77.77,0,0,0-.56.24,1.9,1.9,0,0,0-.4.62,4,4,0,0,0-.25.88,6.07,6.07,0,0,0-.08,1,7,7,0,0,0,.07,1,3.75,3.75,0,0,0,.23.89,1.74,1.74,0,0,0,.42.63.92.92,0,0,0,.64.24.74.74,0,0,0,.43-.13,1.23,1.23,0,0,0,.33-.35,2.29,2.29,0,0,0,.24-.5,4.35,4.35,0,0,0,.16-.59,6,6,0,0,0,.09-.62Q13.66,6.18,13.66,5.9Z"></path><path d="M21.26,5.91A3,3,0,0,1,21,7.08a2.9,2.9,0,0,1-2.72,1.81,3,3,0,0,1-.67-.08A3.09,3.09,0,0,1,17,8.57a3,3,0,0,1-.62-.41,2.74,2.74,0,0,1-.51-.58,2.89,2.89,0,0,1-.35-.75,3.12,3.12,0,0,1-.13-.93,3,3,0,0,1,.21-1.11,2.85,2.85,0,0,1,1.54-1.59A3,3,0,0,1,18.35,3,3.11,3.11,0,0,1,19,3a3,3,0,0,1,.67.24,2.81,2.81,0,0,1,.61.41,2.72,2.72,0,0,1,.49.57,2.77,2.77,0,0,1,.33.74A3.26,3.26,0,0,1,21.26,5.91Zm-1.62,0q0-.29,0-.6a5.42,5.42,0,0,0-.09-.62,3.79,3.79,0,0,0-.17-.58,2.21,2.21,0,0,0-.25-.49,1.19,1.19,0,0,0-.35-.33.88.88,0,0,0-.46-.12.77.77,0,0,0-.56.24,1.91,1.91,0,0,0-.4.62,4,4,0,0,0-.25.88,6.07,6.07,0,0,0-.09,1,7,7,0,0,0,.07,1,3.75,3.75,0,0,0,.23.89,1.74,1.74,0,0,0,.42.63.91.91,0,0,0,.64.24.74.74,0,0,0,.43-.13,1.24,1.24,0,0,0,.33-.35,2.29,2.29,0,0,0,.24-.5,4.34,4.34,0,0,0,.16-.59,6,6,0,0,0,.09-.62Q19.64,6.18,19.64,5.9Z"></path><path d="M25.67,8.89h-.08V7.64a2.53,2.53,0,0,1-.78.91,2,2,0,0,1-1.14.31,1.91,1.91,0,0,1-.83-.19,2.17,2.17,0,0,1-.72-.56,2.86,2.86,0,0,1-.5-.91A3.7,3.7,0,0,1,21.42,6a3.24,3.24,0,0,1,.21-1.17,2.86,2.86,0,0,1,.59-1,2.78,2.78,0,0,1,.93-.64A3,3,0,0,1,24.35,3,3.54,3.54,0,0,1,25,3a5.27,5.27,0,0,1,.57.14l0-1.81-1-.39V.88L27,.09h.09v7.6l.14.08.22.1.25.11.25.1v.08Zm-.09-4.37A3.91,3.91,0,0,0,25.34,4,3.11,3.11,0,0,0,25,3.6a1.74,1.74,0,0,0-.32-.31.54.54,0,0,0-.31-.12,1,1,0,0,0-.64.22,1.65,1.65,0,0,0-.43.58,3.11,3.11,0,0,0-.24.82,6.07,6.07,0,0,0-.07.95,4.12,4.12,0,0,0,.09.88,2.75,2.75,0,0,0,.28.76,1.63,1.63,0,0,0,.47.54,1.09,1.09,0,0,0,.66.2,1.18,1.18,0,0,0,.36-.06,1,1,0,0,0,.32-.17,1,1,0,0,0,.24-.28,1.16,1.16,0,0,0,.13-.41Z"></path><path d="M31,8.81V8.69a.92.92,0,0,0,.39-.1q.16-.08.16-.2a.85.85,0,0,0-.09-.24l-.26-.48L30.77,7l-.47-.82A.63.63,0,0,0,30.15,6,.2.2,0,0,0,30,6h0v2.3a.31.31,0,0,0,.06.19.41.41,0,0,0,.15.12l.21.08.24,0v.12H27.82V8.69l.27-.05a1,1,0,0,0,.23-.09.49.49,0,0,0,.16-.14.33.33,0,0,0,.06-.2V1.76a.58.58,0,0,0,0-.14.25.25,0,0,0-.1-.12l-.11-.07-.16-.08L28,1.26l-.16-.08V1.1l2.1-1H30V5.81l.16,0q.37-.3.74-.64t.65-.65A6,6,0,0,0,32,3.94a.77.77,0,0,0,.17-.33s0-.08-.09-.12a1.23,1.23,0,0,0-.23-.13,1.83,1.83,0,0,0-.3-.11l-.31-.06V3.08H34.2V3.2l-.25,0-.48.13a5,5,0,0,0-.56.22,1.94,1.94,0,0,0-.49.32l-.3.29-.27.26-.26.26L31.32,5l.88,1.54q.41.72.73,1.24a2.85,2.85,0,0,0,.34.45,2,2,0,0,0,.3.26l.14.05.19.06.21.05.18,0v.12Z"></path><path d="M33.5,8.81V8.69l.29-.05A1.35,1.35,0,0,0,34,8.55a.6.6,0,0,0,.19-.14.29.29,0,0,0,.08-.2V4.38a.66.66,0,0,0,0-.17.22.22,0,0,0-.1-.13l-.27-.15L33.6,3.8V3.73L35.72,3h.08V8.24a.26.26,0,0,0,.08.19.62.62,0,0,0,.19.13l.25.08.25,0v.12Zm2.37-7.48a.81.81,0,0,1-.07.33.89.89,0,0,1-.46.46A.81.81,0,0,1,35,2.2a.78.78,0,0,1-.33-.07.93.93,0,0,1-.28-.19.92.92,0,0,1-.19-.28.8.8,0,0,1-.07-.33A.86.86,0,0,1,34.2,1a.8.8,0,0,1,.18-.27.88.88,0,0,1,.27-.18A.87.87,0,0,1,35,.48a.89.89,0,0,1,.34.06.87.87,0,0,1,.28.18A.8.8,0,0,1,35.8,1,.86.86,0,0,1,35.87,1.33Z"></path><path d="M40.8,8.89h-.08V7.64a2.53,2.53,0,0,1-.78.91,2,2,0,0,1-1.14.31A1.91,1.91,0,0,1,38,8.67a2.16,2.16,0,0,1-.72-.56,2.86,2.86,0,0,1-.5-.91A3.7,3.7,0,0,1,36.55,6a3.24,3.24,0,0,1,.21-1.17,2.86,2.86,0,0,1,.59-1,2.78,2.78,0,0,1,.93-.64A3,3,0,0,1,39.49,3a3.54,3.54,0,0,1,.67.06,5.26,5.26,0,0,1,.57.14l0-1.81-1-.39V.88L42.1.09h.09v7.6l.14.08.22.1.25.11.25.1v.08Zm-.09-4.37A3.91,3.91,0,0,0,40.47,4a3.13,3.13,0,0,0-.3-.43,1.74,1.74,0,0,0-.32-.31.54.54,0,0,0-.31-.12,1,1,0,0,0-.64.22,1.65,1.65,0,0,0-.43.58,3.11,3.11,0,0,0-.24.82,6.06,6.06,0,0,0-.07.95,4.12,4.12,0,0,0,.09.88,2.75,2.75,0,0,0,.28.76,1.63,1.63,0,0,0,.47.54,1.09,1.09,0,0,0,.66.2A1.18,1.18,0,0,0,40,8.08a1,1,0,0,0,.32-.17,1,1,0,0,0,.24-.28,1.15,1.15,0,0,0,.13-.41Z"></path><path d="M47.53,7a1.63,1.63,0,0,1-.21.85,1.78,1.78,0,0,1-.56.58,2.53,2.53,0,0,1-.79.34,3.7,3.7,0,0,1-.91.11,5.19,5.19,0,0,1-1.17-.12,4.92,4.92,0,0,1-.93-.3V6.62h.09q.08.18.19.41t.25.46a5.38,5.38,0,0,0,.3.45,2.82,2.82,0,0,0,.35.39,1.83,1.83,0,0,0,.38.28.87.87,0,0,0,.41.11,1.4,1.4,0,0,0,.43-.07,1,1,0,0,0,.37-.21A1.08,1.08,0,0,0,46,8.06a1.36,1.36,0,0,0,.1-.54A.75.75,0,0,0,46,7.19.71.71,0,0,0,45.87,7a1.12,1.12,0,0,0-.28-.17,2.37,2.37,0,0,0-.36-.13L45,6.58l-.32-.09-.31-.09-.27-.08a1.61,1.61,0,0,1-.42-.24,1.46,1.46,0,0,1-.33-.36,1.8,1.8,0,0,1-.21-.46A1.86,1.86,0,0,1,43,4.72,1.43,1.43,0,0,1,43.22,4a1.81,1.81,0,0,1,.5-.55,2.29,2.29,0,0,1,.7-.35A2.67,2.67,0,0,1,45.2,3a4.78,4.78,0,0,1,1,.11,5.67,5.67,0,0,1,.82.24L47.21,5l-.1,0a6.91,6.91,0,0,0-.36-.67,4.63,4.63,0,0,0-.46-.62,2.64,2.64,0,0,0-.52-.46,1,1,0,0,0-.54-.18,1,1,0,0,0-.38.07.93.93,0,0,0-.31.2,1,1,0,0,0-.21.3,1,1,0,0,0-.08.39.93.93,0,0,0,.06.37.75.75,0,0,0,.18.25,1,1,0,0,0,.27.18,2.32,2.32,0,0,0,.35.13l.29.08.31.08.29.08.22.06a2.07,2.07,0,0,1,.53.24,1.75,1.75,0,0,1,.41.37,1.59,1.59,0,0,1,.27.48A1.77,1.77,0,0,1,47.53,7Z"></path><path d="M47.78,7.9a.91.91,0,0,1,.07-.36.92.92,0,0,1,.2-.3,1,1,0,0,1,.3-.2.93.93,0,0,1,.73,0,1,1,0,0,1,.3.2.92.92,0,0,1,.2.3.95.95,0,0,1,0,.73,1,1,0,0,1-.5.5.93.93,0,0,1-.73,0,1,1,0,0,1-.5-.5A.91.91,0,0,1,47.78,7.9Z"></path></svg>