<svg xmlns="http://www.w3.org/2000/svg" width="656" height="151" viewBox="0 0 656 151" fill="none"><path fill="#000" d="M277.645 81.69a47.613 47.613 0 0 0-2.658-6.36c-3.796-7.464-9.244-13.194-16.336-17.182-7.093-3.989-15.386-5.98-24.879-5.98-9.494 0-17.447 2.026-24.595 6.077-7.155 4.05-12.755 9.808-16.808 17.279a47.157 47.157 0 0 0-3.414 7.99V1.567h-27.537v82.718a45.754 45.754 0 0 0-3.893-8.484c-4.365-7.401-10.444-13.193-18.231-17.369-7.786-4.175-16.62-6.263-26.496-6.263-9.875 0-18.71 2.088-26.496 6.263-7.786 4.176-13.865 9.968-18.23 17.37-4.025 6.825-6.19 14.378-6.51 22.654-3.525-2.83-8.16-5.348-13.907-7.561-4.941-2.025-8.612-3.635-11.013-4.842-2.408-1.2-4.08-2.31-5.032-3.322-.95-1.013-1.422-2.15-1.422-3.42 0-1.769.729-3.163 2.186-4.176 1.457-1.013 3.511-1.519 6.176-1.519s5.573.666 8.356 1.99c2.782 1.333 5.128 3.011 7.03 5.03L68.37 64.12c-3.164-3.67-7.405-6.583-12.727-8.733-5.316-2.15-11.333-3.225-18.044-3.225-6.204 0-11.811 1.075-16.808 3.225-5.003 2.15-8.994 5.313-11.964 9.49-2.977 4.175-4.462 9.176-4.462 14.996 0 6.832 1.93 12.437 5.795 16.8 3.858 4.37 9.84 8.136 17.946 11.3 4.56 2.025 7.974 3.641 10.257 4.841 2.276 1.207 3.893 2.407 4.844 3.607.95 1.207 1.422 2.629 1.422 4.273 0 2.407-.853 4.238-2.56 5.508-1.708 1.269-4.15 1.9-7.315 1.9-7.474 0-13.865-3.607-19.181-10.821L0 133.415c3.421 4.814 8.168 8.796 14.247 11.959 6.08 3.163 13.297 4.744 21.652 4.744 6.836 0 12.915-1.234 18.23-3.704 5.317-2.469 9.467-6.007 12.444-10.633a27.158 27.158 0 0 0 3.137-6.819c4.198 6.243 9.701 11.203 16.516 14.886 7.724 4.176 16.461 6.264 26.211 6.264 9.751 0 18.925-2.061 26.781-6.167 7.849-4.113 13.963-9.905 18.328-17.369a46.388 46.388 0 0 0 3.893-8.532v29.418h27.537v-28.218a45.673 45.673 0 0 0 3.414 7.908c4.053 7.339 9.75 13.006 17.093 16.994 7.342 3.989 15.767 5.979 25.26 5.979 10.257 0 19.154-2.15 26.683-6.457 6.947-3.968 12.36-9.559 16.239-16.759v20.553h27.537v-92.83h-27.537V81.69h-.02Zm-144.062 32.837c-1.964 3.864-4.747 6.833-8.356 8.921-3.608 2.088-7.758 3.135-12.443 3.135-4.684 0-9.021-1.04-12.63-3.135-3.608-2.088-6.364-5.064-8.265-8.921-1.902-3.856-2.845-8.386-2.845-13.574 0-5.189.978-9.302 2.942-13.096 1.964-3.794 4.747-6.77 8.356-8.92 3.608-2.15 7.751-3.226 12.442-3.226 4.692 0 8.835 1.075 12.443 3.225 3.609 2.15 6.392 5.161 8.356 9.018 1.964 3.864 2.942 8.254 2.942 13.193s-.985 9.524-2.942 13.38Zm88.218-37.304c3.289-2.906 7.404-4.363 12.345-4.363 5.191 0 9.431 1.394 12.728 4.176 3.289 2.788 5.253 6.707 5.892 11.771h-37.419c1.013-4.807 3.164-8.67 6.461-11.584h-.007Zm32.859 40.058c-2.408 3.926-5.191 6.93-8.355 9.018-3.165 2.088-6.905 3.135-11.208 3.135-6.204 0-11.11-2.026-14.719-6.076-3.609-4.051-5.67-9.552-6.176-16.516h63.436v17.917l-22.985-7.478h.007ZM305.945 8.594c1.52 2.344 2.276 5.029 2.276 8.067 0 3.038-.756 5.792-2.276 8.254a16.185 16.185 0 0 1-6.079 5.792c-2.533 1.394-5.316 2.088-8.356 2.088-3.039 0-5.857-.694-8.452-2.088-2.596-1.394-4.657-3.322-6.177-5.792-1.52-2.47-2.276-5.223-2.276-8.254 0-3.031.729-5.57 2.186-7.97 1.45-2.4 3.484-4.3 6.079-5.695 2.596-1.387 5.413-2.088 8.453-2.088 3.039 0 6.01.694 8.55 2.088 2.533 1.394 4.559 3.26 6.079 5.598h-.007Zm6.266-7.034h27.537V147.47h-27.537V1.56Zm244.813 82.183a45.629 45.629 0 0 0-3.699-7.942c-4.365-7.401-10.444-13.193-18.23-17.369-7.787-4.175-16.621-6.263-26.496-6.263-9.876 0-18.71 2.088-26.496 6.263-7.787 4.176-13.866 9.968-18.231 17.37a47.186 47.186 0 0 0-3.213 6.575c-.965-8.206-3.47-14.893-7.523-20.053-5.315-6.77-13.359-10.155-24.122-10.155-6.204 0-11.527 1.137-15.955 3.42-4.434 2.275-8.612 5.694-12.533 10.251h-.381l.187-11.202H373.17v92.831h27.537v-46.135c0-8.733 1.52-15.156 4.559-19.27 3.04-4.112 7.53-6.166 13.484-6.166 5.316 0 9.119 1.679 11.395 5.03 2.276 3.356 3.421 8.83 3.421 16.418v50.116h27.537V120.84a44.408 44.408 0 0 0 2.755 5.549c4.372 7.47 10.417 13.29 18.141 17.466 7.724 4.176 16.461 6.263 26.211 6.263s18.925-2.06 26.78-6.166c7.849-4.113 13.963-9.905 18.328-17.369a45.87 45.87 0 0 0 3.699-7.998v28.877h27.537v-92.83h-27.537v29.111h.007Zm-27.634 30.784c-1.964 3.864-4.747 6.833-8.355 8.921-3.609 2.088-7.759 3.135-12.443 3.135-4.685 0-9.022-1.04-12.631-3.135-3.608-2.088-6.363-5.064-8.265-8.921-1.901-3.856-2.845-8.386-2.845-13.574 0-5.189.978-9.302 2.942-13.096 1.964-3.794 4.747-6.77 8.356-8.92 3.609-2.15 7.752-3.226 12.443-3.226s8.834 1.075 12.443 3.225c3.608 2.15 6.391 5.161 8.355 9.018 1.964 3.864 2.943 8.254 2.943 13.193s-.986 9.524-2.943 13.38ZM585.324 8.594c1.52 2.344 2.277 5.029 2.277 8.067 0 3.038-.757 5.792-2.277 8.254a16.178 16.178 0 0 1-6.079 5.792c-2.533 1.394-5.316 2.088-8.355 2.088-3.04 0-5.857-.694-8.453-2.088-2.595-1.394-4.656-3.322-6.176-5.792-1.52-2.47-2.277-5.223-2.277-8.254 0-3.031.729-5.57 2.187-7.97 1.45-2.4 3.483-4.3 6.079-5.695 2.595-1.387 5.413-2.088 8.452-2.088 3.04 0 6.01.694 8.55 2.088 2.533 1.394 4.559 3.26 6.079 5.598h-.007Zm70.654 47.743-7.218 26.387c-4.302-3.038-8.542-4.558-12.727-4.558-5.698 0-10.007 2.06-12.915 6.174-2.915 4.113-4.372 10.155-4.372 18.132v44.99h-27.537v-92.83h27.537l-.382 9.495h.569c3.672-4.432 7.183-7.526 10.542-9.302 3.352-1.769 7.564-2.656 12.63-2.656 4.303 0 8.925 1.394 13.866 4.175l.007-.007Z"></path></svg>