<?xml version="1.0" standalone="no"?>
<!DOCTYPE svg PUBLIC "-//W3C//DTD SVG 20010904//EN"
 "http://www.w3.org/TR/2001/REC-SVG-20010904/DTD/svg10.dtd">
<svg version="1.0" xmlns="http://www.w3.org/2000/svg"
 width="700.000000pt" height="700.000000pt" viewBox="0 0 700.000000 700.000000"
 preserveAspectRatio="xMidYMid meet">
<metadata>
Created by potrace 1.11, written by Peter Selinger 2001-2013
</metadata>
<g transform="translate(0.000000,700.000000) scale(0.100000,-0.100000)"
fill="#000000" stroke="none">
<path d="M1980 4305 c-177 -36 -294 -99 -426 -230 -83 -83 -108 -115 -147
-192 -67 -131 -89 -220 -90 -368 -1 -137 16 -217 68 -332 104 -227 290 -383
542 -455 64 -18 102 -22 213 -21 116 0 147 4 223 27 159 48 268 116 384 240
83 88 153 215 185 333 31 114 31 299 0 408 -67 235 -223 419 -443 525 -150 72
-349 97 -509 65z"/>
<path d="M3288 4310 c-114 -20 -232 -65 -323 -125 l-54 -37 55 -78 c244 -349
236 -808 -22 -1146 l-36 -47 23 -19 c45 -34 224 -117 294 -134 95 -25 293 -24
390 0 106 27 259 105 341 175 174 147 271 344 281 572 12 246 -78 467 -255
629 -185 170 -451 251 -694 210z"/>
</g>
</svg>
