<svg xmlns="http://www.w3.org/2000/svg" height="67" width="423" viewBox="0 0 423 67">
<path fill="#000" d="M381.164 65.92h-12.17V1.38h12.17v28.95l24.617-28.95h14.476l-26.369 30.426L422.1 65.919h-16.134l-24.802-30.425v30.425ZM358.076 66.104h-13.461l-31.347-46.1V65.92h-12.17V1.196h13.461l31.347 46.1V1.38h12.17v64.723ZM296.182 65.92h-13.184l-5.163-15.305h-24.709l-5.164 15.305h-12.907l23.787-64.724h13.553l23.787 64.724Zm-30.517-51.17h-.369l-8.39 24.893h17.333l-8.574-24.894ZM242.379 1.724h-30.865v64.522h12.172v-53.32h18.693V1.724ZM186.639 66.104h-13.461l-31.348-46.1V65.92h-12.17V1.196h13.461l31.348 46.1V1.38h12.17v64.723ZM118.859 1.38v64.54h-12.171V1.38h12.171ZM78.54 42.685H66.46V65.92h-12.17V1.38h23.234c12.17 0 22.681 7.468 22.681 20.653 0 11.893-9.22 20.652-21.667 20.652Zm9.127-20.652c0-4.979-3.32-9.404-12.447-9.404h-8.759V31.62h10.05c7.652 0 11.156-4.425 11.156-9.588ZM23.88 67.305c-11.894 0-21.944-6.362-23.88-16.872l11.801-2.49c1.107 5.532 6.454 8.76 12.54 8.76 6.361 0 10.51-3.412 10.51-8.483 0-14.291-32.362-4.057-32.362-28.858C2.49 7.929 11.617 0 24.525 0 36.787 0 45.27 7.007 47.02 17.425L35.22 19.546c-1.014-5.44-4.979-8.851-11.064-8.851-5.532 0-9.312 2.766-9.312 7.652 0 13.922 32.362 3.78 32.362 28.49 0 12.262-9.312 20.468-23.327 20.468Z"></path>
<path fill="#000" d="M211.514 12.926h-18.851V1.724h18.851v11.202Z"></path>
</svg>