<svg version="1.1" xmlns="http://www.w3.org/2000/svg" viewBox="0 0 1774.5 276.6" xml:space="preserve" class="block w-full h-full" role="img">
    <path fill="#000" d="M0,161.1h35.3c1.2,15.6,16.2,26.2,37.1,26.2s35-8.1,35-20.3c0-7.5-9.4-12.8-38.4-18.4
      C23.7,138.3,9.4,128,9.4,102.1c0-29,25.3-48.4,63.1-48.4c30,0,56.2,16.2,65.2,40.6l-34.3,8.4c-4.7-10.6-17.2-17.8-30.9-17.8
      c-15.3,0-25.6,6.2-25.6,15.3c0,6.6,7.2,10.6,29.3,15.6c52.1,10.9,68.7,22.8,68.7,51.2c0,30.9-29,51.5-72.4,51.5
      C30.3,218.5,1.2,195.4,0,161.1z"/>
    <path fill="#000" d="M148.6,58.1H186v14c9.1-11.7,23.2-18.5,38.1-18.4c14.4,0,30.9,7.5,41.5,18.7c10.9-11.2,29.7-18.7,46.8-18.7
      c37.1,0,62.1,20.6,62.1,51.5v108.9h-37.5V108.9c0-13.4-11.2-22.2-28.4-22.2s-28.4,8.7-28.4,22.2v105.2h-37.5V108.9
      c0-13.4-11.2-22.2-28.4-22.2S186,95.5,186,108.9v105.2h-37.5V58.1z"/>
    <path fill="#000" d="M381.4,136.1c0-49.3,32.5-82.4,81.2-82.4c18.4,0,38.7,8.4,50.6,21.2V58.1h37.5v156.1h-37.5v-16.9
      c-11.9,12.8-32.2,21.2-50.6,21.2C413.9,218.5,381.4,185.4,381.4,136.1z M513.1,136.1c0-29.7-18.7-49.3-46.8-49.3
      c-28.4,0-47.4,19.7-47.4,49.3s19,49.3,47.4,49.3C494.4,185.4,513.1,165.7,513.1,136.1L513.1,136.1z"/>
    <path fill="#000" d="M749.4,187.3v26.8c-5.6,2.5-16.2,4.4-26.5,4.4c-31.2,0-51.8-17.8-51.8-44.3V89.3h-29.3
      c-24.3,0-40.6,14-40.6,35v89.9h-37.5V58.1h37.5v19c6.9-11.5,22.5-19,38.4-19h31.5V0h37.5v58.1h39.3v31.2h-39.3v84.9
      c0,7.8,5.6,13.1,13.7,13.1L749.4,187.3z"/>
    <path fill="#000" d="M770.2,136.1c0-49.3,32.5-82.4,81.2-82.4c18.4,0,38.7,8.4,50.6,21.2V58.1h37.5v156.1h-37.5v-16.9
      c-11.9,12.8-32.1,21.2-50.6,21.2C802.6,218.5,770.2,185.4,770.2,136.1z M901.9,136.1c0-29.7-18.7-49.3-46.8-49.3
      c-28.4,0-47.4,19.7-47.4,49.3s19,49.3,47.4,49.3C883.2,185.4,901.9,165.7,901.9,136.1L901.9,136.1z"/>
    <path fill="#000" d="M941.9,214.1h37.5c4.7,17.5,21.5,29.3,42.5,29.3c28.4,0,44.3-16.9,44.3-46.5v-2.5
      c-11.5,11.9-30.6,19.7-47.8,19.7c-47.1,0-78.4-32.2-78.4-80.2s31.2-80.2,78.4-80.2c17.2,0,36.2,7.8,47.8,19.7V58.1h37.5V197
      c0,50.9-29.3,79.6-81.8,79.6C979,276.6,947.2,251.6,941.9,214.1z M1066.1,133.9c0-28.4-17.5-47.1-44-47.1
      c-26.8,0-44.6,18.7-44.6,47.1s17.8,47.1,44.6,47.1C1048.6,181,1066.1,162.3,1066.1,133.9z"/>
    <path fill="#000" d="M1107.3,136.1c0-49.3,33.7-82.4,84.6-82.4s84.6,33.1,84.6,82.4v7.2l-3.1,3.1h-128
      c3.4,24.7,22.2,40.9,46.5,40.9c18.4,0,35.6-10.6,42.8-26.2h38.1c-10.3,34.3-42.8,57.4-80.8,57.4
      C1141,218.5,1107.3,185.4,1107.3,136.1z M1235.9,115.2c-7.2-19.4-23.1-30.3-44-30.3c-20.9,0-36.8,10.9-44,30.3L1235.9,115.2z"/>
    <path fill="#000" d="M1283.3,58.1h37.5v11.5c10.3-9.7,27.2-15.9,42.5-15.9c42.8,0,71.2,25.3,71.2,63.4v97.1H1397v-92.7
      c0-20.9-15.3-34.6-38.1-34.6s-38.1,13.7-38.1,34.6v92.7h-37.5V58.1z"/>
    <path fill="#000" d="M1438.1,136.1c0-49.3,33.7-82.4,84.6-82.4c42.1,0,74.6,26.5,81.5,66.2h-35.9c-5-20-23.1-33.1-45.6-33.1
      c-28.4,0-47.1,19.7-47.1,49.3s18.7,49.3,47.1,49.3c22.8,0,41.2-13.7,45.9-34.6h35.9c-6.6,40.6-39.3,67.7-81.8,67.7
      C1471.9,218.5,1438.1,185.4,1438.1,136.1z"/>
    <path fill="#000" d="M1605.1,136.1c0-49.3,33.7-82.4,84.6-82.4s84.6,33.1,84.6,82.4v7.2l-3.1,3.1h-128
      c3.4,24.7,22.2,40.9,46.5,40.9c18.4,0,35.6-10.6,42.8-26.2h38.1c-10.3,34.3-42.8,57.4-80.8,57.4
      C1638.8,218.5,1605.1,185.4,1605.1,136.1z M1733.7,115.2c-7.2-19.4-23.1-30.3-44-30.3c-20.9,0-36.8,10.9-44,30.3L1733.7,115.2z"/>
</svg>