<svg xmlns="http://www.w3.org/2000/svg" width="336.594" height="41.424" viewBox="0 0 336.594 41.424"><path d="M27.183,24.052a10.511,10.511,0,0,1-1.359,2.168,9.45,9.45,0,0,1-1.937,1.763,8.643,8.643,0,0,1-2.8,1.214,11.746,11.746,0,0,1-1.648.347c-.607.087-1.214.145-1.821.2-.607.029-1.127.058-1.619.087h-1.07a11.274,11.274,0,0,1-1.706-.116,11.71,11.71,0,0,1-1.561-.26,5.126,5.126,0,0,1-1.214-.347,1.444,1.444,0,0,1-.665-.434,3.659,3.659,0,0,1-.434-1.821c-.029-.809-.087-1.677-.116-2.573v-15c0-.78,0-1.59.058-2.4,0-.809.029-1.706.058-2.717a3.327,3.327,0,0,1,.52-1.85,3.374,3.374,0,0,1,1.156-1.07A5.149,5.149,0,0,1,12.469.695q.78-.173,1.3-.26V.03H.27V.464a8.45,8.45,0,0,1,2.081.52,3.741,3.741,0,0,1,1.59,1.1,1.917,1.917,0,0,1,.376.809,10.558,10.558,0,0,1,.2,1.156,10.917,10.917,0,0,1,.058,1.416v14.6c0,.809,0,1.532-.058,2.226v1.619a10.682,10.682,0,0,1-.058,1.359c-.029.463-.087.9-.145,1.33a8.532,8.532,0,0,1-.231,1.127,2.59,2.59,0,0,1-.376.752,3.876,3.876,0,0,1-1.619,1.07,11.076,11.076,0,0,1-2.081.549v.434H27.125l1.561-8.7-.434-.116c-.347.838-.694,1.648-1.07,2.428" transform="translate(-0.01 0.057)" fill="#1d1d1b"/><path d="M14.362,8.433a8.224,8.224,0,0,1,1.07-1.879,7.958,7.958,0,0,1,1.648-1.619,3.508,3.508,0,0,1,2.139-.694,3.81,3.81,0,0,1,2.891,1.127,3.731,3.731,0,0,1,1.07,2.688,2.3,2.3,0,0,1-.145.9,3.559,3.559,0,0,1-.434.636,3.288,3.288,0,0,1-.983.2c-.376,0-.752.058-1.185.058H18.669c-.52,0-1.041,0-1.532.029H13.9a6.632,6.632,0,0,1,.463-1.445M25.288,20.054a6.4,6.4,0,0,1-3.7,1.07,7.5,7.5,0,0,1-3.411-.723,7.117,7.117,0,0,1-2.457-1.966,9.585,9.585,0,0,1-1.474-2.862,11.214,11.214,0,0,1-.52-3.411c0-.318,0-.607.029-.9,0-.289.029-.549.029-.78H27.341a7.738,7.738,0,0,0-.809-3.093,6.846,6.846,0,0,0-1.763-2.168,7.306,7.306,0,0,0-2.544-1.3,10.809,10.809,0,0,0-3.093-.434,7.933,7.933,0,0,0-3.7.867A9.4,9.4,0,0,0,12.6,6.612a10.262,10.262,0,0,0-1.792,3.151,9.992,9.992,0,0,0-.636,3.527,13.084,13.084,0,0,0,.665,4.163,10.867,10.867,0,0,0,1.908,3.411,8.351,8.351,0,0,0,3.035,2.255,9.2,9.2,0,0,0,3.931.809,7.488,7.488,0,0,0,3.151-.636,8.107,8.107,0,0,0,2.428-1.619,8.2,8.2,0,0,0,1.619-2.139,7.644,7.644,0,0,0,.752-2.081l-.347-.087A5.076,5.076,0,0,1,25.231,20" transform="translate(19.2 6.599)" fill="#1d1d1b"/><path d="M26.5,12.143c-.549-.145-1.156-.289-1.908-.434-.723-.145-1.416-.289-2.023-.434a6.345,6.345,0,0,1-2.226-1.012,2.693,2.693,0,0,1-.9-2.255A3.994,3.994,0,0,1,19.79,6.3a3.839,3.839,0,0,1,.867-1.214,3.733,3.733,0,0,1,1.214-.752,3.965,3.965,0,0,1,1.416-.26,4.785,4.785,0,0,1,2.081.434,5.074,5.074,0,0,1,1.619,1.214,8.112,8.112,0,0,1,1.3,1.85c.4.723.78,1.5,1.185,2.341l.347-.087L29.3,4.6a17.761,17.761,0,0,0-2.573-.78A14.221,14.221,0,0,0,23.606,3.5a8.784,8.784,0,0,0-2.631.4,7.1,7.1,0,0,0-2.168,1.156,6.389,6.389,0,0,0-1.474,1.821,4.943,4.943,0,0,0-.549,2.37,5.23,5.23,0,0,0,3.584,5.174,17.294,17.294,0,0,0,1.908.549c.694.173,1.416.318,2.2.463a4.209,4.209,0,0,1,2.255,1.156,3.013,3.013,0,0,1,.809,2.168,4.867,4.867,0,0,1-1.185,3.584A4.419,4.419,0,0,1,23.143,23.5a4.552,4.552,0,0,1-2.4-.607,6.357,6.357,0,0,1-1.734-1.561A10.6,10.6,0,0,1,17.8,19.254a20.324,20.324,0,0,1-.838-2.139H16.61v5.579a13.834,13.834,0,0,0,3.035.983,16.885,16.885,0,0,0,3.5.347,12.536,12.536,0,0,0,2.977-.347,7.641,7.641,0,0,0,2.515-1.1A5.771,5.771,0,0,0,30.4,20.613a5.978,5.978,0,0,0,.665-2.862,5.194,5.194,0,0,0-1.33-3.642A6.166,6.166,0,0,0,26.5,12.172" transform="translate(31.376 6.617)" fill="#1d1d1b"/><path d="M44.7,13.452a7.888,7.888,0,0,1-4.134,3.064,10.948,10.948,0,0,1-2.833.578c-1.012.058-2.11.116-3.266.116V7.67c0-1.416.029-2.6.058-3.584,0-.636.058-1.156.087-1.5a5.35,5.35,0,0,1,.087-.838,1.23,1.23,0,0,1,.116-.491A4.468,4.468,0,0,0,34.93.819,5.094,5.094,0,0,0,35.711.7c.318-.029.78-.058,1.388-.058a16.056,16.056,0,0,1,2.37.173,8.125,8.125,0,0,1,2.168.636A7.834,7.834,0,0,1,44.9,4.317a7.719,7.719,0,0,1,1.243,4.365,8.45,8.45,0,0,1-1.445,4.8m6.013-4.6A7.894,7.894,0,0,0,49.5,4.491a8.367,8.367,0,0,0-3.093-2.862A11.314,11.314,0,0,0,42.36.3,41.423,41.423,0,0,0,37.416.01h-12V.444c.752.116,1.474.26,2.139.4a3.079,3.079,0,0,1,1.619.9,1.881,1.881,0,0,1,.4.838,7.815,7.815,0,0,1,.2,1.272q.043.694.087,1.474V20.043c0,.809,0,1.532-.029,2.226v1.619c0,.463,0,.925-.029,1.388a9.918,9.918,0,0,1-.116,1.359,5.643,5.643,0,0,1-.2,1.127,1.656,1.656,0,0,1-.347.752,3.249,3.249,0,0,1-1.532,1.012,11.536,11.536,0,0,1-2.023.52v.434H39.122v-.434a6.165,6.165,0,0,1-2.717-.636,3.435,3.435,0,0,1-1.3-1.1,3.058,3.058,0,0,1-.463-1.619c0-.636-.058-1.416-.087-2.313v-6.62h2.284c.867,0,1.763-.029,2.688-.116.925-.058,1.821-.173,2.717-.318a14.24,14.24,0,0,0,2.544-.636,12.4,12.4,0,0,0,2.226-1.127,8.257,8.257,0,0,0,1.937-1.677,8.124,8.124,0,0,0,1.33-2.226,7.383,7.383,0,0,0,.52-2.833" transform="translate(48.033 0.019)" fill="#1d1d1b"/><path d="M49.694,16.748a13.212,13.212,0,0,1-1.012,3.238,7.3,7.3,0,0,1-1.821,2.486,4.027,4.027,0,0,1-2.775.983,5.012,5.012,0,0,1-2.833-.78,5.94,5.94,0,0,1-1.937-2.11,9.87,9.87,0,0,1-1.1-3.064,18.624,18.624,0,0,1-.347-3.671,15.837,15.837,0,0,1,.4-3.5,11.651,11.651,0,0,1,1.185-3.093A7.537,7.537,0,0,1,41.34,5.012a3.861,3.861,0,0,1,2.486-.838,4.8,4.8,0,0,1,2.92.9,7.122,7.122,0,0,1,1.908,2.313,10.468,10.468,0,0,1,1.041,3.035,17.287,17.287,0,0,1,.318,3.093,19.088,19.088,0,0,1-.318,3.209M50.706,5.995a10.026,10.026,0,0,0-3.151-1.879,9.607,9.607,0,0,0-3.411-.636,10.2,10.2,0,0,0-4.163.838,10.618,10.618,0,0,0-3.209,2.226,10.188,10.188,0,0,0-2.833,6.967,10.88,10.88,0,0,0,.954,4.712A9.721,9.721,0,0,0,40.618,23.4,10.5,10.5,0,0,0,44.029,24a9.011,9.011,0,0,0,3.787-.809,10.068,10.068,0,0,0,3.151-2.226,11.54,11.54,0,0,0,2.168-3.353,10.678,10.678,0,0,0,.809-4.076,10.157,10.157,0,0,0-.9-4.423,10.222,10.222,0,0,0-2.313-3.122" transform="translate(64.142 6.58)" fill="#1d1d1b"/><path d="M62.021,22.314c-.347-.145-.752-.318-1.243-.549s-.867-.4-1.127-.549c-.2-.145-.318-.26-.347-.376a1.283,1.283,0,0,1-.058-.52V3.64H52.135V4.1c.607.058,1.214.116,1.792.2a5.38,5.38,0,0,1,1.359.347,2.062,2.062,0,0,1,.347.983,8.674,8.674,0,0,1,.087,1.07V18.758a8.874,8.874,0,0,1-.838.983,6.839,6.839,0,0,1-.983.838,4.109,4.109,0,0,1-1.185.578,4.936,4.936,0,0,1-1.561.231c-1.561,0-2.631-.434-3.18-1.33a7.708,7.708,0,0,1-.838-4.1V3.64h-6.5V4.1c.26,0,.52.058.809.058a3.644,3.644,0,0,1,.809.116,2.47,2.47,0,0,1,.694.26,1.152,1.152,0,0,1,.491.549,1.133,1.133,0,0,1,.116.4,5.3,5.3,0,0,0,.058.607c0,.2.029.4.029.607V17.486a7.291,7.291,0,0,0,1.3,4.683,4.839,4.839,0,0,0,3.989,1.619,6.318,6.318,0,0,0,2.226-.376,6.975,6.975,0,0,0,1.879-1.041,12.086,12.086,0,0,0,1.532-1.445,9.84,9.84,0,0,0,1.127-1.532v.058l.029,4.278h.289l6.013-1.1v-.26Z" transform="translate(76.791 6.882)" fill="#1d1d1b"/><path d="M65.149,17.577a8.976,8.976,0,0,1-1.416,2.833,6.781,6.781,0,0,1-2.023,1.85,4.4,4.4,0,0,1-2.37.665,4.857,4.857,0,0,1-2.284-.491,3.923,3.923,0,0,1-1.388-1.272,5.132,5.132,0,0,1-.723-1.734,14.4,14.4,0,0,1-.289-1.85c0-.636-.058-1.3-.058-1.937V9.454a2.115,2.115,0,0,1,.318-.809,3.9,3.9,0,0,1,.925-1.07,6.115,6.115,0,0,1,1.474-.925,4.678,4.678,0,0,1,1.966-.4,6.162,6.162,0,0,1,2.8.607A5.229,5.229,0,0,1,64.05,8.5a7.269,7.269,0,0,1,1.156,2.428,11.126,11.126,0,0,1,.376,3.006,11.8,11.8,0,0,1-.52,3.584m2.457-11.1a7.322,7.322,0,0,0-2.4-2.11A7.2,7.2,0,0,0,61.68,3.5a5.337,5.337,0,0,0-2.255.463,9.073,9.073,0,0,0-1.908,1.156,11.415,11.415,0,0,0-1.59,1.532,16.194,16.194,0,0,0-1.3,1.648l-.058-.087V3.47h-.26L48.065,5.927v.26c.347.145.78.347,1.359.607.549.26.983.463,1.214.607.2.145.318.26.347.376a2.153,2.153,0,0,1,.058.52V31.712a.75.75,0,0,1-.347.607,3.234,3.234,0,0,1-.9.434,10.656,10.656,0,0,1-1.127.289c-.4.058-.723.116-1.012.145v.463H58.1v-.463c-.289,0-.607-.058-.983-.087a6.707,6.707,0,0,1-1.1-.145,4.672,4.672,0,0,1-.9-.289.782.782,0,0,1-.463-.578V27.607c0-.838,0-1.648-.029-2.4V23.474a10.156,10.156,0,0,0,1.532.2c.491,0,.983.029,1.5.029a13.442,13.442,0,0,0,4.943-.838,10.405,10.405,0,0,0,3.7-2.284,10.063,10.063,0,0,0,2.341-3.5,11.536,11.536,0,0,0,.809-4.394,11.69,11.69,0,0,0-.462-3.324,9.293,9.293,0,0,0-1.416-2.949" transform="translate(90.082 6.561)" fill="#1d1d1b"/><path d="M64.411,1.594v-.2a3.427,3.427,0,0,0-.636-.665,1.947,1.947,0,0,0-1.3-.347L58.08,7.809l.434.26L64.44,1.594Z" transform="translate(109.783 0.718)" fill="#1d1d1b"/><path d="M59.752,8.433a8.224,8.224,0,0,1,1.07-1.879,7.958,7.958,0,0,1,1.648-1.619,3.508,3.508,0,0,1,2.139-.694A3.81,3.81,0,0,1,67.5,5.369a3.731,3.731,0,0,1,1.07,2.688,2.3,2.3,0,0,1-.145.9,3.56,3.56,0,0,1-.434.636,3.288,3.288,0,0,1-.983.2c-.376,0-.752.058-1.185.058H64.059c-.549,0-1.041,0-1.532.029H59.289a6.631,6.631,0,0,1,.463-1.445M70.678,20.054a6.4,6.4,0,0,1-3.7,1.07,7.5,7.5,0,0,1-3.411-.723,7.117,7.117,0,0,1-2.457-1.966,9.585,9.585,0,0,1-1.474-2.862,11.215,11.215,0,0,1-.52-3.411c0-.318,0-.607.029-.9,0-.289.029-.549.029-.78H72.731a7.738,7.738,0,0,0-.809-3.093,6.846,6.846,0,0,0-1.763-2.168,7.306,7.306,0,0,0-2.544-1.3,10.809,10.809,0,0,0-3.093-.434,7.933,7.933,0,0,0-3.7.867,9.4,9.4,0,0,0-2.833,2.255A10.262,10.262,0,0,0,56.2,9.763a9.992,9.992,0,0,0-.636,3.527,13.084,13.084,0,0,0,.665,4.163,10.386,10.386,0,0,0,1.937,3.411A8.116,8.116,0,0,0,61.2,23.118a9.2,9.2,0,0,0,3.931.809,7.488,7.488,0,0,0,3.151-.636,8.107,8.107,0,0,0,2.428-1.619,8.2,8.2,0,0,0,1.619-2.139,7.644,7.644,0,0,0,.752-2.081l-.347-.087A5.076,5.076,0,0,1,70.649,20" transform="translate(105.018 6.599)" fill="#1d1d1b"/><path d="M65.972,8.433a8.224,8.224,0,0,1,1.07-1.879,7.958,7.958,0,0,1,1.648-1.619,3.508,3.508,0,0,1,2.139-.694,3.81,3.81,0,0,1,2.891,1.127,3.731,3.731,0,0,1,1.07,2.688,2.3,2.3,0,0,1-.145.9,3.558,3.558,0,0,1-.434.636,3.288,3.288,0,0,1-.983.2c-.376,0-.752.058-1.185.058H70.279c-.52,0-1.041,0-1.532.029H65.509a6.631,6.631,0,0,1,.462-1.445M76.9,20.054a6.4,6.4,0,0,1-3.7,1.07,7.5,7.5,0,0,1-3.411-.723,7.117,7.117,0,0,1-2.457-1.966,9.585,9.585,0,0,1-1.474-2.862,11.214,11.214,0,0,1-.52-3.411c0-.318,0-.607.029-.9,0-.289.029-.549.029-.78H78.951a7.738,7.738,0,0,0-.809-3.093,6.845,6.845,0,0,0-1.763-2.168,7.306,7.306,0,0,0-2.544-1.3,10.809,10.809,0,0,0-3.093-.434,7.933,7.933,0,0,0-3.7.867,9.4,9.4,0,0,0-2.833,2.255,10.262,10.262,0,0,0-1.792,3.151,9.992,9.992,0,0,0-.636,3.527,13.084,13.084,0,0,0,.665,4.163,10.386,10.386,0,0,0,1.937,3.411,8.116,8.116,0,0,0,3.035,2.255,9.2,9.2,0,0,0,3.931.809,7.488,7.488,0,0,0,3.151-.636,8.107,8.107,0,0,0,2.428-1.619,8.194,8.194,0,0,0,1.619-2.139,7.644,7.644,0,0,0,.752-2.081l-.347-.087A5.076,5.076,0,0,1,76.869,20" transform="translate(116.779 6.599)" fill="#1d1d1b"/><path d="M78.106,12.143c-.549-.145-1.156-.289-1.908-.434-.723-.145-1.416-.289-2.023-.434a6.345,6.345,0,0,1-2.226-1.012,2.693,2.693,0,0,1-.9-2.255A3.994,3.994,0,0,1,71.4,6.3a3.838,3.838,0,0,1,.867-1.214,3.733,3.733,0,0,1,1.214-.752,3.965,3.965,0,0,1,1.416-.26,4.785,4.785,0,0,1,2.081.434A5.073,5.073,0,0,1,78.6,5.726a8.112,8.112,0,0,1,1.3,1.85c.4.723.78,1.5,1.185,2.341l.347-.087L80.91,4.6a17.761,17.761,0,0,0-2.573-.78A14.22,14.22,0,0,0,75.216,3.5a8.784,8.784,0,0,0-2.631.4,7.1,7.1,0,0,0-2.168,1.156,6.389,6.389,0,0,0-1.474,1.821,4.943,4.943,0,0,0-.549,2.37,5.23,5.23,0,0,0,3.584,5.174,17.3,17.3,0,0,0,1.908.549c.694.173,1.416.318,2.2.463a4.209,4.209,0,0,1,2.255,1.156,3.013,3.013,0,0,1,.809,2.168,4.867,4.867,0,0,1-1.185,3.584A4.419,4.419,0,0,1,74.753,23.5a4.552,4.552,0,0,1-2.4-.607,6.357,6.357,0,0,1-1.734-1.561,10.6,10.6,0,0,1-1.214-2.081,20.321,20.321,0,0,1-.838-2.139H68.22v5.579a13.833,13.833,0,0,0,3.035.983,16.885,16.885,0,0,0,3.5.347,12.536,12.536,0,0,0,2.977-.347,7.64,7.64,0,0,0,2.515-1.1,5.771,5.771,0,0,0,1.763-1.966,5.978,5.978,0,0,0,.665-2.862,5.194,5.194,0,0,0-1.33-3.642,6.166,6.166,0,0,0-3.238-1.937" transform="translate(128.955 6.617)" fill="#1d1d1b"/><path d="M105.5,21.215c-.2-.145-.318-.26-.347-.376a2.153,2.153,0,0,1-.058-.52V3.64H97.985V4.1c.607.058,1.214.116,1.792.2a5.38,5.38,0,0,1,1.359.347,2.062,2.062,0,0,1,.347.983,8.674,8.674,0,0,1,.087,1.07V18.758a8.872,8.872,0,0,1-.838.983,6.839,6.839,0,0,1-.983.838,6.507,6.507,0,0,1-1.185.607A4.936,4.936,0,0,1,97,21.418c-1.561,0-2.631-.434-3.18-1.33a7.755,7.755,0,0,1-.838-4.134V3.64h-6.5V4.1c.26,0,.52.058.809.058a3.644,3.644,0,0,1,.809.116,2.47,2.47,0,0,1,.694.26,1.152,1.152,0,0,1,.491.549,1.133,1.133,0,0,1,.116.4,4.347,4.347,0,0,0,.058.578c0,.2.029.4.029.607V17.458a7.291,7.291,0,0,0,1.3,4.683,4.825,4.825,0,0,0,3.989,1.59A6.318,6.318,0,0,0,97,23.355a6.975,6.975,0,0,0,1.879-1.041,10.407,10.407,0,0,0,1.532-1.445,11.416,11.416,0,0,0,1.127-1.532h.058v4.307h.289l6.013-1.1v-.26c-.347-.145-.752-.318-1.243-.549s-.867-.4-1.127-.549" transform="translate(163.479 6.882)" fill="#1d1d1b"/><path d="M104.185,12.143c-.549-.145-1.156-.289-1.908-.434-.723-.145-1.416-.289-2.023-.434A6.757,6.757,0,0,1,98,10.264a2.693,2.693,0,0,1-.9-2.255A3.994,3.994,0,0,1,97.45,6.3a3.839,3.839,0,0,1,.867-1.214,3.733,3.733,0,0,1,1.214-.752,3.965,3.965,0,0,1,1.416-.26,4.785,4.785,0,0,1,2.081.434,5.073,5.073,0,0,1,1.619,1.214,8.112,8.112,0,0,1,1.3,1.85c.4.723.78,1.5,1.185,2.341l.347-.087L106.96,4.6a17.762,17.762,0,0,0-2.573-.78,14.22,14.22,0,0,0-3.122-.318,8.784,8.784,0,0,0-2.631.4,7.1,7.1,0,0,0-2.168,1.156,6.389,6.389,0,0,0-1.474,1.821,4.943,4.943,0,0,0-.549,2.37,5.23,5.23,0,0,0,3.584,5.174,17.3,17.3,0,0,0,1.908.549c.694.173,1.416.318,2.2.463a4.209,4.209,0,0,1,2.255,1.156,3.013,3.013,0,0,1,.809,2.168,4.867,4.867,0,0,1-1.185,3.584A4.419,4.419,0,0,1,100.8,23.5a4.552,4.552,0,0,1-2.4-.607,6.357,6.357,0,0,1-1.734-1.561,10.6,10.6,0,0,1-1.214-2.081,20.322,20.322,0,0,1-.838-2.139H94.27v5.579a13.833,13.833,0,0,0,3.035.983,16.885,16.885,0,0,0,3.5.347,12.535,12.535,0,0,0,2.977-.347,7.64,7.64,0,0,0,2.515-1.1,5.771,5.771,0,0,0,1.763-1.966,5.978,5.978,0,0,0,.665-2.862,5.194,5.194,0,0,0-1.33-3.642,6.166,6.166,0,0,0-3.238-1.937" transform="translate(178.208 6.617)" fill="#1d1d1b"/><path d="M109.655,12.143c-.549-.145-1.156-.289-1.908-.434-.723-.145-1.416-.289-2.023-.434a6.757,6.757,0,0,1-2.255-1.012,2.693,2.693,0,0,1-.9-2.255A3.994,3.994,0,0,1,102.92,6.3a3.839,3.839,0,0,1,.867-1.214A3.732,3.732,0,0,1,105,4.338a3.965,3.965,0,0,1,1.416-.26,4.785,4.785,0,0,1,2.081.434,5.073,5.073,0,0,1,1.619,1.214,8.113,8.113,0,0,1,1.3,1.85c.4.723.78,1.5,1.185,2.341l.347-.087L112.43,4.6a17.76,17.76,0,0,0-2.573-.78,14.22,14.22,0,0,0-3.122-.318,8.784,8.784,0,0,0-2.631.4,7.1,7.1,0,0,0-2.168,1.156,6.389,6.389,0,0,0-1.474,1.821,4.943,4.943,0,0,0-.549,2.37,5.23,5.23,0,0,0,3.584,5.174,17.3,17.3,0,0,0,1.908.549c.694.173,1.416.318,2.2.463a4.208,4.208,0,0,1,2.255,1.156,3.013,3.013,0,0,1,.809,2.168,4.867,4.867,0,0,1-1.185,3.584,4.419,4.419,0,0,1-3.209,1.156,4.552,4.552,0,0,1-2.4-.607,6.357,6.357,0,0,1-1.734-1.561,10.6,10.6,0,0,1-1.214-2.081,20.321,20.321,0,0,1-.838-2.139H99.74v5.579a13.833,13.833,0,0,0,3.035.983,16.885,16.885,0,0,0,3.5.347,12.535,12.535,0,0,0,2.977-.347,7.641,7.641,0,0,0,2.515-1.1,5.771,5.771,0,0,0,1.763-1.966,5.978,5.978,0,0,0,.665-2.862,5.194,5.194,0,0,0-1.33-3.642,6.166,6.166,0,0,0-3.238-1.937" transform="translate(188.55 6.617)" fill="#1d1d1b"/><path d="M109.211,8.433a8.224,8.224,0,0,1,1.07-1.879,7.958,7.958,0,0,1,1.648-1.619,3.508,3.508,0,0,1,2.139-.694,3.81,3.81,0,0,1,2.891,1.127,3.731,3.731,0,0,1,1.07,2.688,2.3,2.3,0,0,1-.145.9,3.557,3.557,0,0,1-.434.636,3.288,3.288,0,0,1-.983.2c-.376,0-.752.058-1.185.058h-1.763c-.52,0-1.041,0-1.532.029h-3.238a6.631,6.631,0,0,1,.463-1.445m10.927,11.621a6.4,6.4,0,0,1-3.7,1.07,7.5,7.5,0,0,1-3.411-.723,7.117,7.117,0,0,1-2.457-1.966,9.584,9.584,0,0,1-1.474-2.862,11.214,11.214,0,0,1-.52-3.411c0-.318,0-.607.029-.9,0-.289.029-.549.029-.78h13.557a7.738,7.738,0,0,0-.809-3.093,6.846,6.846,0,0,0-1.763-2.168,7.306,7.306,0,0,0-2.544-1.3,10.809,10.809,0,0,0-3.093-.434,7.933,7.933,0,0,0-3.7.867,9.4,9.4,0,0,0-2.833,2.255,10.262,10.262,0,0,0-1.792,3.151,9.992,9.992,0,0,0-.636,3.527,13.083,13.083,0,0,0,.665,4.163,10.867,10.867,0,0,0,1.908,3.411,8.351,8.351,0,0,0,3.035,2.255,9.2,9.2,0,0,0,3.931.809,7.487,7.487,0,0,0,3.151-.636,8.107,8.107,0,0,0,2.428-1.619,8.194,8.194,0,0,0,1.619-2.139,7.643,7.643,0,0,0,.752-2.081l-.347-.087A5.076,5.076,0,0,1,120.081,20" transform="translate(198.533 6.599)" fill="#1d1d1b"/><path d="M124.6,14.061a6.357,6.357,0,0,0-3.238-1.937c-.549-.145-1.156-.289-1.908-.434-.723-.145-1.416-.318-2.023-.434a6.344,6.344,0,0,1-2.226-1.012,2.589,2.589,0,0,1-.9-2.226,3.994,3.994,0,0,1,.347-1.706,3.839,3.839,0,0,1,.867-1.214,3.733,3.733,0,0,1,1.214-.752,3.966,3.966,0,0,1,1.416-.26,4.785,4.785,0,0,1,2.081.434,5.074,5.074,0,0,1,1.619,1.214,8.111,8.111,0,0,1,1.3,1.85c.4.723.781,1.5,1.185,2.341l.347-.087-.52-5.232a17.762,17.762,0,0,0-2.573-.78,14.221,14.221,0,0,0-3.122-.318,8.784,8.784,0,0,0-2.631.4,7.1,7.1,0,0,0-2.168,1.156A6.018,6.018,0,0,0,112.2,6.892a5.023,5.023,0,0,0-.549,2.37,5.23,5.23,0,0,0,3.584,5.174,18.665,18.665,0,0,0,1.879.549c.694.173,1.445.318,2.2.463a4.209,4.209,0,0,1,2.255,1.156,3.013,3.013,0,0,1,.809,2.168,4.793,4.793,0,0,1-1.185,3.556,4.419,4.419,0,0,1-3.209,1.156,4.552,4.552,0,0,1-2.4-.607,6.357,6.357,0,0,1-1.734-1.561,9.338,9.338,0,0,1-1.214-2.081A20.319,20.319,0,0,1,111.8,17.1h-.347v5.579a13.834,13.834,0,0,0,3.035.983,16.886,16.886,0,0,0,3.5.347,12.535,12.535,0,0,0,2.977-.347,7.086,7.086,0,0,0,2.515-1.1,5.771,5.771,0,0,0,1.763-1.966,5.978,5.978,0,0,0,.665-2.862,5.194,5.194,0,0,0-1.33-3.642" transform="translate(210.69 6.636)" fill="#1d1d1b"/><path d="M89.3,15.552c-1.012.087-2.081.145-3.238.145V7.429c0-1.243.029-2.37.058-3.353,0-.636.058-1.156.058-1.5a6.813,6.813,0,0,1,.029-.838,2.076,2.076,0,0,1,.058-.491,2.868,2.868,0,0,1,.087-.434c.2,0,.491-.058.838-.087.376,0,.838-.029,1.445-.029a12.384,12.384,0,0,1,2.341.2,10.242,10.242,0,0,1,2.139.665,7.155,7.155,0,0,1,3.093,2.631,6.983,6.983,0,0,1,1.07,3.787,7.9,7.9,0,0,1-.289,2.2,6.63,6.63,0,0,1-2.515,3.584,8.049,8.049,0,0,1-2.341,1.156,12.254,12.254,0,0,1-2.891.607m6.244,2.457c-.318-.578-.694-1.214-1.012-1.734l.694-.231a16.8,16.8,0,0,0,2.659-1.156,9.783,9.783,0,0,0,2.226-1.619,7.327,7.327,0,0,0,1.532-2.2,6.791,6.791,0,0,0,.578-2.833A7.194,7.194,0,0,0,101,3.989,8.116,8.116,0,0,0,98,1.33,10.291,10.291,0,0,0,93.979.173C92.505.058,90.829,0,88.921,0H77.3V.434a17.156,17.156,0,0,1,1.937.4,3.094,3.094,0,0,1,1.416.925,1.621,1.621,0,0,1,.4.838,8.361,8.361,0,0,1,.2,1.272q.043.694.087,1.474V20.119c0,.809,0,1.561-.029,2.226v1.619a11.14,11.14,0,0,1-.058,1.388,9.915,9.915,0,0,1-.116,1.359,10.556,10.556,0,0,1-.2,1.156,1.656,1.656,0,0,1-.347.752,3.249,3.249,0,0,1-1.532,1.012,12.231,12.231,0,0,1-2.023.52v.434H90.626V30.15a6.139,6.139,0,0,1-2.717-.665,3.6,3.6,0,0,1-1.33-1.127,3.058,3.058,0,0,1-.463-1.619c0-.636-.058-1.416-.087-2.341,0-.925-.029-2.081-.029-3.44v-4.8c.4,0,.723.058.983.058a6.52,6.52,0,0,1,1.243.173,4.587,4.587,0,0,1,2.11,1.07,14.342,14.342,0,0,1,1.33,2.2c7,12.6,14.454,21.767,23.848,21.767a17.839,17.839,0,0,0,8.556-2.4v-.347a20.943,20.943,0,0,1-5.059.723c-7.458,0-13.789-5-23.472-21.449" transform="translate(145.631 0)" fill="#1d1d1b"/></svg>