<svg version="1.0" xmlns="http://www.w3.org/2000/svg"
 width="700.000000pt" height="700.000000pt" viewBox="0 0 700.000000 700.000000"
 preserveAspectRatio="xMidYMid meet">
<g transform="translate(0.000000,700.000000) scale(0.100000,-0.100000)"
fill="#000000" stroke="none">
<path d="M3270 6729 c-450 -37 -806 -133 -1195 -324 -285 -139 -539 -312 -759
-515 -415 -383 -717 -850 -890 -1375 -33 -100 -82 -275 -92 -333 -2 -12 -6
-32 -8 -45 -2 -12 -7 -33 -10 -47 -7 -33 -16 -93 -30 -205 -27 -213 -27 -563
0 -775 11 -87 13 -102 19 -132 3 -18 7 -46 11 -63 3 -16 7 -43 10 -60 14 -74
76 -301 113 -408 201 -587 580 -1117 1070 -1499 42 -32 81 -62 86 -66 6 -5 51
-35 100 -68 252 -169 523 -301 807 -394 95 -30 292 -83 353 -93 17 -3 68 -12
115 -21 162 -28 320 -40 530 -40 232 0 384 13 583 49 353 64 737 206 1044 386
80 48 291 186 303 199 3 3 37 30 75 60 39 30 79 62 90 72 164 143 314 297 430
443 21 28 42 52 46 55 14 11 180 261 228 343 205 351 360 799 407 1177 3 25 7
56 9 70 25 144 25 566 0 765 -57 447 -188 840 -411 1235 -35 62 -179 282 -209
318 -7 9 -48 60 -90 112 -147 183 -398 421 -605 572 -323 235 -721 421 -1106
517 -137 35 -316 68 -409 75 -22 2 -60 7 -85 11 -63 9 -427 12 -530 4z"/>
</g>
</svg>
